<svg xmlns="http://www.w3.org/2000/svg" xmlns:xlink="http://www.w3.org/1999/xlink" width="1920" height="1080" viewBox="0 0 1920 1080">
  <defs>
    <clipPath id="clip-TU_IfA_-_E07_ISO_1">
      <rect width="1920" height="1080"/>
    </clipPath>
  </defs>
  <g id="TU_IfA_-_E07_ISO_1" data-name="TU IfA - E07 ISO – 1" clip-path="url(#clip-TU_IfA_-_E07_ISO_1)">
    <rect width="1920" height="1080" fill="transparent"/>
    <g id="Group_6699" data-name="Group 6699" transform="translate(24.598 -6.406)">
      <g id="_07_STAIR_DOWN" data-name="07_STAIR DOWN" transform="translate(721.425 622.492)">
        <path id="Path_19080" data-name="Path 19080" d="M12365.992,703.4l-41.961-24.234-1.812,1.081v7.967l43.773,25.314Z" transform="translate(-12260.795 -642.654)" stroke="#000" stroke-linejoin="round" stroke-width="2.288" fill-rule="evenodd"/>
        <path id="Path_19081" data-name="Path 19081" d="M12313.141,703.909l43.93,25.314V719.1l-43.93-25.314Z" transform="translate(-12260.538 -643.161)" stroke="#000" stroke-linejoin="round" stroke-width="2.288" fill-rule="evenodd"/>
        <path id="Path_19082" data-name="Path 19082" d="M12393.047,666.64l-43.93-25.31-8.727,5.059,43.852,25.309Z" transform="translate(-12261.433 -641.331)" fill="#fff" stroke="#000" stroke-linejoin="round" stroke-width="2.288" fill-rule="evenodd"/>
        <path id="Path_19083" data-name="Path 19083" d="M12383.883,682.377l-43.766-25.31-8.8,5.064,43.852,25.309Z" transform="translate(-12261.176 -641.881)" fill="#fff" stroke="#000" stroke-linejoin="round" stroke-width="2.288" fill-rule="evenodd"/>
        <path id="Path_19084" data-name="Path 19084" d="M12374.8,698.114l-43.852-25.31-8.727,5.059,43.773,25.309Z" transform="translate(-12260.795 -642.433)" fill="#fff" stroke="#000" stroke-linejoin="round" stroke-width="2.288" fill-rule="evenodd"/>
        <path id="Path_19085" data-name="Path 19085" d="M12365.789,713.855l-43.844-25.314-8.8,5.064,43.93,25.314Z" transform="translate(-12260.538 -642.978)" fill="#fff" stroke="#000" stroke-linejoin="round" stroke-width="2.288" fill-rule="evenodd"/>
        <path id="Path_19086" data-name="Path 19086" d="M12356.633,729.6l-43.852-25.319-8.719,5.064,43.766,25.314Z" transform="translate(-12260.173 -643.529)" fill="#fff" stroke="#000" stroke-linejoin="round" stroke-width="2.288" fill-rule="evenodd"/>
        <path id="Path_19087" data-name="Path 19087" d="M12347.539,745.324l-43.766-25.31-8.8,5.059,43.852,25.309Z" transform="translate(-12259.9 -644.08)" fill="#fff" stroke="#000" stroke-linejoin="round" stroke-width="2.288" fill-rule="evenodd"/>
        <path id="Path_19088" data-name="Path 19088" d="M12338.453,761.061l-43.852-25.31-8.719,5.064,43.766,25.309Z" transform="translate(-12259.527 -644.631)" fill="#fff" stroke="#000" stroke-linejoin="round" stroke-width="2.288" fill-rule="evenodd"/>
        <path id="Path_19089" data-name="Path 19089" d="M12320.727,781.856l8.727-5.059-43.852-25.31-8.8,5.059Z" transform="translate(-12259.263 -645.182)" fill="#fff" stroke="#000" stroke-linejoin="round" stroke-width="2.288" fill-rule="evenodd"/>
        <path id="Path_19090" data-name="Path 19090" d="M12311.484,797.6l8.8-5.063-43.852-25.31-8.719,5.064Z" transform="translate(-12258.907 -645.733)" fill="#fff" stroke="#000" stroke-linejoin="round" stroke-width="2.288" fill-rule="evenodd"/>
        <path id="Path_19091" data-name="Path 19091" d="M12311.211,808.277l-43.773-25.314-8.8,5.059,43.852,25.314Z" transform="translate(-12258.633 -646.279)" fill="#fff" stroke="#000" stroke-linejoin="round" stroke-width="2.288" fill-rule="evenodd"/>
        <path id="Path_19092" data-name="Path 19092" d="M12384.242,671.885l-43.852-25.309V656.7l43.852,25.31Z" transform="translate(-12261.433 -641.514)" stroke="#000" stroke-linejoin="round" stroke-width="2.288" fill-rule="evenodd"/>
        <path id="Path_19093" data-name="Path 19093" d="M12375.164,697.745V687.622l-43.852-25.309v10.123Z" transform="translate(-12261.176 -642.066)" stroke="#000" stroke-linejoin="round" stroke-width="2.288" fill-rule="evenodd"/>
        <path id="Path_19094" data-name="Path 19094" d="M12347.828,734.837l-43.766-25.314v10.127l43.766,25.31Z" transform="translate(-12260.173 -643.713)" stroke="#000" stroke-linejoin="round" stroke-width="2.288" fill-rule="evenodd"/>
        <path id="Path_19095" data-name="Path 19095" d="M12338.82,750.574l-43.852-25.314v10.127l43.852,25.31Z" transform="translate(-12259.9 -644.264)" stroke="#000" stroke-linejoin="round" stroke-width="2.288" fill-rule="evenodd"/>
        <path id="Path_19096" data-name="Path 19096" d="M12329.648,776.429V766.306L12285.883,741V751.12Z" transform="translate(-12259.527 -644.815)" stroke="#000" stroke-linejoin="round" stroke-width="2.288" fill-rule="evenodd"/>
        <path id="Path_19097" data-name="Path 19097" d="M12320.727,782.043l-43.93-25.309v10.127l43.93,25.31Z" transform="translate(-12259.263 -645.366)" stroke="#000" stroke-linejoin="round" stroke-width="2.288" fill-rule="evenodd"/>
        <path id="Path_19098" data-name="Path 19098" d="M12311.484,807.908V797.78l-43.766-25.309v10.123Z" transform="translate(-12258.907 -645.918)" stroke="#000" stroke-linejoin="round" stroke-width="2.288" fill-rule="evenodd"/>
        <path id="Path_19099" data-name="Path 19099" d="M12302.484,813.521l-43.852-25.314V798.33l43.852,25.314Z" transform="translate(-12258.633 -646.462)" stroke="#000" stroke-linejoin="round" stroke-width="2.288" fill-rule="evenodd"/>
      </g>
      <path id="_07_FLUR_02" data-name="07_FLUR_02" d="M12493.367,497.925,12785.7,329.151l116.93,67.51L12611.32,564.739Z" transform="translate(-11545.367 -7.926)" fill="#fff"/>
      <path id="_07_FGHEHL_FLOOR" data-name="07_FGHEHL_FLOOR" d="M12766.578,325.481l-175.406-101.264L12386.539,342.36l-146.172,28.128v56.26L12094.2,454.891l.078,56.245-146.172,28.124v56.267l175.328,101.264,350.8-202.531Z" transform="translate(-11526.354 -4.258)" fill="#fff" fill-rule="evenodd"/>
      <g id="_07_FACADE_LEFT" data-name="07_FACADE_LEFT" transform="translate(246.402 209.832)">
        <path id="Path_19074" data-name="Path 19074" d="M12220.727,247.478l29.156,50.633v72.011l146.172-28.129V213.723Z" transform="translate(-11782.251 -213.723)" fill="#fff" stroke="#000" stroke-linejoin="round" stroke-width="2.288" fill-rule="evenodd"/>
        <path id="Path_19075" data-name="Path 19075" d="M12220.727,248.7v56.26l29.156-5.626Z" transform="translate(-11782.251 -214.945)" fill="#fff" stroke="#000" stroke-linejoin="round" stroke-width="2.288" fill-rule="evenodd"/>
        <path id="Path_19076" data-name="Path 19076" d="M12244.578,301.214l-175.32,33.75,29.148,50.624v72l146.172-28.124Z" transform="translate(-11776.98 -216.781)" fill="#fff" stroke="#000" stroke-linejoin="round" stroke-width="2.288" fill-rule="evenodd"/>
        <path id="Path_19077" data-name="Path 19077" d="M12069.258,336.185v56.247l29.148-5.624Z" transform="translate(-11776.98 -218.005)" fill="#fff" stroke="#000" stroke-linejoin="round" stroke-width="2.288" fill-rule="evenodd"/>
        <path id="Path_19078" data-name="Path 19078" d="M11917.828,422.389l29.234,50.624v72l146.094-28.124V388.641Z" transform="translate(-11771.738 -219.837)" fill="#fff" stroke="#000" stroke-linejoin="round" stroke-width="2.288" fill-rule="evenodd"/>
        <path id="Path_19079" data-name="Path 19079" d="M11917.828,423.612v56.252l29.234-5.624Z" transform="translate(-11771.738 -221.06)" fill="#fff" stroke="#000" stroke-linejoin="round" stroke-width="2.288" fill-rule="evenodd"/>
        <path id="Path_19163" data-name="Path 19163" d="M11795.563,643.8V561.663l-29.156-50.624V649.427l29.156,50.619Z" transform="translate(-11766.406 -224.115)" fill="#fff" stroke="#000" stroke-linejoin="round" stroke-width="2.288" fill-rule="evenodd"/>
        <path id="Path_19164" data-name="Path 19164" d="M11941.727,604.368v-128.3l-175.32,33.748,29.156,50.624V642.58l146.164-28.124Z" transform="translate(-11766.406 -222.894)" fill="#fff" stroke="#000" stroke-linejoin="round" stroke-width="2.288" fill-rule="evenodd"/>
      </g>
      <g id="Grou07_FGHEHL_HATCH_LINEp_7064" data-name="Grou07_FGHEHL_HATCH/LINEp 7064" transform="translate(421.763 219.958)">
        <path id="Path_19102" data-name="Path 19102" d="M12381.008,576.614l108.133-62.445,108.211,62.445,8.719-5.059-116.93-67.515L12372.2,571.556Z" transform="translate(-11962.991 -233.998)" stroke="#000" stroke-linejoin="round" stroke-width="2.288" fill-rule="evenodd"/>
        <path id="Path_19103" data-name="Path 19103" d="M12298.914,608.976l-175.477,101.267-175.328-101.267V619.1l175.328,101.267L12298.914,619.1Z" transform="translate(-11948.109 -237.665)" stroke="#000" stroke-linejoin="round" stroke-width="2.288" fill-rule="evenodd"/>
        <path id="_07_FGHEHL_HATCH_LINE" data-name="07_FGHEHL_HATCH/LINE" d="M12868.344,384.2l-277.172-159.98L12386.539,342.36l-146.172,28.128v56.26L12094.2,454.891l.078,56.245-146.172,28.124v56.267" transform="translate(-11948.109 -224.217)" fill="none" stroke="#000" stroke-linejoin="round" stroke-width="2.288"/>
      </g>
      <g id="_07_FG_Hehl" data-name="07_FG Hehl" transform="translate(422.797 462.906)">
        <path id="Path_19104" data-name="Path 19104" d="M11976.766,528.59l-16.812-9.715V544.14l-10.766-6.257v-61.92l29.625,17.136v10.422l-18.859-10.889V508.5l16.813,9.72Z" transform="translate(-11949.188 -475.963)"/>
        <path id="Path_19105" data-name="Path 19105" d="M12022.836,573.616a10.46,10.46,0,0,1-7.617,1.458,27.6,27.6,0,0,1-9.984-3.777,36.606,36.606,0,0,1-14.383-14.9,49.08,49.08,0,0,1-5.344-22.289V522.963c0-8.526,1.656-14.17,4.875-16.911,3.3-2.745,7.938-2.328,14.148,1.243a35.1,35.1,0,0,1,13.2,12.579c2.984,5.024,4.633,11.218,5.1,18.576l-10.531-6.085c-.312-4.111-1.016-7.205-2.2-9.288a13.268,13.268,0,0,0-5.187-5.211c-2.984-1.685-5.031-1.68-6.367.02-1.414,1.7-2.039,5.231-2.039,10.589V539.7c0,5.644.625,10.167,2.117,13.576a16.264,16.264,0,0,0,7.234,8.006c2.117,1.238,3.766,1.739,5.188,1.513l.938-.211V551.229l-7.539-4.381v-9.44l18.383,10.653Z" transform="translate(-11950.439 -476.951)"/>
        <path id="Path_19106" data-name="Path 19106" d="M11986.75,627.824l-10.844-6.228V595.1l-15.953-9.233v26.5l-10.766-6.248V544.195l10.766,6.252V575.5l15.953,9.229V559.676l10.844,6.232Z" transform="translate(-11949.188 -478.348)"/>
        <path id="Path_19107" data-name="Path 19107" d="M12024.9,623.011l-16.9-9.734v16.414l19.961,11.523v10.378l-30.8-17.78v-61.92l30.727,17.736v10.417L12008,588.566v14.627l16.9,9.74Z" transform="translate(-11950.85 -479.318)"/>
        <path id="Path_19108" data-name="Path 19108" d="M12073.227,677.671l-10.844-6.233v-26.5l-16.031-9.224v26.493l-10.844-6.248V594.037l10.844,6.252v25.054l16.031,9.229V609.523l10.844,6.228Z" transform="translate(-11952.188 -480.089)"/>
        <path id="Path_19109" data-name="Path 19109" d="M12094.328,679.533l18.938,10.972v10.378l-29.781-17.225V621.734l10.844,6.257Z" transform="translate(-11953.858 -481.06)"/>
      </g>
      <g id="_00_ELEVATOR" data-name="00_ELEVATOR" transform="translate(905.402 102.406)">
        <path id="Path_20488" data-name="Path 20488" d="M960,152.989l58.455-33.749V897.6l-58.441,33.741Z" transform="translate(-930.772 -102.994)" fill="#fff" stroke="#000" stroke-linejoin="round" stroke-width="2" fill-rule="evenodd"/>
        <path id="Path_20489" data-name="Path 20489" d="M958.941,153.6l-29.227-16.874.012,778.355,29.227,16.874Z" transform="translate(-929.714 -103.605)" fill="#fff" stroke="#000" stroke-linejoin="round" stroke-width="2" fill-rule="evenodd"/>
        <path id="Path_20490" data-name="Path 20490" d="M929.714,135.547l29.227,16.874,58.49-33.76-28.377-16.256Z" transform="translate(-929.714 -102.406)" fill="#fff" stroke="#000" stroke-linejoin="round" stroke-width="2" fill-rule="evenodd"/>
        <line id="Line_7318" data-name="Line 7318" y2="32.609" transform="translate(59.341)" fill="none" stroke="#000" stroke-linecap="round" stroke-linejoin="round" stroke-width="2"/>
        <g id="_03_ELEVATOR_DOOR" data-name="03_ELEVATOR DOOR" transform="translate(2.668 440.801)">
          <path id="Path_19686" data-name="Path 19686" d="M4772.833,619.094V558.909l23.22,13.406V632.5Z" transform="translate(-4772.833 -558.909)" fill="#fff" stroke="#000" stroke-linejoin="round" stroke-width="1" fill-rule="evenodd"/>
          <path id="Path_19687" data-name="Path 19687" d="M4784.856,626.036V565.851l11.61,6.7v60.186Z" transform="translate(-4773.247 -559.148)" fill="#fff" stroke="#000" stroke-linejoin="round" stroke-width="1" fill-rule="evenodd"/>
          <path id="Path_19688" data-name="Path 19688" d="M4772.833,619.094V558.909l11.61,6.7V625.8Z" transform="translate(-4772.833 -558.909)" fill="#fff" stroke="#000" stroke-linejoin="round" stroke-width="1" fill-rule="evenodd"/>
        </g>
      </g>
      <g id="_07_FLUR" data-name="07_FLUR" transform="translate(772.56 557.513)">
        <path id="Path_19117" data-name="Path 19117" d="M12487.008,641.512l-58.469,33.757L12311.6,607.754,12370.07,574Z" transform="translate(-12311.602 -573.997)" fill="#fff" fill-rule="evenodd"/>
        <path id="Path_19118" data-name="Path 19118" d="M12311.6,608.976l116.938,67.509-9.352,5.438L12311.6,619.1V608.976" transform="translate(-12311.602 -575.22)" stroke="#000" stroke-linejoin="round" stroke-width="2.288" fill-rule="evenodd"/>
        <line id="Line_7291" data-name="Line 7291" x1="116.932" y1="67.511" transform="translate(0 33.755)" fill="#fff" stroke="#000" stroke-linecap="round" stroke-linejoin="round" stroke-width="2.288"/>
        <line id="Line_7295" data-name="Line 7295" x2="116.932" y2="67.511" transform="translate(58.466 0.001)" fill="#fff" stroke="#000" stroke-linecap="round" stroke-linejoin="round" stroke-width="2.288"/>
      </g>
      <g id="_07_BILDENE_KUNST_HATCH7LINE" data-name="07_BILDENE KUNST_HATCH7LINE" transform="translate(772.56 388.736)">
        <path id="Path_19120" data-name="Path 19120" d="M12428.539,669.15,12311.6,736.662l175.406,101.264,584.672-337.555-175.4-101.264m-409.273,236.285,116.938-67.509" transform="translate(-12311.602 -399.107)" fill="#fff" fill-rule="evenodd"/>
        <line id="Line_7292" data-name="Line 7292" y1="67.511" x2="116.932" transform="translate(0 270.043)" fill="none" stroke="#000" stroke-linecap="round" stroke-miterlimit="10" stroke-width="2.288"/>
        <line id="Line_7293" data-name="Line 7293" x1="116.932" y2="67.511" transform="translate(175.398 168.778)" fill="none" stroke="#000" stroke-linecap="round" stroke-miterlimit="10" stroke-width="2.288"/>
        <line id="Line_7294" data-name="Line 7294" x2="175.398" y2="101.266" transform="translate(584.661 0)" fill="none" stroke="#000" stroke-linecap="round" stroke-miterlimit="10" stroke-width="2.288"/>
        <path id="Path_19121" data-name="Path 19121" d="M12311.6,750.459l175.406,101.267,292.336-168.781,146.086-84.366,146.25-84.41V504.041l-69.391,40.088-76.859,44.322-73,42.186-73.086,42.181L12487.008,841.6,12311.6,740.332Z" transform="translate(-12311.602 -402.776)" stroke="#000" stroke-linejoin="round" stroke-width="2.288" fill-rule="evenodd"/>
      </g>
      <g id="_07_STAIR_UP" data-name="07_STAIR UP" transform="translate(667.342 518.737)">
        <path id="Path_19122" data-name="Path 19122" d="M12282.7,586.273l-43.766,25.309v10.123l43.766-25.31Z" transform="translate(-12203.861 -535.648)" stroke="#000" stroke-linejoin="round" stroke-width="2.288" fill-rule="evenodd"/>
        <path id="Path_19123" data-name="Path 19123" d="M12311.336,737.3l43.766-25.309-8.719-5.064-43.852,25.31Z" transform="translate(-12206.039 -539.868)" fill="#fff" stroke="#000" stroke-linejoin="round" stroke-width="2.288" fill-rule="evenodd"/>
        <path id="Path_19124" data-name="Path 19124" d="M12337.211,691.186l-43.766,25.31,8.719,5.059,43.852-25.309Z" transform="translate(-12205.773 -539.317)" fill="#fff" stroke="#000" stroke-linejoin="round" stroke-width="2.288" fill-rule="evenodd"/>
        <path id="Path_19125" data-name="Path 19125" d="M12328.289,675.449l-43.93,25.31,8.8,5.063,43.852-25.309Z" transform="translate(-12205.401 -538.765)" fill="#fff" stroke="#000" stroke-linejoin="round" stroke-width="2.288" fill-rule="evenodd"/>
        <path id="Path_19126" data-name="Path 19126" d="M12319.117,659.712l-43.844,25.314,8.719,5.063,43.93-25.319Z" transform="translate(-12205.137 -538.22)" fill="#fff" stroke="#000" stroke-linejoin="round" stroke-width="2.288" fill-rule="evenodd"/>
        <path id="Path_19127" data-name="Path 19127" d="M12318.828,649.039l-8.719-5.064-43.93,25.319,8.883,5.059Z" transform="translate(-12204.756 -537.669)" fill="#fff" stroke="#000" stroke-linejoin="round" stroke-width="2.288" fill-rule="evenodd"/>
        <path id="Path_19128" data-name="Path 19128" d="M12300.867,628.238l-43.766,25.31,8.719,5.063,43.852-25.309Z" transform="translate(-12204.499 -537.118)" fill="#fff" stroke="#000" stroke-linejoin="round" stroke-width="2.288" fill-rule="evenodd"/>
        <path id="Path_19129" data-name="Path 19129" d="M12291.945,612.5l-43.93,25.31,8.8,5.063,43.766-25.309Z" transform="translate(-12204.126 -536.567)" fill="#fff" stroke="#000" stroke-linejoin="round" stroke-width="2.288" fill-rule="evenodd"/>
        <path id="Path_19130" data-name="Path 19130" d="M12282.7,596.765l-43.766,25.31,8.719,5.063,43.93-25.309Z" transform="translate(-12203.861 -536.016)" fill="#fff" stroke="#000" stroke-linejoin="round" stroke-width="2.288" fill-rule="evenodd"/>
        <path id="Path_19131" data-name="Path 19131" d="M12238.727,611.4l43.773-25.309-8.727-5.064-43.93,25.314Z" transform="translate(-12203.488 -535.464)" fill="#fff" stroke="#000" stroke-linejoin="round" stroke-width="2.288" fill-rule="evenodd"/>
        <path id="Path_19132" data-name="Path 19132" d="M12211.3,564.19l43.93-25.309-8.883-5.064-43.766,25.31Z" transform="translate(-12202.586 -533.817)" fill="#fff" stroke="#000" stroke-linejoin="round" stroke-width="2.288" fill-rule="evenodd"/>
        <path id="Path_19133" data-name="Path 19133" d="M12211.672,574.864l8.8,5.063,43.773-25.314-1.023-.624-7.7-4.435-8.172,4.764Z" transform="translate(-12202.86 -534.368)" fill="#fff" stroke="#000" stroke-linejoin="round" stroke-width="2.288" fill-rule="evenodd"/>
        <path id="Path_19134" data-name="Path 19134" d="M12229.477,595.669l43.852-25.314-8.8-5.064-43.766,25.314Z" transform="translate(-12203.224 -534.92)" fill="#fff" stroke="#000" stroke-linejoin="round" stroke-width="2.288" fill-rule="evenodd"/>
        <path id="Path_19135" data-name="Path 19135" d="M12255.523,549.186V539.063l-43.852,25.309V574.5Z" transform="translate(-12202.86 -534.001)" stroke="#000" stroke-linejoin="round" stroke-width="2.288" fill-rule="evenodd"/>
        <path id="Path_19136" data-name="Path 19136" d="M12264.523,554.8l-43.766,25.314v10.128l43.766-25.319Z" transform="translate(-12203.224 -534.552)" stroke="#000" stroke-linejoin="round" stroke-width="2.288" fill-rule="evenodd"/>
        <path id="Path_19137" data-name="Path 19137" d="M12273.773,570.537l-43.93,25.314v10.123l43.93-25.31Z" transform="translate(-12203.488 -535.103)" stroke="#000" stroke-linejoin="round" stroke-width="2.288" fill-rule="evenodd"/>
        <path id="Path_19138" data-name="Path 19138" d="M12291.945,602.01l-43.93,25.314v10.123l43.93-25.31Z" transform="translate(-12204.126 -536.2)" stroke="#000" stroke-linejoin="round" stroke-width="2.288" fill-rule="evenodd"/>
        <path id="Path_19139" data-name="Path 19139" d="M12300.867,617.747l-43.766,25.309v10.123l43.766-25.31Z" transform="translate(-12204.499 -536.75)" stroke="#000" stroke-linejoin="round" stroke-width="2.288" fill-rule="evenodd"/>
        <path id="Path_19140" data-name="Path 19140" d="M12310.109,633.484l-43.93,25.309v10.133l43.93-25.314Z" transform="translate(-12204.756 -537.302)" stroke="#000" stroke-linejoin="round" stroke-width="2.288" fill-rule="evenodd"/>
        <path id="Path_19141" data-name="Path 19141" d="M12319.117,649.221l-43.844,25.314v10.123l43.844-25.314Z" transform="translate(-12205.137 -537.853)" stroke="#000" stroke-linejoin="round" stroke-width="2.288" fill-rule="evenodd"/>
        <path id="Path_19142" data-name="Path 19142" d="M12328.289,675.09V664.958l-43.93,25.319V700.4Z" transform="translate(-12205.401 -538.404)" stroke="#000" stroke-linejoin="round" stroke-width="2.288" fill-rule="evenodd"/>
        <path id="Path_19143" data-name="Path 19143" d="M12337.211,680.695,12293.445,706v10.123l43.766-25.31Z" transform="translate(-12205.773 -538.949)" stroke="#000" stroke-linejoin="round" stroke-width="2.288" fill-rule="evenodd"/>
        <path id="Path_19144" data-name="Path 19144" d="M12346.383,696.431l-43.852,25.309v10.123l43.852-25.31Z" transform="translate(-12206.039 -539.5)" stroke="#000" stroke-linejoin="round" stroke-width="2.288" fill-rule="evenodd"/>
        <path id="Path_19145" data-name="Path 19145" d="M12311.6,737.477V747.6l43.852-25.31V712.168Z" transform="translate(-12206.396 -540.051)" stroke="#000" stroke-linejoin="round" stroke-width="2.288" fill-rule="evenodd"/>
      </g>
      <g id="_07_STAIR_SPIRAL" data-name="07_STAIR_SPIRAL" transform="translate(1084.701 315.63)">
        <path id="Path_19146" data-name="Path 19146" d="M12676.438,442.318v20.25l14.141-22.421-14.141-1.444Z" transform="translate(-12636.526 -327.387)" fill="#fff" stroke="#000" stroke-linejoin="round" stroke-width="2.288" fill-rule="evenodd"/>
        <path id="Path_19147" data-name="Path 19147" d="M12643.313,426.031v-9.98l-8.25,1.282,7.938,8.855Z" transform="translate(-12635.063 -326.593)" fill="#fff" stroke="#000" stroke-linejoin="round" stroke-width="2.288" fill-rule="evenodd"/>
        <path id="Path_19148" data-name="Path 19148" d="M12661.922,407.228l-17.289,8.359.625.58.633.563.625.535.633.518.7.489.711.469.7.447.711.417.781.4.789.366.789.346c.078.057,5.578-3.055,5.578-3.055v-5.435Z" transform="translate(-12635.429 -326.286)" fill="#fff" stroke="#000" stroke-linejoin="round" stroke-width="2.288" fill-rule="evenodd"/>
        <path id="Path_19149" data-name="Path 19149" d="M12662.344,406.626l-4.008,5,17.445,2.232v-23.86Z" transform="translate(-12635.86 -325.684)" fill="#fff" stroke="#000" stroke-linejoin="round" stroke-width="2.288" fill-rule="evenodd"/>
        <path id="Path_19150" data-name="Path 19150" d="M12693.883,401.13l-17.445-21.628v23.863Z" transform="translate(-12636.526 -325.317)" fill="#fff" stroke="#000" stroke-linejoin="round" stroke-width="2.288" fill-rule="evenodd"/>
        <path id="Path_19151" data-name="Path 19151" d="M12695.758,390.123l12.414-5.776-31.75-15.336,17.453,21.626Z" transform="translate(-12636.511 -324.949)" fill="#fff" stroke="#000" stroke-linejoin="round" stroke-width="2.288" fill-rule="evenodd"/>
        <path id="Path_19152" data-name="Path 19152" d="M12708.1,373.858l8.25-9.163-39.914-6.176Z" transform="translate(-12636.526 -324.582)" fill="#fff" stroke="#000" stroke-linejoin="round" stroke-width="2.288" fill-rule="evenodd"/>
        <path id="Path_19153" data-name="Path 19153" d="M12717.063,332.9l-6.836-9.543-33.789,13.688Z" transform="translate(-12636.526 -323.354)" fill="#fff" stroke="#000" stroke-linejoin="round" stroke-width="2.288" fill-rule="evenodd"/>
        <path id="Path_19154" data-name="Path 19154" d="M12716.352,354.056l.711-10.322-40.625,4.145Z" transform="translate(-12636.526 -324.065)" fill="#fff" stroke="#000" stroke-linejoin="round" stroke-width="2.288" fill-rule="evenodd"/>
        <path id="Path_19155" data-name="Path 19155" d="M12690.578,450.686l-14.141,22.421,29.227-16.871Z" transform="translate(-12636.526 -327.805)" fill="#fff" stroke="#000" stroke-linejoin="round" stroke-width="2.288" fill-rule="evenodd"/>
        <path id="Path_19156" data-name="Path 19156" d="M12676.438,347.511l40.625-4.143V333.243l-40.625,4.146Z" transform="translate(-12636.526 -323.7)" stroke="#000" stroke-linejoin="round" stroke-width="2.288" fill-rule="evenodd"/>
        <path id="Path_19157" data-name="Path 19157" d="M12716.352,364.327V354.2l-39.914-6.176v10.125Z" transform="translate(-12636.526 -324.217)" stroke="#000" stroke-linejoin="round" stroke-width="2.288" fill-rule="evenodd"/>
        <path id="Path_19158" data-name="Path 19158" d="M12676.438,368.647l31.664,15.336V373.858l-31.664-15.339Z" transform="translate(-12636.526 -324.582)" stroke="#000" stroke-linejoin="round" stroke-width="2.288" fill-rule="evenodd"/>
        <path id="Path_19159" data-name="Path 19159" d="M12693.883,400.761V390.636l-17.445-21.625v10.123Z" transform="translate(-12636.526 -324.949)" stroke="#000" stroke-linejoin="round" stroke-width="2.288" fill-rule="evenodd"/>
        <path id="Path_19160" data-name="Path 19160" d="M12635.063,427.325l22.945,7.215,15.164,15.174,1.813,11.933V414.639l-17.453-2.235v5.435l-5.5,3.111c-.078-.056-.859-.4-.859-.4l-.789-.366-.781-.4-.633-.417-.789-.444-.7-.469-.711-.491-.625-.516-.633-.538-.625-.56-.625-.58s-.945.152-.945.152V425.9l-.312.155-7.547-8.438-.391,2.51v7.2Z" transform="translate(-12635.063 -326.466)" stroke="#000" stroke-linejoin="round" stroke-width="2.288" fill-rule="evenodd"/>
        <path id="Path_19161" data-name="Path 19161" d="M12676.438,462.616v10.127l14.141-22.426V440.2Z" transform="translate(-12636.526 -327.437)" stroke="#000" stroke-linejoin="round" stroke-width="2.288" fill-rule="evenodd"/>
        <path id="Path_19162" data-name="Path 19162" d="M12676.438,483.436l29.227-16.876V456.438l-29.227,16.876Z" transform="translate(-12636.526 -328.007)" stroke="#000" stroke-linejoin="round" stroke-width="2.288" fill-rule="evenodd"/>
      </g>
      <g id="_07_BILDENE_KUNST" data-name="07_BILDENE KUNST" transform="translate(1284.64 366.682)">
        <path id="Path_19165" data-name="Path 19165" d="M12842.234,582.44v-59.6l15.875-9.209c5.422-3.114,9.508-4.091,12.336-2.937,2.758,1.154,4.172,4.4,4.172,9.75a23.637,23.637,0,0,1-6.445,16.355c2.273-.569,4.086-.063,5.344,1.513s1.883,4.072,1.883,7.451a29.97,29.97,0,0,1-4.086,15.486,33.855,33.855,0,0,1-12.023,11.331Zm10.375-40.687,5.422-3.134a11.782,11.782,0,0,0,6.211-10.869c0-2.7-.477-4.361-1.492-5-.945-.624-2.516-.324-4.641.9l-5.5,3.192Zm0,8.757v15.928l6.68-3.851a10.8,10.8,0,0,0,4.242-4.46,14.5,14.5,0,0,0,1.492-6.532c0-5.349-1.648-7.122-5.023-5.324Z" transform="translate(-12842.234 -380.936)"/>
        <path id="Path_19166" data-name="Path 19166" d="M12895.3,552.021l-10.375,6.017v-59.6l10.375-6.021Z" transform="translate(-12843.761 -380.314)"/>
        <path id="Path_19167" data-name="Path 19167" d="M12915.18,530.554l18.3-10.56v9.99l-28.68,16.577v-59.6l10.375-6.017Z" transform="translate(-12844.451 -379.913)"/>
        <path id="Path_19168" data-name="Path 19168" d="M12940.8,525.6V466l13.68-7.883q9.07-5.216,14.375-1.689c3.617,2.353,5.422,7.357,5.586,15.015V481.1a43.764,43.764,0,0,1-5.508,21.542,38.318,38.318,0,0,1-14.773,15.24Zm10.453-55.589v39.583l3.063-1.8a17.225,17.225,0,0,0,7.391-7.411c1.492-2.933,2.125-7.009,2.2-12.235V477.784c0-5.565-.633-9.062-2.047-10.481-1.336-1.419-3.539-1.248-6.836.511Z" transform="translate(-12845.66 -379.005)"/>
        <path id="Path_19169" data-name="Path 19169" d="M13009.945,459.656l-16.273,9.371v15.806l19.258-11.1v9.99L12983.3,500.84V441.233l29.547-17.068v10.03l-19.18,11.051v14.082l16.273-9.376Z" transform="translate(-12847.195 -377.929)"/>
        <path id="Path_19170" data-name="Path 19170" d="M13056.219,458.553l-10.375,6.014-15.242-30.292v39.094l-10.375,6.019v-59.6l10.375-6.019,15.242,30.314V404.946l10.375-6Z" transform="translate(-12848.459 -377.046)"/>
        <path id="Path_19171" data-name="Path 19171" d="M13093.016,411.745l-16.266,9.376v15.8l19.172-11.093v9.988l-29.625,17.11v-59.6l29.625-17.073v10.03l-19.172,11.053v14.081l16.266-9.374Z" transform="translate(-12850.061 -376.254)"/>
        <path id="Path_19172" data-name="Path 19172" d="M12907.8,587.312l-4.164,8.35v17.034l-10.375,6.017V559.1l10.375-6.017V579.08l3.375-8.33,9.586-25.108,12.734-7.373L12914.563,573l15.008,24.725-12.414,7.142Z" transform="translate(-12844.052 -381.92)"/>
        <path id="Path_19173" data-name="Path 19173" d="M12968.391,515.746V557a32.618,32.618,0,0,1-4.4,16.783,33.636,33.636,0,0,1-12.5,12.161q-8.367,4.8-12.727,2.323c-2.914-1.64-4.328-5.619-4.328-11.92V535.368l10.453-6.051v41.011c0,3.389.477,5.531,1.414,6.434q1.535,1.341,5.188-.8a11.885,11.885,0,0,0,5.109-5.1,19.723,19.723,0,0,0,1.336-7.878V521.763Z" transform="translate(-12845.499 -381.127)"/>
        <path id="Path_19174" data-name="Path 19174" d="M13013.938,549.023l-10.375,6.021-15.328-30.294v39.091l-10.367,6.017v-59.6l10.367-6.021,15.328,30.314V495.418l10.375-5.992Z" transform="translate(-12846.983 -380.21)"/>
        <path id="Path_19175" data-name="Path 19175" d="M13045.7,515.336q0-3.647-1.656-4.578c-1.016-.619-2.984-.781-5.891-.481q-7.664,1.091-11.078-1.513c-2.281-1.734-3.461-4.671-3.461-8.821a26.772,26.772,0,0,1,4.711-14.764,33.4,33.4,0,0,1,11.711-11.351c3.148-1.832,5.977-2.687,8.414-2.579a6.946,6.946,0,0,1,5.813,3.222,15.982,15.982,0,0,1,1.961,8.423l-10.367,5.992c0-2.78-.477-4.607-1.578-5.472-.937-.864-2.508-.737-4.477.378a11.849,11.849,0,0,0-4.242,4.322,12.638,12.638,0,0,0-1.414,5.894,3.674,3.674,0,0,0,1.57,3.458c1.18.668,3.219.879,6.055.633,5.023-.806,8.719-.339,11,1.4s3.453,4.971,3.453,9.69a27.433,27.433,0,0,1-4.32,14.632,33.083,33.083,0,0,1-11.711,11.115,18.447,18.447,0,0,1-9.109,2.883,7.608,7.608,0,0,1-6.367-3.074q-2.355-3.08-2.359-9.1l10.453-6.036c0,3.438.625,5.6,1.8,6.488,1.1.884,2.984.575,5.578-.943C13043.883,523.062,13045.7,519.786,13045.7,515.336Z" transform="translate(-12848.551 -379.575)"/>
        <path id="Path_19176" data-name="Path 19176" d="M13097.813,450.989l-12.641,7.367v49.578l-10.453,6.036V464.4l-12.578,7.244V461.612l35.672-20.648Z" transform="translate(-12849.98 -378.517)"/>
      </g>
      <g id="_07_COLOMUN_01" data-name="07_COLOMUN_01" transform="translate(1322.302 256.327)">
        <path id="Path_19177" data-name="Path 19177" d="M12898.8,297.2l-17.523-10.123v5.062l17.523,10.127Z" transform="translate(-12881.273 -262.783)" fill="#fff" stroke="#000" stroke-linejoin="round" stroke-width="2.288" fill-rule="evenodd"/>
        <path id="Path_19178" data-name="Path 19178" d="M12923.391,261.9l-42.117,24.3,17.523,10.123,42.117-24.3Z" transform="translate(-12881.273 -261.902)" fill="#fff" stroke="#000" stroke-linejoin="round" stroke-width="2.288" fill-rule="evenodd"/>
        <path id="Path_19179" data-name="Path 19179" d="M12899.43,296.693v5.064l12.344-2.026,17.523-10.123,12.258-12.151v-5.064Z" transform="translate(-12881.896 -262.269)" fill="#fff" stroke="#000" stroke-linejoin="round" stroke-width="2.288" fill-rule="evenodd"/>
        <path id="Path_19180" data-name="Path 19180" d="M12901.453,302.209V442.246l.313.351.156.346.234.336.234.327.32.317.156.312.313.3.313.292.313.28.242.27.391.26.313.248.313.236.32.228.391.214.313.2.391.189.4.177.391.162.391.152.4.14.391.123.391.113.4.1.313.086.391.069.391.054.477.044.391.027.391.015h.4l.391-.015.469-.027.4-.044.391-.054.391-.069.391-.086.4-.1.469-.113.391-.123.4-.14.313-.152.391-.162.391-.177.4-.189.313-.2.313-.214.4-.228.313-.236.391-.248.234-.26.313-.27.32-.28.313-.292.234-.3.313-.312.156-.317.32-.327.234-.336.234-.346.234-.351V294.538l-10.375,5.965Z" transform="translate(-12881.983 -263.043)" fill="#fff" stroke="#000" stroke-linejoin="round" stroke-width="2.288" fill-rule="evenodd"/>
      </g>
      <g id="_07_COLOMUN_01-2" data-name="07_COLOMUN_01" transform="translate(574.944 546.796)">
        <path id="Path_19181" data-name="Path 19181" d="M12124.367,598.194l-17.523-10.123v5.064l17.523,10.123Z" transform="translate(-12106.844 -563.774)" fill="#fff" stroke="#000" stroke-linejoin="round" stroke-width="2.288" fill-rule="evenodd"/>
        <path id="Path_19182" data-name="Path 19182" d="M12148.883,562.893l-42.039,24.3,17.523,10.123,42.047-24.3Z" transform="translate(-12106.844 -562.893)" fill="#fff" stroke="#000" stroke-linejoin="round" stroke-width="2.288" fill-rule="evenodd"/>
        <path id="Path_19183" data-name="Path 19183" d="M12125.016,597.682v5.059l12.258-2.019,17.6-10.127,12.18-12.151v-5.059Z" transform="translate(-12107.481 -563.26)" fill="#fff" stroke="#000" stroke-linejoin="round" stroke-width="2.288" fill-rule="evenodd"/>
        <path id="Path_19184" data-name="Path 19184" d="M12127.023,603.2V743.239l.234.349.313.339.164.339.313.329.156.319.313.31.313.3.242.29.313.28.313.271.234.255.4.255.313.236.391.221.313.216.4.2.391.192.234.172.391.167.4.147.391.143.391.128.4.108.391.1.469.083.391.064.4.064.391.039.391.024.477.02h.391l.391-.02.4-.024.469-.039.391-.064.4-.064.391-.083.391-.1.391-.108.32-.128.391-.143.391-.147.4-.167.391-.172.391-.192.313-.2.4-.216.234-.221.391-.236.313-.255.32-.255.391-.271.234-.28.313-.29.32-.3.156-.31.313-.319.313-.329.156-.339.234-.339.164-.349V595.528l-10.3,5.963Z" transform="translate(-12107.554 -564.03)" fill="#fff" stroke="#000" stroke-linejoin="round" stroke-width="2.288" fill-rule="evenodd"/>
      </g>
    </g>
  </g>
</svg>
