<svg xmlns="http://www.w3.org/2000/svg" xmlns:xlink="http://www.w3.org/1999/xlink" width="1920" height="1080" viewBox="0 0 1920 1080">
  <defs>
    <clipPath id="clip-TU_IfA_-_E03_ISO_1">
      <rect width="1920" height="1080"/>
    </clipPath>
  </defs>
  <g id="TU_IfA_-_E03_ISO_1" data-name="TU IfA - E03 ISO – 1" clip-path="url(#clip-TU_IfA_-_E03_ISO_1)">
    <rect width="1920" height="1080" fill="#fff"/>
    <g id="Group_6696" data-name="Group 6696" transform="translate(25 -6.406)">
      <g id="_03_COLUMN_04" data-name="03_COLUMN_04" transform="translate(1450.788 272.311)">
        <g id="HATCH" transform="translate(0 24.313)">
          <path id="Path_15694" data-name="Path 15694" d="M3488.648,1508.237l-17.547-10.13v5.065l17.547,10.13Z" transform="translate(-3471.101 -1498.107)" fill="#fff" stroke="#000" stroke-linejoin="round" stroke-width="2" fill-rule="evenodd"/>
        </g>
        <g id="HATCH-2" data-name="HATCH">
          <path id="Path_15695" data-name="Path 15695" d="M3513.213,1472.927l-42.112,24.313,17.547,10.13,42.112-24.313Z" transform="translate(-3471.101 -1472.927)" fill="#fff" stroke="#000" stroke-linejoin="round" stroke-width="2" fill-rule="evenodd"/>
        </g>
        <g id="HATCH-3" data-name="HATCH" transform="translate(17.547 10.13)">
          <path id="Path_15696" data-name="Path 15696" d="M3489.273,1507.732v5.065l12.282-2.026,17.547-10.13,12.282-12.157v-5.065Z" transform="translate(-3489.273 -1483.419)" fill="#fff" stroke="#000" stroke-linejoin="round" stroke-width="2" fill-rule="evenodd"/>
        </g>
        <g id="HATCH-4" data-name="HATCH" transform="translate(19.49 31.513)">
          <path id="Path_15697" data-name="Path 15697" d="M3491.285,1513.238V1653.36l.211.351.223.344.235.336.246.328.257.319.268.31.279.3.289.291.3.281.308.271.317.26.326.249.334.238.342.226.35.214.357.2.364.189.37.177.375.164.381.151.386.138.39.125.395.111.4.1.4.084.4.07.406.056.407.042.409.028.41.014h.41l.409-.014.409-.028.407-.042.406-.056.4-.07.4-.084.4-.1.395-.111.391-.125.386-.138.381-.151.375-.164.37-.177.363-.189.357-.2.349-.214.342-.226.334-.238.326-.249.317-.26.308-.271.3-.281.289-.291.279-.3.268-.31.257-.319.246-.328.235-.336.223-.344.211-.351v-147.8l-10.34,5.969Z" transform="translate(-3491.285 -1505.563)" fill="#fff" stroke="#000" stroke-linejoin="round" stroke-width="2" fill-rule="evenodd"/>
        </g>
      </g>
      <g id="_03_GEBÄUDETECHNIK_FLOOR" data-name="03_GEBÄUDETECHNIK_FLOOR" transform="translate(204.397 144.484)">
        <path id="Path_19654" data-name="Path 19654" d="M5187.469,274.407,4263.056,806.8,4044.51,680.623l923.8-534.64Z" transform="translate(-4044.51 -145.982)" fill="#fff"/>
        <path id="Path_19655" data-name="Path 19655" d="M5215.538,274.407,4709.578,566.262" transform="translate(-4072.579 -145.982)" fill="none" stroke="#000" stroke-linecap="round" stroke-linejoin="round" stroke-width="2"/>
        <path id="Path_19720" data-name="Path 19720" d="M4573.683,649.228l-299.133,172.7,8.791,5.075L4580.5,655.443l64.965-37.508,79.408,45.819c0,.006,67.779,39.14,67.779,39.14l8.781-5.069-28.322-16.341-43.858-25.322-83.789-48.376Z" transform="translate(-4052.422 -161.866)" stroke="#000" stroke-linejoin="round" stroke-width="2" fill-rule="evenodd"/>
        <path id="Path_19723" data-name="Path 19723" d="M4718.407,576.346l497.131-287.214v-10.15L4710.251,570.375Z" transform="translate(-4072.579 -150.557)" stroke="#000" stroke-linejoin="round" stroke-width="2"/>
        <path id="Path_19655-2" data-name="Path 19655" d="M4070.527,680.367l925.851-534.385,219.159,128.425-354.93,204.919" transform="translate(-4072.58 -145.982)" fill="none" stroke="#000" stroke-linecap="round" stroke-linejoin="round" stroke-width="2"/>
      </g>
      <g id="_03_GEBÄUDETECHNIK" data-name="03_GEBÄUDETECHNIK" transform="translate(201.206 356.764)">
        <path id="Path_19726" data-name="Path 19726" d="M4054.593,596.01q6.177-3.567,9.337-1.879,3.144,1.7,3.668,8.9l-7.459,4.307q-.326-3.985-1.532-4.806t-3.759.659a10.353,10.353,0,0,0-4.506,5.212,24.859,24.859,0,0,0-1.438,9.146l.022,7.913q.018,5.962,1.572,7.785c1.041,1.216,2.745,1.133,5.113-.234a12.084,12.084,0,0,0,3.671-3.17l.677-.93-.023-8-5.37,3.1-.018-6.652,13.07-7.545.051,18.014a32.632,32.632,0,0,1-5.426,7.291,33.442,33.442,0,0,1-7.055,5.471q-6.548,3.779-10.192,1.215t-3.769-11.412l-.022-7.856a34.906,34.906,0,0,1,3.4-15.875A24.794,24.794,0,0,1,4054.593,596.01Z" transform="translate(-4041.206 -373.658)"/>
        <path id="Path_19727" data-name="Path 19727" d="M4100.055,619.187l.124,43.652-7.669,4.428-11.3-22.16.081,28.634-7.669,4.428-.124-43.652,7.67-4.428,11.326,22.17-.081-28.662Z" transform="translate(-4042.317 -374.538)"/>
        <path id="Path_19728" data-name="Path 19728" d="M4095.874,572.715l.021,7.339-14.087,8.133.029,10.315,11.948-6.9.02,7.105-11.948,6.9.033,11.576,14.143-8.165.021,7.311-21.812,12.593-.124-43.645Z" transform="translate(-4042.338 -372.94)"/>
        <path id="Path_19729" data-name="Path 19729" d="M4128.046,608.151q3.962,2.577,4.063,10.988l.021,7.069A32.073,32.073,0,0,1,4128.216,642a28.415,28.415,0,0,1-10.874,11.188l-9.839,5.682-.124-43.653,10.043-5.8Q4124.081,605.573,4128.046,608.151Zm-3.584,23.236-.021-7.581q-.018-6.119-1.51-7.671c-1-1.035-2.683-.913-5.069.386l-2.793,1.613.083,28.988,2.3-1.328a12.862,12.862,0,0,0,5.394-5.441,21.53,21.53,0,0,0,1.617-8.966" transform="translate(-4043.482 -374.123)"/>
        <path id="Path_19730" data-name="Path 19730" d="M4124.379,580.974q1.386,1.744,1.4,5.459a21.3,21.3,0,0,1-3.011,11.346,24.094,24.094,0,0,1-8.8,8.321l-12.577,7.261-.124-43.645,11.738-6.778q5.947-3.433,9.054-2.182,3.1,1.267,3.113,7.136a16.908,16.908,0,0,1-1.259,6.461,18.034,18.034,0,0,1-3.486,5.524A3.562,3.562,0,0,1,4124.379,580.974Zm-7.307,14.536a10.279,10.279,0,0,0,1.062-4.785q-.017-5.876-3.723-3.89l-5.4,3.118.033,11.667,4.907-2.833a7.808,7.808,0,0,0,3.122-3.278m-8.111-22.884.031,10.917,3.994-2.307a8.569,8.569,0,0,0,4.5-7.976q-.008-2.963-1.06-3.652c-.692-.459-1.828-.236-3.394.668l-4.069,2.349" transform="translate(-4043.272 -372.517)"/>
        <path id="Path_19731" data-name="Path 19731" d="M4136.414,545.432a2.048,2.048,0,0,1-1.068-2.087A6.317,6.317,0,0,1,4136.4,540a7.4,7.4,0,0,1,2.568-2.575,2.817,2.817,0,0,1,2.574-.394,2.093,2.093,0,0,1,1.061,2.126,6.218,6.218,0,0,1-1.046,3.307,7.378,7.378,0,0,1-2.568,2.575A2.778,2.778,0,0,1,4136.414,545.432Z" transform="translate(-4044.444 -371.707)"/>
        <path id="Path_19732" data-name="Path 19732" d="M4152.2,537.413a2.672,2.672,0,0,1-2.623.393,2.149,2.149,0,0,1-1.013-2.091,6.224,6.224,0,0,1,1.047-3.307,7.333,7.333,0,0,1,2.568-2.575,2.778,2.778,0,0,1,2.574-.394,2.05,2.05,0,0,1,1.061,2.09,6.364,6.364,0,0,1-1,3.251A7.126,7.126,0,0,1,4152.2,537.413Z" transform="translate(-4044.898 -371.445)"/>
        <path id="Path_19733" data-name="Path 19733" d="M4173.152,577.083l.021,7.346-14.087,8.133.029,10.315,11.948-6.9.02,7.105-11.948,6.9.033,11.568,14.137-8.162.021,7.318-21.806,12.59-.124-43.652Z" transform="translate(-4044.996 -373.09)"/>
        <path id="Path_19734" data-name="Path 19734" d="M4190.052,518.274l.086,30.214a24.09,24.09,0,0,1-3.232,12.3,24.668,24.668,0,0,1-9.2,8.931q-6.1,3.524-9.332,1.72t-3.254-8.716l-.086-30.008,7.726-4.46.085,30.037c.007,2.48.357,4.044,1.056,4.7s1.959.459,3.785-.595a8.779,8.779,0,0,0,3.756-3.745,13.917,13.917,0,0,0,1.027-5.772l-.086-30.186Z" transform="translate(-4045.465 -371.067)"/>
        <path id="Path_19735" data-name="Path 19735" d="M4148.641,542.311l12.072,36.747-8.194,4.73-2.06-7.759L4140,582.071l-2.01,10.107-8.113,4.684,11.75-50.5Zm-6.994,31.449,7.1-4.1-3.589-13.51-3.508,17.607" transform="translate(-4044.256 -371.894)"/>
        <path id="Path_19736" data-name="Path 19736" d="M4249.986,483.738l.021,7.339-14.087,8.133.029,10.315,11.948-6.9.021,7.105-11.948,6.9.033,11.576,14.142-8.165.021,7.311-21.812,12.593-.124-43.645Z" transform="translate(-4047.638 -369.88)"/>
        <path id="Path_19737" data-name="Path 19737" d="M4236.97,540.144l.021,7.346-9.4,5.425.1,36.306L4220,593.663l-.1-36.306-9.235,5.332-.021-7.346Z" transform="translate(-4047.033 -371.82)"/>
        <path id="Path_19738" data-name="Path 19738" d="M4217.631,507.437q3.971,2.571,4.07,10.984l.021,7.077a32.128,32.128,0,0,1-3.914,15.784,28.436,28.436,0,0,1-10.88,11.191l-9.833,5.678-.124-43.645,10.042-5.8Q4213.671,504.863,4217.631,507.437Zm-3.578,23.239-.021-7.587q-.018-6.121-1.51-7.672t-5.068.386l-2.793,1.613.082,29,2.293-1.324a12.863,12.863,0,0,0,5.394-5.442,21.463,21.463,0,0,0,1.623-8.97" transform="translate(-4046.563 -370.659)"/>
        <path id="Path_19739" data-name="Path 19739" d="M4280.463,466.048l.021,7.339-9.389,5.421.1,36.306-7.7,4.446-.1-36.306-9.236,5.332-.021-7.339Z" transform="translate(-4048.53 -369.271)"/>
        <path id="Path_19740" data-name="Path 19740" d="M4307.729,450.4l.021,7.339-14.094,8.137.029,10.314,11.954-6.9.02,7.105-11.954,6.9.033,11.576,14.143-8.165.021,7.311L4286.09,506.61l-.124-43.645Z" transform="translate(-4049.624 -368.733)"/>
        <path id="Path_19741" data-name="Path 19741" d="M4330.36,511.838l6.7,14.025v.425l-8.242,4.759-5.76-12.654-3.811,2.2.046,15.954-7.67,4.428-.124-43.653,12.238-7.065q5.76-3.326,8.919-1.707t3.17,7.939A23.3,23.3,0,0,1,4330.36,511.838Zm-3.331-4.846a12.273,12.273,0,0,0,1.134-5.352q-.018-6.567-4.482-3.99l-4.489,2.592.037,13.013,4.359-2.516a8.355,8.355,0,0,0,3.441-3.747" transform="translate(-4050.502 -370.027)"/>
        <path id="Path_19742" data-name="Path 19742" d="M4325.8,439.434q6.215-3.588,9.444-1.458t3.695,9.334l-7.695,4.443q-.114-4.554-1.256-5.654t-4.167.653a9.8,9.8,0,0,0-4.352,4.989,25.856,25.856,0,0,0-1.333,8.923l.024,8.239q.018,6.513,1.294,8.2,1.273,1.7,4.347-.076a9.878,9.878,0,0,0,4.169-4.1,17.6,17.6,0,0,0,1.29-6.882l7.669-4.428a28.239,28.239,0,0,1-3.617,13.406,25.413,25.413,0,0,1-9.49,9.325q-6.445,3.721-9.884.825t-3.474-11.91l-.02-7.346A34.239,34.239,0,0,1,4315.958,450,24.925,24.925,0,0,1,4325.8,439.434Z" transform="translate(-4050.535 -368.278)"/>
        <path id="Path_19743" data-name="Path 19743" d="M4390.192,451.775l.021,7.346-14.087,8.133.029,10.315,11.948-6.9.02,7.105-11.948,6.9.033,11.568,14.136-8.162.021,7.318-21.805,12.589-.124-43.652Z" transform="translate(-4052.461 -368.78)"/>
        <path id="Path_19744" data-name="Path 19744" d="M4405.2,394.027l.124,43.645-7.67,4.428-11.3-22.149.082,28.627-7.67,4.428-.124-43.645,7.669-4.428,11.326,22.163-.082-28.655Z" transform="translate(-4052.812 -366.794)"/>
        <path id="Path_19745" data-name="Path 19745" d="M4371.319,413.586l.124,43.645-7.645,4.414-.053-18.674-11.325,6.539.053,18.674-7.669,4.428-.124-43.645,7.669-4.428.05,17.654,11.326-6.539-.05-17.654Z" transform="translate(-4051.644 -367.467)"/>
        <path id="Path_19746" data-name="Path 19746" d="M4420.544,385.556l.124,43.645L4413,433.629l-.124-43.645Z" transform="translate(-4053.99 -366.503)"/>
        <path id="Path_19747" data-name="Path 19747" d="M4454.048,365.824l-10.821,25.463,11.129,18.076-9.106,5.257-6.99-12.838-3.008,6.122.035,12.468-7.675,4.431-.124-43.645,7.675-4.431.054,19.035,2.41-6.11,7.031-18.407Z" transform="translate(-4054.492 -365.824)"/>
        <path id="Path_19748" data-name="Path 19748" d="M4066.584,638.543l.086,30.221a24.13,24.13,0,0,1-3.232,12.3,24.692,24.692,0,0,1-9.2,8.931q-6.1,3.523-9.338,1.729T4041.651,683l-.085-30.008,7.719-4.457.085,30.044c.007,2.473.363,4.041,1.057,4.7s1.965.456,3.789-.6a8.77,8.77,0,0,0,3.75-3.74,13.958,13.958,0,0,0,1.033-5.777l-.085-30.192Z" transform="translate(-4041.219 -375.204)"/>
        <path id="Path_19749" data-name="Path 19749" d="M4205.108,558.534l.124,43.652-7.676,4.431-11.3-22.16.082,28.634-7.669,4.428-.124-43.652,7.67-4.428,11.326,22.17-.081-28.662Z" transform="translate(-4045.93 -372.452)"/>
        <path id="Path_19750" data-name="Path 19750" d="M4278.681,515.826l-6.633,47.554-7.694,4.442-4.512-23.16-4.311,28.253-7.719,4.456-6.9-39.737,7.644-4.414,3.647,25.34,4.386-29.978,6.442-3.72,4.542,24.853,3.522-29.508Z" transform="translate(-4048.074 -370.983)"/>
        <path id="Path_19751" data-name="Path 19751" d="M4306.08,500.337l.021,7.346-14.087,8.133.029,10.315,11.948-6.9.02,7.105-11.948,6.9.033,11.568,14.142-8.165.021,7.318-21.812,12.593-.124-43.652Z" transform="translate(-4049.568 -370.45)"/>
        <path id="Path_19752" data-name="Path 19752" d="M4363.147,467.4l.021,7.346-13.359,7.713.032,11.186,11.923-6.884.021,7.311-11.923,6.884.051,17.809-7.669,4.428-.124-43.652Z" transform="translate(-4051.556 -369.318)"/>
        <path id="Path_19753" data-name="Path 19753" d="M4422.142,433.23l.124,43.652-7.669,4.428-11.3-22.16.081,28.634-7.675,4.431-.124-43.652,7.676-4.431,11.326,22.17-.081-28.662Z" transform="translate(-4053.395 -368.142)"/>
      </g>
      <g id="_03_STAIR_DOWN" data-name="03_STAIR_DOWN" transform="translate(721.902 632.903)">
        <path id="Path_19659" data-name="Path 19659" d="M4724.259,729.582l-42-24.248-1.867-1.078v10.13l43.867,25.326Z" transform="translate(-4583.887 -653.603)" stroke="#000" stroke-linejoin="round" stroke-width="2" fill-rule="evenodd"/>
        <path id="Path_19660" data-name="Path 19660" d="M4671.307,730.123l43.866,25.326v-10.13l-43.866-25.326Z" transform="translate(-4583.574 -654.144)" stroke="#000" stroke-linejoin="round" stroke-width="2" fill-rule="evenodd"/>
        <path id="Path_19661" data-name="Path 19661" d="M4751.517,682.19l8.773-5.065L4716.423,651.8l-8.773,5.065Z" transform="translate(-4584.824 -651.799)" fill="#fff" stroke="#000" stroke-linejoin="round" stroke-width="2" fill-rule="evenodd"/>
        <path id="Path_19662" data-name="Path 19662" d="M4751.2,692.862l-43.867-25.326-8.773,5.065,43.866,25.326Z" transform="translate(-4584.512 -652.34)" fill="#fff" stroke="#000" stroke-linejoin="round" stroke-width="2" fill-rule="evenodd"/>
        <path id="Path_19663" data-name="Path 19663" d="M4742.118,708.6l-43.866-25.326-8.773,5.065,43.866,25.326Z" transform="translate(-4584.199 -652.881)" fill="#fff" stroke="#000" stroke-linejoin="round" stroke-width="2" fill-rule="evenodd"/>
        <path id="Path_19664" data-name="Path 19664" d="M4733.032,724.336l-43.866-25.326-8.773,5.065,43.867,25.326Z" transform="translate(-4583.887 -653.422)" fill="#fff" stroke="#000" stroke-linejoin="round" stroke-width="2" fill-rule="evenodd"/>
        <path id="Path_19665" data-name="Path 19665" d="M4723.947,740.073l-43.867-25.326-8.773,5.065,43.866,25.326Z" transform="translate(-4583.574 -653.964)" fill="#fff" stroke="#000" stroke-linejoin="round" stroke-width="2" fill-rule="evenodd"/>
        <path id="Path_19666" data-name="Path 19666" d="M4714.861,755.81l-43.866-25.326-8.773,5.065,43.866,25.326Z" transform="translate(-4583.262 -654.505)" fill="#fff" stroke="#000" stroke-linejoin="round" stroke-width="2" fill-rule="evenodd"/>
        <path id="Path_19667" data-name="Path 19667" d="M4705.775,771.547l-43.866-25.326-8.773,5.065L4697,776.612Z" transform="translate(-4582.949 -655.046)" fill="#fff" stroke="#000" stroke-linejoin="round" stroke-width="2" fill-rule="evenodd"/>
        <path id="Path_19668" data-name="Path 19668" d="M4642.487,829.069,4651.26,824l-43.866-25.326-8.773,5.065Z" transform="translate(-4581.074 -656.85)" fill="#fff" stroke="#000" stroke-linejoin="round" stroke-width="2" fill-rule="evenodd"/>
        <path id="Path_19669" data-name="Path 19669" d="M4633.4,844.806l8.773-5.065-43.866-25.326-8.773,5.065Z" transform="translate(-4580.762 -657.392)" fill="#fff" stroke="#000" stroke-linejoin="round" stroke-width="2" fill-rule="evenodd"/>
        <path id="Path_19670" data-name="Path 19670" d="M4580.449,835.217l43.866,25.326,8.773-5.065-43.866-25.326Z" transform="translate(-4580.449 -657.933)" fill="#fff" stroke="#000" stroke-linejoin="round" stroke-width="2" fill-rule="evenodd"/>
        <path id="Path_19671" data-name="Path 19671" d="M4651.573,812.61l43.867-25.326-43.867-25.326-33.059,19.087-10.807,6.24Z" transform="translate(-4581.387 -655.587)" fill="#fff" stroke="#000" stroke-linejoin="round" stroke-width="2" fill-rule="evenodd"/>
        <path id="Path_19672" data-name="Path 19672" d="M4751.517,682.37l-43.867-25.326v10.131l43.867,25.326Z" transform="translate(-4584.824 -651.979)" stroke="#000" stroke-linejoin="round" stroke-width="2" fill-rule="evenodd"/>
        <path id="Path_19673" data-name="Path 19673" d="M4742.431,698.108l-43.866-25.326v10.13l43.866,25.326Z" transform="translate(-4584.512 -652.52)" stroke="#000" stroke-linejoin="round" stroke-width="2" fill-rule="evenodd"/>
        <path id="Path_19674" data-name="Path 19674" d="M4733.345,723.975v-10.13l-43.866-25.326v10.131Z" transform="translate(-4584.199 -653.061)" stroke="#000" stroke-linejoin="round" stroke-width="2" fill-rule="evenodd"/>
        <path id="Path_19675" data-name="Path 19675" d="M4706.087,761.056l-43.866-25.326v10.13l43.866,25.326Z" transform="translate(-4583.262 -654.685)" stroke="#000" stroke-linejoin="round" stroke-width="2" fill-rule="evenodd"/>
        <path id="Path_19676" data-name="Path 19676" d="M4697,776.793l-43.867-25.326V761.6L4697,786.923Z" transform="translate(-4582.949 -655.227)" stroke="#000" stroke-linejoin="round" stroke-width="2" fill-rule="evenodd"/>
        <path id="Path_19677" data-name="Path 19677" d="M4651.573,823.643v-10.13l-43.866-25.326v10.13Z" transform="translate(-4581.387 -656.49)" stroke="#000" stroke-linejoin="round" stroke-width="2" fill-rule="evenodd"/>
        <path id="Path_19678" data-name="Path 19678" d="M4642.487,829.249l-43.866-25.326v10.13l43.866,25.326Z" transform="translate(-4581.074 -657.031)" stroke="#000" stroke-linejoin="round" stroke-width="2" fill-rule="evenodd"/>
        <path id="Path_19679" data-name="Path 19679" d="M4589.535,829.791l43.867,25.326v-10.13l-43.867-25.326Z" transform="translate(-4580.762 -657.572)" stroke="#000" stroke-linejoin="round" stroke-width="2" fill-rule="evenodd"/>
        <path id="Path_19680" data-name="Path 19680" d="M4624.315,870.854v-10.13L4580.449,835.4v10.13Z" transform="translate(-4580.449 -658.113)" stroke="#000" stroke-linejoin="round" stroke-width="2" fill-rule="evenodd"/>
      </g>
      <g id="_00_ELEVATOR" data-name="00_ELEVATOR" transform="translate(905 102.406)">
        <path id="Path_20488" data-name="Path 20488" d="M960,152.989l58.455-33.749V897.6l-58.441,33.741Z" transform="translate(-930.772 -102.994)" fill="#fff" stroke="#000" stroke-linejoin="round" stroke-width="2" fill-rule="evenodd"/>
        <path id="Path_20489" data-name="Path 20489" d="M958.941,153.6l-29.227-16.874.012,778.355,29.227,16.874Z" transform="translate(-929.714 -103.605)" fill="#fff" stroke="#000" stroke-linejoin="round" stroke-width="2" fill-rule="evenodd"/>
        <path id="Path_20490" data-name="Path 20490" d="M929.714,135.547l29.227,16.874,58.49-33.76-28.377-16.256Z" transform="translate(-929.714 -102.406)" fill="#fff" stroke="#000" stroke-linejoin="round" stroke-width="2" fill-rule="evenodd"/>
        <line id="Line_7318" data-name="Line 7318" y2="32.609" transform="translate(59.341)" fill="none" stroke="#000" stroke-linecap="round" stroke-linejoin="round" stroke-width="2"/>
        <g id="_03_ELEVATOR_DOOR" data-name="03_ELEVATOR DOOR" transform="translate(2.668 440.801)">
          <path id="Path_19686" data-name="Path 19686" d="M4772.833,619.094V558.909l23.22,13.406V632.5Z" transform="translate(-4772.833 -558.909)" fill="#fff" stroke="#000" stroke-linejoin="round" stroke-width="1" fill-rule="evenodd"/>
          <path id="Path_19687" data-name="Path 19687" d="M4784.856,626.036V565.851l11.61,6.7v60.186Z" transform="translate(-4773.247 -559.148)" fill="#fff" stroke="#000" stroke-linejoin="round" stroke-width="1" fill-rule="evenodd"/>
          <path id="Path_19688" data-name="Path 19688" d="M4772.833,619.094V558.909l11.61,6.7V625.8Z" transform="translate(-4772.833 -558.909)" fill="#fff" stroke="#000" stroke-linejoin="round" stroke-width="1" fill-rule="evenodd"/>
        </g>
      </g>
      <path id="_03_FLUR" data-name="03_FLUR" d="M4701.8,581.121l-43.645,25.223,156.491,90.579L4858.5,671.6Z" transform="translate(-3861.238 -16.48)" fill="#fff" fill-rule="evenodd"/>
      <g id="_03_TEK" data-name="03_TEK" transform="translate(202.145 437.727)">
        <path id="_03_TEK_FLOOR" data-name="03_TEK_FLOOR" d="M5227.255,449.671,5444.34,577.963,4869.3,909.975l-155.146-88.319-216.2,124.823-65.6-37.873Z" transform="translate(-4055.598 -449.671)" fill="#fff"/>
        <g id="_03_TEK_HATCH" data-name="03_TEK_HATCH" transform="translate(0 128.292)">
          <path id="Path_19721" data-name="Path 19721" d="M4042.178,695.654V705.8l220.8,127.477,50.2,28.981L4484.536,961.2l216.2-124.823c0,.018,155.221,89.635,155.221,89.635l577.268-333.285V582.533L4855.957,915.818l-155.221-89.592-216.2,124.823-221.56-127.917Z" transform="translate(-4042.178 -582.533)" stroke="#000" stroke-linejoin="round" stroke-width="2" fill-rule="evenodd"/>
          <path id="Path_19724" data-name="Path 19724" d="M4042.178,685.236l442.358,255.395,216.2-124.823L4855.957,905.4l577.268-333.285-219.39-128.292L4837.3,661.216l-155.96-90.044m155.96,90.044-155.96-90.044M4793.43,686.544,4418.937,902.758l-155.961-90.044L4637.469,596.5l155.961,90.045" transform="translate(-4042.178 -572.115)" fill="none" stroke="#000" stroke-linecap="round" stroke-linejoin="round" stroke-width="2"/>
        </g>
      </g>
      <g id="_03_TEK_TEXT" data-name="03_TEK_TEXT" transform="translate(1509.6 472.982)">
        <path id="Path_19800" data-name="Path 19800" d="M5422.55,501.38l-.021,7.346-9.39-5.421-.1,36.3-7.7-4.446.1-36.3-9.235-5.332.021-7.346Z" transform="translate(-5396.205 -486.182)"/>
        <path id="Path_19801" data-name="Path 19801" d="M5449.812,517.122l-.021,7.346-14.087-8.133-.029,10.315,11.948,6.9-.02,7.1-11.948-6.9-.033,11.576,14.136,8.162-.02,7.311L5427.926,548.2l.124-43.645Z" transform="translate(-5397.295 -486.814)"/>
        <path id="Path_19802" data-name="Path 19802" d="M5481.763,535.568l-10.93,12.905,10.991,30.847-9.106-5.257-6.894-20.854-3.033,2.634-.036,12.468-7.675-4.431.124-43.645,7.676,4.431-.054,19.035,2.436-3.305,7.112-10.249Z" transform="translate(-5398.229 -487.353)"/>
      </g>
      <g id="_03_Tragwerkslehre" data-name="03_Tragwerkslehre" transform="translate(1014.496 583.645)">
        <path id="Path_19691" data-name="Path 19691" d="M4908.717,830.009l-9.01,5.2v35l-7.383,4.262V839.473l-8.859,5.114v-7.079l25.252-14.579Z" transform="translate(-4883.465 -608.427)"/>
        <path id="Path_19692" data-name="Path 19692" d="M4925.033,840.411l-3.654,2.11v15.373l-7.358,4.248V820.067l11.738-6.777q5.531-3.192,8.545-1.625t3.017,7.665a22.553,22.553,0,0,1-5.28,14.781l6.38,13.538v.4l-7.908,4.566Zm-3.654-4.969,4.179-2.414a8,8,0,0,0,3.3-3.6,11.888,11.888,0,0,0,1.1-5.158q0-6.327-4.279-3.858l-4.3,2.485Z" transform="translate(-4884.516 -608.021)"/>
        <path id="Path_19693" data-name="Path 19693" d="M4960.695,826.529l-10.037,5.795-1.953,9.738-7.782,4.493,11.386-48.648,6.732-3.887,11.462,35.457-7.858,4.536Zm-8.435-2.21,6.807-3.93-3.4-13.033Z" transform="translate(-4885.441 -607.432)"/>
        <path id="Path_19694" data-name="Path 19694" d="M4999.838,807.778a31.322,31.322,0,0,1-5.219,7.014,31.917,31.917,0,0,1-6.769,5.252q-6.282,3.627-9.761,1.142t-3.578-11.01V802.6a33.833,33.833,0,0,1,3.291-15.293,23.848,23.848,0,0,1,9.6-10.236q5.931-3.425,8.946-1.785t3.491,8.59l-7.158,4.133q-.3-3.843-1.451-4.639t-3.6.622a9.989,9.989,0,0,0-4.33,5.013,24.292,24.292,0,0,0-1.4,8.813v7.629q0,5.752,1.49,7.507t4.892-.21a11.607,11.607,0,0,0,3.529-3.048l.651-.9v-7.716l-5.156,2.977V797.65l12.538-7.239Z" transform="translate(-4886.596 -606.77)"/>
        <path id="Path_19695" data-name="Path 19695" d="M5029.741,779.271l3.453-28.435,7.282-4.2L5034,792.449l-7.382,4.261-4.255-22.337-4.205,27.22-7.407,4.277-6.507-38.316,7.333-4.233L5015,787.752l4.279-28.883,6.182-3.568Z" transform="translate(-4887.619 -605.802)"/>
        <path id="Path_19696" data-name="Path 19696" d="M5064.707,756.827l-11.462,6.618V774.6l13.565-7.832v7.051l-20.922,12.08V743.824l20.872-12.051v7.08l-13.515,7.8V756.6l11.462-6.617Z" transform="translate(-4889.051 -605.291)"/>
        <path id="Path_19697" data-name="Path 19697" d="M5082.972,749.226l-3.654,2.109v15.373l-7.358,4.249V728.882l11.737-6.777q5.53-3.192,8.547-1.625t3.015,7.664a22.55,22.55,0,0,1-5.28,14.781l6.381,13.539v.4l-7.907,4.565Zm-3.654-4.97,4.179-2.413a8.017,8.017,0,0,0,3.3-3.6,11.9,11.9,0,0,0,1.1-5.158q0-6.328-4.279-3.858l-4.3,2.484Z" transform="translate(-4889.948 -604.885)"/>
        <path id="Path_19698" data-name="Path 19698" d="M5111.585,731.633l-2.9,5.895v12.021l-7.356,4.249V711.723l7.356-4.249v18.35l2.329-5.881,6.781-17.729,9.009-5.2-10.436,24.519,10.611,17.454-8.735,5.042Z" transform="translate(-4890.958 -604.096)"/>
        <path id="Path_19699" data-name="Path 19699" d="M5146.042,717.123q0-2.571-1.139-3.229t-4.142-.34q-5.481.766-7.882-1.07t-2.4-6.226a19.143,19.143,0,0,1,3.266-10.425,24.015,24.015,0,0,1,8.3-8.013,11.267,11.267,0,0,1,5.981-1.82,4.823,4.823,0,0,1,4.041,2.276,10.769,10.769,0,0,1,1.414,5.945l-7.331,4.233q0-2.948-1.089-3.864t-3.141.268a7.873,7.873,0,0,0-3,3.048,8.425,8.425,0,0,0-1.076,4.161,2.6,2.6,0,0,0,1.2,2.442q1.2.708,4.253.448,5.332-.852,7.745.991t2.417,6.84a19.139,19.139,0,0,1-3.03,10.33,23.2,23.2,0,0,1-8.232,7.847,13.11,13.11,0,0,1-6.433,2.037,5.366,5.366,0,0,1-4.542-2.175q-1.641-2.173-1.639-6.422l7.382-4.262q0,3.641,1.226,4.581t4.005-.665A7.449,7.449,0,0,0,5146.042,717.123Z" transform="translate(-4891.93 -603.717)"/>
        <path id="Path_19700" data-name="Path 19700" d="M5166.71,709.369l12.914-7.455v7.051l-20.272,11.7V678.593l7.358-4.248Z" transform="translate(-4892.954 -603.316)"/>
        <path id="Path_19701" data-name="Path 19701" d="M5203.571,676.655l-11.462,6.617v11.155l13.564-7.831v7.051l-20.921,12.079V663.651l20.872-12.05v7.079l-13.515,7.8v9.941l11.462-6.617Z" transform="translate(-4893.828 -602.534)"/>
        <path id="Path_19702" data-name="Path 19702" d="M5236.35,675.839l-7.333,4.233v-18l-10.861,6.271v18l-7.358,4.248V648.517l7.358-4.248v17.02l10.861-6.271V638l7.333-4.233Z" transform="translate(-4894.723 -601.92)"/>
        <path id="Path_19703" data-name="Path 19703" d="M5254.414,650.245l-3.654,2.109v15.373l-7.358,4.248V629.9l11.737-6.777q5.531-3.192,8.547-1.625t3.015,7.665a22.553,22.553,0,0,1-5.281,14.781l6.382,13.539v.406l-7.908,4.564Zm-3.654-4.971,4.178-2.412a8.013,8.013,0,0,0,3.3-3.6,11.891,11.891,0,0,0,1.1-5.158q0-6.328-4.281-3.858l-4.3,2.484Z" transform="translate(-4895.845 -601.481)"/>
        <path id="Path_19704" data-name="Path 19704" d="M5291.585,625.84l-11.461,6.617v11.155l13.564-7.832v7.052l-20.922,12.079V612.836l20.872-12.05v7.079l-13.514,7.8v9.941l11.461-6.617Z" transform="translate(-4896.854 -600.786)"/>
        <path id="Path_19705" data-name="Path 19705" d="M4908.865,869.831V898.96a23.394,23.394,0,0,1-3.129,11.849,23.7,23.7,0,0,1-8.834,8.582q-5.857,3.379-8.948,1.639t-3.091-8.416V883.688l7.408-4.277v28.955q0,3.585,1,4.537t3.629-.563a8.444,8.444,0,0,0,3.6-3.6,13.516,13.516,0,0,0,1-5.562v-29.1Z" transform="translate(-4883.513 -610.04)"/>
        <path id="Path_19706" data-name="Path 19706" d="M4940.975,893.336l-7.357,4.248L4922.856,876.2v27.6l-7.358,4.249V865.971l7.358-4.249,10.787,21.4V855.5l7.333-4.233Z" transform="translate(-4884.566 -609.401)"/>
        <path id="Path_19707" data-name="Path 19707" d="M4948,889.529V847.455l9.635-5.564q6.381-3.683,10.174-1.192t3.865,10.6v6.819a31.092,31.092,0,0,1-3.791,15.207,27.315,27.315,0,0,1-10.448,10.757Zm7.357-39.243v27.944l2.2-1.272a12.347,12.347,0,0,0,5.181-5.23,20.884,20.884,0,0,0,1.575-8.64v-7.311q0-5.895-1.425-7.4t-4.854.36Z" transform="translate(-4885.685 -609.003)"/>
        <path id="Path_19708" data-name="Path 19708" d="M5000.479,842.742l-2.9,5.9v12.021l-7.357,4.249V822.832l7.357-4.249v18.35l2.329-5.881,6.781-17.729,9.01-5.2-10.436,24.519L5015.87,850.1l-8.736,5.043Z" transform="translate(-4887.137 -607.917)"/>
        <path id="Path_19709" data-name="Path 19709" d="M5044.409,816.531a32.414,32.414,0,0,1-3.467,15.148,24.563,24.563,0,0,1-9.622,10.237q-6.131,3.54-9.635.925t-3.552-10.938v-7.195a33.96,33.96,0,0,1,3.478-15.547,24.435,24.435,0,0,1,9.66-10.446q6.081-3.511,9.585-.751t3.554,11.371Zm-7.383-2.789q0-5.694-1.4-7.658t-4.354-.26a10.085,10.085,0,0,0-4.33,5.173,24.923,24.923,0,0,0-1.451,8.972v7.484q0,5.52,1.426,7.311t4.4.073a10.05,10.05,0,0,0,4.279-5.029,23.363,23.363,0,0,0,1.426-8.756Z" transform="translate(-4888.097 -607.526)"/>
        <path id="Path_19710" data-name="Path 19710" d="M5076.289,815.213l-7.357,4.248-10.761-21.384v27.6l-7.357,4.249V787.848l7.357-4.249,10.787,21.4V777.372l7.332-4.233Z" transform="translate(-4889.221 -606.714)"/>
        <path id="Path_19711" data-name="Path 19711" d="M5098.665,791.437q0-2.571-1.138-3.229t-4.143-.34q-5.481.766-7.883-1.07t-2.4-6.226a19.146,19.146,0,0,1,3.265-10.425,24,24,0,0,1,8.3-8.012,11.253,11.253,0,0,1,5.979-1.82,4.825,4.825,0,0,1,4.042,2.275,10.771,10.771,0,0,1,1.414,5.946l-7.332,4.233q0-2.947-1.089-3.865t-3.141.267a7.87,7.87,0,0,0-3,3.048,8.426,8.426,0,0,0-1.077,4.161,2.6,2.6,0,0,0,1.2,2.442q1.2.708,4.254.448,5.332-.852,7.746.991t2.415,6.84a19.138,19.138,0,0,1-3.029,10.33,23.2,23.2,0,0,1-8.232,7.846,13.1,13.1,0,0,1-6.432,2.037,5.365,5.365,0,0,1-4.542-2.176q-1.641-2.173-1.64-6.421l7.381-4.263q0,3.641,1.228,4.581t4-.664A7.451,7.451,0,0,0,5098.665,791.437Z" transform="translate(-4890.3 -606.273)"/>
        <path id="Path_19712" data-name="Path 19712" d="M5135.519,746.027l-9.01,5.2v34.995l-7.382,4.263V755.492l-8.86,5.114v-7.079l25.252-14.58Z" transform="translate(-4891.266 -605.538)"/>
        <path id="Path_19713" data-name="Path 19713" d="M5151.835,756.43l-3.654,2.109v15.373l-7.357,4.249V736.086l11.737-6.777q5.53-3.192,8.547-1.625t3.016,7.665a22.553,22.553,0,0,1-5.28,14.781l6.381,13.539v.4l-7.909,4.565Zm-3.654-4.97,4.18-2.412a8.022,8.022,0,0,0,3.3-3.6,11.9,11.9,0,0,0,1.1-5.158q0-6.328-4.28-3.858l-4.3,2.484Z" transform="translate(-4892.316 -605.133)"/>
        <path id="Path_19714" data-name="Path 19714" d="M5193.877,705.28v29.128a23.39,23.39,0,0,1-3.129,11.849,23.706,23.706,0,0,1-8.832,8.582q-5.859,3.379-8.949,1.639t-3.091-8.416V719.136l7.407-4.277v28.956q0,3.583,1,4.536t3.631-.563a8.44,8.44,0,0,0,3.6-3.6,13.491,13.491,0,0,0,1-5.562v-29.1Z" transform="translate(-4893.316 -604.38)"/>
        <path id="Path_19715" data-name="Path 19715" d="M5210.771,721.33l-2.9,5.9v12.022l-7.356,4.248V701.42l7.356-4.248v18.349l2.328-5.882,6.782-17.727,9.009-5.2-10.435,24.52,10.611,17.453-8.734,5.042Z" transform="translate(-4894.37 -603.741)"/>
        <path id="Path_19716" data-name="Path 19716" d="M5253.416,677.959l-9.009,5.2v34.994l-7.384,4.264v-35l-8.857,5.115v-7.08l25.25-14.579Z" transform="translate(-4895.321 -603.197)"/>
        <path id="Path_19717" data-name="Path 19717" d="M5266.39,705.832l-7.357,4.248V668.006l7.357-4.248Z" transform="translate(-4896.383 -602.952)"/>
        <path id="Path_19718" data-name="Path 19718" d="M5298.682,669.727a32.426,32.426,0,0,1-3.466,15.148,24.575,24.575,0,0,1-9.623,10.237q-6.131,3.54-9.634.925T5272.4,685.1v-7.2a33.968,33.968,0,0,1,3.478-15.546,24.448,24.448,0,0,1,9.66-10.446q6.082-3.511,9.585-.752t3.554,11.371Zm-7.382-2.79q0-5.692-1.4-7.657t-4.355-.261a10.1,10.1,0,0,0-4.329,5.173,24.934,24.934,0,0,0-1.451,8.972v7.484q0,5.52,1.426,7.311t4.4.074a10.064,10.064,0,0,0,4.28-5.029,23.379,23.379,0,0,0,1.426-8.757Z" transform="translate(-4896.842 -602.477)"/>
        <path id="Path_19719" data-name="Path 19719" d="M5330.563,668.409l-7.358,4.248-10.76-21.385v27.6l-7.358,4.248V641.043l7.358-4.249,10.786,21.4V630.568l7.332-4.233Z" transform="translate(-4897.967 -601.665)"/>
      </g>
      <g id="_03_WINDOW" data-name="03_WINDOW" transform="translate(422.943 650.364)">
        <path id="Path_19725" data-name="Path 19725" d="M4294.622,683.612l-23.781-13.73V826.136L4426.8,916.18V759.926l-111.5-64.375Zm-20.2-7.527L4321.038,703V850.98l-46.615-26.912Zm50.2,129.153v47.811l48.4,27.947V733.013l-48.4-27.948V805.238Zm51.987-40.165V883.064l46.614,26.912V761.994l-11.85-6.842-8.79-5.075-25.974-15Z" transform="translate(-4270.841 -669.882)" fill="#fff" stroke="#000" stroke-linejoin="round" stroke-width="1" fill-rule="evenodd"/>
      </g>
      <g id="_03_COLUMN_03" data-name="03_COLUMN_03" transform="translate(1177.611 419.317)">
        <g id="HATCH-5" data-name="HATCH" transform="translate(0 24.313)">
          <path id="Path_19758" data-name="Path 19758" d="M5049.937,445.915l-17.547-10.13v5.065l17.547,10.131Z" transform="translate(-5032.39 -435.784)" fill="#fff" stroke="#000" stroke-linejoin="round" stroke-width="2" fill-rule="evenodd"/>
        </g>
        <g id="HATCH-6" data-name="HATCH">
          <path id="Path_19759" data-name="Path 19759" d="M5074.5,410.605l-42.112,24.313,17.547,10.13,42.112-24.313Z" transform="translate(-5032.39 -410.605)" fill="#fff" stroke="#000" stroke-linejoin="round" stroke-width="2" fill-rule="evenodd"/>
        </g>
        <g id="HATCH-7" data-name="HATCH" transform="translate(17.547 10.131)">
          <path id="Path_19760" data-name="Path 19760" d="M5050.562,445.41v5.065l12.283-2.026,17.546-10.13,12.283-12.157V421.1Z" transform="translate(-5050.562 -421.096)" fill="#fff" stroke="#000" stroke-linejoin="round" stroke-width="2" fill-rule="evenodd"/>
        </g>
        <g id="HATCH-8" data-name="HATCH" transform="translate(19.49 31.513)">
          <path id="Path_19761" data-name="Path 19761" d="M5052.574,450.916V591.038l.211.351.223.344.234.336.246.328.257.319.268.31.278.3.289.291.3.281.308.271.317.26.325.249.334.237.342.226.35.214.356.2.364.189.37.177.375.164.381.151.386.138.391.125.395.111.4.1.4.084.4.07.406.056.408.042.409.028.41.014h.41l.41-.014.409-.028.408-.042.406-.056.4-.07.4-.084.4-.1.4-.111.39-.125.386-.138.381-.151.376-.164.37-.177.363-.189.356-.2.35-.214.342-.226.334-.237.326-.249.317-.26.308-.271.3-.281.289-.291.278-.3.268-.31.257-.319.246-.328.235-.336.222-.344.211-.351v-147.8l-10.339,5.969Z" transform="translate(-5052.574 -443.241)" fill="#fff" stroke="#000" stroke-linejoin="round" stroke-width="2" fill-rule="evenodd"/>
        </g>
      </g>
      <g id="_03_COLUMN_02" data-name="03_COLUMN_02" transform="translate(665.339 405.009)">
        <g id="HATCH-9" data-name="HATCH" transform="translate(0 24.313)">
          <path id="Path_19762" data-name="Path 19762" d="M4547.418,471.1l-17.546-10.13v5.065l17.546,10.131Z" transform="translate(-4529.872 -460.966)" fill="#fff" stroke="#000" stroke-linejoin="round" stroke-width="2" fill-rule="evenodd"/>
        </g>
        <g id="HATCH-10" data-name="HATCH">
          <path id="Path_19763" data-name="Path 19763" d="M4571.983,435.787,4529.872,460.1l17.546,10.13,42.112-24.313Z" transform="translate(-4529.872 -435.787)" fill="#fff" stroke="#000" stroke-linejoin="round" stroke-width="2" fill-rule="evenodd"/>
        </g>
        <g id="HATCH-11" data-name="HATCH" transform="translate(17.546 10.131)">
          <path id="Path_19764" data-name="Path 19764" d="M4548.043,470.592v5.065l12.283-2.026,17.547-10.131,12.282-12.157v-5.065Z" transform="translate(-4548.043 -446.278)" fill="#fff" stroke="#000" stroke-linejoin="round" stroke-width="2" fill-rule="evenodd"/>
        </g>
        <g id="HATCH-12" data-name="HATCH" transform="translate(19.49 31.513)">
          <path id="Path_19765" data-name="Path 19765" d="M4550.056,476.1V616.22l.21.351.223.344.235.336.246.328.257.319.268.31.278.3.289.291.3.281.308.271.317.26.326.249.334.238.342.226.35.214.356.2.364.19.37.177.375.164.381.151.385.138.391.125.394.111.4.1.4.084.4.07.407.056.407.042.409.028.41.014h.41l.41-.014.409-.028.408-.042.406-.056.4-.07.4-.084.4-.1.395-.111.39-.125.386-.138.381-.151.375-.164.37-.177.363-.19.357-.2.35-.214.342-.226.334-.238.326-.249.317-.26.308-.271.3-.281.289-.291.278-.3.268-.31.257-.319.246-.328.234-.336.223-.344.211-.351v-147.8l-10.34,5.969Z" transform="translate(-4550.056 -468.423)" fill="#fff" stroke="#000" stroke-linejoin="round" stroke-width="2" fill-rule="evenodd"/>
        </g>
      </g>
      <g id="_03_COLUMN_01" data-name="03_COLUMN_01" transform="translate(375.082 573.854)">
        <g id="HATCH-13" data-name="HATCH" transform="translate(0 24.313)">
          <path id="Path_19766" data-name="Path 19766" d="M4246.821,645.956l-17.546-10.131v5.065l17.546,10.13Z" transform="translate(-4229.275 -635.826)" fill="#fff" stroke="#000" stroke-linejoin="round" stroke-width="2" fill-rule="evenodd"/>
        </g>
        <g id="HATCH-14" data-name="HATCH" transform="translate(0)">
          <path id="Path_19767" data-name="Path 19767" d="M4271.386,610.647l-42.111,24.313,17.546,10.131,42.112-24.313Z" transform="translate(-4229.275 -610.647)" fill="#fff" stroke="#000" stroke-linejoin="round" stroke-width="2" fill-rule="evenodd"/>
        </g>
        <g id="HATCH-15" data-name="HATCH" transform="translate(17.546 10.13)">
          <path id="Path_19768" data-name="Path 19768" d="M4247.446,645.451v5.065l12.283-2.026,17.546-10.13,12.283-12.157v-5.065Z" transform="translate(-4247.446 -621.138)" fill="#fff" stroke="#000" stroke-linejoin="round" stroke-width="2" fill-rule="evenodd"/>
        </g>
        <g id="HATCH-16" data-name="HATCH" transform="translate(19.489 31.513)">
          <path id="Path_19769" data-name="Path 19769" d="M4249.458,650.958V791.079l.211.351.223.344.234.336.246.328.257.319.268.31.278.3.289.291.3.281.308.271.317.26.325.249.334.238.342.226.35.214.357.2.363.19.37.177.375.164.381.151.386.138.391.125.395.111.4.1.4.084.4.07.406.056.408.042.409.028.41.014h.41l.41-.014.409-.028.408-.042.406-.056.4-.07.4-.084.4-.1.4-.111.39-.125.386-.138.381-.151.376-.164.37-.177.363-.19.356-.2.35-.214.342-.226.334-.238.326-.249.317-.26.308-.271.3-.281.289-.291.278-.3.268-.31.257-.319.246-.328.235-.336.222-.344.211-.351v-147.8l-10.339,5.969Z" transform="translate(-4249.458 -643.283)" fill="#fff" stroke="#000" stroke-linejoin="round" stroke-width="2" fill-rule="evenodd"/>
        </g>
      </g>
      <g id="_03_STAIR_UP" data-name="03_STAIR_UP" transform="translate(624.4 541.153)">
        <path id="Path_19770" data-name="Path 19770" d="M4586.94,656.448l-43.866,25.326v10.13l43.866-25.326Z" transform="translate(-4481.661 -560.209)" stroke="#000" stroke-linejoin="round" stroke-width="2" fill-rule="evenodd"/>
        <path id="Path_19771" data-name="Path 19771" d="M4615.448,807.491l43.867-25.326-8.773-5.065-43.866,25.326Z" transform="translate(-4483.849 -564.358)" fill="#fff" stroke="#000" stroke-linejoin="round" stroke-width="2" fill-rule="evenodd"/>
        <path id="Path_19772" data-name="Path 19772" d="M4641.455,761.362l-43.866,25.326,8.773,5.065,43.866-25.326Z" transform="translate(-4483.536 -563.817)" fill="#fff" stroke="#000" stroke-linejoin="round" stroke-width="2" fill-rule="evenodd"/>
        <path id="Path_19773" data-name="Path 19773" d="M4632.37,745.625,4588.5,770.951l8.773,5.065,43.866-25.326Z" transform="translate(-4483.224 -563.276)" fill="#fff" stroke="#000" stroke-linejoin="round" stroke-width="2" fill-rule="evenodd"/>
        <path id="Path_19774" data-name="Path 19774" d="M4623.284,729.888l-43.866,25.326,8.773,5.065,43.867-25.326Z" transform="translate(-4482.911 -562.735)" fill="#fff" stroke="#000" stroke-linejoin="round" stroke-width="2" fill-rule="evenodd"/>
        <path id="Path_19775" data-name="Path 19775" d="M4622.971,719.216l-8.773-5.065-43.866,25.326,8.773,5.065Z" transform="translate(-4482.599 -562.193)" fill="#fff" stroke="#000" stroke-linejoin="round" stroke-width="2" fill-rule="evenodd"/>
        <path id="Path_19776" data-name="Path 19776" d="M4605.112,698.414l-43.867,25.326,8.773,5.065,43.866-25.326Z" transform="translate(-4482.286 -561.652)" fill="#fff" stroke="#000" stroke-linejoin="round" stroke-width="2" fill-rule="evenodd"/>
        <path id="Path_19777" data-name="Path 19777" d="M4596.026,682.677,4552.16,708l8.773,5.065,43.867-25.326Z" transform="translate(-4481.974 -561.111)" fill="#fff" stroke="#000" stroke-linejoin="round" stroke-width="2" fill-rule="evenodd"/>
        <path id="Path_19778" data-name="Path 19778" d="M4586.94,666.94l-43.866,25.326,8.773,5.065,43.866-25.326Z" transform="translate(-4481.661 -560.569)" fill="#fff" stroke="#000" stroke-linejoin="round" stroke-width="2" fill-rule="evenodd"/>
        <path id="Path_19779" data-name="Path 19779" d="M4542.762,681.594l43.866-25.326-8.773-5.065-43.867,25.326Z" transform="translate(-4481.349 -560.028)" fill="#fff" stroke="#000" stroke-linejoin="round" stroke-width="2" fill-rule="evenodd"/>
        <path id="Path_19780" data-name="Path 19780" d="M4532.113,561.846l-8.773-5.065-43.867,25.326,8.773,5.065Z" transform="translate(-4479.474 -556.781)" fill="#fff" stroke="#000" stroke-linejoin="round" stroke-width="2" fill-rule="evenodd"/>
        <path id="Path_19781" data-name="Path 19781" d="M4497.333,602.909l43.866-25.326-8.773-5.065-43.866,25.326Z" transform="translate(-4479.786 -557.322)" fill="#fff" stroke="#000" stroke-linejoin="round" stroke-width="2" fill-rule="evenodd"/>
        <path id="Path_19782" data-name="Path 19782" d="M4506.418,618.646l41.835-24.153,2.032-1.173-8.773-5.065-43.866,25.326Z" transform="translate(-4480.099 -557.863)" fill="#fff" stroke="#000" stroke-linejoin="round" stroke-width="2" fill-rule="evenodd"/>
        <path id="Path_19783" data-name="Path 19783" d="M4515.5,634.383l43.866-25.326-8.773-5.065-43.867,25.326Z" transform="translate(-4480.411 -558.404)" fill="#fff" stroke="#000" stroke-linejoin="round" stroke-width="2" fill-rule="evenodd"/>
        <path id="Path_19784" data-name="Path 19784" d="M4515.817,645.055l8.773,5.065,43.866-25.326-1.082-.625-7.691-4.441-8.259,4.768Z" transform="translate(-4480.724 -558.946)" fill="#fff" stroke="#000" stroke-linejoin="round" stroke-width="2" fill-rule="evenodd"/>
        <path id="Path_19785" data-name="Path 19785" d="M4533.676,665.857l43.867-25.326-8.773-5.065L4524.9,660.792Z" transform="translate(-4481.036 -559.487)" fill="#fff" stroke="#000" stroke-linejoin="round" stroke-width="2" fill-rule="evenodd"/>
        <path id="Path_19786" data-name="Path 19786" d="M4532.426,562.026l-43.866,25.326v10.131l43.866-25.326Z" transform="translate(-4479.786 -556.961)" stroke="#000" stroke-linejoin="round" stroke-width="2" fill-rule="evenodd"/>
        <path id="Path_19787" data-name="Path 19787" d="M4541.512,577.763l-43.866,25.326v10.13l43.866-25.326Z" transform="translate(-4480.099 -557.502)" stroke="#000" stroke-linejoin="round" stroke-width="2" fill-rule="evenodd"/>
        <path id="Path_19788" data-name="Path 19788" d="M4550.6,593.5l-43.867,25.326v10.131l43.867-25.326Z" transform="translate(-4480.411 -558.044)" stroke="#000" stroke-linejoin="round" stroke-width="2" fill-rule="evenodd"/>
        <path id="Path_19789" data-name="Path 19789" d="M4559.683,619.368v-10.13l-43.866,25.326v10.13Z" transform="translate(-4480.724 -558.585)" stroke="#000" stroke-linejoin="round" stroke-width="2" fill-rule="evenodd"/>
        <path id="Path_19790" data-name="Path 19790" d="M4568.769,624.974,4524.9,650.3v10.13l43.866-25.326Z" transform="translate(-4481.036 -559.126)" stroke="#000" stroke-linejoin="round" stroke-width="2" fill-rule="evenodd"/>
        <path id="Path_19791" data-name="Path 19791" d="M4577.855,640.711l-43.867,25.326v10.13l43.867-25.326Z" transform="translate(-4481.349 -559.667)" stroke="#000" stroke-linejoin="round" stroke-width="2" fill-rule="evenodd"/>
        <path id="Path_19792" data-name="Path 19792" d="M4596.026,672.186l-43.866,25.326v10.131l43.866-25.326Z" transform="translate(-4481.974 -560.75)" stroke="#000" stroke-linejoin="round" stroke-width="2" fill-rule="evenodd"/>
        <path id="Path_19793" data-name="Path 19793" d="M4605.112,687.923l-43.867,25.326v10.13l43.867-25.326Z" transform="translate(-4482.286 -561.291)" stroke="#000" stroke-linejoin="round" stroke-width="2" fill-rule="evenodd"/>
        <path id="Path_19794" data-name="Path 19794" d="M4614.2,703.66l-43.866,25.326v10.131L4614.2,713.79Z" transform="translate(-4482.599 -561.832)" stroke="#000" stroke-linejoin="round" stroke-width="2" fill-rule="evenodd"/>
        <path id="Path_19795" data-name="Path 19795" d="M4623.284,719.4l-43.866,25.326v10.13l43.866-25.326Z" transform="translate(-4482.911 -562.374)" stroke="#000" stroke-linejoin="round" stroke-width="2" fill-rule="evenodd"/>
        <path id="Path_19796" data-name="Path 19796" d="M4632.37,745.264V735.134L4588.5,760.46V770.59Z" transform="translate(-4483.224 -562.915)" stroke="#000" stroke-linejoin="round" stroke-width="2" fill-rule="evenodd"/>
        <path id="Path_19797" data-name="Path 19797" d="M4641.455,750.871,4597.589,776.2v10.13L4641.455,761Z" transform="translate(-4483.536 -563.456)" stroke="#000" stroke-linejoin="round" stroke-width="2" fill-rule="evenodd"/>
        <path id="Path_19798" data-name="Path 19798" d="M4650.541,766.608l-43.866,25.326v10.13l43.866-25.326Z" transform="translate(-4483.849 -563.998)" stroke="#000" stroke-linejoin="round" stroke-width="2" fill-rule="evenodd"/>
        <path id="Path_19799" data-name="Path 19799" d="M4615.76,807.671V817.8l43.867-25.326v-10.13Z" transform="translate(-4484.161 -564.539)" stroke="#000" stroke-linejoin="round" stroke-width="2" fill-rule="evenodd"/>
      </g>
    </g>
  </g>
</svg>
