<svg xmlns="http://www.w3.org/2000/svg" xmlns:xlink="http://www.w3.org/1999/xlink" width="1920" height="1080" viewBox="0 0 1920 1080">
  <defs>
    <clipPath id="clip-Artboard_10_4">
      <rect width="1920" height="1080"/>
    </clipPath>
  </defs>
  <g id="Artboard_10_4" data-name="Artboard 10 – 4" clip-path="url(#clip-Artboard_10_4)">
    <rect width="1920" height="1080" fill="#fff"/>
    <g id="Group_6694" data-name="Group 6694" transform="translate(23.395 -6.406)">
      <g id="_00_WERKSTATT" data-name="00_WERKSTATT" transform="translate(1336.814 424.643)">
        <path id="_00_WERKSTATT_FLOOR" data-name="00_WERKSTATT_FLOOR" d="M1375.65,485.341l70.845,40.9-43.841,25.313,57.005,32.911,128.758-74.338-127.85-73.814Z" transform="translate(-1375.65 -436.314)" fill="#fff" stroke="#000" stroke-linejoin="round" stroke-width="2" fill-rule="evenodd"/>
        <g id="_00_WERKSTATT_HATCH" data-name="00_WERKSTATT_HATCH" transform="translate(0 49.027)">
          <path id="Path_20445" data-name="Path 20445" d="M1375.65,497.242l62.077,35.84,8.768-5.062-70.845-40.9Z" transform="translate(-1375.65 -487.117)" stroke="#000" stroke-linejoin="round" stroke-width="2" fill-rule="evenodd"/>
          <path id="Path_20446" data-name="Path 20446" d="M1403.633,564.354l57.005,32.912L1589.4,522.927V512.8l-128.758,74.338-8.768-5.062-48.237-27.848Z" transform="translate(-1376.629 -488.015)" stroke="#000" stroke-linejoin="round" stroke-width="2" fill-rule="evenodd"/>
        </g>
        <g id="_00_WERK-STATT_STAIRS" data-name="00_WERK-STATT_STAIRS" transform="translate(13.849 97.525)">
          <path id="Path_20447" data-name="Path 20447" d="M1390,537.372V547.5l8.769-5.061Z" transform="translate(-1390.001 -537.372)" fill="#fff" stroke="#000" stroke-linejoin="round" stroke-width="2" fill-rule="evenodd"/>
          <path id="Path_20448" data-name="Path 20448" d="M1399.089,542.618v10.124l8.769-5.061Z" transform="translate(-1390.319 -537.555)" fill="#fff" stroke="#000" stroke-linejoin="round" stroke-width="2" fill-rule="evenodd"/>
          <path id="Path_20449" data-name="Path 20449" d="M1408.176,547.865v10.124l8.769-5.061Z" transform="translate(-1390.636 -537.739)" fill="#fff" stroke="#000" stroke-linejoin="round" stroke-width="2" fill-rule="evenodd"/>
          <path id="Path_20450" data-name="Path 20450" d="M1453.615,574.1V584.22l8.77-5.061Z" transform="translate(-1392.225 -538.656)" fill="#fff" stroke="#000" stroke-linejoin="round" stroke-width="2" fill-rule="evenodd"/>
          <path id="Path_20451" data-name="Path 20451" d="M1444.529,578.974l8.768-5.062-8.77-5.063v10.124Z" transform="translate(-1391.907 -538.472)" fill="#fff" stroke="#000" stroke-linejoin="round" stroke-width="2" fill-rule="evenodd"/>
          <path id="Path_20452" data-name="Path 20452" d="M1435.441,573.727l8.768-5.062-8.77-5.063v10.124Z" transform="translate(-1391.589 -538.289)" fill="#fff" stroke="#000" stroke-linejoin="round" stroke-width="2" fill-rule="evenodd"/>
          <path id="Path_20453" data-name="Path 20453" d="M1435.121,563.419l-8.77-5.063V568.48Z" transform="translate(-1391.272 -538.106)" fill="#fff" stroke="#000" stroke-linejoin="round" stroke-width="2" fill-rule="evenodd"/>
          <path id="Path_20454" data-name="Path 20454" d="M1417.264,553.109v10.124l8.769-5.061Z" transform="translate(-1390.954 -537.922)" fill="#fff" stroke="#000" stroke-linejoin="round" stroke-width="2" fill-rule="evenodd"/>
          <path id="Path_20455" data-name="Path 20455" d="M1453.3,574.1l-8.768,5.062,8.768,5.062Z" transform="translate(-1391.907 -538.656)" stroke="#000" stroke-linejoin="round" stroke-width="2" fill-rule="evenodd"/>
          <path id="Path_20456" data-name="Path 20456" d="M1462.384,579.341l-8.768,5.062,8.768,5.062Z" transform="translate(-1392.225 -538.839)" stroke="#000" stroke-linejoin="round" stroke-width="2" fill-rule="evenodd"/>
          <path id="Path_20457" data-name="Path 20457" d="M1444.209,568.849l-8.768,5.062,8.768,5.062Z" transform="translate(-1391.589 -538.472)" stroke="#000" stroke-linejoin="round" stroke-width="2" fill-rule="evenodd"/>
          <path id="Path_20458" data-name="Path 20458" d="M1435.121,563.6l-8.768,5.062,8.768,5.062V563.6Z" transform="translate(-1391.272 -538.289)" stroke="#000" stroke-linejoin="round" stroke-width="2" fill-rule="evenodd"/>
          <path id="Path_20459" data-name="Path 20459" d="M1426.034,568.48V558.355l-8.77,5.063Z" transform="translate(-1390.954 -538.106)" stroke="#000" stroke-linejoin="round" stroke-width="2" fill-rule="evenodd"/>
          <path id="Path_20460" data-name="Path 20460" d="M1416.946,553.109l-8.768,5.061,8.768,5.062Z" transform="translate(-1390.636 -537.922)" stroke="#000" stroke-linejoin="round" stroke-width="2" fill-rule="evenodd"/>
          <path id="Path_20461" data-name="Path 20461" d="M1398.771,552.742V542.617L1390,547.68Z" transform="translate(-1390.001 -537.555)" stroke="#000" stroke-linejoin="round" stroke-width="2" fill-rule="evenodd"/>
          <path id="Path_20462" data-name="Path 20462" d="M1407.859,557.987V547.863l-8.77,5.063Z" transform="translate(-1390.319 -537.739)" stroke="#000" stroke-linejoin="round" stroke-width="2" fill-rule="evenodd"/>
        </g>
      </g>
      <g id="_00_FACHSCHAFT" data-name="00_FACHSCHAFT" transform="translate(977.06 380.599)">
        <path id="_00_FACHSHAFT_FLOOR" data-name="00_FACHSHAFT_FLOOR" d="M1052.554,493.528l17.589-10.155,90.2,52.076,67.016-38.692,105.273,60.78,43.826-25.3-35.066-20.245-8.769-5.062c0-.019-201.32-116.251-201.32-116.251l-128.433,74.15Z" transform="translate(-1002.866 -390.676)" fill="#fff" stroke="#000" stroke-linejoin="round" stroke-width="2" fill-rule="evenodd"/>
        <path id="Path_20406" data-name="Path 20406" d="M1052.554,506.358l17.589-10.155,90.2,52.075,67.015-38.691,105.273,60.78,43.841-25.312V534.911l-43.841,25.312-105.273-60.78-67.015,38.691-90.2-52.075-17.589,10.155-49.688-28.7v10.144Z" transform="translate(-1002.866 -393.362)" stroke="#000" stroke-linejoin="round" stroke-width="2" fill-rule="evenodd"/>
      </g>
      <g id="_00_FACHSCHAFT_TEXT" data-name="00_FACHSCHAFT TEXT" transform="translate(1044.259 443.942)">
        <path id="Path_20515" data-name="Path 20515" d="M1130.675,495.832l6.061,25.9-4.2-2.426-1.028-5.175-5.361-3.095-1.055,3.972-4.158-2.4,6.144-18.854Zm-3.663,11.934,3.635,2.1-1.795-9.021-1.84,6.922" transform="translate(-1074.192 -457.621)"/>
        <path id="Path_20516" data-name="Path 20516" d="M1125.492,467.525l6.061,25.909-4.2-2.423-1.029-5.181-5.367-3.1-1.054,3.98-4.159-2.4,6.151-18.858Zm-3.662,11.94,3.641,2.1-1.8-9.033-1.839,6.93" transform="translate(-1074.011 -456.632)"/>
        <path id="Path_20517" data-name="Path 20517" d="M1117.069,462.534l-.01,3.767-6.845-3.952-.016,5.728,6.112,3.529-.011,3.752-6.112-3.529-.026,9.126-3.931-2.27.063-22.373Z" transform="translate(-1073.678 -456.312)"/>
        <path id="Path_20518" data-name="Path 20518" d="M1140.574,475.894a12.491,12.491,0,0,1,4.831,4.831,16.184,16.184,0,0,1,1.863,6.955l-3.943-2.277a9.369,9.369,0,0,0-.631-3.634,4.986,4.986,0,0,0-2.13-2.13c-1.047-.605-1.794-.611-2.234-.02s-.677,1.849-.708,3.775l-.012,4.219a14.145,14.145,0,0,0,.634,4.955,5.018,5.018,0,0,0,2.227,2.534q1.543.89,2.141.363c.39-.349.62-1.265.674-2.759l3.932,2.27c-.106,2.5-.734,4.065-1.884,4.72s-2.778.361-4.873-.848a12.586,12.586,0,0,1-5.058-5.417,17.918,17.918,0,0,1-1.736-8.136l.011-3.767q.013-4.609,1.838-6.059T1140.574,475.894Z" transform="translate(-1074.637 -456.96)"/>
        <path id="Path_20519" data-name="Path 20519" d="M1150.032,506.881l-.01,3.759-6.845-3.952-.016,5.735,6.112,3.529-.011,3.745-6.112-3.529-.026,9.126-3.931-2.27.063-22.366Z" transform="translate(-1074.83 -457.863)"/>
        <path id="Path_20520" data-name="Path 20520" d="M1165.6,515.87l-.011,3.759-4.812-2.778-.053,18.606-3.943-2.277.053-18.606-4.732-2.732.011-3.759Z" transform="translate(-1075.282 -458.122)"/>
        <path id="Path_20521" data-name="Path 20521" d="M1163.911,489.579l-.063,22.373-3.919-2.262.027-9.572-5.8-3.351-.027,9.572-3.931-2.269.063-22.373,3.931,2.269-.026,9.048,5.8,3.351.026-9.048Z" transform="translate(-1075.215 -457.2)"/>
        <path id="Path_20522" data-name="Path 20522" d="M1079.2,465.761a11.917,11.917,0,0,1,3.2,2.718,12.641,12.641,0,0,1,2.156,3.7,11.468,11.468,0,0,1,.741,4.031l-3.919-2.263a5.984,5.984,0,0,0-.572-2.727,4.2,4.2,0,0,0-1.673-1.789q-1.035-.6-1.61-.227a1.724,1.724,0,0,0-.579,1.552,4.145,4.145,0,0,0,.636,2.034,16.451,16.451,0,0,0,2.27,2.856,22.508,22.508,0,0,1,4.132,5.3,10.9,10.9,0,0,1,1.275,5.119q-.009,2.92-1.633,3.631c-1.082.467-2.55.173-4.4-.9a13.387,13.387,0,0,1-3.429-2.874,13.987,13.987,0,0,1-2.421-3.951,11.675,11.675,0,0,1-.864-4.427l3.944,2.277a6.8,6.8,0,0,0,.645,3.188,5.286,5.286,0,0,0,2.136,2.112q2.061,1.19,2.071-1.314a4.69,4.69,0,0,0-.6-2.413,16.018,16.018,0,0,0-2.208-2.736,23.615,23.615,0,0,1-4.206-5.421,10.235,10.235,0,0,1-1.27-4.783c0-1.891.589-3.064,1.756-3.539S1077.411,464.73,1079.2,465.761Z" transform="translate(-1072.499 -456.606)"/>
        <path id="Path_20523" data-name="Path 20523" d="M1094.961,474.867a12.48,12.48,0,0,1,4.831,4.839,16.074,16.074,0,0,1,1.856,6.951l-3.943-2.278a9.273,9.273,0,0,0-.625-3.63,4.967,4.967,0,0,0-2.129-2.129c-1.054-.609-1.794-.618-2.234-.021s-.678,1.85-.708,3.768l-.011,4.227a14.068,14.068,0,0,0,.634,4.947,4.976,4.976,0,0,0,2.221,2.53c1.034.6,1.75.72,2.146.374s.615-1.277.675-2.759l3.931,2.269q-.158,3.739-1.89,4.71t-4.872-.842a12.588,12.588,0,0,1-5.052-5.42,17.894,17.894,0,0,1-1.735-8.136l.011-3.759q.013-4.609,1.837-6.06T1094.961,474.867Z" transform="translate(-1073.043 -456.924)"/>
        <path id="Path_20524" data-name="Path 20524" d="M1118.3,488.559l-.063,22.366-3.919-2.262.027-9.572-5.8-3.351-.027,9.572-3.931-2.27.063-22.366,3.931,2.27-.026,9.048,5.8,3.351.026-9.048Z" transform="translate(-1073.62 -457.164)"/>
      </g>
      <g id="_00_URBAN_DESIGN" data-name="00_URBAN DESIGN" transform="translate(969.857 113.326)">
        <path id="_00_URBAN_DESIGN_FLOOR" data-name="00_URBAN DESIGN FLOOR" d="M1019.691,296.1,995.4,310.123l24.29,14.024,36.718,21.2,43.841-25.312,120.439,69.535,164.289-94.852,87.7,50.634,132.049-76.238L1335.58,113.721Z" transform="translate(-995.402 -113.721)" fill="#fff" stroke="#000" stroke-linejoin="round" stroke-width="2" fill-rule="evenodd"/>
        <path id="_00_URBAN_DESIGN_HATCH" data-name="00_URBAN DESIGN HATCH" d="M995.4,325.9l61.007,35.222,43.841-25.311,120.438,69.535s155.519-89.808,155.519-89.808l8.77-5.064,87.7,50.634c0,.019,132.049-76.219,132.049-76.219V274.742L1472.677,350.98l-87.7-50.633L1220.689,395.2,1100.25,325.663l-43.841,25.312L995.4,315.752Z" transform="translate(-995.402 -119.35)" stroke="#000" stroke-linecap="round" stroke-linejoin="round" stroke-width="2"/>
        <g id="_00_URBAN_DESIGN_STAIRS" data-name="00_URBAN DESIGN_STAIRS" transform="translate(293.106 191.121)">
          <path id="Path_20413" data-name="Path 20413" d="M1299.124,474.209l43.85,25.317,8.77-5.063-43.85-25.317Z" transform="translate(-1299.124 -317.266)" fill="#fff" stroke="#000" stroke-linejoin="round" stroke-width="2" fill-rule="evenodd"/>
          <path id="Path_20414" data-name="Path 20414" d="M1308.212,458.471l43.85,25.317,8.77-5.063-43.85-25.317Z" transform="translate(-1299.442 -316.716)" fill="#fff" stroke="#000" stroke-linejoin="round" stroke-width="2" fill-rule="evenodd"/>
          <path id="Path_20415" data-name="Path 20415" d="M1317.3,442.733l43.85,25.317,8.77-5.063-43.85-25.317Z" transform="translate(-1299.76 -316.166)" fill="#fff" stroke="#000" stroke-linejoin="round" stroke-width="2" fill-rule="evenodd"/>
          <path id="Path_20416" data-name="Path 20416" d="M1326.387,427l43.85,25.317,8.77-5.063-43.85-25.317Z" transform="translate(-1300.077 -315.616)" fill="#fff" stroke="#000" stroke-linejoin="round" stroke-width="2" fill-rule="evenodd"/>
          <path id="Path_20417" data-name="Path 20417" d="M1335.475,411.257l43.85,25.317,8.77-5.063-43.85-25.317Z" transform="translate(-1300.395 -315.066)" fill="#fff" stroke="#000" stroke-linejoin="round" stroke-width="2" fill-rule="evenodd"/>
          <path id="Path_20418" data-name="Path 20418" d="M1344.563,395.519l43.85,25.317,8.77-5.063-43.85-25.317Z" transform="translate(-1300.713 -314.516)" fill="#fff" stroke="#000" stroke-linejoin="round" stroke-width="2" fill-rule="evenodd"/>
          <path id="Path_20419" data-name="Path 20419" d="M1353.65,379.781,1397.5,405.1l8.77-5.063-43.85-25.317Z" transform="translate(-1301.03 -313.965)" fill="#fff" stroke="#000" stroke-linejoin="round" stroke-width="2" fill-rule="evenodd"/>
          <path id="Path_20420" data-name="Path 20420" d="M1371.508,358.979l-8.77,5.063,43.85,25.317,8.77-5.063Z" transform="translate(-1301.348 -313.415)" fill="#fff" stroke="#000" stroke-linejoin="round" stroke-width="2" fill-rule="evenodd"/>
          <path id="Path_20421" data-name="Path 20421" d="M1371.826,348.3l43.85,25.317,8.77-5.063-43.85-25.317Z" transform="translate(-1301.666 -312.865)" fill="#fff" stroke="#000" stroke-linejoin="round" stroke-width="2" fill-rule="evenodd"/>
          <path id="Path_20422" data-name="Path 20422" d="M1389.683,327.5l-8.77,5.063,43.85,25.317,8.77-5.063Z" transform="translate(-1301.983 -312.315)" fill="#fff" stroke="#000" stroke-linejoin="round" stroke-width="2" fill-rule="evenodd"/>
          <path id="Path_20423" data-name="Path 20423" d="M1390,316.828l43.85,25.317,8.77-5.063-43.85-25.317Z" transform="translate(-1302.301 -311.765)" fill="#fff" stroke="#000" stroke-linejoin="round" stroke-width="2" fill-rule="evenodd"/>
          <path id="Path_20424" data-name="Path 20424" d="M1390,317.012v10.125l43.85,25.317V342.328Z" transform="translate(-1302.301 -311.948)" stroke="#000" stroke-linejoin="round" stroke-width="2" fill-rule="evenodd"/>
          <path id="Path_20425" data-name="Path 20425" d="M1380.913,332.75v10.125l43.85,25.317V358.067Z" transform="translate(-1301.983 -312.498)" stroke="#000" stroke-linejoin="round" stroke-width="2" fill-rule="evenodd"/>
          <path id="Path_20426" data-name="Path 20426" d="M1371.826,358.613l43.85,25.317V373.8l-43.85-25.317Z" transform="translate(-1301.666 -313.049)" stroke="#000" stroke-linejoin="round" stroke-width="2" fill-rule="evenodd"/>
          <path id="Path_20427" data-name="Path 20427" d="M1362.738,364.226v10.125l43.85,25.317V389.543Z" transform="translate(-1301.348 -313.599)" stroke="#000" stroke-linejoin="round" stroke-width="2" fill-rule="evenodd"/>
          <path id="Path_20428" data-name="Path 20428" d="M1353.65,390.089l43.85,25.317V405.281l-43.85-25.317Z" transform="translate(-1301.03 -314.149)" stroke="#000" stroke-linejoin="round" stroke-width="2" fill-rule="evenodd"/>
          <path id="Path_20429" data-name="Path 20429" d="M1344.563,395.7v10.125l43.85,25.317V421.019Z" transform="translate(-1300.713 -314.699)" stroke="#000" stroke-linejoin="round" stroke-width="2" fill-rule="evenodd"/>
          <path id="Path_20430" data-name="Path 20430" d="M1335.475,421.565l43.85,25.317V436.757l-43.85-25.317Z" transform="translate(-1300.395 -315.249)" stroke="#000" stroke-linejoin="round" stroke-width="2" fill-rule="evenodd"/>
          <path id="Path_20431" data-name="Path 20431" d="M1326.387,427.178V437.3l43.85,25.317V452.5Z" transform="translate(-1300.077 -315.799)" stroke="#000" stroke-linejoin="round" stroke-width="2" fill-rule="evenodd"/>
          <path id="Path_20432" data-name="Path 20432" d="M1317.3,453.041l43.85,25.317V468.233l-43.85-25.317Z" transform="translate(-1299.76 -316.349)" stroke="#000" stroke-linejoin="round" stroke-width="2" fill-rule="evenodd"/>
          <path id="Path_20433" data-name="Path 20433" d="M1308.212,468.779l43.85,25.317V483.972l-43.85-25.317Z" transform="translate(-1299.442 -316.899)" stroke="#000" stroke-linejoin="round" stroke-width="2" fill-rule="evenodd"/>
          <path id="Path_20434" data-name="Path 20434" d="M1299.124,474.393v10.125l43.85,25.317V499.71Z" transform="translate(-1299.124 -317.45)" stroke="#000" stroke-linejoin="round" stroke-width="2" fill-rule="evenodd"/>
        </g>
      </g>
      <g id="_00_URBAN_DESIGN_TEXT" data-name="00_URBAN DESIGN TEXT" transform="translate(1443.197 110.574)">
        <path id="Path_17082" data-name="Path 17082" d="M1520.416,3450.515a27.994,27.994,0,0,1,3.464,13.569l-.017,6.147q-.021,7.469-3.467,9.736-3.44,2.283-9.465-1.2l-8.541-4.931.107-37.892,8.722,5.035A24.239,24.239,0,0,1,1520.416,3450.515Zm-3.215,16.52.019-6.587a20.347,20.347,0,0,0-1.267-8.148,10.835,10.835,0,0,0-4.39-4.74l-2.423-1.4-.072,25.166,1.992,1.15q3.333,1.924,4.693.7t1.448-6.139" transform="translate(-1502.268 -3394.789)"/>
        <path id="Path_17083" data-name="Path 17083" d="M1524.071,3410.764l-.074,26.23q-.059,5.882-2.853,7.412t-8.006-1.48a21.578,21.578,0,0,1-8.086-7.851,20.933,20.933,0,0,1-2.775-10.806l.074-26.046,6.708,3.873-.073,26.078a12.016,12.016,0,0,0,.893,5.126,7.7,7.7,0,0,0,3.276,3.279q2.383,1.375,3.264.513c.595-.571.9-1.894.919-3.967l.074-26.207Z" transform="translate(-1502.278 -3398.223)"/>
        <path id="Path_17084" data-name="Path 17084" d="M1545.408,3460.719l-.018,6.371-12.232-7.062-.026,8.957,10.372,5.989-.017,6.163-10.372-5.988-.028,10.045,12.274,7.086-.018,6.356-18.933-10.931.107-37.892Z" transform="translate(-1500.081 -3393.527)"/>
        <path id="Path_17085" data-name="Path 17085" d="M1543.161,3443.839l5.731,18.839v.368l-7.161-4.134-4.921-16.711-3.308-1.911-.039,13.847-6.653-3.84.108-37.893,10.616,6.129a21.049,21.049,0,0,1,7.731,7.445,19.136,19.136,0,0,1,2.706,10.054Q1547.948,3443.572,1543.161,3443.839Zm-2.861-7.536c.666-.635,1-1.795,1.008-3.491q.016-5.7-3.857-7.935l-3.9-2.252-.033,11.293,3.783,2.184c1.331.768,2.328.831,3,.2" transform="translate(-1500.045 -3396.932)"/>
        <path id="Path_17086" data-name="Path 17086" d="M1557.764,3466.984a20.114,20.114,0,0,1,5.408,4.6,21.142,21.142,0,0,1,3.645,6.257,19.234,19.234,0,0,1,1.265,6.831l-6.639-3.833a10.173,10.173,0,0,0-.97-4.617,7.143,7.143,0,0,0-2.839-3.033c-1.163-.672-2.07-.794-2.72-.384s-.98,1.294-.984,2.63a7,7,0,0,0,1.079,3.446,28.011,28.011,0,0,0,3.845,4.841,37.82,37.82,0,0,1,6.993,8.968,18.405,18.405,0,0,1,2.166,8.675c-.009,3.3-.936,5.345-2.766,6.148s-4.321.3-7.462-1.518a22.693,22.693,0,0,1-5.812-4.871,23.446,23.446,0,0,1-4.1-6.687,19.807,19.807,0,0,1-1.465-7.5l6.68,3.857a11.571,11.571,0,0,0,1.094,5.4,8.964,8.964,0,0,0,3.618,3.581q3.491,2.015,3.5-2.228a7.952,7.952,0,0,0-1.021-4.094,26.741,26.741,0,0,0-3.74-4.628,40.05,40.05,0,0,1-7.119-9.178,17.387,17.387,0,0,1-2.154-8.114q.013-4.79,2.975-5.986T1557.764,3466.984Z" transform="translate(-1498.26 -3392.128)"/>
        <path id="Path_17087" data-name="Path 17087" d="M1570.37,3458.85a15.738,15.738,0,0,1,1.183,6.119q-.015,5.523-2.657,6.812t-7.656-1.606l-10.916-6.3.107-37.892,10.191,5.884a22.216,22.216,0,0,1,7.844,7.175,16.793,16.793,0,0,1,2.66,9.288,7.051,7.051,0,0,1-1.122,4.331,3.3,3.3,0,0,1-3.046,1.3A13.342,13.342,0,0,1,1570.37,3458.85Zm-6.385,5.269c.615-.494.932-1.522.937-3.083.009-3.4-1.058-5.758-3.2-7.084l-4.687-2.707L1557,3461.37l4.256,2.458c1.2.692,2.106.782,2.728.292m-6.912-27.914-.027,9.469,3.47,2q3.918,2.264,3.928-2.4a8.624,8.624,0,0,0-.9-4.22,7.506,7.506,0,0,0-2.943-2.814l-3.531-2.039" transform="translate(-1497.904 -3395.696)"/>
        <path id="Path_17088" data-name="Path 17088" d="M1577.268,3479.114l-.107,37.892-6.659-3.845.107-37.893Z" transform="translate(-1496.068 -3391.209)"/>
        <path id="Path_17089" data-name="Path 17089" d="M1629.765,3509.422l-.107,37.892L1623,3543.47l-9.668-30.476-.07,24.854L1606.6,3534l.107-37.892,6.659,3.845,9.689,30.512.07-24.877Z" transform="translate(-1492.782 -3389.313)"/>
        <path id="Path_17090" data-name="Path 17090" d="M1622.727,3467.72l-.107,37.892-6.659-3.845-9.668-30.476-.071,24.853-6.659-3.845.108-37.892,6.659,3.844,9.7,30.516.07-24.877Z" transform="translate(-1493.422 -3393.109)"/>
        <path id="Path_17091" data-name="Path 17091" d="M1593.046,3487.341a21.72,21.72,0,0,1,8.086,7.715,25.207,25.207,0,0,1,3.128,11.379l-6.471-3.737a14.426,14.426,0,0,0-1.3-5.7,8.3,8.3,0,0,0-3.257-3.195q-2.7-1.556-3.928,0c-.819,1.043-1.244,3.2-1.289,6.481l-.02,6.867a21.3,21.3,0,0,0,1.33,8.312,10.2,10.2,0,0,0,4.417,4.907,5.155,5.155,0,0,0,3.2.942l.587-.135.02-6.948-4.66-2.691.016-5.778,11.34,6.547-.045,15.64a6.565,6.565,0,0,1-4.726.887,17.638,17.638,0,0,1-6.133-2.331,22.715,22.715,0,0,1-8.822-9.149,29.1,29.1,0,0,1-3.205-13.645l.02-6.82q.021-7.828,3.016-10.341T1593.046,3487.341Z" transform="translate(-1495.084 -3390.281)"/>
        <path id="Path_17092" data-name="Path 17092" d="M1588.709,3447.583l10.264,43.881-7.111-4.107-1.74-8.773-9.084-5.245-1.791,6.735-7.043-4.066,10.417-31.94Zm-6.2,20.213,6.158,3.556-3.041-15.281-3.117,11.725" transform="translate(-1495.913 -3394.05)"/>
      </g>
      <g id="_00_TOILET" data-name="00_TOILET" transform="translate(959.73 440.87)">
        <path id="Path_20407" data-name="Path 20407" d="M1052.855,468.634l-41.37,24.4v99.5l35-20.642,6.367-3.754Z" transform="translate(-985.838 -453.671)" fill="#fff" stroke="#000" stroke-linejoin="round" stroke-width="2.021" fill-rule="evenodd"/>
        <path id="Path_20408" data-name="Path 20408" d="M984.909,477.88l25.648,15.473v99.5l-17.5-10.321-8.146-4.8Z" transform="translate(-984.909 -453.995)" fill="#fff" stroke="#000" stroke-linejoin="round" stroke-width="2.021" fill-rule="evenodd"/>
        <path id="Path_20409" data-name="Path 20409" d="M984.909,477.015l25.648,15.473,41.37-24.4-25.648-14.963Z" transform="translate(-984.909 -453.129)" fill="#fff" stroke="#000" stroke-linejoin="round" stroke-width="2.021" fill-rule="evenodd"/>
        <path id="Path_20410" data-name="Path 20410" d="M1046.806,511.964l-26.235,15.471v61.438l26.235-15.471Z" transform="translate(-986.155 -455.186)" fill="#fff" stroke="#000" stroke-linejoin="round" stroke-width="1" fill-rule="evenodd"/>
      </g>
      <g id="_00_MARCH-T" data-name="00_MARCH-T" transform="translate(281.428 143.243)">
        <path id="_00_MARCH-T_FLOOR" data-name="00_MARCH-T FLOOR" d="M760.357,144.722,282.037,420.88,455.863,521.238,638.175,415.98c0,.03,139.536,80.567,139.536,80.567L891.4,430.905,751.87,350.338l155.2-89.606,27.109-15.652-27.109-15.651Z" transform="translate(-282.037 -144.722)" fill="#fff" stroke="#000" stroke-linejoin="round" stroke-width="2" fill-rule="evenodd"/>
        <g id="_00_MARCH-T_HATCH" data-name="00_MARCH-T HATCH" transform="translate(0 100.358)">
          <path id="Path_20464" data-name="Path 20464" d="M282.037,440.851,455.863,541.209,638.175,435.951,743.4,496.7l34.308,19.813L891.4,450.876V440.731L777.711,506.373,638.175,425.836c-.025-.014-182.312,105.228-182.312,105.228L282.037,430.707Z" transform="translate(-282.037 -254.907)" stroke="#000" stroke-linejoin="round" stroke-width="2" fill-rule="evenodd"/>
          <path id="Path_20463" data-name="Path 20463" d="M951.2,248.715,768.888,353.974l8.785,5.072L951.2,258.86Z" transform="translate(-299.055 -248.715)" stroke="#000" stroke-linejoin="round" stroke-width="2" fill-rule="evenodd"/>
        </g>
        <g id="_00_MARCH-T_STAIRS" data-name="00_MARCH-T_STAIRS" transform="translate(329.825 316.839)">
          <path id="Path_20466" data-name="Path 20466" d="M623.809,577.956V588.1l43.85,25.316c0-.019,43.841-25.331,43.841-25.331V577.961l-43.841,25.312Z" transform="translate(-623.809 -476.704)" stroke="#000" stroke-linecap="round" stroke-linejoin="round" stroke-width="2"/>
          <path id="Path_20467" data-name="Path 20467" d="M758.2,656.463l-8.768-5.062L705.59,676.712l8.768,5.062Z" transform="translate(-626.667 -479.272)" fill="#fff" stroke="#000" stroke-linejoin="round" stroke-width="2" fill-rule="evenodd"/>
          <path id="Path_20468" data-name="Path 20468" d="M749.113,640.726l-8.768-5.062L696.5,660.975l8.768,5.062Z" transform="translate(-626.35 -478.722)" fill="#fff" stroke="#000" stroke-linejoin="round" stroke-width="2" fill-rule="evenodd"/>
          <path id="Path_20469" data-name="Path 20469" d="M731.259,619.927l-43.841,25.312,8.768,5.062,43.841-25.312Z" transform="translate(-626.032 -478.171)" fill="#fff" stroke="#000" stroke-linejoin="round" stroke-width="2" fill-rule="evenodd"/>
          <path id="Path_20470" data-name="Path 20470" d="M730.942,609.252l-8.768-5.062L678.333,629.5l8.768,5.062Z" transform="translate(-625.715 -477.621)" fill="#fff" stroke="#000" stroke-linejoin="round" stroke-width="2" fill-rule="evenodd"/>
          <path id="Path_20471" data-name="Path 20471" d="M713.088,588.453l-43.841,25.312,8.768,5.062,43.841-25.312Z" transform="translate(-625.397 -477.071)" fill="#fff" stroke="#000" stroke-linejoin="round" stroke-width="2" fill-rule="evenodd"/>
          <path id="Path_20472" data-name="Path 20472" d="M705.588,478.1l43.85,25.317,8.77-5.063-43.85-25.317Z" transform="translate(-626.667 -473.037)" fill="#fff" stroke="#000" stroke-linejoin="round" stroke-width="2" fill-rule="evenodd"/>
          <path id="Path_20473" data-name="Path 20473" d="M696.5,493.838l43.85,25.317,8.77-5.063-43.85-25.317Z" transform="translate(-626.35 -473.587)" fill="#fff" stroke="#000" stroke-linejoin="round" stroke-width="2" fill-rule="evenodd"/>
          <path id="Path_20474" data-name="Path 20474" d="M687.413,509.576l43.85,25.317,8.77-5.063-43.85-25.317Z" transform="translate(-626.032 -474.137)" fill="#fff" stroke="#000" stroke-linejoin="round" stroke-width="2" fill-rule="evenodd"/>
          <path id="Path_20475" data-name="Path 20475" d="M678.325,525.315l43.85,25.317,8.77-5.063L687.1,520.251Z" transform="translate(-625.714 -474.687)" fill="#fff" stroke="#000" stroke-linejoin="round" stroke-width="2" fill-rule="evenodd"/>
          <path id="Path_20476" data-name="Path 20476" d="M669.237,541.053l43.85,25.317,8.77-5.063-43.85-25.317Z" transform="translate(-625.397 -475.237)" fill="#fff" stroke="#000" stroke-linejoin="round" stroke-width="2" fill-rule="evenodd"/>
          <path id="Path_20477" data-name="Path 20477" d="M667.65,551.727l-43.841,25.312,43.85,25.317L711.5,577.044Z" transform="translate(-623.809 -475.787)" fill="#fff" stroke="#000" stroke-linejoin="round" stroke-width="2" fill-rule="evenodd"/>
          <path id="Path_20478" data-name="Path 20478" d="M705.588,478.284v10.125l43.85,25.317V503.6Z" transform="translate(-626.667 -473.22)" stroke="#000" stroke-linejoin="round" stroke-width="2" fill-rule="evenodd"/>
          <path id="Path_20479" data-name="Path 20479" d="M696.5,504.146l43.85,25.317V519.339L696.5,494.022Z" transform="translate(-626.35 -473.77)" stroke="#000" stroke-linejoin="round" stroke-width="2" fill-rule="evenodd"/>
          <path id="Path_20480" data-name="Path 20480" d="M687.413,509.76v10.125l43.85,25.317V535.077Z" transform="translate(-626.032 -474.32)" stroke="#000" stroke-linejoin="round" stroke-width="2" fill-rule="evenodd"/>
          <path id="Path_20481" data-name="Path 20481" d="M678.325,535.623l43.85,25.317V550.815L678.325,525.5Z" transform="translate(-625.714 -474.871)" stroke="#000" stroke-linejoin="round" stroke-width="2" fill-rule="evenodd"/>
          <path id="Path_20482" data-name="Path 20482" d="M669.237,551.361l43.85,25.317V566.553l-43.85-25.317Z" transform="translate(-625.397 -475.421)" stroke="#000" stroke-linejoin="round" stroke-width="2" fill-rule="evenodd"/>
          <path id="Path_20483" data-name="Path 20483" d="M758.517,656.646l-43.841,25.312v10.125l43.841-25.312Z" transform="translate(-626.985 -479.455)" stroke="#000" stroke-linejoin="round" stroke-width="2" fill-rule="evenodd"/>
          <path id="Path_20484" data-name="Path 20484" d="M749.431,651.034V640.909L705.59,666.221v10.125Z" transform="translate(-626.667 -478.905)" stroke="#000" stroke-linejoin="round" stroke-width="2" fill-rule="evenodd"/>
          <path id="Path_20485" data-name="Path 20485" d="M740.345,625.172,696.5,650.484v10.125L740.345,635.3Z" transform="translate(-626.35 -478.355)" stroke="#000" stroke-linejoin="round" stroke-width="2" fill-rule="evenodd"/>
          <path id="Path_20486" data-name="Path 20486" d="M731.259,619.56V609.435l-43.841,25.312v10.125Z" transform="translate(-626.032 -477.805)" stroke="#000" stroke-linejoin="round" stroke-width="2" fill-rule="evenodd"/>
          <path id="Path_20487" data-name="Path 20487" d="M722.174,593.7,678.333,619.01v10.125l43.841-25.312Z" transform="translate(-625.715 -477.255)" stroke="#000" stroke-linejoin="round" stroke-width="2" fill-rule="evenodd"/>
        </g>
      </g>
      <g id="_00_MARCH-T_TEXT" data-name="00_MARCH-T_TEXT" transform="translate(280.518 235.507)">
        <path id="Path_17093" data-name="Path 17093" d="M319.431,3625.55l.138,48.7-8.583,4.955-.037-13.183.725-20.757-8.377,38.38-5.823,3.362-8.561-28.6.84,19.854.037,13.183-8.558,4.941-.138-48.7,11.177-6.453,8.11,30.6L308.254,3632Z" transform="translate(-281.095 -3512.857)"/>
        <path id="Path_17094" data-name="Path 17094" d="M346.156,3610.484l13.471,41.006-9.143,5.279-2.3-8.66-11.676,6.741-2.239,11.278-9.051,5.226,13.1-56.348Zm-7.8,35.09,7.918-4.571-4.012-15.073-3.906,19.644" transform="translate(-282.637 -3512.33)"/>
        <path id="Path_17095" data-name="Path 17095" d="M385.9,3615.943l7.481,15.65v.467l-9.2,5.312-6.427-14.118-4.252,2.455.051,17.8L365,3648.45l-.138-48.7,13.654-7.882q6.432-3.715,9.955-1.912t3.537,8.865A26.029,26.029,0,0,1,385.9,3615.943Zm-3.718-5.413a13.655,13.655,0,0,0,1.267-5.973q-.022-7.328-5-4.453L373.443,3603l.041,14.521,4.862-2.806a9.308,9.308,0,0,0,3.839-4.18" transform="translate(-284.023 -3511.592)"/>
        <path id="Path_17096" data-name="Path 17096" d="M413.187,3571.12q6.932-4,10.537-1.622t4.127,10.41l-8.589,4.959c-.083-3.391-.552-5.489-1.4-6.312s-2.4-.57-4.652.728a10.919,10.919,0,0,0-4.853,5.568,28.887,28.887,0,0,0-1.49,9.958l.026,9.2q.02,7.254,1.446,9.151c.942,1.265,2.564,1.228,4.85-.092a11.052,11.052,0,0,0,4.652-4.579,19.486,19.486,0,0,0,1.435-7.679l8.558-4.941a31.482,31.482,0,0,1-4.037,14.961,28.285,28.285,0,0,1-10.586,10.4q-7.19,4.152-11.032.924t-3.87-13.29l-.023-8.2a38.27,38.27,0,0,1,3.911-17.754A27.869,27.869,0,0,1,413.187,3571.12Z" transform="translate(-285.191 -3510.867)"/>
        <path id="Path_17097" data-name="Path 17097" d="M463.992,3542.268l.138,48.7-8.527,4.923-.059-20.843-12.631,7.292.059,20.843-8.558,4.941-.138-48.7,8.558-4.941.056,19.7,12.631-7.292-.056-19.7Z" transform="translate(-286.449 -3509.946)"/>
        <path id="Path_17098" data-name="Path 17098" d="M486.676,3554.281l.022,7.894-14.233,8.218-.022-7.894Z" transform="translate(-287.783 -3510.365)"/>
        <path id="Path_17099" data-name="Path 17099" d="M522.016,3508.775l.023,8.192-10.481,6.051.115,40.511-8.589,4.959-.115-40.512-10.3,5.948-.023-8.192Z" transform="translate(-288.489 -3508.775)"/>
      </g>
      <g id="_00_ARCH_FORUM" data-name="00_ARCH FORUM" transform="translate(698.944 495.509)">
        <path id="_00_ARCH_FORUM_FLOOR" data-name="00_ARCH FORUM_FLOOR" d="M922.2,509.747,780.579,591.51l49.7,28.694-71.762,41.432-43.841,25.312,106.33,61.39,142.323,82.17,113.04-65.263,80.284-46.352,21.014,12.133,143.71-82.972-77.663-44.838-171.746,99.157-62.059-35.83-8.785-5.072,99.825-57.634-58.468-33.756-32.6,18.823v10.125l-58.455,33.749-62.675-36.186-8.785-5.072L922.2,567.135Z" transform="translate(-714.676 -509.747)" fill="#fff" stroke="#000" stroke-linejoin="round" stroke-width="2" fill-rule="evenodd"/>
        <g id="_00_ARCH_FORUM_HATCH" data-name="00_ARCH FORUM_HATCH" transform="translate(0 57.388)">
          <path id="Path_20491" data-name="Path 20491" d="M1177.667,736.035,1156.653,723.9,963.33,835.518,714.676,691.957V702.1L963.33,845.662l193.323-111.615,21.014,12.133,143.71-82.972V653.063Z" transform="translate(-714.676 -572.145)" stroke="#000" stroke-linejoin="round" stroke-width="2" fill-rule="evenodd"/>
          <path id="Path_20492" data-name="Path 20492" d="M782.966,594.472v10.144l40.914,23.622,8.785-5.072Z" transform="translate(-717.063 -570.097)" stroke="#000" stroke-linejoin="round" stroke-width="2" fill-rule="evenodd"/>
          <path id="Path_20493" data-name="Path 20493" d="M1020.284,669.951l91.039-52.562V607.245L1011.5,664.879Z" transform="translate(-725.051 -570.544)" stroke="#000" stroke-linejoin="round" stroke-width="2" fill-rule="evenodd"/>
          <path id="Path_20494" data-name="Path 20494" d="M928.184,569.214,885.95,593.6l8.785,5.072,33.448-19.311Z" transform="translate(-720.663 -569.214)" stroke="#000" stroke-linejoin="round" stroke-width="2" fill-rule="evenodd"/>
        </g>
      </g>
      <g id="_00_ARCH_FORUM_TEXT" data-name="00_ARCH FORUM TEXT" transform="translate(973.81 657.152)">
        <path id="Path_21531" data-name="Path 21531" d="M821.431,788.419l6.525,19.852-4.428,2.556-1.115-4.191-5.648,3.261-1.089,5.464-4.387,2.532,6.352-27.287Zm-3.775,16.991,3.83-2.211-1.942-7.3-1.888,9.508" transform="translate(-811.29 -700.043)"/>
        <path id="Path_21532" data-name="Path 21532" d="M839.3,791.8l3.625,7.579v.22l-4.453,2.572-3.118-6.833-2.057,1.188.025,8.618-4.143,2.391-.067-23.581,6.611-3.816q3.117-1.8,4.817-.925t1.714,4.289A12.6,12.6,0,0,1,839.3,791.8Zm-1.8-2.618a6.617,6.617,0,0,0,.616-2.9q-.009-3.546-2.419-2.155l-2.43,1.4.02,7.032,2.357-1.36a4.514,4.514,0,0,0,1.856-2.019" transform="translate(-810.585 -700.418)"/>
        <path id="Path_21533" data-name="Path 21533" d="M851.359,770.805q3.354-1.937,5.1-.784t2,5.043l-4.155,2.4c-.045-1.641-.273-2.654-.68-3.053s-1.164-.283-2.253.346a5.3,5.3,0,0,0-2.353,2.7,13.962,13.962,0,0,0-.718,4.814l.014,4.453q.009,3.524.7,4.434c.454.616,1.239.6,2.347-.042a5.343,5.343,0,0,0,2.254-2.217,9.468,9.468,0,0,0,.694-3.716l4.148-2.4a15.271,15.271,0,0,1-1.961,7.251,13.711,13.711,0,0,1-5.124,5.037q-3.476,2.005-5.344.449-1.859-1.572-1.873-6.442l-.012-3.966a18.53,18.53,0,0,1,1.9-8.6A13.485,13.485,0,0,1,851.359,770.805Z" transform="translate(-809.99 -700.787)"/>
        <path id="Path_21534" data-name="Path 21534" d="M874.713,757.749l.067,23.582-4.128,2.384-.029-10.09-6.119,3.533.029,10.09-4.148,2.4-.067-23.582,4.148-2.4.027,9.541,6.119-3.533-.027-9.541Z" transform="translate(-809.35 -701.255)"/>
        <path id="Path_21535" data-name="Path 21535" d="M881.685,753.5l.067,23.582-4.142,2.391-.067-23.582Z" transform="translate(-808.669 -701.425)"/>
        <path id="Path_21536" data-name="Path 21536" d="M898.209,744.18l.011,3.966-5.078,2.932.056,19.616-4.155,2.4-.056-19.616L884,756.358l-.011-3.966Z" transform="translate(-808.414 -701.793)"/>
        <path id="Path_21537" data-name="Path 21537" d="M904.433,765.251l.011,3.966-7.215,4.165.017,6.041,6.438-3.717.011,3.958-6.438,3.717.027,9.617-4.148,2.4-.067-23.582Z" transform="translate(-808.055 -700.959)"/>
        <path id="Path_21538" data-name="Path 21538" d="M918.744,759.317c1.325,1.022,2,3.148,2.025,6.363l.011,4.035a18.1,18.1,0,0,1-1.93,8.5,13.818,13.818,0,0,1-5.415,5.754c-2.3,1.33-4.11,1.5-5.437.533s-1.99-3.022-2.018-6.129l-.011-4.035a18.927,18.927,0,0,1,1.936-8.719,13.771,13.771,0,0,1,5.436-5.873Q916.765,757.77,918.744,759.317Zm-2.125,12.945-.011-4.1q-.009-3.19-.8-4.291c-.534-.731-1.351-.778-2.46-.138a5.64,5.64,0,0,0-2.433,2.9,13.87,13.87,0,0,0-.81,5.037l.011,4.195c.006,2.067.283,3.426.817,4.1s1.371.675,2.486.031a5.612,5.612,0,0,0,2.406-2.826,12.841,12.841,0,0,0,.79-4.91" transform="translate(-807.544 -701.22)"/>
        <path id="Path_21539" data-name="Path 21539" d="M911.714,736.329l.011,3.966-7.613,4.4.016,5.575,6.458-3.729.011,3.836-6.458,3.729.018,6.254,7.64-4.411.011,3.951-11.781,6.8-.067-23.582Z" transform="translate(-807.782 -702.103)"/>
        <path id="Path_21540" data-name="Path 21540" d="M933.247,762.286l3.618,7.582v.221l-4.453,2.572-3.11-6.837-2.057,1.188.024,8.618-4.148,2.4-.067-23.581,6.611-3.816q3.116-1.8,4.824-.929c1.132.584,1.707,2.017,1.714,4.289A12.639,12.639,0,0,1,933.247,762.286Zm-1.8-2.619a6.673,6.673,0,0,0,.609-2.9q-.009-3.546-2.419-2.155l-2.422,1.4.02,7.032,2.356-1.36a4.5,4.5,0,0,0,1.857-2.019" transform="translate(-806.868 -701.586)"/>
        <path id="Path_21541" data-name="Path 21541" d="M942.282,718.735l.011,3.966-5.078,2.932.056,19.616-4.155,2.4-.056-19.616-4.991,2.882-.011-3.966Z" transform="translate(-806.67 -702.8)"/>
        <path id="Path_21542" data-name="Path 21542" d="M927.941,727.018l-5.851,13.76,6.018,9.764-4.925,2.843-3.776-6.934-1.626,3.307.019,6.734-4.148,2.4-.067-23.582,4.148-2.395.029,10.281,1.3-3.294,3.8-9.948Z" transform="translate(-807.243 -702.471)"/>
        <path id="Path_21543" data-name="Path 21543" d="M957.386,710l.047,16.328a13.072,13.072,0,0,1-1.743,6.644,13.364,13.364,0,0,1-4.972,4.827c-2.2,1.268-3.878,1.574-5.043.934s-1.755-2.218-1.762-4.712l-.046-16.215,4.174-2.41.047,16.23a3.748,3.748,0,0,0,.572,2.542c.38.353,1.058.244,2.047-.326a4.736,4.736,0,0,0,2.028-2.019,7.6,7.6,0,0,0,.557-3.118l-.047-16.313Z" transform="translate(-806.045 -703.145)"/>
        <path id="Path_21544" data-name="Path 21544" d="M972.85,725.909l.067,23.582-4.155,2.4-.018-6.383.35-10.049-4.056,18.583-2.821,1.628-4.148-13.846.406,9.612.018,6.383-4.142,2.391-.067-23.582L959.7,733.5l3.925,14.815,3.814-19.284Z" transform="translate(-805.633 -702.515)"/>
        <path id="Path_21545" data-name="Path 21545" d="M970.1,716.281l3.625,7.578v.221l-4.454,2.572-3.11-6.836-2.065,1.191.025,8.618-4.142,2.391-.068-23.581,6.612-3.817q3.115-1.8,4.824-.928c1.132.584,1.707,2.008,1.714,4.289A12.621,12.621,0,0,1,970.1,716.281Zm-1.8-2.622a6.689,6.689,0,0,0,.609-2.9q-.009-3.546-2.419-2.155l-2.429,1.4.02,7.032,2.357-1.361a4.549,4.549,0,0,0,1.863-2.022" transform="translate(-805.41 -703.406)"/>
        <path id="Path_21546" data-name="Path 21546" d="M951.775,737.966l.046,16.33a13.061,13.061,0,0,1-1.742,6.644,13.309,13.309,0,0,1-4.972,4.827c-2.2,1.268-3.879,1.574-5.044.932s-1.755-2.218-1.762-4.711l-.046-16.215,4.175-2.41.047,16.23a3.748,3.748,0,0,0,.572,2.542c.379.353,1.057.253,2.047-.319a4.753,4.753,0,0,0,2.028-2.026,7.56,7.56,0,0,0,.556-3.118l-.046-16.314Z" transform="translate(-806.267 -702.039)"/>
      </g>
      <g id="_00_NEWS_BOARD" data-name="00_NEWS BOARD" transform="translate(1119.04 524.469)">
        <path id="_00_NEWS_BOARD-2" data-name="00_NEWS BOARD" d="M1229.4,3868.8v-67.6l-79.41,45.847v67.6Z" transform="translate(-1149.989 -3801.204)" fill="#fff" stroke="#000" stroke-linejoin="round" stroke-width="2" fill-rule="evenodd"/>
        <g id="_00_NEWS_TEXT" data-name="00_NEWS_TEXT" transform="translate(0.954 42.94)">
          <path id="Path_17078" data-name="Path 17078" d="M1167.953,3906.312l-4.9,2.771-7.169-13.948v18l-4.9,2.771v-27.443l4.9-2.771,7.187,13.958v-18.02l4.886-2.762Z" transform="translate(-1150.977 -3846.859)"/>
          <path id="Path_17079" data-name="Path 17079" d="M1185.185,3884.761l-7.637,4.315v7.277l9.038-5.108v4.6l-13.94,7.879v-27.443l13.907-7.86v4.618l-9,5.09v6.484l7.637-4.317Z" transform="translate(-1151.735 -3846.494)"/>
          <path id="Path_17080" data-name="Path 17080" d="M1205.742,3874.611l2.3-18.547,4.852-2.742-4.319,29.884-4.919,2.78-2.835-14.569-2.8,17.755-4.935,2.79-4.336-24.994,4.886-2.761,2.284,15.937,2.852-18.839,4.119-2.328Z" transform="translate(-1152.297 -3845.966)"/>
          <path id="Path_17081" data-name="Path 17081" d="M1226.746,3866c0-1.119-.253-1.82-.758-2.107a5.1,5.1,0,0,0-2.76-.222q-3.651.5-5.252-.7t-1.6-4.062a12.3,12.3,0,0,1,2.176-6.8,15.836,15.836,0,0,1,5.528-5.226,7.636,7.636,0,0,1,3.985-1.188,3.232,3.232,0,0,1,2.693,1.484,6.912,6.912,0,0,1,.942,3.879l-4.885,2.761a3.244,3.244,0,0,0-.726-2.521q-.725-.6-2.092.175a5.187,5.187,0,0,0-2,1.988,5.4,5.4,0,0,0-.717,2.715,1.684,1.684,0,0,0,.8,1.592,5.263,5.263,0,0,0,2.835.292q3.551-.556,5.16.646t1.61,4.462a12.294,12.294,0,0,1-2.018,6.738,15.317,15.317,0,0,1-5.485,5.118,8.865,8.865,0,0,1-4.286,1.329,3.6,3.6,0,0,1-3.026-1.418,6.783,6.783,0,0,1-1.092-4.189l4.919-2.779q0,2.374.817,2.987t2.668-.433A4.838,4.838,0,0,0,1226.746,3866Z" transform="translate(-1153.242 -3845.7)"/>
        </g>
      </g>
      <g id="_00_STAIRS" data-name="00_STAIRS" transform="translate(1161.935 622.307)">
        <path id="Path_20495" data-name="Path 20495" d="M1490.574,645.666l-9.967,5.754-133.743,77.217,21.014,12.133,143.71-82.971Z" transform="translate(-1199.765 -641.297)" fill="#fff" stroke="#000" stroke-linejoin="round" stroke-width="2" fill-rule="evenodd"/>
        <path id="Path_20496" data-name="Path 20496" d="M1458.832,650.774,1325.088,727.99l21.014,12.133V728.615L1479.846,651.4l-11.047-6.378Z" transform="translate(-1199.004 -641.274)" fill="#fff" stroke="#000" stroke-linejoin="round" stroke-width="2" fill-rule="evenodd"/>
        <path id="Path_20497" data-name="Path 20497" d="M1458.071,650.751l-11.047-6.378-143.71,82.971,21.014,12.133V727.968Z" transform="translate(-1198.243 -641.252)" fill="#fff" stroke="#000" stroke-linejoin="round" stroke-width="2" fill-rule="evenodd"/>
        <path id="Path_20498" data-name="Path 20498" d="M1436.3,650.1l-11.048-6.378L1281.538,726.7l21.014,12.132V727.321Z" transform="translate(-1197.482 -641.229)" fill="#fff" stroke="#000" stroke-linejoin="round" stroke-width="2" fill-rule="evenodd"/>
        <path id="Path_20499" data-name="Path 20499" d="M1414.52,649.457l-11.048-6.378-143.71,82.971,21.014,12.133V726.674Z" transform="translate(-1196.72 -641.207)" fill="#fff" stroke="#000" stroke-linejoin="round" stroke-width="2" fill-rule="evenodd"/>
        <path id="Path_20500" data-name="Path 20500" d="M1392.745,648.811l-11.048-6.378L1237.988,725.4,1259,737.536V726.027Z" transform="translate(-1195.959 -641.184)" fill="#fff" stroke="#000" stroke-linejoin="round" stroke-width="2" fill-rule="evenodd"/>
        <path id="Path_20501" data-name="Path 20501" d="M1349.956,647.54l-133.744,77.217,21.014,12.132V725.381l133.743-77.217-11.048-6.378Z" transform="translate(-1195.198 -641.161)" fill="#fff" stroke="#000" stroke-linejoin="round" stroke-width="2" fill-rule="evenodd"/>
        <path id="Path_20502" data-name="Path 20502" d="M1328.18,646.893,1194.437,724.11l21.014,12.133V724.734l133.744-77.217-11.048-6.378Z" transform="translate(-1194.437 -641.139)" fill="#fff" stroke="#000" stroke-linejoin="round" stroke-width="2" fill-rule="evenodd"/>
        <path id="Path_20503" data-name="Path 20503" d="M1194.437,746.36l168.113,4.993,143.71-82.971V658.238l-143.71,82.971-21.014-12.133v11.508l-21.014-12.133v11.508l-21.014-12.132v11.508L1278.493,727.2v11.508l-21.014-12.133v11.508l-21.014-12.133v11.508l-21.014-12.132V736.84l-21.014-12.132V746.36" transform="translate(-1194.437 -641.737)" stroke="#000" stroke-linejoin="round" stroke-width="2" fill-rule="evenodd"/>
      </g>
      <g id="_00_ACKERSTR" data-name="00_ACKERSTR" transform="translate(264.605 509.878)">
        <path id="_00_ACKRERSTR_FLOOR" data-name="00_ACKRERSTR_FLOOR" d="M624.188,736.47,521.862,677.393l-.741.428L342.883,780.727,445.208,839.8Z" transform="translate(-235.495 -578.229)" fill="#fff" stroke="#000" stroke-linejoin="round" stroke-width="2" fill-rule="evenodd"/>
        <path id="_00_ACKERSTR_HATCH" data-name="00_ACKERSTR_HATCH" d="M342.883,793.011l102.326,59.078,178.98-103.334V738.61L445.208,841.944,342.883,782.867Z" transform="translate(-235.495 -580.369)" stroke="#000" stroke-linejoin="round" stroke-width="2" fill-rule="evenodd"/>
        <path id="_00_ACKERSTR_ARCH" data-name="00_ACKERSTR_ARCH" d="M517.972,673.8V574.637L231.6,739.971v99.164L249.5,828.8V747.284l.191-.736.213-.732.235-.728.258-.722.28-.715.3-.706.322-.7.345-.689.364-.677.385-.667.4-.654.423-.641.441-.626.458-.612.475-.6.491-.581.558-.666.573-.655.589-.643.6-.63.62-.617.633-.6.647-.589.661-.574.673-.56.686-.543.7-.528.709-.512.719-.5.73-.478.738-.46.748-.443.651-.391.665-.372.678-.354.689-.334.7-.314.71-.293.72-.272.728-.25.735-.229.741-.206.746-.183.751-.161.754-.138.756-.115.757-.093.758-.07.3-.015.3-.009h.3l.3.007.3.013.3.021.3.028.3.036.3.042.3.05.294.057.292.064.291.071.288.078.287.085.283.092.239.086.237.095.235.1.232.111.229.118.226.125.221.134.216.14.212.148.207.154c.2.161.4.328.4.328.19.174.373.352.373.352.177.183.347.372.347.372v81.519L303.2,797.8V716.283l.191-.736.213-.732.235-.728.258-.722.28-.715.3-.706.322-.7.345-.689.364-.677.384-.667.4-.654.423-.641.441-.626.458-.612.475-.6.491-.581.558-.666.573-.655.589-.643.6-.63.62-.617.633-.6.647-.589.66-.574.674-.56.686-.543.7-.528.708-.511.72-.5.729-.478.739-.46.748-.443.651-.391.665-.374.677-.353.69-.334.7-.315.71-.292.72-.272.728-.251.735-.228.741-.206.746-.183.751-.161.754-.138.756-.115.757-.093.757-.07.3-.015.3-.009h.3l.3.007.3.013.3.021.3.028.3.036.3.042.3.05.294.057.292.064.29.071.289.078.286.085.284.092.239.086.237.095.234.1.232.111.229.118.225.125.221.133.217.141.211.148.207.154c.2.161.4.328.4.328.19.173.374.352.374.352.177.183.347.372.347.372v81.519l17.9-10.334V685.283l.191-.736.213-.732.235-.727.258-.722.28-.715.3-.706.323-.7.344-.689.365-.677.384-.667.4-.654.423-.641.44-.626.458-.612.476-.6.491-.58.557-.666.574-.655.589-.643.6-.63.619-.618.633-.6.648-.589.66-.574.674-.56.685-.543.7-.528.708-.511.72-.5.729-.478.739-.46.747-.443.652-.391.665-.374.677-.353.69-.334.7-.315.71-.292.72-.272.728-.251.734-.228.741-.206.747-.183.751-.161.754-.138.756-.116.757-.092.757-.07.3-.015.3-.008h.3l.3.007.3.013.3.021.3.028.3.036.3.042.3.05.294.057.292.064.29.071.289.078.286.085.284.092.239.086.236.095.235.1.232.11.229.119.225.125.221.133.217.141.211.148.207.154c.2.161.4.328.4.328.19.173.373.352.373.352.177.183.346.372.346.372v81.519l17.9-10.334V654.282l.19-.735.214-.732.235-.727.258-.722.28-.715.3-.707.323-.7.344-.689.365-.677.384-.667.4-.654.423-.641.441-.626.458-.613.476-.6.49-.58.558-.667.573-.654.59-.643.6-.63.619-.618.633-.6.648-.589.66-.574.674-.56.685-.543.7-.528.708-.511.719-.5.73-.478.739-.46.747-.443.652-.391.665-.373.677-.353.69-.334.7-.315.711-.292.719-.272.729-.251.734-.228.741-.206.747-.183.75-.161.754-.138.756-.116.758-.092.757-.07.3-.015.3-.008h.3l.3.007.3.014.3.02.3.029.3.035.3.043.3.049.294.058.293.064.29.071.289.078.286.085.284.091.238.087.237.095.235.1.232.11.229.119.225.125.221.133.216.141.212.148.207.154c.2.161.4.328.4.328.189.173.372.352.372.352.178.183.347.372.347.372v81.517l17.9-10.332V623.282l.191-.735.213-.732.235-.727.259-.722.28-.715.3-.707.323-.7.344-.689.364-.678.385-.666.4-.654.423-.641.441-.627.458-.612.475-.6.491-.58.558-.667.573-.654.59-.643.6-.63.619-.618.633-.6.648-.589.66-.574.674-.56.685-.543.7-.528.708-.511.719-.5.73-.478.738-.46.748-.443.651-.391.666-.373.677-.353.689-.335.7-.314.71-.293.72-.271.728-.251.735-.228.741-.206.746-.183.751-.161.754-.138.756-.116.757-.093.758-.07.3-.015.3-.008h.3l.3.007.3.013.3.02.3.029.3.035.3.043.3.049.294.058.292.064.291.071.289.078.286.085.283.091.239.087.237.095.235.1.233.11.229.119.225.125.221.133.216.141.212.148.206.154c.2.161.4.328.4.328.189.173.372.351.372.351.178.184.347.373.347.373v81.517" transform="translate(-231.605 -574.637)" fill="#fff" stroke="#000" stroke-linejoin="round" stroke-width="2" fill-rule="evenodd"/>
        <g id="_00_ACKERSTR_COLOUM" data-name="00_ACKERSTR_COLOUM" transform="translate(185.492 39.899)">
          <g id="_00_ACKERSTR_COLOUM_01" data-name="00_ACKERSTR_COLOUM 01" transform="translate(0 31)">
            <path id="Path_20438" data-name="Path 20438" d="M434.943,660.729v108.4l10.739-6.2v-108.4Z" transform="translate(-424.205 -648.329)" fill="#fff" stroke="#000" stroke-linejoin="round" stroke-width="2" fill-rule="evenodd"/>
            <path id="Path_20439" data-name="Path 20439" d="M423.816,654.529v108.4l10.739,6.2v-108.4Z" transform="translate(-423.816 -648.329)" fill="#fff" stroke="#000" stroke-linejoin="round" stroke-width="2" fill-rule="evenodd"/>
            <path id="Path_20440" data-name="Path 20440" d="M423.816,654.3l10.739,6.2,10.739-6.2-10.739-6.2Z" transform="translate(-423.816 -648.104)" fill="#fff" stroke="#000" stroke-linejoin="round" stroke-width="2" fill-rule="evenodd"/>
          </g>
          <g id="_00_ACKERSTR_COLOUM_02" data-name="00_ACKERSTR_COLOUM 02" transform="translate(53.694)">
            <path id="Path_20441" data-name="Path 20441" d="M501.321,622.406l-10.739,6.2V737l10.739-6.2Z" transform="translate(-479.843 -616.206)" fill="#fff" stroke="#000" stroke-linejoin="round" stroke-width="2" fill-rule="evenodd"/>
            <path id="Path_20442" data-name="Path 20442" d="M490.193,628.606l-10.739-6.2V730.8l10.739,6.2Z" transform="translate(-479.454 -616.206)" fill="#fff" stroke="#000" stroke-linejoin="round" stroke-width="2" fill-rule="evenodd"/>
            <path id="Path_20443" data-name="Path 20443" d="M490.193,628.381l10.739-6.2-10.739-6.2-10.739,6.2Z" transform="translate(-479.454 -615.981)" fill="#fff" stroke="#000" stroke-linejoin="round" stroke-width="2" fill-rule="evenodd"/>
          </g>
        </g>
      </g>
      <g id="_00_ACKERSTR_TEXT" data-name="00_ACKERSTR_TEXT" transform="translate(473.957 640.037)">
        <path id="Path_20525" data-name="Path 20525" d="M459.62,801.967a9.132,9.132,0,0,1,4.8-1.465,3.87,3.87,0,0,1,3.244,1.807,8.539,8.539,0,0,1,1.149,4.739l-5.872,3.39c0-1.564-.3-2.59-.885-3.077s-1.426-.41-2.524.223a6.271,6.271,0,0,0-2.4,2.435,6.66,6.66,0,0,0-.854,3.323,2.069,2.069,0,0,0,.968,1.945,6.3,6.3,0,0,0,3.414.348c2.856-.465,4.924-.206,6.223.768s1.947,2.8,1.953,5.453a15.19,15.19,0,0,1-2.408,8.248,18.557,18.557,0,0,1-6.592,6.273,10.52,10.52,0,0,1-5.154,1.637,4.324,4.324,0,0,1-3.653-1.722,8.391,8.391,0,0,1-1.329-5.119l5.915-3.414c.006,1.932.336,3.153.992,3.654s1.728.314,3.214-.543a5.943,5.943,0,0,0,3.082-5.545c0-1.366-.315-2.222-.926-2.564a5.968,5.968,0,0,0-3.322-.267c-2.937.419-5.041.138-6.334-.832s-1.934-2.628-1.94-4.964a15.169,15.169,0,0,1,2.6-8.323A19.2,19.2,0,0,1,459.62,801.967Z" transform="translate(-448.58 -712.691)"/>
        <path id="Path_20526" data-name="Path 20526" d="M485.584,750.217q4.768-2.755,7.261-1.121t2.84,7.182l-5.915,3.414c-.062-2.339-.381-3.787-.969-4.348s-1.649-.4-3.2.5a7.539,7.539,0,0,0-3.346,3.833,19.93,19.93,0,0,0-1.024,6.86l.018,6.336q.013,5,.993,6.306t3.345-.059a7.645,7.645,0,0,0,3.206-3.157,13.589,13.589,0,0,0,.991-5.294l5.9-3.4a21.692,21.692,0,0,1-2.785,10.31,19.512,19.512,0,0,1-7.293,7.167q-4.954,2.86-7.6.638t-2.667-9.162l-.015-5.643a26.321,26.321,0,0,1,2.7-12.239A19.218,19.218,0,0,1,485.584,750.217Z" transform="translate(-449.476 -710.873)"/>
        <path id="Path_20527" data-name="Path 20527" d="M492.371,783.373l.016,5.65-7.215,4.166.079,27.909-5.921,3.419-.079-27.909-7.1,4.1-.016-5.65Z" transform="translate(-449.365 -712.092)"/>
        <path id="Path_20528" data-name="Path 20528" d="M462.967,763.728l9.282,28.256-6.3,3.635-1.585-5.964-8.041,4.643-1.546,7.77-6.241,3.6,9.03-38.828Zm-5.375,24.179,5.452-3.148-2.757-10.386-2.7,13.534" transform="translate(-448.54 -711.406)"/>
        <path id="Path_20529" data-name="Path 20529" d="M511.139,792.232l5.152,10.782v.326l-6.34,3.66-4.428-9.727-2.927,1.69.035,12.263-5.9,3.4-.095-33.559,9.408-5.432q4.427-2.557,6.853-1.312t2.437,6.111A17.911,17.911,0,0,1,511.139,792.232Zm-2.566-3.724a9.408,9.408,0,0,0,.871-4.112q-.014-5.045-3.44-3.071l-3.451,1.992.029,10,3.352-1.935a6.413,6.413,0,0,0,2.639-2.879" transform="translate(-450.221 -711.762)"/>
        <path id="Path_20530" data-name="Path 20530" d="M532.74,760.187l9.276,28.258-6.3,3.636-1.585-5.965-8.041,4.643-1.546,7.771-6.235,3.6,9.03-38.828Zm-5.381,24.183,5.459-3.152-2.764-10.383-2.7,13.535" transform="translate(-450.979 -711.282)"/>
        <path id="Path_20531" data-name="Path 20531" d="M520.531,730.368l-8.326,19.586,8.556,13.9-7,4.041-5.373-9.869-2.313,4.7.027,9.586-5.9,3.4-.1-33.559,5.9-3.4.041,14.634,1.857-4.7,5.4-14.154Z" transform="translate(-450.343 -710.239)"/>
        <path id="Path_20532" data-name="Path 20532" d="M540.387,718.982l.016,5.65-10.832,6.254.023,7.93,9.187-5.3.016,5.459-9.187,5.3.025,8.9L540.5,746.9l.016,5.622-16.766,9.68-.1-33.559Z" transform="translate(-451.166 -709.841)"/>
        <path id="Path_20533" data-name="Path 20533" d="M554.7,747.072a9.125,9.125,0,0,1,4.8-1.465,3.9,3.9,0,0,1,3.251,1.8,8.544,8.544,0,0,1,1.149,4.74l-5.878,3.394q-.007-2.348-.879-3.081c-.588-.483-1.426-.41-2.524.223a6.318,6.318,0,0,0-2.406,2.44,6.721,6.721,0,0,0-.855,3.323,2.052,2.052,0,0,0,.975,1.941,6.256,6.256,0,0,0,3.413.348q4.276-.692,6.224.768t1.953,5.453a15.242,15.242,0,0,1-2.408,8.247,18.6,18.6,0,0,1-6.592,6.274,10.572,10.572,0,0,1-5.161,1.64,4.322,4.322,0,0,1-3.652-1.721,8.394,8.394,0,0,1-1.33-5.119l5.915-3.415c.006,1.933.343,3.15,1,3.651s1.729.314,3.215-.544a5.932,5.932,0,0,0,3.076-5.541c0-1.367-.308-2.226-.921-2.567a5.977,5.977,0,0,0-3.327-.263q-4.4.623-6.329-.836c-1.286-.974-1.939-2.625-1.945-4.961a15.225,15.225,0,0,1,2.6-8.323A19.213,19.213,0,0,1,554.7,747.072Z" transform="translate(-451.904 -710.772)"/>
        <path id="Path_20534" data-name="Path 20534" d="M559.06,727.822l5.153,10.782v.326l-6.335,3.657-4.428-9.726-2.927,1.69.035,12.263-5.9,3.4-.1-33.559,9.4-5.428c2.958-1.707,5.24-2.139,6.86-1.314s2.427,2.867,2.437,6.11A17.9,17.9,0,0,1,559.06,727.822Zm-2.559-3.727a9.471,9.471,0,0,0,.871-4.113q-.015-5.045-3.44-3.07l-3.45,1.992.028,10,3.346-1.932a6.434,6.434,0,0,0,2.646-2.882" transform="translate(-451.897 -709.51)"/>
        <path id="Path_20535" data-name="Path 20535" d="M578.094,714.441l.015,5.438-9.809,5.663-.015-5.438Z" transform="translate(-452.726 -709.683)"/>
        <path id="Path_20536" data-name="Path 20536" d="M577.69,733.8a9.145,9.145,0,0,1,4.8-1.465,3.89,3.89,0,0,1,3.245,1.808,8.541,8.541,0,0,1,1.149,4.74L581,742.274c0-1.564-.3-2.594-.879-3.08s-1.427-.41-2.524.223a6.273,6.273,0,0,0-2.4,2.436,6.667,6.667,0,0,0-.855,3.323,2.069,2.069,0,0,0,.969,1.944,6.245,6.245,0,0,0,3.413.348c2.857-.464,4.925-.2,6.224.768s1.945,2.8,1.953,5.453a15.188,15.188,0,0,1-2.409,8.248,18.6,18.6,0,0,1-6.591,6.274,10.575,10.575,0,0,1-5.161,1.64,4.336,4.336,0,0,1-3.647-1.725,8.388,8.388,0,0,1-1.335-5.116l5.922-3.418q.007,2.9.991,3.654c.662.49,1.729.314,3.215-.543a5.934,5.934,0,0,0,3.076-5.541c0-1.367-.309-2.226-.921-2.568a6,6,0,0,0-3.321-.266q-4.405.628-6.335-.832t-1.94-4.965a15.2,15.2,0,0,1,2.593-8.319A19.24,19.24,0,0,1,577.69,733.8Z" transform="translate(-452.707 -710.308)"/>
        <path id="Path_20537" data-name="Path 20537" d="M608.309,716.509l.016,5.65-10.832,6.254.022,7.93,9.187-5.3.016,5.459-9.187,5.3.025,8.9,10.869-6.275.016,5.622-16.765,9.679-.1-33.559Z" transform="translate(-453.54 -709.755)"/>
      </g>
      <g id="_00_VR_TOUR" data-name="00_VR TOUR" transform="translate(1119.363 774.567)">
        <g id="_00_VR_TOUR_SHAPE" data-name="00_VR TOUR_SHAPE" transform="translate(0 17.106)">
          <path id="Path_14709" data-name="Path 14709" d="M2845.948,5163.686l-.218-.249-.213-.254-.208-.26-.2-.265-.2-.271-.192-.276-.186-.281-.181-.286-.174-.29-.168-.294-.161-.3-.155-.3-.148-.307-.141-.31-.134-.313-.127-.316-.12-.319-.112-.321-.1-.324-.1-.326-.09-.328-.082-.329-.075-.331-.067-.332-.06-.333-.052-.333-.044-.333-.037-.333-.029-.333-.022-.332-.014-.332-.007-.33.2,41.079,0,.334.011.336.019.337.027.337.034.338.042.338.05.337.058.337.066.337.073.335.081.334.089.333.1.331.1.329.112.327.12.324.127.321.135.318.142.314.149.312.156.307.163.3.169.3.176.294.182.29.188.285.194.28.2.275.206.269.211.264.216.257.221.252.564.652.583.64.6.625.618.61.634.595.65.578.666.562.681.544.694.526.708.508.72.488.732.469.743.448.753.429.763.408.771.387,2.083.908,2.112.855,2.138.8,2.162.745,2.184.688,2.2.631,2.221.572,2.237.513,2.25.453,2.26.393,2.268.333,2.274.271,2.277.212,2.278.15,2.276.09,2.272.03,2.272-.03,2.276-.09,2.278-.15,2.277-.212,2.274-.271,2.268-.333,2.26-.393,2.25-.453,2.237-.513,2.221-.572,2.2-.631,2.184-.688,2.162-.745,2.137-.8,2.111-.855,2.083-.908.771-.387.763-.408.753-.429.743-.448.732-.469.72-.488.708-.508.694-.526.68-.544.666-.562.65-.578.634-.595.617-.61.6-.625.583-.64.564-.652.221-.252.216-.257.211-.264.205-.269.2-.275.194-.28.188-.285.182-.29.176-.294.169-.3.163-.3.156-.307.149-.312.142-.314.135-.318.127-.321.12-.324.112-.327.1-.329.1-.331.089-.333.081-.334.073-.335.066-.337.058-.337.05-.337.042-.338.034-.338.027-.337.019-.337.011-.336,0-.48-.2-41.079,0,.335-.011.336-.019.337-.027.337-.034.338-.042.338-.05.338-.058.337-.066.337-.073.335-.081.334-.089.333-.1.332-.1.329-.112.327-.12.324-.127.321-.135.318-.142.314-.149.312-.156.307-.163.3-.169.3-.176.294-.182.29-.188.285-.194.28-.2.274-.205.269-.211.264-.216.258-.22.251-.565.652-.583.639-.6.625-.618.609-.634.595-.65.579-.666.562-.68.544-.694.526-.708.507-.72.489-.732.468-.743.449-.753.429-.763.407-.771.388-2.545,1.1-2.579,1.019-1.8-.651-1.821-.612-1.837-.571-1.852-.532-1.865-.491-1.877-.448-1.887-.407-1.9-.364-1.9-.322-1.91-.279-1.916-.236-1.919-.193-1.921-.15-1.921-.107-1.92-.064-1.918-.021-1.931.021-1.934.065-1.934.109-1.934.152-1.932.2-1.929.239-1.923.283-1.917.327-1.909.37-1.9.413-1.889.455-1.877.5-1.864.539-1.849.58-1.832.62-1.815.66-2.68-1.053-2.644-1.141-.771-.388-.763-.407-.753-.429-.743-.449-.732-.468-.72-.489-.708-.507-.694-.526-.68-.544-.666-.562-.65-.579-.634-.595-.617-.609-.6-.625-.583-.639Z" transform="translate(-2842.127 -5127.597)" fill="#fff" stroke="#000" stroke-linejoin="round" stroke-width="2" fill-rule="evenodd"/>
          <path id="Path_14710" data-name="Path 14710" d="M2942.52,5152.752l0-.334-.011-.336-.019-.337-.027-.337-.034-.338-.042-.338-.05-.338-.058-.337-.066-.337-.073-.335-.081-.335-.089-.333-.1-.331-.1-.329-.112-.327-.12-.324-.127-.321-.135-.318-.142-.315-.149-.312-.156-.307-.163-.3-.169-.3-.176-.294-.182-.291-.188-.285-.194-.28-.2-.275-.205-.269-.211-.263-.216-.258-.22-.251-.565-.653-.583-.639-.6-.625-.618-.61-.634-.595-.65-.579-.666-.561-.68-.544-.694-.526-.708-.507-.72-.489-.732-.468-.743-.449-.753-.428-.763-.408-.771-.387-2.083-.908-2.111-.854-2.138-.8-2.162-.745-2.184-.688-2.2-.63-2.221-.572-2.237-.513-2.25-.454-2.26-.393-2.268-.333-2.274-.272-2.277-.211-2.278-.151-2.276-.09-2.272-.03-2.272.03-2.276.09-2.278.151-2.277.211-2.274.272-2.268.333-2.26.393-2.25.454-2.237.513-2.221.572-2.2.63-2.184.688-2.162.745-2.137.8-2.111.854-2.083.908-.771.387-.763.408-.753.428-.743.449-.732.468-.72.489-.708.507-.694.526-.68.544-.666.561-.65.579-.634.595-.617.61-.6.625-.583.639-.564.653-.22.251-.216.258-.211.263-.205.269-.2.275-.194.28-.188.285-.182.291-.176.294-.169.3-.163.3-.156.307-.149.312-.142.315-.135.318-.127.321-.12.324-.112.327-.1.329-.1.331-.089.333-.081.335-.073.335-.066.337-.058.337-.05.338-.042.338-.034.338-.027.337-.019.337-.011.336,0,.334,0,.335.011.336.019.337.027.337.034.338.042.338.05.338.058.337.066.337.073.335.081.334.089.333.1.332.1.329.112.327.12.324.127.321.135.318.142.314.149.312.156.307.163.3.169.3.176.294.182.29.188.285.194.28.2.274.205.269.211.264.216.258.22.251.564.652.583.639.6.625.617.609.634.595.65.579.666.562.68.544.694.526.708.507.72.489.732.468.743.449.753.429.763.407.771.388,2.083.908,2.111.855,2.137.8,2.162.745,2.184.688,2.2.631,2.221.572,2.237.513,2.25.453,2.26.393,2.268.333,2.274.271,2.277.211,2.278.151,2.276.09,2.272.03,2.272-.03,2.276-.09,2.278-.151,2.277-.211,2.274-.271,2.268-.333,2.26-.393,2.25-.453,2.237-.513,2.221-.572,2.2-.631,2.184-.688,2.162-.745,2.138-.8,2.111-.855,2.083-.908.771-.388.763-.407.753-.429.743-.449.732-.468.72-.489.708-.507.694-.526.68-.544.666-.562.65-.579.634-.595.618-.609.6-.625.583-.639.565-.652.22-.251.216-.258.211-.264.205-.269.2-.274.194-.28.188-.285.182-.29.176-.294.169-.3.163-.3.156-.307.149-.312.142-.314.135-.318.127-.321.12-.324.112-.327.1-.329.1-.332.089-.333.081-.334.073-.335.066-.337.058-.337.05-.338.042-.338.034-.338.027-.337.019-.337.011-.336Z" transform="translate(-2842.127 -5126.652)" fill="#fff" stroke="#000" stroke-linejoin="round" stroke-width="2" fill-rule="evenodd"/>
        </g>
        <g id="_00_VR_HEADSET" data-name="00_VR HEADSET" transform="translate(0 0)">
          <path id="Path_16342" data-name="Path 16342" d="M992.944,642.215h.12c-3.839,0-6.951,3.425-6.951,7.649v2.767c0,2.587-2.273,5.037-7.553,4.7H954.9c-4.668,0-8.452-4.164-8.452-9.3V628.5c0-5.137,3.784-9.3,8.453-9.3h76.62c4.668,0,8.452,4.164,8.452,9.3v19.529c0,5.137-3.784,9.3-8.452,9.3h-23.66c-5.28.335-7.552-2.116-7.552-4.7v-2.767c0-4.224-3.112-7.649-6.952-7.649h-.412Z" transform="translate(-942.914 -615.67)" fill="#fff" stroke="#000" stroke-miterlimit="10" stroke-width="2"/>
          <g id="Group_3528" data-name="Group 3528" transform="translate(66.603 11.9)">
            <circle id="Ellipse_34" data-name="Ellipse 34" cx="9.169" cy="9.169" r="9.169" transform="translate(0)"/>
            <circle id="Ellipse_35" data-name="Ellipse 35" cx="7.356" cy="7.356" r="7.356" transform="translate(1.813 1.813)" fill="#fff"/>
            <circle id="Ellipse_36" data-name="Ellipse 36" cx="7.059" cy="7.059" r="7.059" transform="translate(3.352 3.19)"/>
          </g>
          <rect id="Rectangle_526" data-name="Rectangle 526" width="1.68" height="18.925" rx="0.84" transform="translate(98.912 12.686)"/>
          <g id="Group_3529" data-name="Group 3529" transform="translate(15.748 11.213)">
            <circle id="Ellipse_37" data-name="Ellipse 37" cx="9.169" cy="9.169" r="9.169" transform="translate(0 0)"/>
            <circle id="Ellipse_38" data-name="Ellipse 38" cx="7.356" cy="7.356" r="7.356" transform="translate(1.813 1.813)" fill="#fff"/>
            <circle id="Ellipse_39" data-name="Ellipse 39" cx="7.059" cy="7.059" r="7.059" transform="translate(3.352 3.19)"/>
          </g>
          <rect id="Rectangle_527" data-name="Rectangle 527" width="1.68" height="18.925" rx="0.84" transform="translate(1.68 30.925) rotate(180)"/>
          <text id="VR" transform="translate(42.15 18.874)" font-size="13" font-family="Helvetica"><tspan x="0" y="0">VR</tspan></text>
          <rect id="Rectangle_528" data-name="Rectangle 528" width="1.68" height="18.925" rx="0.84" transform="translate(40.833 1.68) rotate(-90)"/>
        </g>
      </g>
      <g id="_00_ROUNDABOUT" data-name="00_ROUNDABOUT" transform="translate(842.04 645.908)">
        <g id="_00_ROUNDABOUT_SHAPE" data-name="00_ROUNDABOUT SHAPE" transform="translate(0.617 20.63)">
          <path id="Path_18992" data-name="Path 18992" d="M784.416,739.005l-.218-.249-.213-.254-.208-.26-.2-.265-.2-.271-.192-.276L783,737.15l-.18-.286-.174-.29-.168-.294-.161-.3-.155-.3-.148-.307-.141-.31-.134-.313-.127-.316-.12-.319-.112-.322-.1-.324-.1-.326-.09-.328-.082-.329-.075-.331-.067-.332-.06-.332-.052-.333-.044-.333-.037-.333-.029-.333-.022-.332-.014-.331-.007-.331.2,41.079,0,.335.011.336.019.337.027.338.034.338.042.338.05.338.058.337.066.337.073.336.081.334.089.333.1.331.1.329.112.327.12.324.127.321.135.318.142.315.149.311.156.307.163.3.169.3.176.294.182.29.188.285.194.28.2.274.205.269.211.263.216.258.221.252.565.653.583.639.6.625.618.61.634.595.65.578.666.561.68.544.695.526.708.507.72.488.732.469.743.449.753.428.763.408.771.387,2.083.908,2.111.855,2.138.8,2.162.745,2.184.688,2.2.631,2.221.572,2.237.513,2.25.453,2.26.393,2.268.333,2.274.272,2.277.211,2.278.151,2.276.09,2.272.03,2.272-.03,2.276-.09,2.278-.151,2.277-.211,2.274-.272,2.268-.333,2.26-.393,2.25-.453,2.237-.513,2.221-.572,2.2-.631,2.184-.688,2.162-.745,2.138-.8,2.111-.855,2.083-.908.771-.387.763-.408.753-.428.743-.449.732-.469.72-.488.708-.507.695-.526.68-.544.666-.561.65-.578.634-.595.618-.61.6-.625.583-.639.565-.653.221-.252.216-.258.211-.263.206-.269.2-.274.194-.28.188-.285.182-.29.176-.294.169-.3.163-.3.156-.307.149-.311.142-.315.135-.318.127-.321.12-.324.112-.327.1-.329.1-.331.089-.333.081-.334.073-.336.066-.337L881,772.6l.05-.338.042-.338.034-.338.027-.338.019-.337.011-.336,0-.48-.2-41.079,0,.335-.011.336-.019.337-.027.337-.034.338-.042.338-.05.338-.058.337-.066.337-.073.336-.081.334-.089.333-.1.331-.1.329-.112.327-.12.324-.127.321-.135.318-.142.315-.149.311-.156.307-.163.3-.169.3-.176.295-.182.29-.188.285-.194.28-.2.275-.205.269-.211.263-.216.258-.221.252-.565.653-.583.639-.6.625-.618.61-.634.595-.65.578-.666.561-.68.544-.694.526-.708.507-.72.488-.732.469-.743.449-.753.429-.763.408-.771.387-2.545,1.1-2.579,1.018-1.8-.651-1.821-.612-1.837-.572-1.852-.531-1.865-.49-1.877-.449-1.888-.407-1.9-.365-1.9-.322-1.911-.279-1.915-.236-1.919-.193-1.921-.15-1.921-.107-1.92-.064-1.918-.021-1.931.022-1.933.065-1.934.109-1.934.152-1.932.2-1.929.24-1.924.283-1.917.327-1.909.37-1.9.413-1.889.455-1.877.5-1.864.539-1.849.58-1.832.62-1.815.66-2.681-1.053-2.644-1.142-.771-.387-.763-.408-.753-.429-.743-.449-.732-.469-.72-.488-.708-.507-.694-.526-.68-.544-.666-.561-.65-.578-.634-.595-.618-.61-.6-.625-.583-.639Z" transform="translate(-780.595 -702.917)" fill="#fff" stroke="#000" stroke-linejoin="round" stroke-width="2" fill-rule="evenodd"/>
          <path id="Path_18993" data-name="Path 18993" d="M880.987,728.072l0-.335-.011-.336-.019-.337-.027-.337-.034-.338-.042-.338-.05-.338-.058-.337-.066-.337-.073-.336-.081-.334-.089-.333-.1-.331-.1-.329-.112-.327-.12-.324-.127-.321-.135-.318-.142-.315-.149-.311-.156-.307-.163-.3-.169-.3-.176-.295-.182-.29-.188-.285-.194-.28-.2-.275-.205-.269-.211-.263-.216-.258-.221-.252-.565-.653-.583-.639-.6-.625-.618-.61-.634-.595-.65-.578-.666-.561-.68-.544-.694-.526-.708-.507-.72-.488-.732-.469-.743-.449-.753-.428-.763-.408-.771-.387-2.083-.908-2.111-.855-2.138-.8-2.162-.745-2.184-.688-2.2-.63-2.221-.572-2.237-.513-2.25-.453-2.26-.393-2.268-.333-2.274-.272-2.277-.211-2.278-.151-2.276-.09-2.272-.03-2.272.03-2.276.09-2.278.151-2.277.211-2.274.272-2.268.333-2.26.393-2.25.453-2.237.513-2.221.572-2.2.63-2.184.688-2.162.745-2.138.8-2.111.855-2.083.908-.771.387-.763.408-.753.428-.743.449-.732.469-.72.488-.708.507-.694.526-.68.544-.666.561-.65.578-.634.595-.618.61-.6.625-.583.639-.565.653-.221.252-.216.258-.211.263-.205.269-.2.275-.194.28-.188.285-.182.29-.176.295-.169.3-.163.3-.156.307-.149.311-.142.315-.135.318-.127.321-.12.324-.112.327-.1.329-.1.331-.089.333-.081.334-.074.336-.066.337-.058.337-.05.338-.042.338-.034.338-.027.337-.019.337-.011.336,0,.335,0,.335.011.336.019.337.027.337.034.338.042.338.05.338.058.337.066.337.074.336.081.334.089.333.1.331.1.329.112.327.12.324.127.321.135.318.142.315.149.311.156.307.163.3.169.3.176.295.182.29.188.285.194.28.2.275.205.269.211.263.216.258.221.252.565.653.583.639.6.625.618.61.634.595.65.578.666.561.68.544.694.526.708.507.72.488.732.469.743.449.753.429.763.408.771.387,2.083.908,2.111.855,2.138.8,2.162.745,2.184.688,2.2.63,2.221.572,2.237.513,2.25.453,2.26.393,2.268.333,2.274.272,2.277.211,2.278.151,2.276.09,2.272.03,2.272-.03,2.276-.09,2.278-.151,2.277-.211,2.274-.272,2.268-.333,2.26-.393,2.25-.453,2.237-.513,2.221-.572,2.2-.63,2.184-.688,2.162-.745,2.138-.8,2.111-.855,2.083-.908.771-.387.763-.408.753-.429.743-.449.732-.469.72-.488.708-.507.694-.526.68-.544.666-.561.65-.578.634-.595.618-.61.6-.625.583-.639.565-.653.221-.252.216-.258.211-.263.205-.269.2-.275.194-.28.188-.285.182-.29.176-.295.169-.3.163-.3.156-.307.149-.311.142-.315.135-.318.127-.321.12-.324.112-.327.1-.329.1-.331.089-.333.081-.334.073-.336.066-.337.058-.337.05-.338.042-.338.034-.338.027-.337.019-.337.011-.336Z" transform="translate(-780.595 -701.972)" fill="#fff" stroke="#000" stroke-linejoin="round" stroke-width="2" fill-rule="evenodd"/>
        </g>
        <g id="_00_ROUNDABOUT_TEXT" data-name="00_ROUNDABOUT TEXT">
          <path id="Path_18995" data-name="Path 18995" d="M817.579,733.262a6.278,6.278,0,0,1,1.527.128c1.98.238,3.964.446,5.964.538,1.534.071,3.069.137,4.6.188a29.972,29.972,0,0,1,5.787.672,12.04,12.04,0,0,1,2.793.983,5.227,5.227,0,0,1,3.138,4.176,6.1,6.1,0,0,1-.337,2.923,7.487,7.487,0,0,1-4.122,4.047c-.439.2-.9.378-1.346.566.044.235.26.362.422.509q1.947,1.755,3.906,3.5c.692.616,1.4,1.219,2.1,1.83.105.091.195.193.327.325a5.127,5.127,0,0,1-.515.107c-1.847.172-3.693.363-5.589.4-1.9-1.913-3.725-3.869-5.546-5.827a2.861,2.861,0,0,0-.289-.039c-.838-.025-1.677-.036-2.514-.074-1.3-.06-2.6-.141-3.9-.207a5.266,5.266,0,0,0-1.094-.021c-.161.155-.113.325-.11.484.023,1.093.054,2.187.082,3.281.014.583.031,1.166.042,1.75,0,.107-.013.214-.023.349a3.8,3.8,0,0,1-1.179-.052c-.416-.04-.832-.083-1.247-.127-.392-.042-.785-.084-1.174-.135s-.773-.116-1.134-.171a.87.87,0,0,1-.13-.615c-.039-1.367-.066-2.734-.1-4.1-.071-2.826-.15-5.65-.218-8.475-.041-1.7-.069-3.391-.107-5.086-.011-.474-.036-.948-.048-1.422C817.545,733.55,817.565,733.426,817.579,733.262Zm5.012,3.8a1.344,1.344,0,0,0-.07.646c.033,1.276.073,2.551.1,3.825.02.82.023,1.641.042,2.46a.916.916,0,0,0,.107.607,3.467,3.467,0,0,0,.384.075c.462.039.927.067,1.39.1,1.925.152,3.853.226,5.788.2a10.931,10.931,0,0,0,2.136-.247,6.938,6.938,0,0,0,2.073-.761,3.357,3.357,0,0,0,1.589-1.872,3.439,3.439,0,0,0,.121-1.412,2.928,2.928,0,0,0-1.874-2.42,7.7,7.7,0,0,0-1.809-.565,20.567,20.567,0,0,0-3.528-.331c-.744-.018-1.489-.04-2.231-.08-1.23-.067-2.46-.151-3.689-.225C822.964,737.057,822.8,737.066,822.591,737.066Z" transform="translate(-781.269 -682.434)" stroke="#000" stroke-miterlimit="10" stroke-width="1"/>
          <path id="Path_18996" data-name="Path 18996" d="M810.066,683.172a1.4,1.4,0,0,1,.056.241q.246,9.922.489,19.815a1.525,1.525,0,0,1-.666.253,70.7,70.7,0,0,0-9.42,3.027c-.929.378-1.842.782-2.772,1.159a15.929,15.929,0,0,1-3.038.955,5.857,5.857,0,0,1-1.386.088,2.264,2.264,0,0,1-1.642-.726,2.5,2.5,0,0,1-.543-1.057,6.079,6.079,0,0,1-.113-2.288,8.694,8.694,0,0,1,1.877-4.477c.343-.432.76-.827,1.144-1.24.091-.1.179-.2.264-.292-.164-.143-.336-.092-.485-.091a2.039,2.039,0,0,1-1.982-1.078,3.622,3.622,0,0,1-.4-1.766,7.5,7.5,0,0,1,1.117-3.861,12.051,12.051,0,0,1,5.3-4.6,44.855,44.855,0,0,1,4.338-1.761,70.411,70.411,0,0,1,7.165-2.154C809.6,683.266,809.819,683.224,810.066,683.172Zm-4.672,12.859c-.287.072-.464.108-.632.162-1.961.629-3.876,1.337-5.728,2.141a9.743,9.743,0,0,0-2.8,1.783,5.086,5.086,0,0,0-1.43,2.1,2.7,2.7,0,0,0-.068,1.623,1.219,1.219,0,0,0,1.415.823c.139-.009.276-.035.412-.057a9.232,9.232,0,0,0,2.136-.658c2.069-.877,4.177-1.689,6.362-2.373a4.9,4.9,0,0,0,.48-.2C805.541,699.6,805.453,697.856,805.394,696.031Zm-.214-8.154a.527.527,0,0,0-.166-.029c-.178.042-.354.088-.525.143q-2.778.895-5.416,2.017c-.326.139-.647.291-.952.456a6.207,6.207,0,0,0-2.277,1.961,3.18,3.18,0,0,0-.558,2.272,1.553,1.553,0,0,0,.207.572.98.98,0,0,0,.886.453,3.635,3.635,0,0,0,.893-.08,11.886,11.886,0,0,0,1.54-.5c1.947-.82,3.937-1.568,5.985-2.222.169-.054.33-.123.523-.2-.028-1.543-.054-3.07-.084-4.6A1.116,1.116,0,0,0,805.179,687.878Z" transform="translate(-780.341 -680.684)" stroke="#000" stroke-miterlimit="10" stroke-width="1"/>
          <path id="Path_18997" data-name="Path 18997" d="M846.007,701.617l-5.058-.551c-.1-.145-.2-.285-.289-.43q-1.07-1.781-2.134-3.562a2.13,2.13,0,0,1-.149-.248c-.146-.346-.458-.446-.907-.461-2.747-.1-5.492-.146-8.241-.026-1.813.079-3.621.206-5.427.351a.742.742,0,0,0-.664.4q-1.094,1.921-2.207,3.836a1.877,1.877,0,0,1-.4.611l-5.558.9c-.071-.19.075-.326.152-.465.824-1.487,1.646-2.975,2.491-4.455,3.11-5.457,6.351-10.866,9.674-16.245.1-.164.208-.325.33-.516a18.166,18.166,0,0,1,2.694-.131c.882-.018,1.766-.052,2.622-.013C834.3,682.031,845.161,699.474,846.007,701.617Zm-10.035-8.66c-.105-.177-.2-.342-.3-.5-.833-1.3-1.661-2.607-2.5-3.906-.749-1.152-1.514-2.3-2.274-3.446-.08-.121-.133-.264-.359-.331a2.289,2.289,0,0,0-.187.231q-2.419,4.059-4.831,8.119c-.014.025.018.068.029.1.019.01.038.029.056.028,3.344-.136,6.686-.333,10.038-.184a.861.861,0,0,0,.2-.03C835.865,693.032,835.879,693.016,835.973,692.957Z" transform="translate(-781.179 -680.594)" stroke="#000" stroke-miterlimit="10" stroke-width="1"/>
          <path id="Path_18998" data-name="Path 18998" d="M873.3,733.943a16.351,16.351,0,0,1-2.2,7.733,17.233,17.233,0,0,1-4.263,5.031c-.455.365-.943.705-1.435,1.039a9.445,9.445,0,0,1-2.22,1.126c-.893.311-1.785.622-2.666.954a11.153,11.153,0,0,1-3.581.641,11.984,11.984,0,0,1-7.085-1.764,6.97,6.97,0,0,1-3.21-4.358,7.589,7.589,0,0,1,.78-5.3,14.145,14.145,0,0,1,3.342-4.074,29.56,29.56,0,0,1,6.747-4.3,36.251,36.251,0,0,1,5.569-2.144,17.85,17.85,0,0,1,4.2-.763,8.394,8.394,0,0,1,2.077.149,4.529,4.529,0,0,1,2.566,1.42,5.124,5.124,0,0,1,1.111,2.223A8.884,8.884,0,0,1,873.3,733.943Zm-3.678,1.839c-.015-.26-.013-.59-.057-.915a3.928,3.928,0,0,0-.726-1.869,3.457,3.457,0,0,0-2.284-1.33,7.44,7.44,0,0,0-2.29-.013,13.5,13.5,0,0,0-2.721.678,20.052,20.052,0,0,0-5.8,3.191,12.044,12.044,0,0,0-3.038,3.383,5.58,5.58,0,0,0-.8,3.832,4.534,4.534,0,0,0,2.459,3.242,8.039,8.039,0,0,0,5,.814,11.133,11.133,0,0,0,4.789-1.8,12.4,12.4,0,0,0,3.6-3.591A10.355,10.355,0,0,0,869.618,735.782Z" transform="translate(-782.28 -682.242)" stroke="#000" stroke-miterlimit="10" stroke-width="1"/>
          <path id="Path_18999" data-name="Path 18999" d="M870.091,688.8c.159,6.655.318,13.34.479,20.01-.239.087-.351-.036-.477-.1a49.622,49.622,0,0,0-5.6-2.571q-1.66-.637-3.361-1.21a28.847,28.847,0,0,1-6.667-3.16,16.324,16.324,0,0,1-5.075-5.022,9.434,9.434,0,0,1-1.425-6.322,6.788,6.788,0,0,1,1.5-3.491,8.345,8.345,0,0,1,6.574-2.921,13.1,13.1,0,0,1,4.3.619,55.12,55.12,0,0,1,9.3,3.859c.116.061.226.128.334.2A.935.935,0,0,1,870.091,688.8Zm-3.6,14.83c.013-.243.032-.405.027-.566-.024-.785-.062-1.568-.081-2.352q-.088-3.691-.168-7.383c-.019-.875-.031-1.751-.047-2.626,0-.127-.011-.255-.02-.382a.363.363,0,0,0-.246-.311c-.142-.063-.282-.127-.426-.188q-2.335-.992-4.787-1.794a10.366,10.366,0,0,0-2.287-.474,5.542,5.542,0,0,0-5.1,2.026,4.748,4.748,0,0,0-.849,2.57,7.4,7.4,0,0,0,1.781,5.035,13.8,13.8,0,0,0,6.423,4.32c1.766.615,3.533,1.227,5.234,1.946C866.09,703.512,866.242,703.549,866.494,703.632Z" transform="translate(-782.33 -680.713)" stroke="#000" stroke-miterlimit="10" stroke-width="1"/>
          <path id="Path_19000" data-name="Path 19000" d="M879.047,717.982c.017.281.035.473.04.665q.094,3.91.185,7.821c.03,1.257.06,2.516.1,3.773a5.462,5.462,0,0,0,.282,1.676,2.551,2.551,0,0,0,.41.746.7.7,0,0,0,1.009.11,2.469,2.469,0,0,0,.628-.578,9.309,9.309,0,0,0,.776-1.282,10.113,10.113,0,0,0,.836-2.76,28.141,28.141,0,0,0,.335-6.165c-.054-1.13-.041-2.261-.067-3.391q-.088-3.855-.187-7.711c-.006-.237-.022-.474-.042-.71a1.21,1.21,0,0,0-.1-.251,11.2,11.2,0,0,0-.771,1.031c-.26.324-.51.654-.779.973s-.527.6-.8.9-.585.614-.891.913-.623.583-.955.892c-.136-.1-.239-.176-.331-.254-.726-.618-1.441-1.241-2.178-1.85a.778.778,0,0,1-.335-.627c-.016-1.421-.047-2.844-.079-4.265q-.069-3.063-.147-6.125-.106-4.375-.211-8.75c0-.195.008-.391.012-.574a.286.286,0,0,1,.33.088c.763.639,1.517,1.285,2.284,1.92a.844.844,0,0,1,.325.694c.02,1.294.056,2.588.09,3.882q.117,4.595.239,9.187c0,.107.026.214.045.366a1.028,1.028,0,0,0,.257-.107,18.035,18.035,0,0,0,3.821-4.745c.163-.321.287-.654.43-.981.044-.1.1-.2.185-.386.12.372.225.648.3.929a13.691,13.691,0,0,1,.423,3.094c.063,3.446.146,6.891.223,10.337q.065,2.843.136,5.687c.018.73.054,1.458.063,2.188a29.638,29.638,0,0,1-.574,6.21,11.3,11.3,0,0,1-2.7,5.285,5.473,5.473,0,0,1-.723.664,2.829,2.829,0,0,1-.617.354,2.018,2.018,0,0,1-2.161-.258,2.738,2.738,0,0,1-.676-.824,5.784,5.784,0,0,1-.588-1.682,17.53,17.53,0,0,1-.242-3.109c-.088-3.39-.148-6.781-.231-10.172a.926.926,0,0,1,.378-.78c.627-.539,1.217-1.1,1.823-1.658C878.733,718.261,878.851,718.156,879.047,717.982Z" transform="translate(-783.305 -680.998)" stroke="#000" stroke-miterlimit="10" stroke-width="1"/>
          <path id="Path_19001" data-name="Path 19001" d="M781.369,720.2c0,.242-.01.422,0,.6.088,1.421.161,2.841.275,4.261.131,1.619.248,3.24.539,4.847a8.984,8.984,0,0,0,1.635,3.812,4.39,4.39,0,0,0,1.019,1.036c.756.524,1.359.419,1.712-.316a3.189,3.189,0,0,0,.273-.9,7.6,7.6,0,0,0,.087-1.256c-.029-1.769-.076-3.537-.118-5.306q-.072-3.063-.147-6.126c0-.158.018-.317.027-.459a.3.3,0,0,1,.333.095c.826.643,1.643,1.294,2.48,1.927a.739.739,0,0,1,.352.621q.009,1.5.046,3.009c.069,2.771.149,5.542.213,8.314a7.929,7.929,0,0,1-.381,2.927,4.473,4.473,0,0,1-.52,1.009,2.5,2.5,0,0,1-.657.629,2.167,2.167,0,0,1-1.762.3,4.14,4.14,0,0,1-2.2-1.287,12.845,12.845,0,0,1-3.063-5.466,33.112,33.112,0,0,1-.87-4.98c-.234-2.327-.38-4.657-.5-6.989q-.282-5.495-.152-10.995a30.2,30.2,0,0,1,.694-6.1,12.658,12.658,0,0,1,1.225-3.356,6.49,6.49,0,0,1,1.038-1.421,3.659,3.659,0,0,1,1.191-.832,2.654,2.654,0,0,1,2.432.12,3.19,3.19,0,0,1,.9.756,5.463,5.463,0,0,1,1.117,2.4,12.966,12.966,0,0,1,.071,4.686,31.484,31.484,0,0,1-1.039,4.738,32.766,32.766,0,0,1-3.13,7.122c-.224.38-.471.754-.736,1.117A3.27,3.27,0,0,1,781.369,720.2Zm0-1.9a2.143,2.143,0,0,0,.377-.311,14,14,0,0,0,.861-1.312,28.024,28.024,0,0,0,3.294-9.567,9.971,9.971,0,0,0-.041-3.163,3.756,3.756,0,0,0-.732-1.753,1.275,1.275,0,0,0-2-.125,3.2,3.2,0,0,0-.807,1.08,9.1,9.1,0,0,0-.821,2.705,31.61,31.61,0,0,0-.277,3.328c-.043,2.333-.02,4.668-.016,7,0,.565.024,1.131.048,1.7A2.3,2.3,0,0,0,781.372,718.3Z" transform="translate(-779.955 -681.187)" stroke="#000" stroke-miterlimit="10" stroke-width="1"/>
          <path id="Path_19002" data-name="Path 19002" d="M811.141,731.951c.034,1.083.105,2.117.105,3.138a.831.831,0,0,1-.643-.007c-1.379-.332-2.759-.663-4.129-1.018-.773-.2-1.525-.451-2.293-.663a1.066,1.066,0,0,0-.706-.1,9.187,9.187,0,0,0-.013,1.5c0,.492.02.984.037,1.477.015.51.041,1.021.054,1.532s.017,1.021.025,1.532.013,1.021.024,1.531c.011.492.025.984.041,1.477.015.511.039,1.021.052,1.532s.017,1.021.026,1.531.013,1.022.024,1.533q.017.738.045,1.477a11.791,11.791,0,0,1,.022,1.551,1.317,1.317,0,0,1-.3-.023q-1.872-.674-3.738-1.359a1.651,1.651,0,0,1-.212-.12c-.014-.174-.04-.371-.044-.568-.04-1.659-.073-3.319-.113-4.978q-.13-5.415-.264-10.831c0-.073-.008-.146,0-.219a.379.379,0,0,0-.293-.4c-.168-.063-.328-.137-.492-.207a49.523,49.523,0,0,1-5.323-2.615c-.225-.128-.443-.264-.642-.383a22.007,22.007,0,0,1-.079-3.19c.19-.1.3.039.417.1,1.021.543,2.018,1.117,3.062,1.63a61.875,61.875,0,0,0,12.23,4.38c.819.206,1.649.386,2.474.581C810.687,731.831,810.882,731.885,811.141,731.951Z" transform="translate(-780.386 -682.148)" stroke="#000" stroke-miterlimit="10" stroke-width="1"/>
        </g>
      </g>
    </g>
  </g>
</svg>
