<svg xmlns="http://www.w3.org/2000/svg" xmlns:xlink="http://www.w3.org/1999/xlink" width="1920" height="1080" viewBox="0 0 1920 1080">
  <defs>
    <clipPath id="clip-TU_IfA_-_E02_ISO_2">
      <rect width="1920" height="1080"/>
    </clipPath>
  </defs>
  <g id="TU_IfA_-_E02_ISO_2" data-name="TU IfA - E02 ISO – 2" clip-path="url(#clip-TU_IfA_-_E02_ISO_2)">
    <rect width="1920" height="1080" fill="transparent"/>
    <g id="Group_6695" data-name="Group 6695" transform="translate(26 -6.406)">
      <g id="_01_REM" data-name="01_REM" transform="translate(342.162 268.438)">
        <path id="_01_REM_FLOOR" data-name="01_REM_FLOOR" d="M2446.794,622.463l-149.053-86.031v-56.3l146.136-28.124V395.757l146.136-28.124,161.394-93.181,149.079,86.07Z" transform="translate(-2268.514 -274.452)" fill="#fff" fill-rule="evenodd"/>
        <g id="_01_REM_HATCH" data-name="01_REM_HATCH">
          <path id="Path_22844" data-name="Path 22844" d="M2913.306,363.64,2664.49,507.295l8.785,5.072,240.032-138.582Z" transform="translate(-2281.333 -277.57)" stroke="#000" stroke-linejoin="round" stroke-width="2" fill-rule="evenodd"/>
          <path id="Path_22845" data-name="Path 22845" stroke="#000" d="M2446.861,621.813l-150.179-85.381-29.227-50.623,175.364-33.8-29.227-50.623,175.364-33.749,161.394-93.181,79.011,45.617,29.227,16.874,40.84,23.579-40.84,23.579-29.227,16.874-22.955,13.253-63.243,36.514-92.551,53.434" fill="#fff" transform="translate(-2267.455 -274.452)" stroke-linecap="round" stroke-linejoin="round" stroke-width="2" fill-rule="evenodd"/>
        </g>
      </g>
      <g id="_01_HBD" data-name="01_HBD" transform="translate(961.796 312.49)">
        <path id="_01_HBD_FLOOR" data-name="01_HBD_FLOOR" d="M3448.558,477.308,3177.544,320.1l-268.01,153.46,272.758,157.477Z" transform="translate(-2909.533 -320.1)" fill="#fff" fill-rule="evenodd"/>
        <g id="_01_HBD_HATCH" data-name="01_HBD_HATCH">
          <path id="Path_22854" data-name="Path 22854" d="M3461.608,493.177V483L3282.861,586.2l8.812,5.088Z" transform="translate(-2922.583 -325.794)" stroke="#000" stroke-linejoin="round" stroke-width="2" fill-rule="evenodd"/>
          <path id="Path_22858" data-name="Path 22858" d="M3103.446,601.2l8.768-5.062-202.68-117.017v10.124Z" transform="translate(-2909.533 -325.659)" stroke="#000" stroke-linejoin="round" stroke-width="2" fill-rule="evenodd"/>
          <path id="Path_22862" data-name="Path 22862" stroke="#000" d="M2909.534,473.56l268.01-153.46,271.014,157.208" fill="none" transform="translate(-2909.533 -320.1)" stroke-linecap="round" stroke-linejoin="round" stroke-width="2" fill-rule="evenodd"/>
        </g>
      </g>
      <g id="_00_ELEVATOR" data-name="00_ELEVATOR" transform="translate(904 102.406)">
        <path id="Path_20488" data-name="Path 20488" d="M960,152.989l58.455-33.749V897.6l-58.441,33.741Z" transform="translate(-930.772 -102.994)" fill="#fff" stroke="#000" stroke-linejoin="round" stroke-width="2" fill-rule="evenodd"/>
        <path id="Path_20489" data-name="Path 20489" d="M958.941,153.6l-29.227-16.874.012,778.355,29.227,16.874Z" transform="translate(-929.714 -103.605)" fill="#fff" stroke="#000" stroke-linejoin="round" stroke-width="2" fill-rule="evenodd"/>
        <path id="Path_20490" data-name="Path 20490" d="M929.714,135.547l29.227,16.874,58.49-33.76-28.377-16.256Z" transform="translate(-929.714 -102.406)" fill="#fff" stroke="#000" stroke-linejoin="round" stroke-width="2" fill-rule="evenodd"/>
        <line id="Line_7318" data-name="Line 7318" y2="32.609" transform="translate(59.341)" fill="none" stroke="#000" stroke-linecap="round" stroke-linejoin="round" stroke-width="2"/>
        <g id="_03_ELEVATOR_DOOR" data-name="03_ELEVATOR DOOR" transform="translate(2.668 440.801)">
          <path id="Path_19686" data-name="Path 19686" d="M4772.833,619.094V558.909l23.22,13.406V632.5Z" transform="translate(-4772.833 -558.909)" fill="#fff" stroke="#000" stroke-linejoin="round" stroke-width="1" fill-rule="evenodd"/>
          <path id="Path_19687" data-name="Path 19687" d="M4784.856,626.036V565.851l11.61,6.7v60.186Z" transform="translate(-4773.247 -559.148)" fill="#fff" stroke="#000" stroke-linejoin="round" stroke-width="1" fill-rule="evenodd"/>
          <path id="Path_19688" data-name="Path 19688" d="M4772.833,619.094V558.909l11.61,6.7V625.8Z" transform="translate(-4772.833 -558.909)" fill="#fff" stroke="#000" stroke-linejoin="round" stroke-width="1" fill-rule="evenodd"/>
        </g>
      </g>
      <g id="_01_URBAN_MANAGEMENT" data-name="01_URBAN MANAGEMENT" transform="translate(371.389 498.163)">
        <path id="_01_FLOOR" data-name="01_FLOOR" d="M2458.706,624.816,2657.3,512.5l293.022,169.176L3096.455,597.3l70.078,40.459,87.519-50.529,79,45.611-438.469,253.15Z" transform="translate(-2303.367 -512.498)" fill="#fff" fill-rule="evenodd"/>
        <path id="_01_URBAN_MANAGEMENT_FLOOR" data-name="01_URBAN MANAGEMENT FLOOR" d="M2872.555,636.922,2667.007,754.786l234.858,135.557,204.813-118.249Z" transform="translate(-2310.649 -516.847)" fill="#fff" fill-rule="evenodd"/>
        <path id="_01_HATCH_LINE" data-name="01_HATCH LINE" stroke="#000" d="M2664.49,512.5l293.022,169.176L3103.648,597.3" fill="none" transform="translate(-2310.561 -512.498)" stroke-linecap="round" stroke-linejoin="round" stroke-width="2" fill-rule="evenodd"/>
        <path id="_01_HATCH_LINE-2" data-name="01_HATCH LINE" stroke="#000" d="M3253.865,589.94l79,45.611L2894.4,888.7,2453.359,632.84" fill="none" transform="translate(-2303.181 -515.205)" stroke-linecap="round" stroke-linejoin="round" stroke-width="2" fill-rule="evenodd"/>
        <path id="Path_22859" data-name="Path 22859" d="M2297.741,556.011l591.216,341.339L3327.427,644.2V634.012l-438.469,253.15L2297.741,545.921Z" transform="translate(-2297.741 -513.666)" stroke="#000" stroke-linejoin="round" stroke-width="2" fill-rule="evenodd"/>
      </g>
      <g id="_01_FACADE_LEFT" data-name="01_FACADE_LEFT" transform="translate(196.026 233.374)">
        <path id="Path_22863" data-name="Path 22863" d="M2594.249,238.118l-175.364,33.749,29.227,50.623v72l146.136-28.124Z" transform="translate(-2126.612 -238.118)" fill="#fff" stroke="#000" stroke-linejoin="round" stroke-width="2" fill-rule="evenodd"/>
        <path id="Path_22864" data-name="Path 22864" d="M2418.885,273.089v56.248l29.227-5.625Z" transform="translate(-2126.612 -239.341)" fill="#fff" stroke="#000" stroke-linejoin="round" stroke-width="2" fill-rule="evenodd"/>
        <path id="Path_22865" data-name="Path 22865" d="M2267.455,359.295l29.227,50.623v72l146.136-28.124V325.546Z" transform="translate(-2121.319 -241.174)" fill="#fff" stroke="#000" stroke-linejoin="round" stroke-width="2" fill-rule="evenodd"/>
        <path id="Path_22866" data-name="Path 22866" d="M2267.455,360.517v56.248l29.227-5.625Z" transform="translate(-2121.319 -242.397)" fill="#fff" stroke="#000" stroke-linejoin="round" stroke-width="2" fill-rule="evenodd"/>
        <path id="Path_22867" data-name="Path 22867" d="M2145.253,580.71V498.568l-29.227-50.623v138.39l29.227,50.623Z" transform="translate(-2116.026 -245.453)" fill="#fff" stroke="#000" stroke-linejoin="round" stroke-width="2" fill-rule="evenodd"/>
        <path id="Path_22868" data-name="Path 22868" d="M2291.389,541.273v-128.3l-175.363,33.749,29.227,50.623v82.142l146.136-28.124Z" transform="translate(-2116.026 -244.23)" fill="#fff" stroke="#000" stroke-linejoin="round" stroke-width="2" fill-rule="evenodd"/>
      </g>
      <g id="_01_STAIR" data-name="01_STAIR" transform="translate(686.346 391.951)">
        <path id="Path_22869" data-name="Path 22869" d="M2804.233,480.246l-41.975-24.234-1.866,1.077v7.97l43.841,25.312Z" transform="translate(-2628.87 -404.311)" stroke="#000" stroke-linejoin="round" stroke-width="2" fill-rule="evenodd"/>
        <path id="Path_22870" data-name="Path 22870" d="M2751.307,480.757l43.841,25.312V495.944l-43.841-25.312Z" transform="translate(-2628.552 -404.823)" stroke="#000" stroke-linejoin="round" stroke-width="2" fill-rule="evenodd"/>
        <path id="Path_22871" data-name="Path 22871" d="M2831.491,432.813l8.768-5.062-43.841-25.312-8.768,5.062Z" transform="translate(-2629.823 -402.439)" fill="#fff" stroke="#000" stroke-linejoin="round" stroke-width="2" fill-rule="evenodd"/>
        <path id="Path_22872" data-name="Path 22872" d="M2831.173,443.487l-43.841-25.312-8.768,5.062,43.841,25.312Z" transform="translate(-2629.505 -402.989)" fill="#fff" stroke="#000" stroke-linejoin="round" stroke-width="2" fill-rule="evenodd"/>
        <path id="Path_22873" data-name="Path 22873" d="M2822.088,459.224l-43.841-25.312-8.768,5.062,43.841,25.312Z" transform="translate(-2629.188 -403.539)" fill="#fff" stroke="#000" stroke-linejoin="round" stroke-width="2" fill-rule="evenodd"/>
        <path id="Path_22874" data-name="Path 22874" d="M2813,474.961l-43.841-25.312-8.768,5.062,43.841,25.312Z" transform="translate(-2628.87 -404.089)" fill="#fff" stroke="#000" stroke-linejoin="round" stroke-width="2" fill-rule="evenodd"/>
        <path id="Path_22875" data-name="Path 22875" d="M2803.916,490.7l-43.841-25.312-8.768,5.062,43.841,25.312Z" transform="translate(-2628.552 -404.639)" fill="#fff" stroke="#000" stroke-linejoin="round" stroke-width="2" fill-rule="evenodd"/>
        <path id="Path_22876" data-name="Path 22876" d="M2794.83,506.435l-43.841-25.312-8.768,5.062,43.841,25.312Z" transform="translate(-2628.235 -405.189)" fill="#fff" stroke="#000" stroke-linejoin="round" stroke-width="2" fill-rule="evenodd"/>
        <path id="Path_22877" data-name="Path 22877" d="M2785.744,522.173,2741.9,496.861l-8.768,5.062,43.841,25.312Z" transform="translate(-2627.917 -405.739)" fill="#fff" stroke="#000" stroke-linejoin="round" stroke-width="2" fill-rule="evenodd"/>
        <path id="Path_22878" data-name="Path 22878" d="M2722.462,579.692l8.768-5.062-43.841-25.312-8.769,5.062Z" transform="translate(-2626.011 -407.573)" fill="#fff" stroke="#000" stroke-linejoin="round" stroke-width="2" fill-rule="evenodd"/>
        <path id="Path_22879" data-name="Path 22879" d="M2713.376,595.429l8.768-5.062L2678.3,565.055l-8.768,5.062Z" transform="translate(-2625.694 -408.123)" fill="#fff" stroke="#000" stroke-linejoin="round" stroke-width="2" fill-rule="evenodd"/>
        <path id="Path_22880" data-name="Path 22880" d="M2660.449,585.854l43.841,25.312,8.768-5.062-43.841-25.312Z" transform="translate(-2625.376 -408.673)" fill="#fff" stroke="#000" stroke-linejoin="round" stroke-width="2" fill-rule="evenodd"/>
        <path id="Path_22881" data-name="Path 22881" d="M2703.972,621.84l-43.841-25.312-8.768,5.062L2695.2,626.9Z" transform="translate(-2625.059 -409.223)" fill="#fff" stroke="#000" stroke-linejoin="round" stroke-width="2" fill-rule="evenodd"/>
        <path id="Path_22882" data-name="Path 22882" d="M2686.119,642.64l8.768-5.062-43.841-25.312-8.768,5.062Z" transform="translate(-2624.741 -409.773)" fill="#fff" stroke="#000" stroke-linejoin="round" stroke-width="2" fill-rule="evenodd"/>
        <path id="Path_22883" data-name="Path 22883" d="M2677.032,658.377l8.769-5.062L2641.96,628l-8.768,5.062Z" transform="translate(-2624.424 -410.323)" fill="#fff" stroke="#000" stroke-linejoin="round" stroke-width="2" fill-rule="evenodd"/>
        <path id="Path_22884" data-name="Path 22884" d="M2676.715,669.051l-43.841-25.312-8.768,5.062,43.841,25.312Z" transform="translate(-2624.106 -410.874)" fill="#fff" stroke="#000" stroke-linejoin="round" stroke-width="2" fill-rule="evenodd"/>
        <path id="Path_22885" data-name="Path 22885" d="M2731.547,563.221l43.841-25.312L2731.547,512.6l-33.04,19.075-10.8,6.236Z" transform="translate(-2626.329 -406.289)" fill="#fff" stroke="#000" stroke-linejoin="round" stroke-width="2" fill-rule="evenodd"/>
        <path id="Path_22886" data-name="Path 22886" d="M2831.491,433l-43.841-25.312v10.125l43.841,25.312Z" transform="translate(-2629.823 -402.622)" stroke="#000" stroke-linejoin="round" stroke-width="2" fill-rule="evenodd"/>
        <path id="Path_22887" data-name="Path 22887" d="M2822.405,448.733l-43.841-25.312v10.125l43.841,25.312Z" transform="translate(-2629.505 -403.172)" stroke="#000" stroke-linejoin="round" stroke-width="2" fill-rule="evenodd"/>
        <path id="Path_22888" data-name="Path 22888" d="M2813.319,474.595V464.47l-43.841-25.312v10.125Z" transform="translate(-2629.188 -403.722)" stroke="#000" stroke-linejoin="round" stroke-width="2" fill-rule="evenodd"/>
        <path id="Path_22889" data-name="Path 22889" d="M2786.062,511.681l-43.841-25.312v10.125l43.841,25.312Z" transform="translate(-2628.235 -405.373)" stroke="#000" stroke-linejoin="round" stroke-width="2" fill-rule="evenodd"/>
        <path id="Path_22890" data-name="Path 22890" d="M2776.976,527.418l-43.841-25.312v10.125l43.841,25.312Z" transform="translate(-2627.917 -405.923)" stroke="#000" stroke-linejoin="round" stroke-width="2" fill-rule="evenodd"/>
        <path id="Path_22891" data-name="Path 22891" d="M2731.547,574.263V564.138l-43.841-25.312v10.125Z" transform="translate(-2626.329 -407.206)" stroke="#000" stroke-linejoin="round" stroke-width="2" fill-rule="evenodd"/>
        <path id="Path_22892" data-name="Path 22892" d="M2722.462,579.875l-43.841-25.312v10.125L2722.462,590Z" transform="translate(-2626.011 -407.756)" stroke="#000" stroke-linejoin="round" stroke-width="2" fill-rule="evenodd"/>
        <path id="Path_22893" data-name="Path 22893" d="M2669.535,580.425l43.841,25.312V595.612L2669.535,570.3Z" transform="translate(-2625.694 -408.306)" stroke="#000" stroke-linejoin="round" stroke-width="2" fill-rule="evenodd"/>
        <path id="Path_22894" data-name="Path 22894" d="M2704.29,621.474V611.349l-43.841-25.312v10.125Z" transform="translate(-2625.376 -408.857)" stroke="#000" stroke-linejoin="round" stroke-width="2" fill-rule="evenodd"/>
        <path id="Path_22895" data-name="Path 22895" d="M2695.2,637.211V627.086l-43.841-25.312V611.9Z" transform="translate(-2625.059 -409.407)" stroke="#000" stroke-linejoin="round" stroke-width="2" fill-rule="evenodd"/>
        <path id="Path_22896" data-name="Path 22896" d="M2686.119,642.823l-43.841-25.312v10.125l43.841,25.312Z" transform="translate(-2624.741 -409.957)" stroke="#000" stroke-linejoin="round" stroke-width="2" fill-rule="evenodd"/>
        <path id="Path_22897" data-name="Path 22897" d="M2677.032,668.685V658.56l-43.841-25.312v10.125Z" transform="translate(-2624.424 -410.507)" stroke="#000" stroke-linejoin="round" stroke-width="2" fill-rule="evenodd"/>
        <path id="Path_22898" data-name="Path 22898" d="M2667.947,674.3l-43.841-25.312V659.11l43.841,25.312Z" transform="translate(-2624.106 -411.057)" stroke="#000" stroke-linejoin="round" stroke-width="2" fill-rule="evenodd"/>
      </g>
      <g id="_01_SPIRAL_STAIR" data-name="01_SPIRAL STAIR" transform="translate(1220.294 257.177)">
        <path id="Path_22899" data-name="Path 22899" d="M3252.625,262.783l-33.859,13.688,40.706-4.144Z" transform="translate(-3178.841 -262.783)" fill="#fff" stroke="#000" stroke-linejoin="round" stroke-width="2" fill-rule="evenodd"/>
        <path id="Path_22900" data-name="Path 22900" d="M3258.691,293.485l.781-10.32-40.706,4.144Z" transform="translate(-3178.841 -263.496)" fill="#fff" stroke="#000" stroke-linejoin="round" stroke-width="2" fill-rule="evenodd"/>
        <path id="Path_22901" data-name="Path 22901" d="M3218.766,297.95l31.664,15.339,8.262-9.163Z" transform="translate(-3178.841 -264.013)" fill="#fff" stroke="#000" stroke-linejoin="round" stroke-width="2" fill-rule="evenodd"/>
        <path id="Path_22902" data-name="Path 22902" d="M3218.766,318.932V342.8l8.734-1.118,8.734-1.118Z" transform="translate(-3178.841 -264.746)" fill="#fff" stroke="#000" stroke-linejoin="round" stroke-width="2" fill-rule="evenodd"/>
        <path id="Path_22903" data-name="Path 22903" d="M3204.7,346.056l-4.035,5,17.468,2.236V329.424l-4.122,5.1Z" transform="translate(-3178.208 -265.113)" fill="#fff" stroke="#000" stroke-linejoin="round" stroke-width="2" fill-rule="evenodd"/>
        <path id="Path_22904" data-name="Path 22904" d="M3185.656,365.462v-9.98l-8.262,1.278,7.991,8.855Z" transform="translate(-3177.395 -266.024)" fill="#fff" stroke="#000" stroke-linejoin="round" stroke-width="2" fill-rule="evenodd"/>
        <path id="Path_22905" data-name="Path 22905" d="M3186.965,355.018l.605.581.624.56.643.538.661.515.678.492.695.469.711.444.726.42.739.395.753.369.765.343c.143.058,5.62-3.053,5.62-3.053v-5.435l4.035-5Z" transform="translate(-3177.729 -265.715)" fill="#fff" stroke="#000" stroke-linejoin="round" stroke-width="2" fill-rule="evenodd"/>
        <path id="Path_22906" data-name="Path 22906" d="M3218.766,378.135V402l14.137-22.425Z" transform="translate(-3178.841 -266.816)" fill="#fff" stroke="#000" stroke-linejoin="round" stroke-width="2" fill-rule="evenodd"/>
        <path id="Path_22907" data-name="Path 22907" d="M3218.766,412.542l29.227-16.874-15.09-5.55Z" transform="translate(-3178.841 -267.234)" fill="#fff" stroke="#000" stroke-linejoin="round" stroke-width="2" fill-rule="evenodd"/>
        <path id="Path_22908" data-name="Path 22908" d="M3218.766,286.942l40.706-4.144V272.673l-40.706,4.144Z" transform="translate(-3178.841 -263.129)" stroke="#000" stroke-linejoin="round" stroke-width="2" fill-rule="evenodd"/>
        <path id="Path_22909" data-name="Path 22909" d="M3258.691,303.759V293.635l-39.925-6.176v10.125Z" transform="translate(-3178.841 -263.646)" stroke="#000" stroke-linejoin="round" stroke-width="2" fill-rule="evenodd"/>
        <path id="Path_22910" data-name="Path 22910" d="M3218.766,308.074l31.664,15.339V313.289l-31.664-15.339Z" transform="translate(-3178.841 -264.013)" stroke="#000" stroke-linejoin="round" stroke-width="2" fill-rule="evenodd"/>
        <path id="Path_22911" data-name="Path 22911" d="M3236.235,340.194V330.069l-17.469-21.628v10.125Z" transform="translate(-3178.841 -264.379)" stroke="#000" stroke-linejoin="round" stroke-width="2" fill-rule="evenodd"/>
        <path id="Path_22912" data-name="Path 22912" d="M3177.4,366.757l22.944,7.216,15.173,15.173,1.808,11.933V354.071l-17.468-2.236v5.435l-5.478,3.111c-.143-.058-.908-.4-.908-.4l-.753-.369-.739-.395-.726-.42-.711-.444-.695-.469-.678-.492-.661-.515-.643-.538-.624-.56-.605-.581c-.014.007-.974.155-.974.155v9.98l-.27.154-7.612-8.435-.379,2.509v7.2Z" transform="translate(-3177.395 -265.896)" stroke="#000" stroke-linejoin="round" stroke-width="2" fill-rule="evenodd"/>
        <path id="Path_22913" data-name="Path 22913" d="M3218.766,402.051v10.125l14.137-22.425V379.626Z" transform="translate(-3178.841 -266.868)" stroke="#000" stroke-linejoin="round" stroke-width="2" fill-rule="evenodd"/>
        <path id="Path_22914" data-name="Path 22914" d="M3218.766,422.868l29.227-16.874V395.869l-29.227,16.874Z" transform="translate(-3178.841 -267.435)" stroke="#000" stroke-linejoin="round" stroke-width="2" fill-rule="evenodd"/>
      </g>
      <g id="_01_COLOMUN_01" data-name="01_COLOMUN 01" transform="translate(380.29 542.281)">
        <path id="Path_22915" data-name="Path 22915" d="M2324.5,593.518l-17.536-10.125v5.062L2324.5,598.58Z" transform="translate(-2306.964 -559.094)" fill="#fff" stroke="#000" stroke-linejoin="round" stroke-width="2" fill-rule="evenodd"/>
        <path id="Path_22916" data-name="Path 22916" d="M2349.051,558.214l-42.087,24.3,17.536,10.125,42.087-24.3Z" transform="translate(-2306.964 -558.214)" fill="#fff" stroke="#000" stroke-linejoin="round" stroke-width="2" fill-rule="evenodd"/>
        <path id="Path_22917" data-name="Path 22917" d="M2325.135,593v5.062l12.276-2.025,17.536-10.125,12.275-12.15v-5.062Z" transform="translate(-2307.599 -558.581)" fill="#fff" stroke="#000" stroke-linejoin="round" stroke-width="2" fill-rule="evenodd"/>
        <path id="Path_22918" data-name="Path 22918" d="M2327.148,598.521v140.04l.211.351.223.344.234.336.246.328.257.319.268.31.278.3.289.291.3.281.308.27.317.26.325.249.334.237.342.226.349.214.357.2.363.189.37.177.375.164.381.151.386.138.39.125.394.111.4.1.4.084.4.07.406.056.407.042.409.028.409.014h.41l.409-.014.409-.028.407-.042.406-.056.4-.07.4-.084.4-.1.395-.111.39-.125.386-.138.381-.151.375-.164.37-.177.363-.189.356-.2.349-.214.342-.226.334-.237.325-.249.317-.26.308-.27.3-.281.289-.291.278-.3.268-.31.257-.319.246-.328.235-.336.223-.344.211-.351V590.85l-10.333,5.966Z" transform="translate(-2307.669 -559.355)" fill="#fff" stroke="#000" stroke-linejoin="round" stroke-width="2" fill-rule="evenodd"/>
      </g>
      <g id="_01_COLOMUN_02" data-name="01_COLOMUN 02" transform="translate(672.609 373.511)">
        <path id="Path_22919" data-name="Path 22919" d="M2627.408,418.634l-17.536-10.125v5.062l17.536,10.125Z" transform="translate(-2609.872 -384.211)" fill="#fff" stroke="#000" stroke-linejoin="round" stroke-width="2" fill-rule="evenodd"/>
        <path id="Path_22920" data-name="Path 22920" d="M2627.408,417.754l42.087-24.3-17.537-10.125-42.087,24.3Z" transform="translate(-2609.872 -383.33)" fill="#fff" stroke="#000" stroke-linejoin="round" stroke-width="2" fill-rule="evenodd"/>
        <path id="Path_22921" data-name="Path 22921" d="M2628.043,418.121v5.062l12.275-2.025,17.536-10.125,12.276-12.15v-5.062Z" transform="translate(-2610.507 -383.697)" fill="#fff" stroke="#000" stroke-linejoin="round" stroke-width="2" fill-rule="evenodd"/>
        <path id="Path_22922" data-name="Path 22922" d="M2650.722,563.677V415.966l-10.333,5.966-10.333,1.7v140.04l.211.351.223.344.235.336.246.328.257.319.268.31.278.3.288.291.3.281.308.27.317.26.326.249.334.237.342.226.349.214.356.2.363.189.369.177.376.164.381.151.386.138.39.125.395.111.4.1.4.084.4.07.406.056.407.042.409.028.409.014h.41l.409-.014.409-.028.407-.042.406-.056.4-.07.4-.084.4-.1.394-.111.39-.125.386-.138.381-.151.375-.164.37-.177.363-.189.356-.2.35-.214.342-.226.334-.237.325-.249.317-.26.308-.27.3-.281.288-.291.278-.3.268-.31.257-.319.246-.328.234-.336.223-.344Z" transform="translate(-2610.577 -384.471)" fill="#fff" stroke="#000" stroke-linejoin="round" stroke-width="2" fill-rule="evenodd"/>
      </g>
      <g id="_01_REM_TEXT" data-name="01_REM_TEXT" transform="translate(519.578 519.268)">
        <path id="Path_22923" data-name="Path 22923" d="M2470.142,602.434l6.7,14.017,0,.418-8.238,4.756-5.757-12.639-3.808,2.2.045,15.938-7.664,4.425-.124-43.62,12.23-7.061q5.759-3.324,8.913-1.706t3.17,7.935A23.292,23.292,0,0,1,2470.142,602.434Zm-3.334-4.841a12.229,12.229,0,0,0,1.139-5.352q-.019-6.563-4.48-3.988l-4.485,2.59.037,13,4.356-2.515a8.311,8.311,0,0,0,3.433-3.734" transform="translate(-2451.297 -535.915)"/>
        <path id="Path_22924" data-name="Path 22924" d="M2503.655,557.58l.021,7.342L2489.6,573.05l.029,10.3,11.941-6.894.02,7.1-11.941,6.894.033,11.569,14.128-8.157.021,7.306-21.793,12.582-.124-43.62Z" transform="translate(-2452.367 -535.179)"/>
        <path id="Path_22925" data-name="Path 22925" d="M2543.4,534.368l.124,43.62-7.7,4.443-.033-11.8.656-18.6-7.506,34.374-5.213,3.009-7.676-25.608.76,17.78.033,11.8-7.665,4.425-.124-43.62,10.012-5.781,7.255,27.411,7.058-35.675Z" transform="translate(-2453.316 -534.368)"/>
      </g>
      <g id="_01_URBAN_MANAGEMENT_TEXT" data-name="01_URBAN MANAGEMENT_TEXT" transform="translate(726.392 702.584)">
        <path id="Path_22926" data-name="Path 22926" d="M2817.594,774.455l-.066,23.236q-.052,5.2-2.531,6.56c-1.644.9-4.013.462-7.087-1.312a19.112,19.112,0,0,1-7.158-6.948,18.564,18.564,0,0,1-2.454-9.565l.066-23.074,5.934,3.426-.065,23.1a10.722,10.722,0,0,0,.789,4.541,6.848,6.848,0,0,0,2.9,2.9q2.106,1.216,2.893.457c.526-.5.794-1.676.812-3.517l.066-23.208Z" transform="translate(-2670.241 -725.688)"/>
        <path id="Path_22927" data-name="Path 22927" d="M2837.331,805.381l5.075,16.688v.326l-6.334-3.657-4.358-14.8-2.927-1.69-.035,12.262-5.9-3.4.094-33.559,9.4,5.428a18.643,18.643,0,0,1,6.845,6.6,16.964,16.964,0,0,1,2.393,8.9Q2841.572,805.153,2837.331,805.381Zm-2.53-6.666a4.242,4.242,0,0,0,.892-3.095q.014-5.045-3.418-7.029l-3.444-1.989-.028,10,3.345,1.931c1.177.679,2.059.735,2.654.178" transform="translate(-2671.1 -726.184)"/>
        <path id="Path_22928" data-name="Path 22928" d="M2847.074,829.041l-.1,33.552-5.915-3.415.026-9.077.575-13.681-5.9,19.7-4.011-2.316-5.77-26.435.5,14.3-.026,9.077-5.9-3.4.1-33.552,7.7,4.447,5.446,27.447,5.565-21.09Z" transform="translate(-2671.02 -727.451)"/>
        <path id="Path_22929" data-name="Path 22929" d="M2864.151,820.255a13.98,13.98,0,0,1,1.053,5.424q-.015,4.884-2.363,6.018t-6.773-1.414L2846.4,824.7l.1-33.559,9.02,5.208a19.7,19.7,0,0,1,6.944,6.356,14.856,14.856,0,0,1,2.36,8.227,6.278,6.278,0,0,1-.992,3.838,2.916,2.916,0,0,1-2.7,1.144A11.918,11.918,0,0,1,2864.151,820.255Zm-5.66,4.661c.55-.434.831-1.343.835-2.724q.013-4.524-2.833-6.28l-4.153-2.4-.026,8.97,3.771,2.177q1.579.912,2.406.255m-6.114-24.72-.024,8.389,3.069,1.772q3.465,2,3.48-2.125a7.684,7.684,0,0,0-.792-3.733,6.683,6.683,0,0,0-2.609-2.5l-3.124-1.8" transform="translate(-2671.923 -726.659)"/>
        <path id="Path_22930" data-name="Path 22930" d="M2869.663,842.083l-.016,5.643-10.832-6.254-.022,7.93,9.187,5.3-.016,5.459-9.187-5.3-.025,8.9,10.869,6.275-.016,5.622-16.766-9.68.095-33.552Z" transform="translate(-2672.148 -728.102)"/>
        <path id="Path_22931" data-name="Path 22931" d="M2882.919,812.361l9.092,38.863-6.3-3.635-1.546-7.772-8.041-4.642-1.583,5.964-6.236-3.6,9.22-28.291Zm-5.494,17.9,5.459,3.152-2.7-13.534-2.764,10.382" transform="translate(-2672.688 -727.292)"/>
        <path id="Path_22932" data-name="Path 22932" d="M2918.752,870.423l-.016,5.643-7.221-4.169-.079,27.909-5.915-3.415.079-27.909-7.1-4.1.016-5.643Z" transform="translate(-2673.744 -729.022)"/>
        <path id="Path_22933" data-name="Path 22933" d="M2916.212,831.392l-.095,33.559-5.9-3.4-8.564-26.992-.062,22.012-5.9-3.4.1-33.559,5.9,3.4,8.582,27.024.063-22.033Z" transform="translate(-2673.646 -727.654)"/>
        <path id="Path_22934" data-name="Path 22934" d="M2692.112,739.574l-.1,33.552-5.915-3.415.026-9.077.582-13.677-5.907,19.694-4.011-2.316-5.77-26.435.5,14.3-.026,9.077-5.9-3.4.095-33.552,7.7,4.447,5.446,27.447,5.565-21.09Z" transform="translate(-2665.603 -724.324)"/>
        <path id="Path_22935" data-name="Path 22935" d="M2710.522,750.394l9.092,38.856-6.3-3.639-1.539-7.768-8.046-4.646-1.585,5.964-6.235-3.6,9.22-28.284Zm-5.494,17.9,5.453,3.149-2.7-13.542-2.757,10.393" transform="translate(-2666.662 -725.126)"/>
        <path id="Path_22936" data-name="Path 22936" d="M2743.809,769.421l-.095,33.552-5.9-3.4-8.564-26.992-.062,22.012-5.9-3.4.1-33.552,5.9,3.4,8.582,27.024.063-22.033Z" transform="translate(-2667.62 -725.488)"/>
        <path id="Path_22937" data-name="Path 22937" d="M2762,780.115l9.092,38.857-6.3-3.635-1.545-7.771-8.047-4.646-1.585,5.964-6.235-3.6L2756.6,777Zm-5.494,17.9,5.453,3.148-2.7-13.541-2.757,10.393" transform="translate(-2668.462 -726.165)"/>
        <path id="Path_22938" data-name="Path 22938" d="M2784.745,792.726a19.191,19.191,0,0,1,7.164,6.838,22.246,22.246,0,0,1,2.774,10.075l-5.736-3.311a12.752,12.752,0,0,0-1.152-5.041,7.333,7.333,0,0,0-2.88-2.826c-1.6-.922-2.75-.921-3.481,0s-1.107,2.83-1.14,5.739l-.017,6.082a18.863,18.863,0,0,0,1.176,7.359,9.02,9.02,0,0,0,3.913,4.351,4.544,4.544,0,0,0,2.831.825l.525-.115.017-6.153-4.134-2.387.014-5.112,10.049,5.8-.04,13.848a5.812,5.812,0,0,1-4.192.778,15.478,15.478,0,0,1-5.426-2.061,20.1,20.1,0,0,1-7.815-8.1,25.706,25.706,0,0,1-2.835-12.083l.016-6.039q.021-6.934,2.667-9.16T2784.745,792.726Z" transform="translate(-2669.405 -726.657)"/>
        <path id="Path_22939" data-name="Path 22939" d="M2816.5,811.388l-.016,5.643-10.832-6.254-.022,7.93,9.187,5.3-.016,5.459-9.187-5.3-.025,8.9,10.875,6.279-.016,5.621-16.772-9.683.1-33.552Z" transform="translate(-2670.29 -727.029)"/>
        <path id="Path_22940" data-name="Path 22940" d="M2894.239,856.271l-.1,33.552-5.9-3.4-8.558-26.988-.062,22.012-5.9-3.4.1-33.552,5.9,3.4,8.582,27.024.063-22.033Z" transform="translate(-2672.878 -728.524)"/>
      </g>
      <g id="_01_HBD_TEXT" data-name="01_HBD_TEXT" transform="translate(1410.853 373.93)">
        <path id="Path_22941" data-name="Path 22941" d="M3401.6,399.133l-.124,43.627-7.634-4.408.053-18.67-11.319-6.535-.053,18.67-7.665-4.425.124-43.627,7.665,4.425-.05,17.65,11.319,6.535.05-17.651Z" transform="translate(-3374.855 -383.765)"/>
        <path id="Path_22942" data-name="Path 22942" d="M3431.9,441.219a18.238,18.238,0,0,1,1.363,7.049q-.019,6.35-3.065,7.832t-8.808-1.844L3408.815,447l.125-43.627,11.731,6.773a25.639,25.639,0,0,1,9.03,8.264,19.357,19.357,0,0,1,3.062,10.7,8.134,8.134,0,0,1-1.291,4.984,3.772,3.772,0,0,1-3.5,1.487A15.532,15.532,0,0,1,3431.9,441.219Zm-7.356,6.064c.711-.567,1.073-1.749,1.078-3.547q.017-5.873-3.686-8.162l-5.4-3.117-.034,11.654,4.906,2.832q2.06,1.19,3.133.341m-7.956-32.145-.031,10.9,3.992,2.3q4.509,2.6,4.525-2.755a10.015,10.015,0,0,0-1.029-4.856,8.689,8.689,0,0,0-3.392-3.249l-4.066-2.348" transform="translate(-3376.042 -384.45)"/>
        <path id="Path_22943" data-name="Path 22943" d="M3460.609,438.068a32.306,32.306,0,0,1,3.992,15.63l-.02,7.066q-.025,8.6-3.988,11.221t-10.9-1.386l-9.834-5.678.124-43.627,10.043,5.8A27.941,27.941,0,0,1,3460.609,438.068Zm-3.7,19.02.021-7.575q.017-6.117-1.467-9.386a12.376,12.376,0,0,0-5.051-5.454l-2.785-1.609-.082,28.972,2.292,1.324q3.836,2.213,5.4.793t1.668-7.065" transform="translate(-3377.128 -385.077)"/>
      </g>
      <g id="_01_FACADE_RIGHT" data-name="01_FACADE_RIGHT" transform="translate(1117.527 400.839)">
        <path id="Path_22944" data-name="Path 22944" d="M3464.622,512.895V651.343L3523.076,550.1V411.649Z" transform="translate(-3084.667 -411.649)" fill="#fff" stroke="#000" stroke-linejoin="round" stroke-width="2" fill-rule="evenodd"/>
        <path id="Path_22945" data-name="Path 22945" d="M3461.446,515.951,3435.1,510.88l-61.333-11.8V637.412l.292.168,87.39,16.818Z" transform="translate(-3081.491 -414.705)" fill="#fff" stroke="#000" stroke-linejoin="round" stroke-width="2" fill-rule="evenodd"/>
        <path id="Path_22946" data-name="Path 22946" d="M3313.192,600.323V738.77l58.454-101.246V499.077L3330.758,569.9Z" transform="translate(-3079.374 -414.705)" fill="#fff" stroke="#000" stroke-linejoin="round" stroke-width="2" fill-rule="evenodd"/>
        <path id="Path_22947" data-name="Path 22947" d="M3222.334,586.5V724.952l87.682,16.874V603.379l-8.679-1.67Z" transform="translate(-3076.198 -417.761)" fill="#fff" stroke="#000" stroke-linejoin="round" stroke-width="2" fill-rule="evenodd"/>
        <path id="Path_22948" data-name="Path 22948" d="M3220.217,724.952V586.5l-58.454,101.246V826.2Z" transform="translate(-3074.081 -417.761)" fill="#fff" stroke="#000" stroke-linejoin="round" stroke-width="2" fill-rule="evenodd"/>
        <path id="Path_22949" data-name="Path 22949" d="M3158.587,690.807l-87.682-16.874V812.38l87.682,16.874Z" transform="translate(-3070.905 -420.817)" fill="#fff" stroke="#000" stroke-linejoin="round" stroke-width="2" fill-rule="evenodd"/>
      </g>
    </g>
  </g>
</svg>
