<svg xmlns="http://www.w3.org/2000/svg" class="svgFloor1" id="background" style="z-index: 1;" viewBox="0 0 1922 1082">
  <g id="Group_517" data-name="Group 517" transform="translate(1 1)">
    <g id="_08" data-name="08">
      <g id="_08_Shaft" data-name="08_Shaft">
        <rect id="Rectangle_3" data-name="Rectangle 3" width="1920" height="1080" fill="#ccc" stroke="#000" stroke-linejoin="round" stroke-width="2" opacity="0"/>
      </g>
    </g>
    <g id="_000_Text" data-name="000_Text">
      <g id="_00_01" data-name="00/01">
        <g id="Vectorized">
          <path id="_00_FACHSHAFT_FLOOR" data-name="00_FACHSHAFT_FLOOR" d="M1054.354,539.564l18.226-10.523L1166.043,583l69.443-40.093,109.086,62.981,45.414-26.219-36.336-20.978-9.087-5.245c0-.02-208.612-120.462-208.612-120.462l-133.085,76.836Z" fill="#fff" stroke="#000" stroke-linejoin="round" stroke-width="2" fill-rule="evenodd"/>
          <g id="_00_FACHSCHAFT_HATCH" data-name="00_FACHSCHAFT_HATCH">
            <path id="Path_140" data-name="Path 140" d="M1054.354,550.076l18.226-10.523,93.464,53.961,69.442-40.093L1344.572,616.4,1390,590.175V579.663l-45.429,26.228L1235.486,542.91,1166.043,583l-93.464-53.961-18.226,10.523-51.487-29.74v10.512Z" stroke="#000" stroke-linejoin="round" stroke-width="2" fill-rule="evenodd"/>
          </g>
          <g id="_00_TOILET" data-name="00_TOILET">
            <g id="HATCH">
              <path id="Path_141" data-name="Path 141" d="M1054.354,510.945l-42.868,25.28v103.1l36.271-21.389,6.6-3.89Z" fill="#fff" stroke="#000" stroke-linejoin="round" stroke-width="2.021" fill-rule="evenodd"/>
            </g>
            <g id="HATCH-2" data-name="HATCH">
              <path id="Path_142" data-name="Path 142" d="M984.909,520.191l26.577,16.033v103.1L993.35,628.632l-8.441-4.978Z" fill="#fff" stroke="#000" stroke-linejoin="round" stroke-width="2.021" fill-rule="evenodd"/>
            </g>
            <g id="HATCH-3" data-name="HATCH">
              <path id="Path_143" data-name="Path 143" d="M984.909,520.191l26.577,16.033,42.868-25.28-26.577-15.5Z" fill="#fff" stroke="#000" stroke-linejoin="round" stroke-width="2.021" fill-rule="evenodd"/>
            </g>
            <g id="HATCH-4" data-name="HATCH">
              <path id="Path_144" data-name="Path 144" d="M1047.757,554.275l-27.185,16.031v63.663l27.185-16.031Z" fill="#fff" stroke="#000" stroke-linejoin="round" stroke-width="1" fill-rule="evenodd"/>
            </g>
          </g>
          <g id="_00_URBAN_DESIGN_HATCH" data-name="00_URBAN DESIGN HATCH">
            <path id="Path_145" data-name="Path 145" d="M995.4,370.06l63.217,36.5,45.429-26.228,124.8,72.054c.005,0,161.152-93.061,161.152-93.061l9.088-5.247,90.876,52.468c0,.02,136.832-78.98,136.832-78.98V317.052l-136.832,79-90.876-52.468-170.24,98.288-124.8-72.054-45.429,26.229-63.217-36.5Z" stroke="#000" stroke-linecap="round" stroke-linejoin="round" stroke-width="2"/>
          </g>
          <g id="_00_URBAN_DESIGN_FLOOR" data-name="00_URBAN DESIGN FLOOR">
            <path id="Path_146" data-name="Path 146" d="M1020.571,345.016,995.4,359.548l25.169,14.532,38.048,21.967,45.429-26.228,124.8,72.054,170.239-98.288,90.877,52.468,136.832-79-278.9-161.02Z" fill="#fff" stroke="#000" stroke-linejoin="round" stroke-width="2" fill-rule="evenodd"/>
          </g>
          <g id="_00_UD_STAIRS" data-name="00_UD_STAIRS">
            <g id="HATCH-5" data-name="HATCH">
              <path id="Path_147" data-name="Path 147" d="M1299.124,516.7l45.438,26.234,9.088-5.247-45.438-26.234Z" fill="#fff" stroke="#000" stroke-linejoin="round" stroke-width="2" fill-rule="evenodd"/>
            </g>
            <g id="HATCH-6" data-name="HATCH">
              <path id="Path_148" data-name="Path 148" d="M1308.212,500.966,1353.65,527.2l9.088-5.247L1317.3,495.719Z" fill="#fff" stroke="#000" stroke-linejoin="round" stroke-width="2" fill-rule="evenodd"/>
            </g>
            <g id="HATCH-7" data-name="HATCH">
              <path id="Path_149" data-name="Path 149" d="M1317.3,485.228l45.438,26.234,9.088-5.247-45.438-26.234Z" fill="#fff" stroke="#000" stroke-linejoin="round" stroke-width="2" fill-rule="evenodd"/>
            </g>
            <g id="HATCH-8" data-name="HATCH">
              <path id="Path_150" data-name="Path 150" d="M1326.387,469.489l45.438,26.234,9.088-5.247-45.438-26.234Z" fill="#fff" stroke="#000" stroke-linejoin="round" stroke-width="2" fill-rule="evenodd"/>
            </g>
            <g id="HATCH-9" data-name="HATCH">
              <path id="Path_151" data-name="Path 151" d="M1335.475,453.751l45.438,26.234,9.088-5.247L1344.563,448.5Z" fill="#fff" stroke="#000" stroke-linejoin="round" stroke-width="2" fill-rule="evenodd"/>
            </g>
            <g id="HATCH-10" data-name="HATCH">
              <path id="Path_152" data-name="Path 152" d="M1344.563,438.013,1390,464.247l9.088-5.247-45.438-26.234Z" fill="#fff" stroke="#000" stroke-linejoin="round" stroke-width="2" fill-rule="evenodd"/>
            </g>
            <g id="HATCH-11" data-name="HATCH">
              <path id="Path_153" data-name="Path 153" d="M1353.65,422.275l45.438,26.234,9.088-5.247-45.438-26.234Z" fill="#fff" stroke="#000" stroke-linejoin="round" stroke-width="2" fill-rule="evenodd"/>
            </g>
            <g id="HATCH-12" data-name="HATCH">
              <path id="Path_154" data-name="Path 154" d="M1371.826,401.29l-9.088,5.247,45.438,26.234,9.088-5.247Z" fill="#fff" stroke="#000" stroke-linejoin="round" stroke-width="2" fill-rule="evenodd"/>
            </g>
            <g id="HATCH-13" data-name="HATCH">
              <path id="Path_155" data-name="Path 155" d="M1371.826,390.8l45.438,26.234,9.088-5.247-45.438-26.234Z" fill="#fff" stroke="#000" stroke-linejoin="round" stroke-width="2" fill-rule="evenodd"/>
            </g>
            <g id="HATCH-14" data-name="HATCH">
              <path id="Path_156" data-name="Path 156" d="M1390,369.814l-9.088,5.247,45.438,26.234,9.088-5.247Z" fill="#fff" stroke="#000" stroke-linejoin="round" stroke-width="2" fill-rule="evenodd"/>
            </g>
            <g id="HATCH-15" data-name="HATCH">
              <path id="Path_157" data-name="Path 157" d="M1390,359.323l45.438,26.234,9.088-5.247-45.438-26.234Z" fill="#fff" stroke="#000" stroke-linejoin="round" stroke-width="2" fill-rule="evenodd"/>
            </g>
            <g id="HATCH-16" data-name="HATCH">
              <path id="Path_158" data-name="Path 158" d="M1390,359.323v10.491l45.438,26.234V385.556Z" stroke="#000" stroke-linejoin="round" stroke-width="2" fill-rule="evenodd"/>
            </g>
            <g id="HATCH-17" data-name="HATCH">
              <path id="Path_159" data-name="Path 159" d="M1380.913,375.061v10.491l45.438,26.234V401.295Z" stroke="#000" stroke-linejoin="round" stroke-width="2" fill-rule="evenodd"/>
            </g>
            <g id="HATCH-18" data-name="HATCH">
              <path id="Path_160" data-name="Path 160" d="M1371.826,401.29l45.438,26.234V417.033L1371.826,390.8Z" stroke="#000" stroke-linejoin="round" stroke-width="2" fill-rule="evenodd"/>
            </g>
            <g id="HATCH-19" data-name="HATCH">
              <path id="Path_161" data-name="Path 161" d="M1362.738,406.537v10.491l45.438,26.234V432.771Z" stroke="#000" stroke-linejoin="round" stroke-width="2" fill-rule="evenodd"/>
            </g>
            <g id="HATCH-20" data-name="HATCH">
              <path id="Path_162" data-name="Path 162" d="M1353.65,432.766,1399.089,459V448.509l-45.438-26.234Z" stroke="#000" stroke-linejoin="round" stroke-width="2" fill-rule="evenodd"/>
            </g>
            <g id="HATCH-21" data-name="HATCH">
              <path id="Path_163" data-name="Path 163" d="M1344.563,438.013V448.5L1390,474.738V464.247Z" stroke="#000" stroke-linejoin="round" stroke-width="2" fill-rule="evenodd"/>
            </g>
            <g id="HATCH-22" data-name="HATCH">
              <path id="Path_164" data-name="Path 164" d="M1335.475,464.243l45.438,26.234V479.985l-45.438-26.234Z" stroke="#000" stroke-linejoin="round" stroke-width="2" fill-rule="evenodd"/>
            </g>
            <g id="HATCH-23" data-name="HATCH">
              <path id="Path_165" data-name="Path 165" d="M1326.387,469.489v10.491l45.438,26.234V495.723Z" stroke="#000" stroke-linejoin="round" stroke-width="2" fill-rule="evenodd"/>
            </g>
            <g id="HATCH-24" data-name="HATCH">
              <path id="Path_166" data-name="Path 166" d="M1317.3,495.719l45.438,26.234V511.461L1317.3,485.228Z" stroke="#000" stroke-linejoin="round" stroke-width="2" fill-rule="evenodd"/>
            </g>
            <g id="HATCH-25" data-name="HATCH">
              <path id="Path_167" data-name="Path 167" d="M1308.212,511.457l45.438,26.234V527.2l-45.438-26.234Z" stroke="#000" stroke-linejoin="round" stroke-width="2" fill-rule="evenodd"/>
            </g>
            <g id="HATCH-26" data-name="HATCH">
              <path id="Path_168" data-name="Path 168" d="M1299.124,516.7V527.2l45.438,26.234V542.938Z" stroke="#000" stroke-linejoin="round" stroke-width="2" fill-rule="evenodd"/>
            </g>
          </g>
          <g id="_00_WERKSTATT_FLOOR" data-name="00_WERKSTATT_FLOOR">
            <path id="Path_169" data-name="Path 169" d="M1375.65,529.428l73.411,42.384-45.429,26.229,59.07,34.1,133.422-77.031-132.481-76.488Z" fill="#fff" stroke="#000" stroke-linejoin="round" stroke-width="2" fill-rule="evenodd"/>
          </g>
          <g id="_00_WERKSTATT_HATCH" data-name="00_WERKSTATT_HATCH">
            <g id="HATCH-27" data-name="HATCH">
              <path id="Path_170" data-name="Path 170" d="M1375.65,539.919l64.325,37.138,9.086-5.246-73.411-42.384Z" stroke="#000" stroke-linejoin="round" stroke-width="2" fill-rule="evenodd"/>
            </g>
            <g id="HATCH-28" data-name="HATCH">
              <path id="Path_171" data-name="Path 171" d="M1403.633,608.532l59.07,34.1L1596.124,565.6V555.113L1462.7,632.144l-9.086-5.246-49.984-28.857Z" stroke="#000" stroke-linejoin="round" stroke-width="2" fill-rule="evenodd"/>
            </g>
          </g>
          <g id="_00_WERK-STATT_STAIRS" data-name="00_WERK-STATT_STAIRS">
            <g id="Group_94" data-name="Group 94">
              <g id="HATCH-29" data-name="HATCH">
                <path id="Path_172" data-name="Path 172" d="M1390,579.683v10.49l9.087-5.244Z" fill="#fff" stroke="#000" stroke-linejoin="round" stroke-width="2" fill-rule="evenodd"/>
              </g>
              <g id="HATCH-30" data-name="HATCH">
                <path id="Path_173" data-name="Path 173" d="M1399.089,584.929v10.49l9.087-5.244Z" fill="#fff" stroke="#000" stroke-linejoin="round" stroke-width="2" fill-rule="evenodd"/>
              </g>
              <g id="HATCH-31" data-name="HATCH">
                <path id="Path_174" data-name="Path 174" d="M1408.176,590.175v10.49l9.087-5.244Z" fill="#fff" stroke="#000" stroke-linejoin="round" stroke-width="2" fill-rule="evenodd"/>
              </g>
              <g id="HATCH-32" data-name="HATCH">
                <path id="Path_175" data-name="Path 175" d="M1453.615,616.406V626.9l9.088-5.245Z" fill="#fff" stroke="#000" stroke-linejoin="round" stroke-width="2" fill-rule="evenodd"/>
              </g>
              <g id="HATCH-33" data-name="HATCH">
                <path id="Path_176" data-name="Path 176" d="M1444.529,621.652l9.086-5.246-9.088-5.246v10.491Z" fill="#fff" stroke="#000" stroke-linejoin="round" stroke-width="2" fill-rule="evenodd"/>
              </g>
              <g id="HATCH-34" data-name="HATCH">
                <path id="Path_177" data-name="Path 177" d="M1435.441,616.405l9.085-5.245-9.087-5.246V616.4Z" fill="#fff" stroke="#000" stroke-linejoin="round" stroke-width="2" fill-rule="evenodd"/>
              </g>
              <g id="HATCH-35" data-name="HATCH">
                <path id="Path_178" data-name="Path 178" d="M1435.439,605.913l-9.087-5.246v10.491Z" fill="#fff" stroke="#000" stroke-linejoin="round" stroke-width="2" fill-rule="evenodd"/>
              </g>
              <g id="HATCH-36" data-name="HATCH">
                <path id="Path_179" data-name="Path 179" d="M1417.264,595.42v10.49l9.087-5.244Z" fill="#fff" stroke="#000" stroke-linejoin="round" stroke-width="2" fill-rule="evenodd"/>
              </g>
            </g>
            <g id="Group_95" data-name="Group 95">
              <g id="HATCH-37" data-name="HATCH">
                <path id="Path_180" data-name="Path 180" d="M1453.615,616.406l-9.086,5.246,9.086,5.246Z" stroke="#000" stroke-linejoin="round" stroke-width="2" fill-rule="evenodd"/>
              </g>
              <g id="HATCH-38" data-name="HATCH">
                <path id="Path_181" data-name="Path 181" d="M1462.7,621.652l-9.086,5.246,9.086,5.246Z" stroke="#000" stroke-linejoin="round" stroke-width="2" fill-rule="evenodd"/>
              </g>
              <g id="HATCH-39" data-name="HATCH">
                <path id="Path_182" data-name="Path 182" d="M1444.527,611.159l-9.086,5.246,9.086,5.246Z" stroke="#000" stroke-linejoin="round" stroke-width="2" fill-rule="evenodd"/>
              </g>
              <g id="HATCH-40" data-name="HATCH">
                <path id="Path_183" data-name="Path 183" d="M1435.439,605.913l-9.085,5.245,9.086,5.246V605.913Z" stroke="#000" stroke-linejoin="round" stroke-width="2" fill-rule="evenodd"/>
              </g>
              <g id="HATCH-41" data-name="HATCH">
                <path id="Path_184" data-name="Path 184" d="M1426.352,611.157V600.666l-9.088,5.247Z" stroke="#000" stroke-linejoin="round" stroke-width="2" fill-rule="evenodd"/>
              </g>
              <g id="HATCH-42" data-name="HATCH">
                <path id="Path_185" data-name="Path 185" d="M1417.264,595.42l-9.086,5.245,9.086,5.246Z" stroke="#000" stroke-linejoin="round" stroke-width="2" fill-rule="evenodd"/>
              </g>
              <g id="HATCH-43" data-name="HATCH">
                <path id="Path_186" data-name="Path 186" d="M1399.089,595.419V584.928L1390,590.175Z" stroke="#000" stroke-linejoin="round" stroke-width="2" fill-rule="evenodd"/>
              </g>
              <g id="HATCH-44" data-name="HATCH">
                <path id="Path_187" data-name="Path 187" d="M1408.176,600.665V590.173l-9.088,5.247Z" stroke="#000" stroke-linejoin="round" stroke-width="2" fill-rule="evenodd"/>
              </g>
            </g>
          </g>
          <g id="_00_MARCH-T_HATCH" data-name="00_MARCH-T HATCH">
            <g id="HATCH-45" data-name="HATCH">
              <path id="Path_188" data-name="Path 188" d="M957.8,291.026,768.888,400.1l9.1,5.256L957.8,301.538Z" stroke="#000" stroke-linejoin="round" stroke-width="2" fill-rule="evenodd"/>
            </g>
            <g id="_00_MARCH-T_HATCH-2" data-name="00_MARCH-T HATCH">
              <path id="Path_189" data-name="Path 189" d="M282.037,483.706,462.159,587.7,651.075,478.628l109.039,62.954,79.049,45.638,3.024,1.746L960,520.948V510.436L842.187,578.455l-3.024-1.746L651.075,468.147c-.026-.015-188.916,109.04-188.916,109.04L282.037,473.194Z" stroke="#000" stroke-linejoin="round" stroke-width="2" fill-rule="evenodd"/>
            </g>
          </g>
          <g id="_00_MARCH-T_FLOOR" data-name="00_MARCH-T FLOOR">
            <path id="Path_190" data-name="Path 190" d="M777.682,187.033,282.037,473.194,462.159,577.187,651.075,468.116c0,.031,188.088,108.593,188.088,108.593l3.024,1.746L960,510.436,768.888,400.1l160.825-92.852L957.8,291.026l-28.091-16.218Z" fill="#fff" stroke="#000" stroke-linejoin="round" stroke-width="2" fill-rule="evenodd"/>
          </g>
          <g id="Group_107" data-name="Group 107">
            <g id="Group_106" data-name="Group 106">
              <g id="Group_96" data-name="Group 96">
                <path id="Path_191" data-name="Path 191" d="M1117.467,505.075l-.011,3.9-7.093-4.1-.017,5.942,6.327,3.653-.011,3.881-6.327-3.653-.027,9.457-4.073-2.352.066-23.176Z"/>
              </g>
              <g id="Group_97" data-name="Group 97">
                <path id="Path_192" data-name="Path 192" d="M1140.829,518.24a12.952,12.952,0,0,1,5,5.01,16.669,16.669,0,0,1,1.93,7.206l-4.086-2.359a9.646,9.646,0,0,0-.648-3.762,5.169,5.169,0,0,0-2.207-2.207c-1.092-.63-1.865-.636-2.321-.025s-.7,1.92-.734,3.9l-.012,4.38a14.529,14.529,0,0,0,.663,5.137,5.16,5.16,0,0,0,2.3,2.615c1.073.619,1.808.742,2.218.384s.644-1.319.7-2.856l4.074,2.352c-.11,2.582-.767,4.209-1.958,4.881s-2.879.38-5.05-.873a13.054,13.054,0,0,1-5.234-5.616,18.482,18.482,0,0,1-1.8-8.435l.011-3.9q.014-4.776,1.9-6.279T1140.829,518.24Z"/>
              </g>
              <g id="Group_98" data-name="Group 98">
                <path id="Path_193" data-name="Path 193" d="M1131.026,538.212l6.281,26.847-4.348-2.51-1.072-5.374-5.554-3.207-1.093,4.124-4.31-2.488,6.368-19.545Zm-3.8,12.373L1131,552.76l-1.86-9.356-1.907,7.181"/>
              </g>
              <g id="Group_99" data-name="Group 99">
                <path id="Path_194" data-name="Path 194" d="M1125.85,509.915l6.281,26.84-4.355-2.514-1.065-5.363-5.555-3.207-1.1,4.113-4.31-2.488,6.374-19.534Zm-3.795,12.366,3.766,2.175-1.86-9.349-1.906,7.174"/>
              </g>
              <g id="Group_100" data-name="Group 100">
                <path id="Path_195" data-name="Path 195" d="M1150.423,549.41l-.011,3.9-7.093-4.1-.017,5.935,6.334,3.657-.011,3.888-6.334-3.657-.027,9.457-4.073-2.352.066-23.183Z"/>
              </g>
              <g id="Group_101" data-name="Group 101">
                <path id="Path_196" data-name="Path 196" d="M1166.1,558.46l-.011,3.9-4.986-2.879-.055,19.28-4.093-2.363.055-19.28-4.9-2.831.011-3.9Z"/>
              </g>
              <g id="Group_102" data-name="Group 102">
                <path id="Path_197" data-name="Path 197" d="M1164.407,532.176l-.066,23.176-4.061-2.344.028-9.919-6.014-3.472-.028,9.919-4.073-2.352.066-23.176,4.073,2.352-.027,9.376,6.014,3.472.027-9.376Z"/>
              </g>
              <g id="Group_103" data-name="Group 103">
                <path id="Path_198" data-name="Path 198" d="M1079.446,508.116a12.364,12.364,0,0,1,3.3,2.8,13.1,13.1,0,0,1,2.234,3.84,11.731,11.731,0,0,1,.769,4.169l-4.055-2.341a6.2,6.2,0,0,0-.6-2.822,4.348,4.348,0,0,0-1.734-1.854c-.716-.413-1.265-.488-1.669-.236a1.777,1.777,0,0,0-.6,1.6,4.315,4.315,0,0,0,.659,2.114,17.652,17.652,0,0,0,2.351,2.96,23.109,23.109,0,0,1,4.282,5.485,11.308,11.308,0,0,1,1.322,5.312c-.006,2.01-.566,3.266-1.686,3.758s-2.642.18-4.564-.929A13.933,13.933,0,0,1,1075.9,529a14.362,14.362,0,0,1-2.508-4.093,12.044,12.044,0,0,1-.895-4.581l4.086,2.36a7.093,7.093,0,0,0,.675,3.307,5.485,5.485,0,0,0,2.213,2.188q2.136,1.233,2.14-1.366a4.9,4.9,0,0,0-.626-2.507,16.455,16.455,0,0,0-2.288-2.827,24.64,24.64,0,0,1-4.358-5.617,10.678,10.678,0,0,1-1.316-4.964c.005-1.951.616-3.171,1.82-3.659S1077.588,507.043,1079.446,508.116Z"/>
              </g>
              <g id="Group_104" data-name="Group 104">
                <path id="Path_199" data-name="Path 199" d="M1095.209,517.217a12.937,12.937,0,0,1,5.006,5.006,16.7,16.7,0,0,1,1.93,7.206l-4.086-2.359a9.682,9.682,0,0,0-.654-3.765,5.166,5.166,0,0,0-2.207-2.207c-1.085-.627-1.859-.633-2.315-.022s-.7,1.917-.733,3.912l-.013,4.373a14.682,14.682,0,0,0,.657,5.134,5.2,5.2,0,0,0,2.308,2.625c1.066.616,1.808.743,2.218.377s.643-1.319.7-2.859l4.073,2.352c-.11,2.589-.76,4.212-1.952,4.891s-2.878.374-5.049-.88a13.034,13.034,0,0,1-5.241-5.612,18.569,18.569,0,0,1-1.8-8.431l.011-3.9q.014-4.776,1.905-6.279T1095.209,517.217Z"/>
              </g>
              <g id="Group_105" data-name="Group 105">
                <path id="Path_200" data-name="Path 200" d="M1118.793,531.149l-.066,23.183-4.061-2.344.028-9.919-6.014-3.472-.028,9.919-4.073-2.352.066-23.183,4.073,2.352-.027,9.376,6.014,3.472.027-9.376Z"/>
              </g>
            </g>
          </g>
          <g id="Group_119" data-name="Group 119">
            <g id="Group_118" data-name="Group 118">
              <g id="Group_108" data-name="Group 108">
                <path id="Path_201" data-name="Path 201" d="M1117.467,505.075l-.011,3.9-7.093-4.1-.017,5.942,6.327,3.653-.011,3.881-6.327-3.653-.027,9.457-4.073-2.352.066-23.176Z"/>
              </g>
              <g id="Group_109" data-name="Group 109">
                <path id="Path_202" data-name="Path 202" d="M1140.829,518.24a12.952,12.952,0,0,1,5,5.01,16.669,16.669,0,0,1,1.93,7.206l-4.086-2.359a9.646,9.646,0,0,0-.648-3.762,5.169,5.169,0,0,0-2.207-2.207c-1.092-.63-1.865-.636-2.321-.025s-.7,1.92-.734,3.9l-.012,4.38a14.529,14.529,0,0,0,.663,5.137,5.16,5.16,0,0,0,2.3,2.615c1.073.619,1.808.742,2.218.384s.644-1.319.7-2.856l4.074,2.352c-.11,2.582-.767,4.209-1.958,4.881s-2.879.38-5.05-.873a13.054,13.054,0,0,1-5.234-5.616,18.482,18.482,0,0,1-1.8-8.435l.011-3.9q.014-4.776,1.9-6.279T1140.829,518.24Z"/>
              </g>
              <g id="Group_110" data-name="Group 110">
                <path id="Path_203" data-name="Path 203" d="M1131.026,538.212l6.281,26.847-4.348-2.51-1.072-5.374-5.554-3.207-1.093,4.124-4.31-2.488,6.368-19.545Zm-3.8,12.373L1131,552.76l-1.86-9.356-1.907,7.181"/>
              </g>
              <g id="Group_111" data-name="Group 111">
                <path id="Path_204" data-name="Path 204" d="M1125.85,509.915l6.281,26.84-4.355-2.514-1.065-5.363-5.555-3.207-1.1,4.113-4.31-2.488,6.374-19.534Zm-3.795,12.366,3.766,2.175-1.86-9.349-1.906,7.174"/>
              </g>
              <g id="Group_112" data-name="Group 112">
                <path id="Path_205" data-name="Path 205" d="M1150.423,549.41l-.011,3.9-7.093-4.1-.017,5.935,6.334,3.657-.011,3.888-6.334-3.657-.027,9.457-4.073-2.352.066-23.183Z"/>
              </g>
              <g id="Group_113" data-name="Group 113">
                <path id="Path_206" data-name="Path 206" d="M1166.1,558.46l-.011,3.9-4.986-2.879-.055,19.28-4.093-2.363.055-19.28-4.9-2.831.011-3.9Z"/>
              </g>
              <g id="Group_114" data-name="Group 114">
                <path id="Path_207" data-name="Path 207" d="M1164.407,532.176l-.066,23.176-4.061-2.344.028-9.919-6.014-3.472-.028,9.919-4.073-2.352.066-23.176,4.073,2.352-.027,9.376,6.014,3.472.027-9.376Z"/>
              </g>
              <g id="Group_115" data-name="Group 115">
                <path id="Path_208" data-name="Path 208" d="M1079.446,508.116a12.364,12.364,0,0,1,3.3,2.8,13.1,13.1,0,0,1,2.234,3.84,11.731,11.731,0,0,1,.769,4.169l-4.055-2.341a6.2,6.2,0,0,0-.6-2.822,4.348,4.348,0,0,0-1.734-1.854c-.716-.413-1.265-.488-1.669-.236a1.777,1.777,0,0,0-.6,1.6,4.315,4.315,0,0,0,.659,2.114,17.652,17.652,0,0,0,2.351,2.96,23.109,23.109,0,0,1,4.282,5.485,11.308,11.308,0,0,1,1.322,5.312c-.006,2.01-.566,3.266-1.686,3.758s-2.642.18-4.564-.929A13.933,13.933,0,0,1,1075.9,529a14.362,14.362,0,0,1-2.508-4.093,12.044,12.044,0,0,1-.895-4.581l4.086,2.36a7.093,7.093,0,0,0,.675,3.307,5.485,5.485,0,0,0,2.213,2.188q2.136,1.233,2.14-1.366a4.9,4.9,0,0,0-.626-2.507,16.455,16.455,0,0,0-2.288-2.827,24.64,24.64,0,0,1-4.358-5.617,10.678,10.678,0,0,1-1.316-4.964c.005-1.951.616-3.171,1.82-3.659S1077.588,507.043,1079.446,508.116Z"/>
              </g>
              <g id="Group_116" data-name="Group 116">
                <path id="Path_209" data-name="Path 209" d="M1095.209,517.217a12.937,12.937,0,0,1,5.006,5.006,16.7,16.7,0,0,1,1.93,7.206l-4.086-2.359a9.682,9.682,0,0,0-.654-3.765,5.166,5.166,0,0,0-2.207-2.207c-1.085-.627-1.859-.633-2.315-.022s-.7,1.917-.733,3.912l-.013,4.373a14.682,14.682,0,0,0,.657,5.134,5.2,5.2,0,0,0,2.308,2.625c1.066.616,1.808.743,2.218.377s.643-1.319.7-2.859l4.073,2.352c-.11,2.589-.76,4.212-1.952,4.891s-2.878.374-5.049-.88a13.034,13.034,0,0,1-5.241-5.612,18.569,18.569,0,0,1-1.8-8.431l.011-3.9q.014-4.776,1.905-6.279T1095.209,517.217Z"/>
              </g>
              <g id="Group_117" data-name="Group 117">
                <path id="Path_210" data-name="Path 210" d="M1118.793,531.149l-.066,23.183-4.061-2.344.028-9.919-6.014-3.472-.028,9.919-4.073-2.352.066-23.183,4.073,2.352-.027,9.376,6.014,3.472.027-9.376Z"/>
              </g>
            </g>
          </g>
        </g>
      </g>
      <g id="Vector">
        <g id="Group_148" data-name="Group 148">
          <g id="Group_147" data-name="Group 147">
            <g id="Group_135" data-name="Group 135">
              <path id="Path_224" data-name="Path 224" d="M1518.912,222.851a25.665,25.665,0,0,1,3.175,12.437l-.016,5.635q-.02,6.844-3.178,8.923t-8.675-1.1l-7.828-4.519.1-34.731,7.994,4.615A22.22,22.22,0,0,1,1518.912,222.851Zm-2.947,15.142.017-6.038a18.649,18.649,0,0,0-1.161-7.468,9.931,9.931,0,0,0-4.024-4.344l-2.221-1.282-.066,23.065,1.826,1.055q3.055,1.763,4.3.639t1.327-5.627"/>
            </g>
            <g id="Group_136" data-name="Group 136">
              <path id="Path_225" data-name="Path 225" d="M1522.253,183.269l-.068,24.042q-.054,5.393-2.615,6.793t-7.338-1.356a19.765,19.765,0,0,1-7.411-7.2,19.191,19.191,0,0,1-2.543-9.9l.068-23.872,6.148,3.549-.067,23.9a11.01,11.01,0,0,0,.818,4.7,7.063,7.063,0,0,0,3,3.006q2.184,1.26,2.992.47c.545-.523.823-1.736.842-3.636l.068-24.02Z"/>
            </g>
            <g id="Group_139" data-name="Group 139" style="isolation: isolate">
              <g id="Group_137" data-name="Group 137">
                <path id="Path_226" data-name="Path 226" d="M1543.823,233.361l-.017,5.84-11.211-6.473-.023,8.209,9.507,5.489-.016,5.649-9.507-5.489-.026,9.207,11.25,6.5-.016,5.825L1526.409,258.1l.1-34.731Z"/>
              </g>
              <g id="Group_138" data-name="Group 138">
                <path id="Path_227" data-name="Path 227" d="M1541.8,214.768l5.253,17.267v.337l-6.564-3.789-4.51-15.317-3.032-1.751-.036,12.693-6.1-3.521.1-34.731,9.73,5.618a19.285,19.285,0,0,1,7.086,6.825,17.533,17.533,0,0,1,2.48,9.214Q1546.185,214.523,1541.8,214.768Zm-2.622-6.907a4.38,4.38,0,0,0,.924-3.2q.015-5.228-3.535-7.273l-3.575-2.064-.03,10.352,3.467,2c1.22.7,2.134.762,2.749.184"/>
              </g>
            </g>
            <g id="Group_140" data-name="Group 140">
              <path id="Path_228" data-name="Path 228" d="M1556.817,240.386a18.435,18.435,0,0,1,4.957,4.214,19.392,19.392,0,0,1,3.341,5.735,17.634,17.634,0,0,1,1.159,6.262l-6.085-3.513a9.319,9.319,0,0,0-.889-4.232,6.55,6.55,0,0,0-2.6-2.781c-1.066-.616-1.9-.728-2.493-.352a2.675,2.675,0,0,0-.9,2.411,6.411,6.411,0,0,0,.989,3.158,25.66,25.66,0,0,0,3.524,4.437,34.656,34.656,0,0,1,6.41,8.221,16.865,16.865,0,0,1,1.985,7.951c-.008,3.022-.858,4.9-2.535,5.634s-3.96.272-6.839-1.391a20.817,20.817,0,0,1-5.327-4.464,21.485,21.485,0,0,1-3.756-6.13,18.159,18.159,0,0,1-1.343-6.874l6.123,3.535a10.609,10.609,0,0,0,1,4.951,8.218,8.218,0,0,0,3.316,3.282q3.2,1.846,3.21-2.042a7.286,7.286,0,0,0-.936-3.751,24.472,24.472,0,0,0-3.428-4.243,36.726,36.726,0,0,1-6.525-8.411,15.944,15.944,0,0,1-1.974-7.438q.012-4.39,2.727-5.487T1556.817,240.386Z"/>
            </g>
            <g id="Group_141" data-name="Group 141">
              <path id="Path_229" data-name="Path 229" d="M1568.7,229.66a14.426,14.426,0,0,1,1.084,5.608q-.014,5.063-2.435,6.244t-7.017-1.472l-10.005-5.777.1-34.73,9.341,5.392a20.364,20.364,0,0,1,7.189,6.576,15.392,15.392,0,0,1,2.438,8.513,6.463,6.463,0,0,1-1.028,3.97,3.027,3.027,0,0,1-2.792,1.188A12.237,12.237,0,0,1,1568.7,229.66Zm-5.852,4.829c.564-.453.854-1.4.859-2.826.008-3.118-.97-5.277-2.937-6.493l-4.3-2.481-.027,9.281,3.9,2.252c1.1.634,1.93.717,2.5.267M1556.51,208.9l-.025,8.679,3.18,1.836q3.591,2.073,3.6-2.2a7.906,7.906,0,0,0-.821-3.868,6.888,6.888,0,0,0-2.7-2.579l-3.237-1.869"/>
            </g>
            <g id="Group_142" data-name="Group 142">
              <path id="Path_230" data-name="Path 230" d="M1576.7,252.345l-.1,34.731-6.1-3.524.1-34.731Z"/>
            </g>
            <g id="Group_143" data-name="Group 143">
              <path id="Path_231" data-name="Path 231" d="M1627.832,281.864l-.1,34.731-6.1-3.524-8.861-27.933-.065,22.78-6.1-3.524.1-34.731,6.1,3.524,8.88,27.966.065-22.8Z"/>
            </g>
            <g id="Group_144" data-name="Group 144">
              <path id="Path_232" data-name="Path 232" d="M1620.794,240.162l-.1,34.731-6.1-3.524-8.861-27.933-.065,22.78-6.1-3.524.1-34.731,6.1,3.524,8.887,27.97.065-22.8Z"/>
            </g>
            <g id="Group_145" data-name="Group 145">
              <path id="Path_233" data-name="Path 233" d="M1592.067,260.737a19.908,19.908,0,0,1,7.411,7.071,23.1,23.1,0,0,1,2.867,10.43l-5.931-3.425a13.223,13.223,0,0,0-1.194-5.223,7.613,7.613,0,0,0-2.985-2.928c-1.647-.951-2.849-.947-3.6,0s-1.14,2.935-1.181,5.939l-.018,6.3a19.518,19.518,0,0,0,1.219,7.618,9.353,9.353,0,0,0,4.048,4.5,4.723,4.723,0,0,0,2.933.863l.538-.123.018-6.368-4.271-2.466.015-5.3,10.394,6-.041,14.335a6.011,6.011,0,0,1-4.332.813,16.173,16.173,0,0,1-5.621-2.136,20.821,20.821,0,0,1-8.086-8.386,26.675,26.675,0,0,1-2.938-12.506l.018-6.251q.02-7.174,2.764-9.478T1592.067,260.737Z"/>
            </g>
            <g id="Group_146" data-name="Group 146">
              <path id="Path_234" data-name="Path 234" d="M1587.332,220.842l9.408,40.22-6.518-3.764-1.6-8.041-8.326-4.807-1.642,6.173L1572.2,246.9l9.548-29.275Zm-5.686,18.527,5.644,3.259-2.787-14.006-2.857,10.747"/>
            </g>
          </g>
        </g>
        <g id="Group_157" data-name="Group 157">
          <g id="Group_156" data-name="Group 156">
            <g id="Group_149" data-name="Group 149">
              <path id="Path_235" data-name="Path 235" d="M320.82,399.1l.143,50.467-8.894,5.135-.039-13.66.751-21.509L304.1,459.3l-6.034,3.483L289.2,433.151l.87,20.573.039,13.66-8.868,5.12-.143-50.467,11.582-6.687,8.4,31.707,8.158-41.269Z"/>
            </g>
            <g id="Group_150" data-name="Group 150">
              <path id="Path_236" data-name="Path 236" d="M346.914,384.036l13.959,42.491L351.4,432l-2.379-8.973-12.1,6.985L334.6,441.7l-9.379,5.415L338.8,388.721ZM338.831,420.4l8.205-4.737-4.157-15.619L338.831,420.4"/>
            </g>
            <g id="Group_151" data-name="Group 151">
              <path id="Path_237" data-name="Path 237" d="M386.665,390.458l7.752,16.217v.485l-9.532,5.5-6.66-14.629-4.406,2.544.053,18.444L365,424.142l-.143-50.468,14.149-8.168q6.664-3.849,10.316-1.981t3.665,9.186A26.969,26.969,0,0,1,386.665,390.458Zm-3.853-5.609a14.146,14.146,0,0,0,1.313-6.189q-.023-7.593-5.181-4.614l-5.19,3,.042,15.047,5.038-2.909a9.645,9.645,0,0,0,3.978-4.332"/>
            </g>
            <g id="Group_152" data-name="Group 152">
              <path id="Path_238" data-name="Path 238" d="M413.727,344.763q7.184-4.146,10.919-1.681,3.738,2.449,4.276,10.787l-8.9,5.139c-.086-3.514-.572-5.688-1.451-6.54s-2.489-.591-4.82.754a11.317,11.317,0,0,0-5.029,5.77,29.931,29.931,0,0,0-1.544,10.319l.027,9.53q.021,7.516,1.5,9.482c.976,1.311,2.657,1.273,5.026-.1a11.451,11.451,0,0,0,4.821-4.745,20.192,20.192,0,0,0,1.487-7.957l8.868-5.12a32.62,32.62,0,0,1-4.183,15.5,29.311,29.311,0,0,1-10.969,10.778q-7.45,4.3-11.432.957t-4.01-13.77l-.024-8.5a39.656,39.656,0,0,1,4.053-18.4A28.877,28.877,0,0,1,413.727,344.763Z"/>
            </g>
            <g id="Group_153" data-name="Group 153">
              <path id="Path_239" data-name="Path 239" d="M465.068,315.82l.143,50.467-8.836,5.1-.061-21.6-13.089,7.557.061,21.6-8.868,5.12-.143-50.467,8.868-5.12.058,20.41,13.089-7.557-.058-20.41Z"/>
            </g>
            <g id="Group_154" data-name="Group 154">
              <path id="Path_240" data-name="Path 240" d="M487.191,327.833l.023,8.18-14.749,8.515-.023-8.18Z"/>
            </g>
            <g id="Group_155" data-name="Group 155">
              <path id="Path_241" data-name="Path 241" d="M523.079,282.327l.024,8.488-10.86,6.27.119,41.979-8.9,5.139-.119-41.979-10.675,6.163-.024-8.488Z"/>
            </g>
          </g>
        </g>
      </g>
    </g>
  </g>
</svg>
