<svg xmlns="http://www.w3.org/2000/svg" width="1922" height="1082" viewBox="0 0 1922 1082">
  <g id="Group_4055" data-name="Group 4055" transform="translate(1 1)">
    <g id="_08" data-name="08" transform="translate(0 -2585.872)">
      <g id="_08_Shaft" data-name="08_Shaft">
        <rect id="Rectangle_529" data-name="Rectangle 529" width="1920" height="1080" transform="translate(0 2585.872)" opacity="0" stroke="#000" stroke-linejoin="round" stroke-width="2" fill="none"/>
      </g>
    </g>
    <g id="_000_Text" data-name="000_Text" transform="translate(0 -2585.872)">
      <g id="_06" data-name="06">
        <g id="_00_ACKERSTR_HATCH" data-name="00_ACKERSTR_HATCH">
          <path id="Path_16673" data-name="Path 16673" d="M370.013,3351.976l106.032,61.218,185.463-107.077v-10.512L476.045,3402.682l-106.032-61.218Z" stroke="#000" stroke-linejoin="round" stroke-width="2" fill-rule="evenodd"/>
        </g>
        <g id="_00_ACKERSTR_ARCH" data-name="00_ACKERSTR_ARCH">
          <path id="Path_16674" data-name="Path 16674" d="M555.475,3234.388V3131.632l-296.74,171.323v102.756L277.281,3395v-84.471l.2-.763.221-.758.244-.754.267-.748.29-.741.313-.732.334-.724.357-.714.377-.7.4-.691.418-.678.438-.664.457-.649.475-.634.492-.618.509-.6.578-.69.594-.679.61-.666.626-.653.642-.639.656-.625.67-.611.685-.6.7-.58.711-.563.722-.547.735-.53.745-.513.756-.495.765-.477.775-.459.675-.405.689-.386.7-.367.714-.346.726-.325.736-.3.746-.282.754-.259.762-.237.768-.214.773-.19.778-.167.781-.143.783-.119.784-.1.785-.073.308-.015.309-.009h.309l.31.007.31.014.31.022.31.029.309.037.307.044.307.052.3.059.3.066.3.074.3.081.3.088.293.095.248.089.246.1.243.106.24.115.237.122.234.13.229.139.224.145.22.153.214.16c.209.167.411.34.411.34.2.18.387.365.387.365.183.191.36.386.36.386v84.472l18.546-10.708v-84.471l.2-.763.221-.758.244-.754.267-.748.29-.741.313-.732.334-.724.356-.714.378-.7.4-.691.419-.678.438-.664.457-.649.475-.634.492-.618.509-.6.578-.69.594-.679.61-.666.626-.653.641-.639.657-.626.67-.61.684-.595.7-.58.71-.563.723-.547.734-.53.746-.513.755-.495.766-.477.775-.459.675-.405.689-.386.7-.367.715-.346.726-.326.736-.3.746-.282.754-.26.762-.236.768-.214.773-.19.778-.167.781-.143.783-.119.784-.1.784-.073.308-.015.309-.009h.31l.31.007.31.014.31.022.31.029.308.037.308.044.307.052.305.059.3.066.3.074.3.081.3.088.294.095.248.089.246.1.243.106.24.115.237.122.233.13.229.139.225.145.219.153.215.16c.208.167.411.34.411.34.2.179.387.365.387.365.183.19.36.386.36.386v84.472l18.546-10.708v-84.471l.2-.763.221-.758.244-.754.267-.748.29-.741.312-.732.335-.724.356-.714.378-.7.4-.691.419-.678.438-.664.456-.649.475-.634.493-.619.509-.6.577-.69.6-.679.61-.666.626-.653.641-.64.656-.625.671-.61.684-.595.7-.58.71-.563.723-.547.734-.53.745-.513.756-.495.766-.477.774-.459.676-.405.689-.387.7-.366.715-.346.726-.326.736-.3.746-.282.754-.26.761-.236.768-.214.774-.19.778-.167.78-.143.784-.12.784-.1.784-.073.308-.016.309-.008h.31l.31.007.31.014.31.022.309.029.309.037.308.044.307.052.3.059.3.066.3.074.3.081.3.088.294.095.248.089.245.1.244.106.24.115.237.122.233.13.229.138.225.146.219.153.214.16c.209.167.412.34.412.34.2.179.387.365.387.365.183.19.359.386.359.386v84.472l18.547-10.708v-84.471l.2-.763.221-.759.245-.753.267-.748.29-.741.312-.733.335-.723.356-.714.378-.7.4-.691.418-.678.438-.664.457-.649.475-.635.492-.618.509-.6.578-.69.594-.679.611-.666.626-.653.641-.64.656-.625.671-.61.684-.595.7-.58.71-.563.723-.547.734-.53.745-.513.756-.5.765-.477.775-.459.675-.405.69-.387.7-.366.714-.346.726-.326.737-.3.745-.282.754-.26.762-.236.768-.214.774-.19.777-.167.781-.143.783-.12.785-.095.784-.073.308-.016.309-.008h.31l.31.007.31.014.31.022.309.029.309.037.308.044.306.052.3.059.3.066.3.074.3.081.3.088.293.095.248.089.246.1.243.106.241.114.237.123.233.13.229.138.224.146.22.153.214.16c.209.167.412.34.412.34.2.179.386.365.386.365.184.19.36.386.36.386v84.47l18.546-10.706v-84.472l.2-.762.221-.759.244-.753.268-.748.29-.741.312-.733.335-.723.356-.714.377-.7.4-.69.418-.678.438-.664.457-.649.475-.635.492-.618.509-.6.578-.691.594-.678.61-.666.627-.653.641-.64.656-.625.67-.61.685-.595.7-.58.711-.563.722-.547.735-.53.745-.513.756-.5.765-.477.775-.459.675-.4.689-.387.7-.366.714-.346.726-.326.736-.3.746-.281.754-.26.762-.236.768-.214.773-.19.778-.167.781-.143.783-.12.784-.1.785-.072.308-.016.309-.008h.309l.31.007.31.014.31.021.31.03.309.036.308.045.306.051.3.06.3.066.3.074.3.081.3.088.293.094.248.09.246.1.243.106.241.114.236.123.234.13.229.138.224.146.22.153.214.16c.209.167.411.34.411.34.2.179.387.365.387.365.184.19.36.386.36.386v84.47" fill="#fff" stroke="#000" stroke-linejoin="round" stroke-width="2" fill-rule="evenodd"/>
        </g>
        <g id="_00_ACKRERSTR_FLOOR" data-name="00_ACKRERSTR_FLOOR">
          <path id="Path_16675" data-name="Path 16675" d="M661.507,3295.605l-106.032-61.218-.768.444L370.013,3341.465l106.032,61.218Z" fill="#fff" stroke="#000" stroke-linejoin="round" stroke-width="2" fill-rule="evenodd"/>
        </g>
        <g id="_00_ACKERSTR_COLOUM" data-name="00_ACKERSTR_COLOUM">
          <g id="HATCH">
            <path id="Path_16676" data-name="Path 16676" d="M462.073,3217.948v112.325l11.128-6.425V3211.524Z" fill="#fff" stroke="#000" stroke-linejoin="round" stroke-width="2" fill-rule="evenodd"/>
          </g>
          <g id="HATCH-2" data-name="HATCH">
            <path id="Path_16677" data-name="Path 16677" d="M450.945,3211.524v112.324l11.128,6.425V3217.948Z" fill="#fff" stroke="#000" stroke-linejoin="round" stroke-width="2" fill-rule="evenodd"/>
          </g>
          <g id="HATCH-3" data-name="HATCH">
            <path id="Path_16678" data-name="Path 16678" d="M450.945,3211.524l11.128,6.425,11.128-6.425-11.128-6.425Z" fill="#fff" stroke="#000" stroke-linejoin="round" stroke-width="2" fill-rule="evenodd"/>
          </g>
          <g id="Group_3895" data-name="Group 3895">
            <g id="HATCH-4" data-name="HATCH">
              <path id="Path_16679" data-name="Path 16679" d="M528.84,3179.4l-11.128,6.425V3298.15l11.128-6.425Z" fill="#fff" stroke="#000" stroke-linejoin="round" stroke-width="2" fill-rule="evenodd"/>
            </g>
            <g id="HATCH-5" data-name="HATCH">
              <path id="Path_16680" data-name="Path 16680" d="M517.712,3185.825l-11.128-6.425v112.324l11.128,6.425Z" fill="#fff" stroke="#000" stroke-linejoin="round" stroke-width="2" fill-rule="evenodd"/>
            </g>
            <g id="HATCH-6" data-name="HATCH">
              <path id="Path_16681" data-name="Path 16681" d="M517.712,3185.825l11.128-6.425-11.128-6.425-11.128,6.425Z" fill="#fff" stroke="#000" stroke-linejoin="round" stroke-width="2" fill-rule="evenodd"/>
            </g>
          </g>
        </g>
        <g id="_00_MARCH-T_STAIRS" data-name="00_MARCH-T_STAIRS">
          <g id="POLYLINE">
            <path id="Path_16682" data-name="Path 16682" d="M623.809,3206.139v10.512l45.438,26.234c0-.021,45.429-26.249,45.429-26.249v-10.491l-45.429,26.228Z" stroke="#000" stroke-linecap="round" stroke-linejoin="round" stroke-width="2"/>
          </g>
          <g id="HATCH-7" data-name="HATCH">
            <path id="Path_16683" data-name="Path 16683" d="M760.1,3284.83l-9.086-5.246-45.429,26.228,9.086,5.246Z" fill="#fff" stroke="#000" stroke-linejoin="round" stroke-width="2" fill-rule="evenodd"/>
          </g>
          <g id="HATCH-8" data-name="HATCH">
            <path id="Path_16684" data-name="Path 16684" d="M751.019,3269.093l-9.086-5.246L696.5,3290.075l9.086,5.246Z" fill="#fff" stroke="#000" stroke-linejoin="round" stroke-width="2" fill-rule="evenodd"/>
          </g>
          <g id="HATCH-9" data-name="HATCH">
            <path id="Path_16685" data-name="Path 16685" d="M732.847,3248.11l-45.429,26.229,9.086,5.246,45.429-26.228Z" fill="#fff" stroke="#000" stroke-linejoin="round" stroke-width="2" fill-rule="evenodd"/>
          </g>
          <g id="HATCH-10" data-name="HATCH">
            <path id="Path_16686" data-name="Path 16686" d="M732.847,3237.619l-9.086-5.246L678.333,3258.6l9.086,5.246Z" fill="#fff" stroke="#000" stroke-linejoin="round" stroke-width="2" fill-rule="evenodd"/>
          </g>
          <g id="HATCH-11" data-name="HATCH">
            <path id="Path_16687" data-name="Path 16687" d="M714.676,3216.636l-45.429,26.228,9.086,5.246,45.429-26.228Z" fill="#fff" stroke="#000" stroke-linejoin="round" stroke-width="2" fill-rule="evenodd"/>
          </g>
          <g id="HATCH-12" data-name="HATCH">
            <path id="Path_16688" data-name="Path 16688" d="M705.588,3106.467l45.438,26.234,9.088-5.247-45.438-26.234Z" fill="#fff" stroke="#000" stroke-linejoin="round" stroke-width="2" fill-rule="evenodd"/>
          </g>
          <g id="HATCH-13" data-name="HATCH">
            <path id="Path_16689" data-name="Path 16689" d="M696.5,3122.205l45.438,26.234,9.088-5.247-45.438-26.234Z" fill="#fff" stroke="#000" stroke-linejoin="round" stroke-width="2" fill-rule="evenodd"/>
          </g>
          <g id="HATCH-14" data-name="HATCH">
            <path id="Path_16690" data-name="Path 16690" d="M687.413,3137.943l45.438,26.234,9.088-5.247L696.5,3132.7Z" fill="#fff" stroke="#000" stroke-linejoin="round" stroke-width="2" fill-rule="evenodd"/>
          </g>
          <g id="HATCH-15" data-name="HATCH">
            <path id="Path_16691" data-name="Path 16691" d="M678.325,3153.681l45.438,26.234,9.088-5.247-45.438-26.234Z" fill="#fff" stroke="#000" stroke-linejoin="round" stroke-width="2" fill-rule="evenodd"/>
          </g>
          <g id="HATCH-16" data-name="HATCH">
            <path id="Path_16692" data-name="Path 16692" d="M669.237,3169.419l45.438,26.234,9.088-5.247-45.438-26.234Z" fill="#fff" stroke="#000" stroke-linejoin="round" stroke-width="2" fill-rule="evenodd"/>
          </g>
          <g id="HATCH-17" data-name="HATCH">
            <path id="Path_16693" data-name="Path 16693" d="M669.237,3179.911l-45.429,26.229,45.438,26.234,45.429-26.228Z" fill="#fff" stroke="#000" stroke-linejoin="round" stroke-width="2" fill-rule="evenodd"/>
          </g>
          <g id="HATCH-18" data-name="HATCH">
            <path id="Path_16694" data-name="Path 16694" d="M705.588,3106.467v10.491l45.438,26.234V3132.7Z" stroke="#000" stroke-linejoin="round" stroke-width="2" fill-rule="evenodd"/>
          </g>
          <g id="HATCH-19" data-name="HATCH">
            <path id="Path_16695" data-name="Path 16695" d="M696.5,3132.7l45.438,26.234v-10.491L696.5,3122.205Z" stroke="#000" stroke-linejoin="round" stroke-width="2" fill-rule="evenodd"/>
          </g>
          <g id="HATCH-20" data-name="HATCH">
            <path id="Path_16696" data-name="Path 16696" d="M687.413,3137.943v10.491l45.438,26.234v-10.491Z" stroke="#000" stroke-linejoin="round" stroke-width="2" fill-rule="evenodd"/>
          </g>
          <g id="HATCH-21" data-name="HATCH">
            <path id="Path_16697" data-name="Path 16697" d="M678.325,3164.173l45.438,26.234v-10.491l-45.438-26.234Z" stroke="#000" stroke-linejoin="round" stroke-width="2" fill-rule="evenodd"/>
          </g>
          <g id="HATCH-22" data-name="HATCH">
            <path id="Path_16698" data-name="Path 16698" d="M669.237,3179.911l45.438,26.234v-10.491l-45.438-26.234Z" stroke="#000" stroke-linejoin="round" stroke-width="2" fill-rule="evenodd"/>
          </g>
          <g id="HATCH-23" data-name="HATCH">
            <path id="Path_16699" data-name="Path 16699" d="M760.1,3284.83l-45.429,26.229v10.491l45.429-26.228Z" stroke="#000" stroke-linejoin="round" stroke-width="2" fill-rule="evenodd"/>
          </g>
          <g id="HATCH-24" data-name="HATCH">
            <path id="Path_16700" data-name="Path 16700" d="M751.019,3279.584v-10.491l-45.429,26.229v10.491Z" stroke="#000" stroke-linejoin="round" stroke-width="2" fill-rule="evenodd"/>
          </g>
          <g id="HATCH-25" data-name="HATCH">
            <path id="Path_16701" data-name="Path 16701" d="M741.933,3253.356,696.5,3279.584v10.491l45.429-26.229Z" stroke="#000" stroke-linejoin="round" stroke-width="2" fill-rule="evenodd"/>
          </g>
          <g id="HATCH-26" data-name="HATCH">
            <path id="Path_16702" data-name="Path 16702" d="M732.847,3248.11v-10.491l-45.429,26.228v10.491Z" stroke="#000" stroke-linejoin="round" stroke-width="2" fill-rule="evenodd"/>
          </g>
          <g id="HATCH-27" data-name="HATCH">
            <path id="Path_16703" data-name="Path 16703" d="M723.762,3221.882l-45.429,26.228V3258.6l45.429-26.229Z" stroke="#000" stroke-linejoin="round" stroke-width="2" fill-rule="evenodd"/>
          </g>
        </g>
        <g id="_00_FLUR_HATCH" data-name="00_FLUR_HATCH">
          <path id="Path_16704" data-name="Path 16704" d="M1194.437,3367.224l-21.775-12.572-29.051,16.773-54.141,31.258-147.478-85.147-117.134,67.627-110.182-63.614v10.512l110.182,63.614,117.134-67.627,147.478,85.147,54.141-31.258,29.051-16.773,21.775,12.572,148.915-85.978v-10.512Z" stroke="#000" stroke-linejoin="round" stroke-width="2" fill-rule="evenodd"/>
          <path id="Path_16705" data-name="Path 16705" d="M782.966,3222.655v10.512l42.4,24.478,9.1-5.256Z" stroke="#000" stroke-linejoin="round" stroke-width="2" fill-rule="evenodd"/>
          <path id="Path_16706" data-name="Path 16706" d="M1020.6,3300.406l94.337-54.465v-10.512L1011.5,3295.15Z" stroke="#000" stroke-linejoin="round" stroke-width="2" fill-rule="evenodd"/>
          <path id="Path_16707" data-name="Path 16707" d="M929.714,3197.4l-43.763,25.267,9.1,5.256,34.66-20.011Z" stroke="#000" stroke-linejoin="round" stroke-width="2" fill-rule="evenodd"/>
        </g>
        <path id="_00_FLUR_FLOOR" data-name="00_FLUR_FLOOR" d="M929.714,3137.931l-146.747,84.725,51.5,29.733L760.1,3295.321l-45.429,26.228,110.182,63.614,41.466-23.94,75.668-43.687,28.361,16.374,119.118,68.773,83.192-48.031,21.775,12.572,148.915-85.978-80.476-46.462L1084.91,3337.533l-64.307-37.128-9.1-5.256,103.44-59.721-60.586-34.979-33.783,19.5v10.491L960,3265.416l-64.946-37.5-9.1-5.256,43.763-25.267Z" fill="#fff" stroke="#000" stroke-linejoin="round" stroke-width="2" fill-rule="evenodd"/>
        <g id="STAIRS">
          <g id="HATCH-28" data-name="HATCH">
            <path id="Path_16708" data-name="Path 16708" d="M1495.779,3273.849l-10.328,5.963-138.588,80.014,21.775,12.572,148.915-85.976Z" fill="#fff" stroke="#000" stroke-linejoin="round" stroke-width="2" fill-rule="evenodd"/>
          </g>
          <g id="HATCH-29" data-name="HATCH">
            <path id="Path_16709" data-name="Path 16709" d="M1463.676,3279.165l-138.588,80.014,21.775,12.572v-11.925l138.588-80.014L1474,3273.2Z" fill="#fff" stroke="#000" stroke-linejoin="round" stroke-width="2" fill-rule="evenodd"/>
          </g>
          <g id="HATCH-30" data-name="HATCH">
            <path id="Path_16710" data-name="Path 16710" d="M1463.676,3279.165l-11.448-6.609-148.915,85.976,21.775,12.572v-11.925Z" fill="#fff" stroke="#000" stroke-linejoin="round" stroke-width="2" fill-rule="evenodd"/>
          </g>
          <g id="HATCH-31" data-name="HATCH">
            <path id="Path_16711" data-name="Path 16711" d="M1441.9,3278.519l-11.448-6.609-148.915,85.976,21.775,12.572v-11.925Z" fill="#fff" stroke="#000" stroke-linejoin="round" stroke-width="2" fill-rule="evenodd"/>
          </g>
          <g id="HATCH-32" data-name="HATCH">
            <path id="Path_16712" data-name="Path 16712" d="M1420.126,3277.872l-11.448-6.609-148.915,85.976,21.775,12.572v-11.925Z" fill="#fff" stroke="#000" stroke-linejoin="round" stroke-width="2" fill-rule="evenodd"/>
          </g>
          <g id="HATCH-33" data-name="HATCH">
            <path id="Path_16713" data-name="Path 16713" d="M1398.35,3277.225l-11.448-6.609-148.915,85.976,21.775,12.572v-11.925Z" fill="#fff" stroke="#000" stroke-linejoin="round" stroke-width="2" fill-rule="evenodd"/>
          </g>
          <g id="HATCH-34" data-name="HATCH">
            <path id="Path_16714" data-name="Path 16714" d="M1354.8,3275.931l-138.588,80.014,21.775,12.572v-11.925l138.588-80.014-11.448-6.609Z" fill="#fff" stroke="#000" stroke-linejoin="round" stroke-width="2" fill-rule="evenodd"/>
          </g>
          <g id="HATCH-35" data-name="HATCH">
            <path id="Path_16715" data-name="Path 16715" d="M1333.025,3275.285,1194.437,3355.3l21.775,12.572v-11.925l138.588-80.014-11.448-6.609Z" fill="#fff" stroke="#000" stroke-linejoin="round" stroke-width="2" fill-rule="evenodd"/>
            <path id="Path_16716" data-name="Path 16716" d="M1194.437,3377.735l174.2,5.174,148.915-85.976v-10.512L1368.639,3372.4l-21.775-12.572v11.925l-21.775-12.572V3371.1l-21.775-12.572v11.925l-21.775-12.572v11.925l-21.775-12.572v11.925l-21.775-12.572v11.925l-21.775-12.572v11.925l-21.775-12.572v22.437" stroke="#000" stroke-linejoin="round" stroke-width="2" fill-rule="evenodd"/>
          </g>
        </g>
        <g id="Roundabout">
          <g id="HATCH-36" data-name="HATCH">
            <path id="Path_16717" data-name="Path 16717" d="M780.43,3395.887l-.226-.258-.221-.263-.216-.269-.21-.275-.2-.281-.2-.286-.193-.291-.187-.3-.18-.3-.174-.305-.167-.31-.16-.314-.153-.318-.146-.321-.139-.325-.132-.328-.124-.331-.116-.333-.109-.336-.1-.338-.093-.34-.085-.342-.077-.343-.07-.344-.062-.344-.054-.345-.046-.345-.038-.345-.03-.345-.022-.344-.015-.344-.007-.343.207,42.567,0,.347.012.348.02.349.028.35.036.35.044.35.052.35.06.35.068.349.076.348.084.346.092.345.1.343.108.341.116.339.124.336.132.333.139.33.147.326.154.323.161.319.169.314.175.31.182.305.189.3.2.3.2.29.207.284.213.279.218.273.224.267.229.261.585.676.6.662.622.648.64.632.657.616.674.6.69.582.705.564.72.545.733.526.746.506.759.486.77.465.781.444.79.423.8.4,2.158.941,2.188.886,2.215.829,2.24.772,2.263.713,2.284.653,2.3.593,2.318.531,2.331.47,2.342.407,2.35.345,2.356.282,2.359.219,2.36.156,2.358.093,2.354.031,2.354-.031,2.358-.093,2.36-.156,2.359-.219,2.356-.282,2.35-.345,2.342-.407,2.331-.47,2.318-.531,2.3-.593,2.284-.653,2.263-.713,2.24-.772,2.215-.829,2.188-.886,2.158-.941.8-.4.79-.423.781-.444.77-.465.759-.486.746-.506.733-.526.72-.545.705-.564.69-.582.674-.6.657-.616.64-.632.622-.648.6-.662.585-.676.229-.261.224-.267.218-.273.213-.279.207-.284.2-.29.2-.3.189-.3.182-.305.175-.31.169-.314.161-.319.154-.323.147-.326.139-.33.132-.333.124-.336.116-.339.108-.341.1-.343.092-.345.084-.346.076-.348.068-.349.06-.35.052-.35.044-.35.036-.35.028-.35.02-.349.012-.348,0-.5-.207-42.567,0,.347-.012.348-.02.349-.028.35-.036.35-.044.35-.052.35-.06.35-.068.349-.076.348-.084.347-.092.345-.1.343-.108.341-.116.339-.124.336-.132.333-.139.33-.147.326-.154.323-.161.318-.169.314-.175.31-.182.305-.189.3-.2.3-.2.29-.207.284-.213.279-.218.273-.224.267-.229.261-.585.676-.6.662-.622.647-.64.632-.657.616-.674.6-.69.582-.705.563-.72.545-.733.526-.746.506-.759.486-.77.465-.781.444-.79.423-.8.4-2.637,1.141-2.673,1.055-1.869-.675-1.887-.634-1.9-.593-1.919-.551-1.933-.508-1.945-.465-1.956-.422-1.965-.378-1.973-.334-1.98-.289-1.985-.245-1.988-.2-1.99-.156-1.991-.111-1.99-.066-1.987-.022-2,.022-2,.067-2,.113-2,.158-2,.2-2,.248-1.993.293-1.987.338-1.979.383-1.969.427-1.958.472-1.945.515-1.931.558-1.916.6-1.9.643-1.881.684-2.778-1.091-2.74-1.183-.8-.4-.79-.423-.781-.444-.77-.465-.759-.486-.746-.506-.733-.526-.72-.545-.705-.563-.69-.582-.674-.6-.657-.616-.64-.632-.622-.647-.6-.662Z" fill="#fff" stroke="#000" stroke-linejoin="round" stroke-width="2" fill-rule="evenodd"/>
          </g>
          <g id="HATCH-37" data-name="HATCH">
            <path id="Path_16718" data-name="Path 16718" d="M880.5,3385.537l0-.347-.012-.348-.02-.349-.028-.35-.036-.35-.044-.35-.052-.35-.06-.35-.068-.349-.076-.348-.084-.346-.092-.345-.1-.343-.108-.341-.116-.339-.124-.336-.132-.333-.139-.33-.147-.326-.154-.323-.161-.319-.169-.314-.175-.31-.182-.305-.189-.3-.2-.3-.2-.29-.207-.284-.213-.279-.218-.273-.224-.267-.229-.261-.585-.676-.6-.662-.622-.648-.64-.632-.657-.616-.674-.6-.69-.582-.705-.564-.72-.545-.733-.526-.746-.506-.759-.486-.77-.465-.781-.444-.79-.423-.8-.4-2.158-.941-2.188-.886-2.215-.829-2.24-.772-2.263-.713-2.284-.653-2.3-.593-2.318-.532-2.331-.47-2.342-.407-2.35-.345-2.356-.282-2.359-.219-2.36-.156-2.358-.093-2.354-.031-2.354.031-2.358.093-2.36.156-2.359.219-2.356.282-2.35.345-2.342.407-2.331.47-2.318.532-2.3.593-2.284.653-2.263.713-2.24.772-2.215.829-2.188.886-2.158.941-.8.4-.79.423-.781.444-.77.465-.759.486-.746.506-.733.526-.72.545-.705.564-.69.582-.674.6-.657.616-.64.632-.622.648-.6.662-.585.676-.229.261-.224.267-.218.273-.213.279-.207.284-.2.29-.2.3-.189.3-.182.305-.175.31-.169.314-.161.319-.154.323-.147.326-.139.33-.132.333-.124.336-.116.339-.108.341-.1.343-.092.345-.084.346-.076.348-.068.349-.06.35-.052.35-.044.35-.036.35-.028.35-.02.349-.012.348,0,.347,0,.347.012.348.02.349.028.35.036.35.044.35.052.35.06.35.068.349.076.348.084.347.092.345.1.343.108.341.116.339.124.336.132.333.139.33.147.326.154.323.161.318.169.314.175.31.182.305.189.3.2.3.2.29.207.284.213.279.218.273.224.267.229.261.585.676.6.662.622.647.64.632.657.616.674.6.69.582.705.563.72.545.733.526.746.506.759.486.77.465.781.444.79.423.8.4,2.158.941,2.188.886,2.215.829,2.24.772,2.263.713,2.284.653,2.3.593,2.318.531,2.331.47,2.342.407,2.35.345,2.356.282,2.359.219,2.36.156,2.358.094,2.354.031,2.354-.031,2.358-.094,2.36-.156,2.359-.219,2.356-.282,2.35-.345,2.342-.407,2.331-.47,2.318-.531,2.3-.593,2.284-.653,2.263-.713,2.24-.772,2.215-.829,2.188-.886,2.158-.941.8-.4.79-.423.781-.444.77-.465.759-.486.746-.506.733-.526.72-.545.705-.563.69-.582.674-.6.657-.616.64-.632.622-.647.6-.662.585-.676.229-.261.224-.267.218-.273.213-.279.207-.284.2-.29.2-.3.189-.3.182-.305.175-.31.169-.314.161-.318.154-.323.147-.326.139-.33.132-.333.124-.336.116-.339.108-.341.1-.343.092-.345.084-.347.076-.348.068-.349.06-.35.052-.35.044-.35.036-.35.028-.35.02-.349.012-.348Z" fill="#fff" stroke="#000" stroke-linejoin="round" stroke-width="2" fill-rule="evenodd"/>
          </g>
        </g>
        <g id="_00_Roundabout" data-name="00_Roundabout">
          <path id="Path_16719" data-name="Path 16719" d="M813.455,3389.783a6.509,6.509,0,0,1,1.583.133c2.051.247,4.107.462,6.18.559,1.589.074,3.18.142,4.771.194a31.091,31.091,0,0,1,6,.7,12.5,12.5,0,0,1,2.893,1.019,5.418,5.418,0,0,1,3.252,4.327,6.318,6.318,0,0,1-.349,3.029,7.749,7.749,0,0,1-4.271,4.193c-.455.209-.93.393-1.395.588.047.243.269.374.438.526q2.016,1.819,4.046,3.629c.718.638,1.454,1.263,2.18,1.9.108.095.2.2.338.337a5.312,5.312,0,0,1-.533.111c-1.915.178-3.827.376-5.793.419-1.97-1.981-3.86-4.009-5.747-6.038-.113-.015-.2-.037-.3-.04-.868-.026-1.737-.036-2.6-.076-1.349-.062-2.7-.147-4.044-.216a5.448,5.448,0,0,0-1.134-.022c-.167.161-.117.338-.114.5.024,1.134.056,2.267.085,3.4.015.6.032,1.209.044,1.813,0,.111-.014.222-.023.362a3.949,3.949,0,0,1-1.223-.054q-.646-.062-1.291-.132c-.407-.044-.813-.087-1.217-.14s-.8-.12-1.176-.177a.907.907,0,0,1-.135-.637c-.04-1.416-.068-2.833-.1-4.249q-.111-4.391-.226-8.782c-.043-1.757-.072-3.513-.111-5.27-.011-.491-.037-.982-.05-1.473C813.42,3390.082,813.442,3389.952,813.455,3389.783Zm5.194,3.941a1.4,1.4,0,0,0-.073.669c.034,1.322.077,2.643.109,3.965.02.849.023,1.7.043,2.549a.94.94,0,0,0,.112.628,3.285,3.285,0,0,0,.4.078c.48.041.961.069,1.441.107,1.994.157,3.993.233,6,.206a11.317,11.317,0,0,0,2.213-.256,7.169,7.169,0,0,0,2.149-.788,3.481,3.481,0,0,0,1.647-1.941,3.576,3.576,0,0,0,.124-1.462,3.032,3.032,0,0,0-1.942-2.509,7.982,7.982,0,0,0-1.873-.586,21.335,21.335,0,0,0-3.656-.343c-.772-.018-1.543-.04-2.313-.082-1.275-.069-2.548-.157-3.823-.234C819.036,3393.715,818.868,3393.724,818.649,3393.724Z" stroke="#000" stroke-miterlimit="10" stroke-width="1"/>
          <path id="Path_16720" data-name="Path 16720" d="M806.632,3339.692a1.452,1.452,0,0,1,.058.25q.257,10.281.507,20.534a1.6,1.6,0,0,1-.69.262,73.02,73.02,0,0,0-9.76,3.137c-.964.391-1.909.809-2.873,1.2a16.575,16.575,0,0,1-3.147.989,6.075,6.075,0,0,1-1.437.091,2.346,2.346,0,0,1-1.7-.752,2.581,2.581,0,0,1-.563-1.095,6.3,6.3,0,0,1-.116-2.371,9.012,9.012,0,0,1,1.944-4.639c.355-.447.788-.857,1.185-1.285.094-.1.185-.2.274-.3a.628.628,0,0,0-.5-.094,2.116,2.116,0,0,1-2.054-1.118,3.741,3.741,0,0,1-.409-1.83,7.757,7.757,0,0,1,1.156-4,12.5,12.5,0,0,1,5.5-4.768,46.939,46.939,0,0,1,4.494-1.825,73.205,73.205,0,0,1,7.425-2.231C806.146,3339.79,806.377,3339.747,806.632,3339.692Zm-4.84,13.325c-.3.075-.482.112-.656.168-2.032.652-4.016,1.385-5.936,2.22a10.086,10.086,0,0,0-2.905,1.847,5.277,5.277,0,0,0-1.481,2.182,2.776,2.776,0,0,0-.071,1.681,1.262,1.262,0,0,0,1.466.853,4.092,4.092,0,0,0,.427-.058,9.654,9.654,0,0,0,2.213-.683c2.143-.909,4.327-1.75,6.592-2.458a5.236,5.236,0,0,0,.5-.212C801.945,3356.715,801.852,3354.908,801.792,3353.017Zm-.222-8.449a.579.579,0,0,0-.173-.03c-.184.044-.367.091-.544.149q-2.877.927-5.611,2.089c-.339.144-.67.3-.987.472a6.438,6.438,0,0,0-2.36,2.032,3.3,3.3,0,0,0-.578,2.354,1.612,1.612,0,0,0,.216.593,1.015,1.015,0,0,0,.917.47,3.719,3.719,0,0,0,.925-.084,12.282,12.282,0,0,0,1.6-.523c2.019-.849,4.08-1.625,6.2-2.3.175-.055.342-.127.542-.2-.028-1.6-.055-3.181-.087-4.763A1.151,1.151,0,0,0,801.57,3344.568Z" stroke="#000" stroke-miterlimit="10" stroke-width="1"/>
          <path id="Path_16721" data-name="Path 16721" d="M843.007,3358.9l-5.24-.571c-.1-.15-.21-.295-.3-.446q-1.108-1.845-2.212-3.691a2.272,2.272,0,0,1-.153-.256c-.152-.36-.475-.462-.941-.479-2.846-.1-5.69-.15-8.539-.027-1.879.082-3.752.213-5.623.364a.77.77,0,0,0-.689.418q-1.133,1.992-2.287,3.976a1.955,1.955,0,0,1-.414.633l-5.759.929c-.074-.2.078-.338.158-.483.854-1.541,1.706-3.082,2.581-4.616,3.223-5.654,6.581-11.259,10.025-16.833.1-.169.215-.336.342-.535a18.686,18.686,0,0,1,2.792-.135c.914-.019,1.83-.055,2.717-.014C830.878,3338.6,842.131,3356.678,843.007,3358.9Zm-10.4-8.974c-.109-.183-.2-.354-.311-.52-.863-1.35-1.72-2.7-2.594-4.048-.775-1.195-1.568-2.382-2.356-3.571-.083-.126-.137-.275-.372-.343a2.14,2.14,0,0,0-.193.239q-2.508,4.2-5.006,8.413c-.016.025.019.069.03.1.019.01.039.03.057.03,3.465-.141,6.929-.345,10.4-.192a.9.9,0,0,0,.21-.031C832.5,3350,832.513,3349.986,832.609,3349.925Z" stroke="#000" stroke-miterlimit="10" stroke-width="1"/>
          <path id="Path_16722" data-name="Path 16722" d="M870.143,3390.687a16.932,16.932,0,0,1-2.284,8.013,17.858,17.858,0,0,1-4.417,5.213c-.47.378-.977.731-1.486,1.078a9.841,9.841,0,0,1-2.3,1.166c-.925.322-1.851.645-2.763.989a11.57,11.57,0,0,1-3.712.664,12.418,12.418,0,0,1-7.342-1.828,7.226,7.226,0,0,1-3.326-4.516,7.864,7.864,0,0,1,.808-5.5,14.646,14.646,0,0,1,3.464-4.221,30.609,30.609,0,0,1,6.99-4.459,37.6,37.6,0,0,1,5.771-2.222,18.5,18.5,0,0,1,4.353-.79,8.7,8.7,0,0,1,2.153.153,4.686,4.686,0,0,1,2.658,1.472,5.311,5.311,0,0,1,1.152,2.3A9.2,9.2,0,0,1,870.143,3390.687Zm-3.811,1.906c-.015-.269-.014-.61-.058-.948a4.072,4.072,0,0,0-.752-1.937,3.584,3.584,0,0,0-2.368-1.378,7.7,7.7,0,0,0-2.373-.013,13.856,13.856,0,0,0-2.819.7,20.756,20.756,0,0,0-6.009,3.306,12.509,12.509,0,0,0-3.148,3.506,5.784,5.784,0,0,0-.831,3.971,4.7,4.7,0,0,0,2.548,3.36,8.33,8.33,0,0,0,5.18.843,11.529,11.529,0,0,0,4.963-1.867,12.863,12.863,0,0,0,3.731-3.721A10.732,10.732,0,0,0,866.332,3392.593Z" stroke="#000" stroke-miterlimit="10" stroke-width="1"/>
          <path id="Path_16723" data-name="Path 16723" d="M866.77,3345.5c.165,6.9.331,13.823.5,20.734-.247.09-.364-.036-.494-.106a51.181,51.181,0,0,0-5.8-2.663q-1.722-.661-3.484-1.254a29.919,29.919,0,0,1-6.909-3.275,16.9,16.9,0,0,1-5.258-5.2,9.781,9.781,0,0,1-1.478-6.552,7.029,7.029,0,0,1,1.56-3.616,8.638,8.638,0,0,1,6.811-3.027,13.521,13.521,0,0,1,4.452.641,57.077,57.077,0,0,1,9.637,4c.119.063.233.133.346.2A.966.966,0,0,1,866.77,3345.5Zm-3.726,15.366c.012-.252.032-.42.027-.587-.024-.812-.063-1.624-.083-2.437q-.093-3.825-.175-7.651c-.02-.907-.032-1.814-.049-2.721,0-.132-.01-.264-.02-.4a.376.376,0,0,0-.256-.321c-.147-.065-.292-.133-.44-.2q-2.421-1.028-4.961-1.859a10.725,10.725,0,0,0-2.37-.491,5.742,5.742,0,0,0-5.282,2.1,4.926,4.926,0,0,0-.88,2.663,7.66,7.66,0,0,0,1.846,5.216,14.3,14.3,0,0,0,6.656,4.477c1.831.637,3.661,1.271,5.425,2.017C862.625,3360.738,862.782,3360.778,863.044,3360.863Z" stroke="#000" stroke-miterlimit="10" stroke-width="1"/>
          <path id="Path_16724" data-name="Path 16724" d="M875.042,3375.438c.017.29.035.489.04.689q.1,4.051.192,8.1c.032,1.3.062,2.607.1,3.91a5.715,5.715,0,0,0,.292,1.737,2.639,2.639,0,0,0,.426.774.724.724,0,0,0,1.045.113,2.5,2.5,0,0,0,.651-.6,9.686,9.686,0,0,0,.8-1.327,10.487,10.487,0,0,0,.866-2.86,29.171,29.171,0,0,0,.347-6.389c-.056-1.17-.041-2.343-.068-3.514q-.093-3.994-.2-7.99c-.006-.245-.022-.491-.044-.736a1.207,1.207,0,0,0-.1-.26,11.573,11.573,0,0,0-.8,1.069c-.27.335-.528.677-.808,1.008-.266.315-.546.623-.832.927-.3.32-.606.637-.922.946s-.647.6-.991.925c-.141-.108-.247-.182-.343-.264-.752-.639-1.493-1.286-2.257-1.916a.809.809,0,0,1-.346-.651c-.017-1.473-.049-2.947-.083-4.42q-.072-3.174-.152-6.347-.109-4.533-.219-9.067c-.005-.2.008-.405.013-.595a.3.3,0,0,1,.342.091c.791.662,1.572,1.332,2.367,1.991a.878.878,0,0,1,.337.718c.021,1.341.058,2.683.092,4.024q.123,4.759.249,9.519c0,.111.027.222.047.38a1.051,1.051,0,0,0,.265-.112,18.664,18.664,0,0,0,3.959-4.917c.17-.332.3-.678.447-1.017.045-.1.1-.206.191-.4.124.385.233.672.306.963a14.13,14.13,0,0,1,.438,3.206c.065,3.571.151,7.141.232,10.711q.066,2.947.14,5.894c.019.755.056,1.511.066,2.266a30.788,30.788,0,0,1-.595,6.436,11.712,11.712,0,0,1-2.8,5.476,5.686,5.686,0,0,1-.748.688,2.984,2.984,0,0,1-.639.367,2.093,2.093,0,0,1-2.24-.268,2.842,2.842,0,0,1-.7-.854,6,6,0,0,1-.609-1.743,18.055,18.055,0,0,1-.25-3.221c-.092-3.514-.153-7.027-.24-10.541a.96.96,0,0,1,.392-.808c.651-.557,1.262-1.143,1.889-1.717C874.715,3375.726,874.839,3375.618,875.042,3375.438Z" stroke="#000" stroke-miterlimit="10" stroke-width="1"/>
          <path id="Path_16725" data-name="Path 16725" d="M777.295,3377.543c0,.25-.01.436,0,.622.092,1.472.167,2.945.286,4.415.135,1.678.257,3.358.558,5.024a9.313,9.313,0,0,0,1.7,3.949,4.526,4.526,0,0,0,1.055,1.074c.783.542,1.409.433,1.775-.328a3.305,3.305,0,0,0,.282-.933,7.873,7.873,0,0,0,.09-1.3c-.03-1.832-.078-3.665-.122-5.5q-.075-3.174-.152-6.348c0-.164.019-.327.028-.476a.308.308,0,0,1,.346.1c.856.666,1.7,1.34,2.569,2a.772.772,0,0,1,.366.643q.009,1.559.047,3.118c.071,2.872.154,5.743.222,8.615a8.244,8.244,0,0,1-.4,3.034,4.612,4.612,0,0,1-.54,1.045,2.6,2.6,0,0,1-.68.653,2.252,2.252,0,0,1-1.827.308,4.3,4.3,0,0,1-2.275-1.333,13.342,13.342,0,0,1-3.174-5.664,34.47,34.47,0,0,1-.9-5.16c-.244-2.412-.4-4.827-.519-7.243q-.293-5.694-.157-11.393a31.217,31.217,0,0,1,.719-6.315,13.085,13.085,0,0,1,1.268-3.479,6.692,6.692,0,0,1,1.076-1.471,3.781,3.781,0,0,1,1.235-.863,2.748,2.748,0,0,1,2.519.125,3.308,3.308,0,0,1,.934.783,5.667,5.667,0,0,1,1.156,2.484,13.436,13.436,0,0,1,.074,4.856,32.467,32.467,0,0,1-1.077,4.91,33.9,33.9,0,0,1-3.243,7.38,13.739,13.739,0,0,1-.763,1.158A3.39,3.39,0,0,1,777.295,3377.543Zm0-1.97a2.312,2.312,0,0,0,.391-.323,14.712,14.712,0,0,0,.891-1.359,29.031,29.031,0,0,0,3.413-9.915,10.332,10.332,0,0,0-.042-3.278,3.892,3.892,0,0,0-.759-1.817,1.321,1.321,0,0,0-2.074-.129,3.313,3.313,0,0,0-.836,1.118,9.506,9.506,0,0,0-.851,2.8,33.012,33.012,0,0,0-.287,3.448c-.045,2.418-.02,4.837-.017,7.256,0,.585.025,1.171.051,1.756A2.324,2.324,0,0,0,777.3,3375.573Z" stroke="#000" stroke-miterlimit="10" stroke-width="1"/>
          <path id="Path_16726" data-name="Path 16726" d="M807.7,3388.721c.036,1.122.109,2.194.109,3.252a.854.854,0,0,1-.665-.007c-1.43-.344-2.86-.687-4.28-1.054-.8-.208-1.58-.467-2.375-.688a1.106,1.106,0,0,0-.733-.1,9.623,9.623,0,0,0-.012,1.557c0,.511.021,1.021.037,1.531.017.529.043,1.058.057,1.587s.017,1.058.025,1.587.015,1.058.026,1.587q.016.765.041,1.531c.017.529.041,1.057.054,1.586s.019,1.059.027,1.588.013,1.058.025,1.587q.018.765.047,1.53a12.225,12.225,0,0,1,.023,1.607,1.37,1.37,0,0,1-.312-.024q-1.94-.7-3.872-1.408a1.788,1.788,0,0,1-.221-.123c-.014-.181-.041-.385-.046-.59-.041-1.719-.075-3.438-.117-5.158q-.133-5.612-.273-11.223c0-.075-.009-.151-.005-.226a.391.391,0,0,0-.3-.411c-.175-.065-.341-.143-.511-.214a51.538,51.538,0,0,1-5.516-2.711c-.233-.133-.459-.274-.664-.4a22.8,22.8,0,0,1-.083-3.306c.2-.1.306.039.432.107,1.059.562,2.091,1.156,3.173,1.689a64.057,64.057,0,0,0,12.673,4.538c.849.214,1.71.4,2.564.6C807.23,3388.6,807.432,3388.652,807.7,3388.721Z" stroke="#000" stroke-miterlimit="10" stroke-width="1"/>
        </g>
        <g id="Group_3913" data-name="Group 3913">
          <g id="Group_3912" data-name="Group 3912">
            <g id="Group_3896" data-name="Group 3896">
              <path id="Path_16727" data-name="Path 16727" d="M939.528,3267.54l6.148,26.279-4.259-2.459-1.04-5.253-5.44-3.14L933.864,3287l-4.214-2.433,6.232-19.131Zm-3.712,12.113,3.691,2.131-1.823-9.158-1.868,7.027"/>
            </g>
            <g id="Group_3897" data-name="Group 3897">
              <path id="Path_16728" data-name="Path 16728" d="M957.329,3291.023l3.428,11.282v.22l-4.284-2.473-2.945-10-1.979-1.143-.024,8.29-3.99-2.3.064-22.691,6.359,3.671a12.6,12.6,0,0,1,4.63,4.459,11.509,11.509,0,0,1,1.621,6.02C960.2,3289.366,959.235,3290.918,957.329,3291.023Zm-1.714-4.509a2.868,2.868,0,0,0,.6-2.094q.011-3.411-2.308-4.749l-2.33-1.345-.019,6.764,2.26,1.3c.8.461,1.4.5,1.8.119"/>
            </g>
            <g id="Group_3898" data-name="Group 3898">
              <path id="Path_16729" data-name="Path 16729" d="M969.569,3284.575a12.673,12.673,0,0,1,4.9,4.9,16.319,16.319,0,0,1,1.886,7.056l-4-2.308a9.474,9.474,0,0,0-.635-3.688,5.1,5.1,0,0,0-2.162-2.159c-1.066-.616-1.821-.618-2.27-.025s-.684,1.876-.715,3.828l-.012,4.284a14.3,14.3,0,0,0,.645,5.024,5.076,5.076,0,0,0,2.256,2.567q1.57.906,2.173.372c.4-.358.625-1.293.686-2.793l3.984,2.3q-.154,3.79-1.912,4.774c-1.173.66-2.822.37-4.942-.854a12.771,12.771,0,0,1-5.126-5.5,18.167,18.167,0,0,1-1.767-8.251l.011-3.822q.014-4.666,1.866-6.14T969.569,3284.575Z"/>
            </g>
            <g id="Group_3899" data-name="Group 3899">
              <path id="Path_16730" data-name="Path 16730" d="M992.648,3298.209l-.064,22.692-3.971-2.293.028-9.706-5.887-3.4-.028,9.706-3.984-2.3.064-22.692,3.984,2.3-.026,9.178,5.887,3.4.026-9.178Z"/>
            </g>
            <g id="Group_3900" data-name="Group 3900">
              <path id="Path_16731" data-name="Path 16731" d="M1000.016,3302.463l-.064,22.692-3.99-2.3.064-22.691Z"/>
            </g>
            <g id="Group_3901" data-name="Group 3901">
              <path id="Path_16732" data-name="Path 16732" d="M1016.15,3311.778l-.011,3.822-4.878-2.816-.054,18.869-4-2.311.054-18.869-4.8-2.772.011-3.822Z"/>
            </g>
            <g id="Group_3902" data-name="Group 3902">
              <path id="Path_16733" data-name="Path 16733" d="M1045.877,3328.941l-5.685,6.711,5.716,16.035-4.731-2.731-3.583-10.843-1.583,1.364-.018,6.486-3.984-2.3.064-22.692,3.984,2.3-.028,9.9,1.271-1.713,3.692-5.334Z"/>
            </g>
            <g id="Group_3903" data-name="Group 3903">
              <path id="Path_16734" data-name="Path 16734" d="M1036.594,3350.58a18.085,18.085,0,0,1,1.9,8.35l-.011,3.881q-.012,4.567-1.9,6t-5.217-.485a13.4,13.4,0,0,1-5.215-5.509,17.356,17.356,0,0,1-1.909-8.12l.011-3.881q.014-4.677,1.9-6.212c1.263-1.028,3.015-.891,5.243.4A13.257,13.257,0,0,1,1036.594,3350.58Zm-2.107,10.063.011-3.94a13.918,13.918,0,0,0-.746-5.009,5.455,5.455,0,0,0-2.359-2.86c-1.053-.609-1.84-.578-2.347.092s-.779,1.975-.8,3.934l-.011,4.035a12.672,12.672,0,0,0,.76,4.833,5.549,5.549,0,0,0,2.384,2.787c1.034.6,1.808.581,2.321-.041s.767-1.909.785-3.831"/>
            </g>
            <g id="Group_3904" data-name="Group 3904">
              <path id="Path_16735" data-name="Path 16735" d="M1029.756,3319.634l-.011,3.822-7.323-4.228-.015,5.355,6.206,3.583-.01,3.7-6.206-3.583-.017,6.016,7.349,4.243-.011,3.8-11.339-6.547.064-22.692Z"/>
            </g>
            <g id="Group_3905" data-name="Group 3905">
              <path id="Path_16736" data-name="Path 16736" d="M1051.127,3369.905l3.434,11.285v.22l-4.29-2.477-2.946-10-1.979-1.143-.024,8.29-3.984-2.3.065-22.691,6.359,3.671a12.521,12.521,0,0,1,4.624,4.463,11.419,11.419,0,0,1,1.62,6.013Q1053.991,3369.755,1051.127,3369.905Zm-1.714-4.51a2.811,2.811,0,0,0,.607-2.089q.009-3.412-2.315-4.754l-2.33-1.345-.019,6.764,2.266,1.309c.792.457,1.393.495,1.791.115"/>
            </g>
            <g id="Group_3906" data-name="Group 3906">
              <path id="Path_16737" data-name="Path 16737" d="M1069.609,3367.37l-.044,15.707c-.026,2.352-.6,3.828-1.714,4.442s-2.712.308-4.794-.894a12.91,12.91,0,0,1-4.84-4.7,12.507,12.507,0,0,1-1.658-6.461l.045-15.6,4.009,2.315-.044,15.62a7.271,7.271,0,0,0,.535,3.071,4.63,4.63,0,0,0,1.964,1.958q1.427.824,1.956.313a3.6,3.6,0,0,0,.55-2.379l.045-15.693Z"/>
            </g>
            <g id="Group_3907" data-name="Group 3907">
              <path id="Path_16738" data-name="Path 16738" d="M1060.224,3337.224l-.011,3.822-4.878-2.816-.053,18.869-4-2.311.053-18.869-4.8-2.772.011-3.822Z"/>
            </g>
            <g id="Group_3908" data-name="Group 3908">
              <path id="Path_16739" data-name="Path 16739" d="M1075.362,3345.964l-.045,15.707q-.039,3.528-1.714,4.434t-4.793-.887a12.907,12.907,0,0,1-4.841-4.7,12.5,12.5,0,0,1-1.657-6.468l.044-15.6,4.01,2.315-.045,15.619a7.316,7.316,0,0,0,.535,3.072,4.634,4.634,0,0,0,1.964,1.957q1.428.824,1.956.314a3.6,3.6,0,0,0,.551-2.379l.044-15.693Z"/>
            </g>
            <g id="Group_3909" data-name="Group 3909">
              <path id="Path_16740" data-name="Path 16740" d="M1090.493,3379.427l-.064,22.692-4-2.311.017-6.14.391-9.247-3.99,13.319-2.707-1.563-3.908-17.879.344,9.671-.017,6.14-3.99-2.3.064-22.691,5.21,3.008,3.682,18.565,3.762-14.267Z"/>
            </g>
            <g id="Group_3910" data-name="Group 3910">
              <path id="Path_16741" data-name="Path 16741" d="M1088.125,3366.538l3.428,11.282v.22l-4.285-2.473-2.945-10-1.979-1.143-.024,8.29-3.99-2.3.064-22.691,6.366,3.675a12.587,12.587,0,0,1,4.624,4.455,11.463,11.463,0,0,1,1.62,6.02C1090.995,3364.881,1090.031,3366.433,1088.125,3366.538Zm-1.713-4.509a2.872,2.872,0,0,0,.6-2.093q.011-3.411-2.308-4.75l-2.33-1.345-.019,6.764,2.266,1.309c.792.457,1.393.495,1.791.115"/>
            </g>
            <g id="Group_3911" data-name="Group 3911">
              <path id="Path_16742" data-name="Path 16742" d="M1022.344,3340.081l-.011,3.822-6.94-4.007-.016,5.81,6.2,3.579-.011,3.8-6.2-3.579-.026,9.258-3.984-2.3.064-22.692Z"/>
            </g>
          </g>
        </g>
        <g id="_00_NEWS_BOARD" data-name="00_NEWS BOARD">
          <path id="_00_NEWS_BOARD-2" data-name="00_NEWS BOARD" d="M1232.275,3230.677v-70.049l-82.286,47.508v70.049Z" fill="#fff" stroke="#000" stroke-linejoin="round" stroke-width="2" fill-rule="evenodd"/>
          <g id="_00_News" data-name="00_News">
            <path id="Path_16743" data-name="Path 16743" d="M1168.568,3266.73l-5.081,2.872-7.429-14.454V3273.8l-5.081,2.871v-28.438l5.081-2.871,7.447,14.463v-18.672l5.063-2.861Z"/>
            <path id="Path_16744" data-name="Path 16744" d="M1185.639,3244.777l-7.914,4.473v7.539l9.365-5.293v4.766l-14.445,8.164v-28.438l14.411-8.144v4.785l-9.331,5.273v6.719l7.914-4.473Z"/>
            <path id="Path_16745" data-name="Path 16745" d="M1206.357,3234.807l2.384-19.219,5.028-2.842-4.475,30.967-5.1,2.881-2.938-15.1-2.9,18.4-5.114,2.891-4.493-25.9,5.063-2.862,2.367,16.514,2.955-19.521,4.268-2.413Z"/>
            <path id="Path_16746" data-name="Path 16746" d="M1227.143,3226.164q0-1.739-.786-2.183a5.266,5.266,0,0,0-2.86-.229q-3.783.517-5.442-.723t-1.659-4.209a12.754,12.754,0,0,1,2.255-7.046,16.428,16.428,0,0,1,5.728-5.415,7.9,7.9,0,0,1,4.129-1.23,3.346,3.346,0,0,1,2.791,1.538,7.158,7.158,0,0,1,.976,4.018l-5.062,2.862a3.361,3.361,0,0,0-.752-2.612q-.752-.621-2.168.18a5.376,5.376,0,0,0-2.074,2.061,5.6,5.6,0,0,0-.743,2.812,1.748,1.748,0,0,0,.829,1.651,5.442,5.442,0,0,0,2.938.3q3.68-.574,5.347.669t1.668,4.624a12.745,12.745,0,0,1-2.091,6.983,15.872,15.872,0,0,1-5.684,5.3,9.187,9.187,0,0,1-4.441,1.377,3.736,3.736,0,0,1-3.136-1.469,7.03,7.03,0,0,1-1.132-4.341l5.1-2.881q0,2.461.847,3.1t2.765-.449A5.015,5.015,0,0,0,1227.143,3226.164Z"/>
          </g>
        </g>
      </g>
    </g>
  </g>
</svg>
