<svg xmlns="http://www.w3.org/2000/svg" xmlns:xlink="http://www.w3.org/1999/xlink" width="1920" height="1080" viewBox="0 0 1920 1080">
  <defs>
    <clipPath id="clip-TU_IfA_-_E08_ISO_1">
      <rect width="1920" height="1080"/>
    </clipPath>
  </defs>
  <g id="TU_IfA_-_E08_ISO_1" data-name="TU IfA - E08 ISO – 1" clip-path="url(#clip-TU_IfA_-_E08_ISO_1)">
    <rect width="1920" height="1080" fill="#fff"/>
    <g id="Group_6700" data-name="Group 6700" transform="translate(17.06 -6.406)">
      <path id="_08_COLAB_FLOOR" data-name="08_COLAB_FLOOR" d="M14356.687,507.33l96.182-55.592,128.209-74.021,40.431-23.343,6.186-3.571,25.6-14.781,160.564,92.687,58.623-33.846-212.707-122.806-80.408-46.424L14405.879,325.8l-187.615,108.32" transform="translate(-13451.411 -4.991)" fill="#fff" stroke="#000" stroke-linejoin="round" stroke-width="2.288" fill-rule="evenodd"/>
      <path id="_08_COLAB_HATCH_LINE" data-name="08_COLAB_HATCH/LINE" d="M14361.319,521.116l296.621-171.254,160.552,92.694,58.623-33.846V398.557l-58.623,33.846-160.552-92.694-296.621,171.315" transform="translate(-13456.044 -8.685)" stroke="#000" stroke-linejoin="round" stroke-width="2.288" fill-rule="evenodd"/>
      <g id="_08_COLAB" data-name="08_COLAB" transform="translate(1127.781 177.698)">
        <path id="Path_19280" data-name="Path 19280" d="M14619.746,223.692q-.311,7.893-3.934,9.954t-10.219-1.751a26.5,26.5,0,0,1-10.629-11.4,37.945,37.945,0,0,1-3.693-17.16v-7.944q0-9.726,3.818-12.79t10.615.859a26.236,26.236,0,0,1,10.15,10.172,34.118,34.118,0,0,1,3.945,14.663l-8.283-4.782a19.768,19.768,0,0,0-1.334-7.66,10.5,10.5,0,0,0-4.479-4.483q-3.313-1.913-4.689-.033t-1.461,7.961v8.916q0,7.037,1.363,10.448a10.515,10.515,0,0,0,4.676,5.326q3.255,1.88,4.492.762t1.4-5.821Z" transform="translate(-14591.271 -181.252)"/>
        <path id="Path_19281" data-name="Path 19281" d="M14654.707,240.251q0,9.5-3.89,12.507t-10.8-.981a27.819,27.819,0,0,1-10.811-11.445,36.176,36.176,0,0,1-3.987-16.876v-8.074q0-9.726,3.9-12.936t10.838.793a27.5,27.5,0,0,1,10.755,11.576,37.873,37.873,0,0,1,3.987,17.363Zm-8.283-12.693a28.963,28.963,0,0,0-1.573-10.408,11.316,11.316,0,0,0-4.886-5.933q-3.286-1.9-4.856.194t-1.629,8.186V228a26.557,26.557,0,0,0,1.6,10.051,11.555,11.555,0,0,0,4.941,5.788q3.23,1.864,4.8-.1t1.6-7.976Z" transform="translate(-14592.371 -181.892)"/>
        <path id="Path_19282" data-name="Path 19282" d="M14670.071,260.378l14.49,8.365v7.911l-22.744-13.132V216.316l8.254,4.766Z" transform="translate(-14593.557 -182.387)"/>
        <path id="Path_19283" data-name="Path 19283" d="M14710.231,282.06l-11.259-6.5-2.19,8.4-8.733-5.042,12.776-39.831,7.553,4.361,12.861,54.632-8.816-5.09Zm-9.462-13.406,7.637,4.409-3.819-19.032Z" transform="translate(-14594.406 -183.125)"/>
        <path id="Path_19284" data-name="Path 19284" d="M14726.3,300.75V253.542l12.637,7.295a27.585,27.585,0,0,1,9.728,8.909,21.049,21.049,0,0,1,3.327,11.567,8.821,8.821,0,0,1-1.375,5.4,4.063,4.063,0,0,1-3.763,1.621,16.758,16.758,0,0,1,4.24,6.1,19.74,19.74,0,0,1,1.488,7.619q0,6.874-3.272,8.487t-9.476-1.97Zm8.256-22.7,4.3,2.48q4.857,2.8,4.857-3a10.844,10.844,0,0,0-1.123-5.254,9.351,9.351,0,0,0-3.649-3.5l-4.381-2.528Zm0,6.938v12.613l5.278,3.047q2.216,1.28,3.369.357t1.151-3.842q0-6.354-3.987-8.819Z" transform="translate(-14595.645 -183.593)"/>
      </g>
      <path id="_08_CUD_FLOOR" data-name="08_CUD_FLOOR" d="M14206.885,441.093l-252.064,145.53-87.928,50.764,293.115,167.888,58.623-32.5-160.551-92.694,287.229-165.77" transform="translate(-13440.032 -11.968)" fill="#fff" fill-rule="evenodd"/>
      <g id="_08_CUD_HATCH_LINE" data-name="08_CUD_HATCH/LINE" transform="translate(426.861 429.126)">
        <path id="Path_19192" data-name="Path 19192" d="M14209.868,601.326l-145.39,83.94,8.794,5.077,136.6-78.865Z" transform="translate(-13873.292 -446.283)" stroke="#000" stroke-linejoin="round" stroke-width="2.288" fill-rule="evenodd"/>
        <path id="Path_19193" data-name="Path 19193" d="M13999.457,720.492l-132.564-76.536v10.154l132.564,76.536,160.551,92.694,58.623-33.846V779.341l-58.623,33.846Z" transform="translate(-13866.893 -447.663)" stroke="#000" stroke-linejoin="round" stroke-width="2.288" fill-rule="evenodd"/>
        <line id="Line_7297" data-name="Line 7297" y1="196.294" x2="339.991" fill="none" stroke="#000" stroke-linecap="round" stroke-miterlimit="10" stroke-width="2.288"/>
        <line id="Line_7298" data-name="Line 7298" x2="160.551" y2="92.694" transform="translate(191.186 238.982)" fill="none" stroke="#000" stroke-linecap="round" stroke-linejoin="round" stroke-width="2.288"/>
        <path id="Path_19188" data-name="Path 19188" d="M14358.532,516.757l-83.27,47.953,8.847,5.107,74.423-42.969Z" transform="translate(-13880.117 -443.544)" stroke="#000" stroke-linejoin="round" stroke-width="2.288" fill-rule="evenodd"/>
      </g>
      <g id="_08_CUD_TEXT" data-name="08_CUD_TEXT" transform="translate(425.875 514.775)">
        <path id="Path_19290" data-name="Path 19290" d="M13899.1,603.457a35.813,35.813,0,0,1-4.587,16.913,31.929,31.929,0,0,1-11.928,11.729q-8.093,4.674-12.4,1.012t-4.309-15.05v-9.269a43.515,43.515,0,0,1,4.456-20.071,31.427,31.427,0,0,1,12.387-13.3q7.8-4.5,11.845-1.808t4.6,11.8l-9.667,5.58q-.132-5.751-1.557-7.141t-5.225.8a12.325,12.325,0,0,0-5.474,6.281q-1.607,4.047-1.7,11.255v10.4q0,8.211,1.587,10.356t5.456-.084a12.468,12.468,0,0,0,5.244-5.165,22.329,22.329,0,0,0,1.638-8.682Z" transform="translate(-13865.875 -531.002)"/>
        <path id="Path_19291" data-name="Path 19291" d="M13937.357,544.47v38.139a30.579,30.579,0,0,1-4.1,15.511,31,31,0,0,1-11.564,11.237q-7.668,4.427-11.715,2.148t-4.047-11.019V562.612l9.7-5.6v37.911q0,4.692,1.312,5.94t4.752-.738a11.029,11.029,0,0,0,4.717-4.711,17.626,17.626,0,0,0,1.312-7.282v-38.1Z" transform="translate(-13867.172 -530.09)"/>
        <path id="Path_19292" data-name="Path 19292" d="M13945.96,594.858V539.77l12.615-7.283q8.355-4.825,13.319-1.561t5.063,13.876v8.929a40.722,40.722,0,0,1-4.966,19.913,35.782,35.782,0,0,1-13.679,14.084Zm9.634-51.38v36.586l2.884-1.664a16.187,16.187,0,0,0,6.783-6.848q1.964-4.067,2.063-11.313v-9.573q0-7.719-1.866-9.687t-6.357.473Z" transform="translate(-13868.468 -529.609)"/>
      </g>
      <g id="_00_ELEVATOR" data-name="00_ELEVATOR" transform="translate(912.94 102.406)">
        <path id="Path_20488" data-name="Path 20488" d="M960,152.989l58.455-33.749V897.6l-58.441,33.741Z" transform="translate(-930.772 -102.994)" fill="#fff" stroke="#000" stroke-linejoin="round" stroke-width="2" fill-rule="evenodd"/>
        <path id="Path_20489" data-name="Path 20489" d="M958.941,153.6l-29.227-16.874.012,778.355,29.227,16.874Z" transform="translate(-929.714 -103.605)" fill="#fff" stroke="#000" stroke-linejoin="round" stroke-width="2" fill-rule="evenodd"/>
        <path id="Path_20490" data-name="Path 20490" d="M929.714,135.547l29.227,16.874,58.49-33.76-28.377-16.256Z" transform="translate(-929.714 -102.406)" fill="#fff" stroke="#000" stroke-linejoin="round" stroke-width="2" fill-rule="evenodd"/>
        <line id="Line_7318" data-name="Line 7318" y2="32.609" transform="translate(59.341)" fill="none" stroke="#000" stroke-linecap="round" stroke-linejoin="round" stroke-width="2"/>
        <g id="_03_ELEVATOR_DOOR" data-name="03_ELEVATOR DOOR" transform="translate(2.668 440.801)">
          <path id="Path_19686" data-name="Path 19686" d="M4772.833,619.094V558.909l23.22,13.406V632.5Z" transform="translate(-4772.833 -558.909)" fill="#fff" stroke="#000" stroke-linejoin="round" stroke-width="1" fill-rule="evenodd"/>
          <path id="Path_19687" data-name="Path 19687" d="M4784.856,626.036V565.851l11.61,6.7v60.186Z" transform="translate(-4773.247 -559.148)" fill="#fff" stroke="#000" stroke-linejoin="round" stroke-width="1" fill-rule="evenodd"/>
          <path id="Path_19688" data-name="Path 19688" d="M4772.833,619.094V558.909l11.61,6.7V625.8Z" transform="translate(-4772.833 -558.909)" fill="#fff" stroke="#000" stroke-linejoin="round" stroke-width="1" fill-rule="evenodd"/>
        </g>
      </g>
      <g id="_08_CHORA" data-name="08_CHORA" transform="translate(719.976 400.026)">
        <path id="_08_CHORA_FLOOR" data-name="08_CHORA_FLOOR" d="M14492.245,916.669l175.869-33.846-29.312-50.769,175.869-33.846-29.312-50.769,175.869-33.846-29.312-50.769,114.866-66.318-175.869-101.538-353.365,204.015-347.73,200.762,175.869,101.538,175.869-33.846Z" transform="translate(-14169.818 -413.738)" fill="#fff" stroke="#000" stroke-linejoin="round" stroke-width="2.288" fill-rule="evenodd"/>
        <path id="Path_19197" data-name="Path 19197" d="M14169.818,897.028V815.8l58.623-33.846,642.473-370.931v81.23Z" transform="translate(-14169.818 -411.02)" fill="#fff" stroke="#000" stroke-linejoin="round" stroke-width="2.288" fill-rule="evenodd"/>
      </g>
      <g id="_08_CHORA_HATCH" data-name="08_CHORA_HATCH" transform="translate(719.976 582.794)">
        <path id="Path_19199" data-name="Path 19199" d="M14961.828,673.833l110.46-63.774V599.905l-114.866,66.318Z" transform="translate(-14195.323 -599.905)" stroke="#000" stroke-linejoin="round" stroke-width="2.288" fill-rule="evenodd"/>
        <path id="Path_19200" data-name="Path 19200" d="M14811.257,763.891l170.573-32.827V720.91l-175.869,33.846Z" transform="translate(-14190.419 -603.824)" stroke="#000" stroke-linejoin="round" stroke-width="2.288" fill-rule="evenodd"/>
        <path id="Path_19201" data-name="Path 19201" d="M14659.794,851.338l170.573-32.827V808.357L14654.5,842.2Z" transform="translate(-14185.514 -606.655)" stroke="#000" stroke-linejoin="round" stroke-width="2.288" fill-rule="evenodd"/>
        <path id="Path_19202" data-name="Path 19202" d="M14508.332,938.784l170.573-32.827V895.8l-175.869,33.846Z" transform="translate(-14180.609 -609.487)" stroke="#000" stroke-linejoin="round" stroke-width="2.288" fill-rule="evenodd"/>
        <path id="Path_19203" data-name="Path 19203" d="M14169.818,913.293v10.154l175.869,101.538,17.662-3.4,87.941-16.924,70.266-13.523V980.985l-175.869,33.846Z" transform="translate(-14169.818 -610.054)" stroke="#000" stroke-linejoin="round" stroke-width="2.288" fill-rule="evenodd"/>
      </g>
      <g id="_08_CHORA_TEXT" data-name="08_CHORA_TEXT" transform="translate(720.832 841.465)">
        <path id="Path_19285" data-name="Path 19285" d="M14200.736,912q-.328,8.327-4.146,10.5t-10.781-1.847a27.948,27.948,0,0,1-11.211-12.029,40.04,40.04,0,0,1-3.895-18.1v-8.38q0-10.26,4.028-13.491t11.2.907a27.67,27.67,0,0,1,10.707,10.73,35.984,35.984,0,0,1,4.16,15.466l-8.736-5.044a20.832,20.832,0,0,0-1.406-8.08,11.07,11.07,0,0,0-4.725-4.729q-3.5-2.018-4.946-.034t-1.54,8.4v9.4q0,7.421,1.437,11.021a11.11,11.11,0,0,0,4.932,5.617q3.435,1.984,4.739.8t1.48-6.139Z" transform="translate(-14170.703 -867.233)"/>
        <path id="Path_19286" data-name="Path 19286" d="M14237.521,949.631l-8.678-5.011V923.314l-12.854-7.422V937.2l-8.707-5.028v-49.8l8.707,5.028v20.144l12.854,7.422V894.825l8.678,5.01Z" transform="translate(-14171.888 -867.723)"/>
        <path id="Path_19287" data-name="Path 19287" d="M14276.091,951.68q0,10.022-4.1,13.193t-11.388-1.034a29.34,29.34,0,0,1-11.4-12.073,38.174,38.174,0,0,1-4.206-17.8v-8.515q0-10.26,4.117-13.646t11.432.839a29,29,0,0,1,11.345,12.208,39.958,39.958,0,0,1,4.205,18.314Zm-8.737-13.389a30.579,30.579,0,0,0-1.658-10.979,11.952,11.952,0,0,0-5.154-6.259q-3.464-2-5.123.205t-1.718,8.636v8.858a28.034,28.034,0,0,0,1.688,10.6,12.19,12.19,0,0,0,5.212,6.1q3.407,1.965,5.065-.1t1.688-8.413Z" transform="translate(-14173.108 -868.627)"/>
        <path id="Path_19288" data-name="Path 19288" d="M14296.653,965.576l-4.324-2.5v18.194l-8.708-5.028V926.451l13.89,8.02a27.5,27.5,0,0,1,10.115,9.755,25.253,25.253,0,0,1,3.569,13.193q0,9.918-6.249,10.277l7.553,24.744v.479l-9.36-5.4Zm-4.324-10.876,4.946,2.855q2.606,1.505,3.909.256t1.3-4.6q0-7.489-5.065-10.414l-5.093-2.942Z" transform="translate(-14174.359 -869.15)"/>
        <path id="Path_19289" data-name="Path 19289" d="M14338.792,998.167l-11.877-6.857-2.311,8.858-9.212-5.318,13.478-42.015,7.967,4.6,13.564,57.627-9.3-5.37Zm-9.982-14.142,8.057,4.651-4.028-20.076Z" transform="translate(-14175.389 -870.005)"/>
      </g>
      <g id="_08_FLUR" data-name="08_FLUR" transform="translate(763.436 550.292)">
        <path id="Path_19204" data-name="Path 19204" stroke="#000" d="M14214.733,600.192l161.72,93.369,58.623-33.846-161.773-93.4" fill="#fff" transform="translate(-14214.733 -566.316)" stroke-linecap="round" stroke-linejoin="round" stroke-width="2.288" fill-rule="evenodd"/>
        <path id="Path_19205" data-name="Path 19205" stroke="#000" d="M14214.733,601.326l161.72,93.369,58.623-33.846V671l-58.623,33.846-11.649-6.726-150.07-86.643Z" transform="translate(-14214.733 -567.449)" stroke-linecap="round" stroke-linejoin="round" stroke-width="2.288" fill-rule="evenodd"/>
      </g>
      <g id="_08_STAIR_DOWN_01" data-name="08_STAIR DOWN 01" transform="translate(925.157 653.846)">
        <path id="Path_19206" data-name="Path 19206" d="M14445.48,817.364l8.794,5.077,58.623-33.846-8.794-5.077Z" transform="translate(-14383.927 -676.903)" fill="#fff" stroke="#000" stroke-linejoin="round" stroke-width="2.288" fill-rule="evenodd"/>
        <path id="Path_19207" data-name="Path 19207" d="M14445.187,806.7l58.623-33.846-8.794-5.077-58.623,33.846Z" transform="translate(-14383.632 -676.393)" fill="#fff" stroke="#000" stroke-linejoin="round" stroke-width="2.288" fill-rule="evenodd"/>
        <path id="Path_19208" data-name="Path 19208" d="M14436.1,790.96l58.623-33.846-8.793-5.077-58.623,33.846Z" transform="translate(-14383.338 -675.883)" fill="#fff" stroke="#000" stroke-linejoin="round" stroke-width="2.288" fill-rule="evenodd"/>
        <path id="Path_19209" data-name="Path 19209" d="M14427.011,775.219l58.623-33.846-8.794-5.077-58.623,33.846Z" transform="translate(-14383.043 -675.374)" fill="#fff" stroke="#000" stroke-linejoin="round" stroke-width="2.288" fill-rule="evenodd"/>
        <path id="Path_19210" data-name="Path 19210" d="M14467.751,720.556l-58.623,33.846,8.794,5.077,58.623-33.846Z" transform="translate(-14382.748 -674.864)" fill="#fff" stroke="#000" stroke-linejoin="round" stroke-width="2.288" fill-rule="evenodd"/>
        <path id="Path_19211" data-name="Path 19211" d="M14458.742,704.86l-58.623,33.846,8.718,5.034,58.623-33.846Z" transform="translate(-14382.457 -674.356)" fill="#fff" stroke="#000" stroke-linejoin="round" stroke-width="2.288" fill-rule="evenodd"/>
        <path id="Path_19212" data-name="Path 19212" d="M14390.954,722.921l8.793,5.077,58.623-33.846-8.793-5.077Z" transform="translate(-14382.16 -673.844)" fill="#fff" stroke="#000" stroke-linejoin="round" stroke-width="2.288" fill-rule="evenodd"/>
        <path id="Path_19213" data-name="Path 19213" d="M14440.488,673.335l-58.623,33.846,8.794,5.077,58.623-33.846Z" transform="translate(-14381.865 -673.335)" fill="#fff" stroke="#000" stroke-linejoin="round" stroke-width="2.288" fill-rule="evenodd"/>
        <path id="Path_19214" data-name="Path 19214" d="M14513.191,788.765l-58.623,33.846v10.154l58.623-33.846Z" transform="translate(-14384.221 -677.073)" stroke="#000" stroke-linejoin="round" stroke-width="2.288" fill-rule="evenodd"/>
        <path id="Path_19215" data-name="Path 19215" d="M14504.1,773.024l-58.623,33.846v10.154l58.623-33.846Z" transform="translate(-14383.927 -676.563)" stroke="#000" stroke-linejoin="round" stroke-width="2.288" fill-rule="evenodd"/>
        <path id="Path_19216" data-name="Path 19216" d="M14495.016,757.284l-58.623,33.846v10.154l58.623-33.846Z" transform="translate(-14383.632 -676.053)" stroke="#000" stroke-linejoin="round" stroke-width="2.288" fill-rule="evenodd"/>
        <path id="Path_19217" data-name="Path 19217" d="M14485.928,741.543l-58.623,33.846v10.154l58.623-33.846Z" transform="translate(-14383.338 -675.544)" stroke="#000" stroke-linejoin="round" stroke-width="2.288" fill-rule="evenodd"/>
        <path id="Path_19218" data-name="Path 19218" d="M14476.84,725.8l-58.623,33.846V769.8l58.623-33.846Z" transform="translate(-14383.043 -675.034)" stroke="#000" stroke-linejoin="round" stroke-width="2.288" fill-rule="evenodd"/>
        <path id="Path_19219" data-name="Path 19219" d="M14467.751,710.062l-58.623,33.846v10.154l58.623-33.846Z" transform="translate(-14382.748 -674.524)" stroke="#000" stroke-linejoin="round" stroke-width="2.288" fill-rule="evenodd"/>
        <path id="Path_19220" data-name="Path 19220" d="M14458.742,694.367l-58.623,33.846v10.154l58.623-33.846Z" transform="translate(-14382.457 -674.016)" stroke="#000" stroke-linejoin="round" stroke-width="2.288" fill-rule="evenodd"/>
        <path id="Path_19221" data-name="Path 19221" d="M14449.577,678.582l-58.623,33.846v10.154l58.623-33.846Z" transform="translate(-14382.16 -673.505)" stroke="#000" stroke-linejoin="round" stroke-width="2.288" fill-rule="evenodd"/>
      </g>
      <g id="_08_STAIR_DOWN_02" data-name="08_STAIR DOWN 02" transform="translate(1362.448 400.026)">
        <path id="Path_19222" data-name="Path 19222" d="M14897.407,555.049l8.792,5.077,58.623-33.846-8.792-5.077Z" transform="translate(-14835.854 -414.588)" fill="#fff" stroke="#000" stroke-linejoin="round" stroke-width="2.288" fill-rule="evenodd"/>
        <path id="Path_19223" data-name="Path 19223" d="M14897.113,544.385l58.623-33.846-8.794-5.077-58.623,33.846Z" transform="translate(-14835.559 -414.078)" fill="#fff" stroke="#000" stroke-linejoin="round" stroke-width="2.288" fill-rule="evenodd"/>
        <path id="Path_19224" data-name="Path 19224" d="M14888.024,528.645l58.623-33.846-8.794-5.077-58.623,33.846Z" transform="translate(-14835.264 -413.569)" fill="#fff" stroke="#000" stroke-linejoin="round" stroke-width="2.288" fill-rule="evenodd"/>
        <path id="Path_19225" data-name="Path 19225" d="M14878.937,512.9l58.623-33.846-8.793-5.077-58.623,33.846Z" transform="translate(-14834.97 -413.059)" fill="#fff" stroke="#000" stroke-linejoin="round" stroke-width="2.288" fill-rule="evenodd"/>
        <path id="Path_19226" data-name="Path 19226" d="M14919.679,458.241l-58.623,33.846,8.794,5.077,58.623-33.846Z" transform="translate(-14834.676 -412.549)" fill="#fff" stroke="#000" stroke-linejoin="round" stroke-width="2.288" fill-rule="evenodd"/>
        <path id="Path_19227" data-name="Path 19227" d="M14910.669,442.545l-58.623,33.846,8.718,5.034,58.623-33.846Z" transform="translate(-14834.384 -412.041)" fill="#fff" stroke="#000" stroke-linejoin="round" stroke-width="2.288" fill-rule="evenodd"/>
        <path id="Path_19228" data-name="Path 19228" d="M14842.88,460.606l8.793,5.077,58.623-33.846-8.793-5.077Z" transform="translate(-14834.087 -411.53)" fill="#fff" stroke="#000" stroke-linejoin="round" stroke-width="2.288" fill-rule="evenodd"/>
        <path id="Path_19229" data-name="Path 19229" d="M14892.416,411.02l-58.623,33.846,8.793,5.077,58.623-33.846Z" transform="translate(-14833.793 -411.02)" fill="#fff" stroke="#000" stroke-linejoin="round" stroke-width="2.288" fill-rule="evenodd"/>
        <path id="Path_19230" data-name="Path 19230" d="M14965.117,526.45l-58.623,33.846V570.45l58.623-33.846Z" transform="translate(-14836.147 -414.758)" stroke="#000" stroke-linejoin="round" stroke-width="2.288" fill-rule="evenodd"/>
        <path id="Path_19231" data-name="Path 19231" d="M14956.03,510.709l-58.623,33.846v10.154l58.623-33.846Z" transform="translate(-14835.854 -414.248)" stroke="#000" stroke-linejoin="round" stroke-width="2.288" fill-rule="evenodd"/>
        <path id="Path_19232" data-name="Path 19232" d="M14946.942,494.969l-58.623,33.846v10.154l58.623-33.846Z" transform="translate(-14835.559 -413.738)" stroke="#000" stroke-linejoin="round" stroke-width="2.288" fill-rule="evenodd"/>
        <path id="Path_19233" data-name="Path 19233" d="M14937.854,479.228l-58.623,33.846v10.154l58.623-33.846Z" transform="translate(-14835.264 -413.229)" stroke="#000" stroke-linejoin="round" stroke-width="2.288" fill-rule="evenodd"/>
        <path id="Path_19234" data-name="Path 19234" d="M14928.767,463.488l-58.623,33.846v10.154l58.623-33.846Z" transform="translate(-14834.97 -412.719)" stroke="#000" stroke-linejoin="round" stroke-width="2.288" fill-rule="evenodd"/>
        <path id="Path_19235" data-name="Path 19235" d="M14919.679,447.748l-58.623,33.846v10.154l58.623-33.846Z" transform="translate(-14834.676 -412.209)" stroke="#000" stroke-linejoin="round" stroke-width="2.288" fill-rule="evenodd"/>
        <path id="Path_19236" data-name="Path 19236" d="M14910.669,432.052l-58.623,33.846v10.154l58.623-33.846Z" transform="translate(-14834.384 -411.701)" stroke="#000" stroke-linejoin="round" stroke-width="2.288" fill-rule="evenodd"/>
        <path id="Path_19237" data-name="Path 19237" d="M14901.5,416.267l-58.623,33.846v10.154l58.623-33.846Z" transform="translate(-14834.087 -411.19)" stroke="#000" stroke-linejoin="round" stroke-width="2.288" fill-rule="evenodd"/>
      </g>
      <g id="_08_SPIRAL_STAIR" data-name="08_SPIRAL STAIR" transform="translate(1089.625 330.157)">
        <path id="Path_19238" data-name="Path 19238" d="M14593.22,573.325l2.659,9.659,5.328-3.073Z" transform="translate(-14553.179 -346.407)" fill="#fff" stroke="#000" stroke-linejoin="round" stroke-width="2.288" fill-rule="evenodd"/>
        <path id="Path_19239" data-name="Path 19239" d="M14633.18,558.7l.215-.466.2-.469.182-.471.165-.474.148-.476.132-.478.115-.479.1-.481.082-.483-41.295-2.086,34.582,11.527,3.431-1.983.326-.445.31-.448.295-.452.278-.455.263-.458.246-.461Z" transform="translate(-14553.179 -345.727)" fill="#fff" stroke="#000" stroke-linejoin="round" stroke-width="2.288" fill-rule="evenodd"/>
        <path id="Path_19240" data-name="Path 19240" d="M14634.388,538.769l-.07-.323-.077-.323-.085-.322-.093-.321-.1-.321-.107-.32-.115-.319-.123-.318-.13-.317-.138-.316-.146-.315-.153-.314-.161-.313-.168-.312-.175-.311-.184-.31-.19-.309-38.952,8.185,41.295,2.086.045-.326.038-.327.03-.327.022-.327.014-.327.007-.326v-.326l-.009-.326-.017-.326-.023-.326-.032-.325-.039-.325-.047-.325-.055-.324Z" transform="translate(-14553.179 -345.114)" fill="#fff" stroke="#000" stroke-linejoin="round" stroke-width="2.288" fill-rule="evenodd"/>
        <path id="Path_19241" data-name="Path 19241" d="M14622.53,513.861l-29.311,16.923,38.952-8.186-.2-.307-.2-.305-.213-.3-.219-.3-.226-.3-.233-.3-.485-.589-.514-.581-.54-.572-.567-.563-.593-.554-.619-.545-.645-.535-.67-.525-.7-.514-.72-.5-.743-.492-.768-.481Z" transform="translate(-14553.179 -344.482)" fill="#fff" stroke="#000" stroke-linejoin="round" stroke-width="2.288" fill-rule="evenodd"/>
        <path id="Path_19242" data-name="Path 19242" d="M14607.4,497.615,14593.22,520.1l29.311-16.923-.812-.457-.832-.443-.854-.429-.872-.415-.891-.4-.908-.387-.927-.372-.943-.357-.959-.342-.976-.327-.991-.312-1.006-.3-1.021-.281-1.034-.265Z" transform="translate(-14553.179 -343.955)" fill="#fff" stroke="#000" stroke-linejoin="round" stroke-width="2.288" fill-rule="evenodd"/>
        <path id="Path_19243" data-name="Path 19243" d="M14593.22,461.3v47.144l14.178-22.489-1.717-.337-1.738-.292-1.754-.248-1.771-.2-1.783-.159-1.793-.113-1.8-.069-1.806-.023.021-33.365C14593.22,451.148,14593.22,461.3,14593.22,461.3Z" transform="translate(-14553.179 -342.451)" fill="#fff" stroke="#000" stroke-linejoin="round" stroke-width="2.288" fill-rule="evenodd"/>
        <path id="Path_19244" data-name="Path 19244" d="M14552.294,464.178l-.455.07.146.306.152.3.159.3.166.3.173.3.18.3.187.3.193.3.2.294.206.292.433.579.459.572.483.565.511.557.536.55.56.541.586.533.609.524.635.515.657.506.683.5.372-.058v-9.836l.963-.466Z" transform="translate(-14551.839 -342.829)" fill="#fff" stroke="#000" stroke-linejoin="round" stroke-width="2.288" fill-rule="evenodd"/>
        <path id="Path_19245" data-name="Path 19245" d="M14570.836,468.118c-.017.008.817.29.817.29l.99.316,1,.3,1.022.285V459.156l4.045-5.009-17.318,8.39C14561.41,462.535,14570.836,468.118,14570.836,468.118Z" transform="translate(-14552.148 -342.548)" fill="#fff" stroke="#000" stroke-linejoin="round" stroke-width="2.288" fill-rule="evenodd"/>
        <path id="Path_19246" data-name="Path 19246" d="M14579.16,453.589l-4.045,5.009,1.034.269,1.045.252,2.121.453,2.156.385.668.1,1.521.22,2.162.242c.054.006,2.291.183,2.291.183l2.253.106,2.267.036V436.908Z" transform="translate(-14552.593 -341.989)" fill="#fff" stroke="#000" stroke-linejoin="round" stroke-width="2.288" fill-rule="evenodd"/>
        <path id="Path_19247" data-name="Path 19247" d="M14610.737,448.1l-17.518-21.69v23.933l2.266-.036,2.254-.107,2.236-.177,2.216-.247,2.188-.316,2.157-.385,2.122-.453,1.045-.252Z" transform="translate(-14553.179 -341.65)" fill="#fff" stroke="#000" stroke-linejoin="round" stroke-width="2.288" fill-rule="evenodd"/>
        <path id="Path_19248" data-name="Path 19248" d="M14624.975,431.3l-31.755-15.384,17.518,21.69,1.021-.285,1.007-.3.99-.316.975-.331.957-.346.94-.361.922-.375.9-.389.886-.4.866-.417.847-.431.827-.444.806-.458.784-.471.764-.483Z" transform="translate(-14553.179 -341.31)" fill="#fff" stroke="#000" stroke-linejoin="round" stroke-width="2.288" fill-rule="evenodd"/>
        <path id="Path_19249" data-name="Path 19249" d="M14593.22,405.427l31.755,15.384.717-.507.691-.518.666-.528.641-.538.614-.547.589-.556.562-.565.534-.574.507-.582.48-.59.229-.3.222-.3.216-.3.209-.3.2-.3.193-.306.188-.308.18-.31.173-.311.165-.313.158-.314.15-.316Z" transform="translate(-14553.179 -340.97)" fill="#fff" stroke="#000" stroke-linejoin="round" stroke-width="2.288" fill-rule="evenodd"/>
        <path id="Path_19250" data-name="Path 19250" d="M14634.666,395.187l.006-.326,0-.326-.01-.326-.019-.326-.024-.326-.033-.326-.04-.325-.05-.325-.056-.325-.064-.325-.07-.324-.079-.324-.088-.323-.094-.323-40.823,4.156,40.04,6.194.144-.317.135-.318.128-.319.12-.319.113-.32.1-.321.1-.322.09-.322.081-.323.074-.323.067-.324.059-.324.052-.324.044-.325.035-.325.029-.325.021-.325Z" transform="translate(-14553.179 -340.491)" fill="#fff" stroke="#000" stroke-linejoin="round" stroke-width="2.288" fill-rule="evenodd"/>
        <path id="Path_19251" data-name="Path 19251" d="M14593.22,383.98l40.823-4.156-.083-.262-.088-.261-.093-.261-.1-.26-.21-.518-.229-.514-.249-.511-.269-.507-.288-.5-.308-.5-.326-.5-.345-.491-.363-.487-.382-.482-.4-.477-.42-.472-.437-.467-.455-.461-.435-.418-.447-.413-.464-.408-.479-.4Z" transform="translate(-14553.179 -339.831)" fill="#fff" stroke="#000" stroke-linejoin="round" stroke-width="2.288" fill-rule="evenodd"/>
        <path id="Path_19252" data-name="Path 19252" d="M14613.945,352.526l-20.726,20.726,33.956-13.727-.663-.531-.687-.52-.71-.508-.734-.5-.756-.484-.779-.472-.8-.459-.821-.447-.842-.433-.863-.42-.882-.407-.9-.393-.921-.379-.938-.364-.957-.35Z" transform="translate(-14553.179 -339.257)" fill="#fff" stroke="#000" stroke-linejoin="round" stroke-width="2.288" fill-rule="evenodd"/>
        <path id="Path_19253" data-name="Path 19253" d="M14593.22,362.654l20.726-20.726-.99-.32-1-.3-1.017-.287-1.028-.271-2.092-.492-2.132-.425-2.17-.358-2.2-.289-2.229-.22-2.252-.15Z" transform="translate(-14553.179 -338.813)" fill="#fff" stroke="#000" stroke-linejoin="round" stroke-width="2.288" fill-rule="evenodd"/>
        <path id="Path_19254" data-name="Path 19254" d="M14593.22,383.64l33.956-13.727V359.759l-33.956,13.727Z" transform="translate(-14553.179 -339.491)" stroke="#000" stroke-linejoin="round" stroke-width="2.288" fill-rule="evenodd"/>
        <path id="Path_19255" data-name="Path 19255" d="M14593.22,394.454l40.823-4.156V380.145l-40.823,4.156Z" transform="translate(-14553.179 -340.151)" stroke="#000" stroke-linejoin="round" stroke-width="2.288" fill-rule="evenodd"/>
        <path id="Path_19256" data-name="Path 19256" d="M14592.817,572.993v10.154l.405,1.328c.017.015,2.643-1.5,2.643-1.5Z" transform="translate(-14553.166 -346.396)" stroke="#000" stroke-linejoin="round" stroke-width="2.288" fill-rule="evenodd"/>
        <path id="Path_19257" data-name="Path 19257" d="M14593.22,562.831v10.154l7.984,6.584,7.243-4.182Z" transform="translate(-14553.179 -346.067)" stroke="#000" stroke-linejoin="round" stroke-width="2.288" fill-rule="evenodd"/>
        <path id="Path_19258" data-name="Path 19258" d="M14593.22,552.338v10.154l23.44,7.814,11.15-6.437Z" transform="translate(-14553.179 -345.727)" stroke="#000" stroke-linejoin="round" stroke-width="2.288" fill-rule="evenodd"/>
        <path id="Path_19259" data-name="Path 19259" d="M14634.515,554.084V543.93l-41.295-2.086V552Z" transform="translate(-14553.179 -345.388)" stroke="#000" stroke-linejoin="round" stroke-width="2.288" fill-rule="evenodd"/>
        <path id="Path_19260" data-name="Path 19260" d="M14593.22,541.23l38.952-8.185V522.891l-38.952,8.186Z" transform="translate(-14553.179 -344.774)" stroke="#000" stroke-linejoin="round" stroke-width="2.288" fill-rule="evenodd"/>
        <path id="Path_19261" data-name="Path 19261" d="M14593.22,520.29v10.154l29.311-16.923V503.367Z" transform="translate(-14553.179 -344.142)" stroke="#000" stroke-linejoin="round" stroke-width="2.288" fill-rule="evenodd"/>
        <path id="Path_19262" data-name="Path 19262" d="M14607.4,497.275V487.121l-14.178,22.489v10.154Z" transform="translate(-14553.179 -343.616)" stroke="#000" stroke-linejoin="round" stroke-width="2.288" fill-rule="evenodd"/>
        <path id="Path_19263" data-name="Path 19263" d="M14593.22,362.759v10.154l20.726-20.726V342.032Z" transform="translate(-14553.179 -338.917)" stroke="#000" stroke-linejoin="round" stroke-width="2.288" fill-rule="evenodd"/>
        <path id="Path_19264" data-name="Path 19264" d="M14551.985,464.441l-.146-.3v10.037c0,.116.461.045.461.045.129-.02,6.01.612,6.01.612l16.526,6.681,15.229,15.23,1.814,11.967V461.566l-2.267-.036-2.253-.106-2.237-.177-2.216-.248-1.521-.22-.668-.1-2.156-.385-2.121-.453-1.045-.252-1.034-.269v10.154l-1.022-.285-1-.3-.99-.316-.834-.283c-.141-.048-1.1-.394-1.1-.394l-.94-.361-.922-.375-.905-.389-.886-.4-.866-.417-.847-.432-.827-.444-.806-.458-.785-.47-.762-.484-.741-.5v9.836l-.372.058-.682-.5-.658-.505-.636-.516-.609-.523-.585-.533-.56-.541-.535-.55-.512-.557-.483-.565-.458-.573-.434-.579-.206-.292-.2-.294-.193-.3-.187-.3-.179-.3-.173-.3-.168-.3-.158-.3Z" transform="translate(-14551.839 -342.715)" stroke="#000" stroke-linejoin="round" stroke-width="2.288" fill-rule="evenodd"/>
        <path id="Path_19265" data-name="Path 19265" d="M14610.737,447.765V437.611l-17.518-21.69v10.154Z" transform="translate(-14553.179 -341.31)" stroke="#000" stroke-linejoin="round" stroke-width="2.288" fill-rule="evenodd"/>
        <path id="Path_19266" data-name="Path 19266" d="M14593.22,415.581l31.755,15.384V420.811l-31.755-15.384Z" transform="translate(-14553.179 -340.97)" stroke="#000" stroke-linejoin="round" stroke-width="2.288" fill-rule="evenodd"/>
        <path id="Path_19267" data-name="Path 19267" d="M14633.26,411.281V401.127l-40.04-6.194v10.154Z" transform="translate(-14553.179 -340.63)" stroke="#000" stroke-linejoin="round" stroke-width="2.288" fill-rule="evenodd"/>
      </g>
      <g id="_08_CLOMUN_03" data-name="08_CLOMUN_03" transform="translate(1239.746 432.41)">
        <path id="Path_19268" data-name="Path 19268" d="M14727.174,587.8l0,88.237c0,.155.008.232.008.232.015.154.024.231.024.231.024.154.038.23.038.23.034.154.055.229.055.229.044.152.068.227.068.227.055.15.084.224.084.224.064.148.1.222.1.222.073.146.112.218.112.218.082.143.126.215.126.215.044.07.14.209.14.209.1.137.2.273.2.273.109.134.224.264.224.264.12.128.245.253.245.253.128.123.261.244.261.244.137.117.277.232.277.232.145.112.291.222.291.222.15.106.3.21.3.21.155.1.313.2.313.2.161.095.325.188.325.188.17.091.345.182.345.182.179.088.364.175.364.175.189.085.385.168.385.168.2.08.611.236.611.236l.43.146.45.135.464.124.479.112.493.1.5.084.516.071.522.055.53.04.534.024.536.008.536-.008.534-.024.53-.04.523-.055.515-.071.5-.084.493-.1.479-.112.465-.124.447-.135.432-.146.412-.156c.2-.08.395-.164.395-.164.188-.085.373-.172.373-.172.18-.088.354-.179.354-.179.17-.091.334-.184.334-.184.161-.095.32-.193.32-.193.155-.1.309-.205.309-.205.15-.106.3-.216.3-.216.144-.112.284-.227.284-.227.136-.117.271-.238.271-.238.128-.123.252-.249.252-.249.12-.128.234-.258.234-.258.109-.134.215-.269.215-.269.1-.137.193-.277.193-.277.089-.141.131-.213.131-.213.079-.143.117-.217.117-.217.069-.146.1-.22.1-.22.061-.149.089-.224.089-.224.051-.151.074-.226.074-.226.041-.152.059-.228.059-.228.031-.154.045-.23.045-.23.021-.155.028-.232.028-.232.011-.154.013-.231.013-.231V477.131l-10.362,5.984-10.363,1.709v21.747C14727.18,506.566,14727.174,587.8,14727.174,587.8Z" transform="translate(-14707.638 -445.545)" fill="#fff" stroke="#000" stroke-linejoin="round" stroke-width="2.288" fill-rule="evenodd"/>
        <path id="Path_19269" data-name="Path 19269" d="M14724.571,479.827l-17.587-10.154v5.077l17.587,10.154Z" transform="translate(-14706.984 -445.304)" fill="#fff" stroke="#000" stroke-linejoin="round" stroke-width="2.288" fill-rule="evenodd"/>
        <path id="Path_19270" data-name="Path 19270" d="M14767.367,454.982l-42.208,24.369v5.077l12.312-2.031,17.586-10.154,12.311-12.185Z" transform="translate(-14707.573 -444.828)" fill="#fff" stroke="#000" stroke-linejoin="round" stroke-width="2.288" fill-rule="evenodd"/>
        <path id="Path_19271" data-name="Path 19271" d="M14724.571,479.011l42.208-24.369-17.586-10.154-42.209,24.369Z" transform="translate(-14706.984 -444.488)" fill="#fff" stroke="#000" stroke-linejoin="round" stroke-width="2.288" fill-rule="evenodd"/>
      </g>
      <g id="_08_CLOMUN_02" data-name="08_CLOMUN_02" transform="translate(830.509 304.4)">
        <path id="Path_19272" data-name="Path 19272" d="M14301.634,347.524l-17.583-10.152v5.076l17.583,10.152Z" transform="translate(-14284.051 -313.009)" fill="#fff" stroke="#000" stroke-linejoin="round" stroke-width="2.288" fill-rule="evenodd"/>
        <path id="Path_19273" data-name="Path 19273" d="M14326.251,312.193l-42.2,24.364,17.583,10.152,42.2-24.364Z" transform="translate(-14284.051 -312.193)" fill="#fff" stroke="#000" stroke-linejoin="round" stroke-width="2.288" fill-rule="evenodd"/>
        <path id="Path_19274" data-name="Path 19274" d="M14302.222,347.049v5.076l12.309-2.03,17.583-10.152,12.309-12.182v-5.076Z" transform="translate(-14284.639 -312.533)" fill="#fff" stroke="#000" stroke-linejoin="round" stroke-width="2.288" fill-rule="evenodd"/>
        <path id="Path_19275" data-name="Path 19275" d="M14304.235,352.521V492.935l.21.352.225.345.235.337.246.329.257.32.269.311.28.3.289.292.3.282.309.271.317.26.326.249.335.238.343.226.351.214.356.2.365.19.37.177.376.164.382.151.388.138.392.125.395.111.4.1.4.084.4.07.407.056.408.042.41.028.41.014h.411l.41-.014.409-.028.409-.042.407-.056.4-.07.4-.084.4-.1.4-.111.391-.125.388-.138.382-.151.376-.164.37-.177.365-.19.357-.2.351-.214.342-.226.335-.238.326-.249.317-.26.31-.271.3-.282.29-.292.278-.3.27-.311.257-.32.247-.329.234-.337.224-.345.212-.352V344.829l-10.361,5.982Z" transform="translate(-14284.704 -313.25)" fill="#fff" stroke="#000" stroke-linejoin="round" stroke-width="2.288" fill-rule="evenodd"/>
      </g>
      <g id="_08_CLOMUN_01" data-name="08_CLOMUN_01" transform="translate(552.97 464.637)">
        <path id="Path_19276" data-name="Path 19276" d="M14014.807,513.124l-17.584-10.152v5.076l17.584,10.152Z" transform="translate(-13997.223 -478.608)" fill="#fff" stroke="#000" stroke-linejoin="round" stroke-width="2.288" fill-rule="evenodd"/>
        <path id="Path_19277" data-name="Path 19277" d="M14039.423,477.793l-42.2,24.364,17.584,10.152,42.2-24.364Z" transform="translate(-13997.223 -477.793)" fill="#fff" stroke="#000" stroke-linejoin="round" stroke-width="2.288" fill-rule="evenodd"/>
        <path id="Path_19278" data-name="Path 19278" d="M14015.4,512.649v5.076l12.308-2.03,17.583-10.152,12.31-12.182v-5.076Z" transform="translate(-13997.813 -478.133)" fill="#fff" stroke="#000" stroke-linejoin="round" stroke-width="2.288" fill-rule="evenodd"/>
        <path id="Path_19279" data-name="Path 19279" d="M14017.408,518.12V658.535l.211.352.224.345.235.337.247.328.257.32.269.311.279.3.289.292.3.282.309.271.318.26.325.249.336.238.342.226.351.214.357.2.364.19.371.177.376.164.382.151.386.138.393.125.395.111.4.1.4.084.4.07.407.056.408.042.41.028.41.014h.411l.41-.014.41-.028.408-.042.407-.056.4-.07.4-.084.4-.1.395-.111.392-.125.387-.138.382-.151.376-.164.371-.177.363-.19.358-.2.35-.214.343-.226.335-.238.327-.249.317-.26.309-.271.3-.282.289-.292.278-.3.27-.311.257-.32.247-.328.235-.337.223-.345.212-.352V510.429l-10.361,5.982Z" transform="translate(-13997.877 -478.85)" fill="#fff" stroke="#000" stroke-linejoin="round" stroke-width="2.288" fill-rule="evenodd"/>
      </g>
    </g>
  </g>
</svg>
