<svg xmlns="http://www.w3.org/2000/svg" id="svgFloor2" viewBox="0 0 1186.088 752.325">
  <g id="Group_1511" data-name="Group 1511" transform="translate(-305.912 -139.211)">
    <g id="_02_URBAN_MANAGEMENT" data-name="02_URBAN MANAGEMENT" transform="translate(465.755 327.878)">
      <path id="Path_12336" data-name="Path 12336" d="M628.767,1732.513l-135.011-77.927v-51l132.37-25.475v-50.949L758.5,1501.69l146.191-84.4,135.035,77.962Z" transform="translate(-493.756 -1417.287)" fill="#fff" fill-rule="evenodd"/>
    </g>
    <g id="HATCH" transform="translate(-28 -1089.409)">
      <path id="Path_12337" data-name="Path 12337" d="M1039.72,1495.249,814.343,1625.371l7.958,4.594,217.42-125.527Z" stroke="#000" stroke-linejoin="round" stroke-width="2" fill-rule="evenodd"/>
    </g>
    <path id="Path_12338" data-name="Path 12338" stroke="#000" d="M629.787,1731.925l-136.031-77.338-26.474-45.854,158.844-30.619-26.474-45.854L758.5,1501.69l146.191-84.4,71.568,41.32,26.474,15.285,36.993,21.358-36.993,21.358-26.474,15.285-20.793,12-57.286,33.074-83.832,48.4" fill="none" transform="translate(-28 -1089.409)" stroke-linecap="round" stroke-linejoin="round" stroke-width="2" fill-rule="evenodd"/>
    <g id="_02_ARCH_FORUM" data-name="02_ARCH FORUM" transform="translate(1000.544 367.78)">
      <path id="Path_12347" data-name="Path 12347" d="M1516.791,1599.587l-245.484-142.4-242.763,139,247.063,142.642Z" transform="translate(-1028.545 -1457.189)" fill="#fff" fill-rule="evenodd"/>
    </g>
    <g id="HATCH-2" data-name="HATCH" transform="translate(-28 -1089.409)">
      <path id="Path_12349" data-name="Path 12349" d="M1204.189,1706.772l7.942-4.585-183.587-105.994v9.17Z" stroke="#000" stroke-linejoin="round" stroke-width="2" fill-rule="evenodd"/>
      <path id="Path_12353" data-name="Path 12353" d="M1028.545,1596.193l242.763-139,245.484,142.4" fill="none" stroke="#000" stroke-linecap="round" stroke-linejoin="round" stroke-width="2" fill-rule="evenodd"/>
    </g>
    <g id="_02_Shaft" data-name="02_Shaft" transform="translate(-27.724 -1089.409)">
      <g id="Group_1392" data-name="Group 1392">
        <g id="HATCH-3" data-name="HATCH">
          <path id="Path_12339" data-name="Path 12339" d="M1002.728,1274.932l52.98-30.588-.033,705.038-52.936,30.563Z" fill="#fff" stroke="#000" stroke-linejoin="round" stroke-width="2" fill-rule="evenodd"/>
        </g>
        <g id="HATCH-4" data-name="HATCH">
          <path id="Path_12340" data-name="Path 12340" d="M1002.728,1274.924l-26.474-15.285.011,705.021,26.474,15.285Z" fill="#fff" stroke="#000" stroke-linejoin="round" stroke-width="2" fill-rule="evenodd"/>
        </g>
      </g>
      <path id="Path_12900" data-name="Path 12900" d="M3033.885,170.23l26.474,15.285,52.98-30.58-25.7-14.725Z" transform="translate(-2057.631 1089.409)" fill="#fff" stroke="#000" stroke-linejoin="round" stroke-width="2" fill-rule="evenodd"/>
    </g>
    <g id="_02_Floor" data-name="02_Floor" transform="translate(-28 -1089.409)">
      <g id="HATCH-5" data-name="HATCH">
        <g id="HATCH-6" data-name="HATCH">
          <g id="Group_1395" data-name="Group 1395">
            <path id="Path_12344" data-name="Path 12344" d="M634.46,1727.108l179.883-101.737,265.419,153.24,132.37-76.424,63.476,36.648,79.275-45.769,71.559,41.314-397.164,229.3Z" fill="#fff" fill-rule="evenodd"/>
            <g id="Group_1394" data-name="Group 1394">
              <path id="Path_12345" data-name="Path 12345" d="M814.343,1625.371l265.419,153.24,132.37-76.424" fill="none" stroke="#000" stroke-linecap="round" stroke-linejoin="round" stroke-width="2" fill-rule="evenodd"/>
              <path id="Path_12346" data-name="Path 12346" d="M1354.883,1693.065l71.559,41.314-397.164,229.3-399.49-231.758" fill="none" stroke="#000" stroke-linecap="round" stroke-linejoin="round" stroke-width="2" fill-rule="evenodd"/>
            </g>
          </g>
        </g>
        <path id="Path_12348" data-name="Path 12348" d="M1516.791,1608.8v-9.217l-161.909,93.478,7.982,4.608Z" stroke="#000" stroke-linejoin="round" stroke-width="2" fill-rule="evenodd"/>
      </g>
      <g id="HATCH-7" data-name="HATCH">
        <path id="Path_12350" data-name="Path 12350" d="M493.756,1663.726l535.522,309.184,397.164-229.3v-9.227l-397.164,229.3-535.522-309.1Z" stroke="#000" stroke-linejoin="round" stroke-width="2" fill-rule="evenodd"/>
      </g>
    </g>
    <g id="_02_Fascade_left" data-name="02_Fascade left" transform="translate(-28 -1089.409)">
      <g id="HATCH-8" data-name="HATCH">
        <path id="Path_12354" data-name="Path 12354" d="M758.5,1385.526,599.651,1416.1l26.474,45.854v65.215L758.5,1501.69Z" fill="#fff" stroke="#000" stroke-linejoin="round" stroke-width="2" fill-rule="evenodd"/>
      </g>
      <g id="HATCH-9" data-name="HATCH">
        <path id="Path_12355" data-name="Path 12355" d="M599.651,1416.1v50.949l26.474-5.095Z" fill="#fff" stroke="#000" stroke-linejoin="round" stroke-width="2" fill-rule="evenodd"/>
      </g>
      <g id="HATCH-10" data-name="HATCH">
        <path id="Path_12356" data-name="Path 12356" d="M467.282,1492.519l26.474,45.854v65.215l132.37-25.475V1461.95Z" fill="#fff" stroke="#000" stroke-linejoin="round" stroke-width="2" fill-rule="evenodd"/>
      </g>
      <g id="HATCH-11" data-name="HATCH">
        <path id="Path_12357" data-name="Path 12357" d="M467.282,1492.519v50.949l26.474-5.095Z" fill="#fff" stroke="#000" stroke-linejoin="round" stroke-width="2" fill-rule="evenodd"/>
      </g>
      <g id="HATCH-12" data-name="HATCH">
        <path id="Path_12358" data-name="Path 12358" d="M361.386,1689.2v-74.4l-26.474-45.854V1694.3l26.474,45.854Z" fill="#fff" stroke="#000" stroke-linejoin="round" stroke-width="2" fill-rule="evenodd"/>
      </g>
      <g id="HATCH-13" data-name="HATCH">
        <path id="Path_12359" data-name="Path 12359" d="M493.756,1654.587V1538.373l-158.844,30.57,26.474,45.854v74.4l132.37-25.475Z" fill="#fff" stroke="#000" stroke-linejoin="round" stroke-width="2" fill-rule="evenodd"/>
      </g>
    </g>
    <g id="_02_Fascade_right" data-name="02_Fascade right" transform="translate(-75.714 -1062.004)">
      <g id="Group_1396" data-name="Group 1396">
        <g id="HATCH-14" data-name="HATCH">
          <path id="Path_12360" data-name="Path 12360" d="M1513.766,1628.923v125.405l52.948-91.708V1537.215Z" fill="#fff" stroke="#000" stroke-linejoin="round" stroke-width="2" fill-rule="evenodd"/>
        </g>
        <g id="HATCH-15" data-name="HATCH">
          <path id="Path_12361" data-name="Path 12361" d="M1513.766,1628.923l-23.867-4.593-55.555-10.692v125.3l.264.153,79.158,15.234Z" fill="#fff" stroke="#000" stroke-linejoin="round" stroke-width="2" fill-rule="evenodd"/>
        </g>
        <g id="HATCH-16" data-name="HATCH">
          <path id="Path_12362" data-name="Path 12362" d="M1381.4,1705.347v125.406l52.948-91.709V1613.639l-37.036,64.149Z" fill="#fff" stroke="#000" stroke-linejoin="round" stroke-width="2" fill-rule="evenodd"/>
        </g>
        <g id="HATCH-17" data-name="HATCH">
          <path id="Path_12363" data-name="Path 12363" d="M1301.974,1690.063v125.405l79.422,15.285V1705.347l-7.861-1.513Z" fill="#fff" stroke="#000" stroke-linejoin="round" stroke-width="2" fill-rule="evenodd"/>
        </g>
        <g id="HATCH-18" data-name="HATCH">
          <path id="Path_12364" data-name="Path 12364" d="M1301.974,1815.468V1690.063l-52.948,91.708v125.405Z" fill="#fff" stroke="#000" stroke-linejoin="round" stroke-width="2" fill-rule="evenodd"/>
        </g>
        <g id="HATCH-19" data-name="HATCH">
          <path id="Path_12365" data-name="Path 12365" d="M1249.026,1781.771l-79.422-15.285v125.405l79.422,15.285Z" fill="#fff" stroke="#000" stroke-linejoin="round" stroke-width="2" fill-rule="evenodd"/>
        </g>
      </g>
    </g>
    <g id="_02_Staircase" data-name="02_Staircase" transform="translate(-28 -1089.409)">
      <g id="HATCH-20" data-name="HATCH">
        <path id="Path_12366" data-name="Path 12366" d="M937.886,1597.946l-38.021-21.951-1.69.976v7.219l39.711,22.927Z" stroke="#000" stroke-linejoin="round" stroke-width="2" fill-rule="evenodd"/>
      </g>
      <g id="HATCH-21" data-name="HATCH">
        <path id="Path_12367" data-name="Path 12367" d="M890.233,1597.946l39.711,22.927V1611.7l-39.711-22.927Z" stroke="#000" stroke-linejoin="round" stroke-width="2" fill-rule="evenodd"/>
      </g>
      <g id="HATCH-22" data-name="HATCH">
        <path id="Path_12368" data-name="Path 12368" d="M961.713,1556.677l7.942-4.585-39.711-22.927L922,1533.75Z" fill="#fff" stroke="#000" stroke-linejoin="round" stroke-width="2" fill-rule="evenodd"/>
      </g>
      <g id="HATCH-23" data-name="HATCH">
        <path id="Path_12369" data-name="Path 12369" d="M961.713,1565.848,922,1542.921l-7.942,4.585,39.711,22.927Z" fill="#fff" stroke="#000" stroke-linejoin="round" stroke-width="2" fill-rule="evenodd"/>
      </g>
      <g id="HATCH-24" data-name="HATCH">
        <path id="Path_12370" data-name="Path 12370" d="M953.771,1579.6l-39.711-22.927-7.942,4.585,39.711,22.927Z" fill="#fff" stroke="#000" stroke-linejoin="round" stroke-width="2" fill-rule="evenodd"/>
      </g>
      <g id="HATCH-25" data-name="HATCH">
        <path id="Path_12371" data-name="Path 12371" d="M945.828,1593.36l-39.711-22.927-7.942,4.585,39.711,22.927Z" fill="#fff" stroke="#000" stroke-linejoin="round" stroke-width="2" fill-rule="evenodd"/>
      </g>
      <g id="HATCH-26" data-name="HATCH">
        <path id="Path_12372" data-name="Path 12372" d="M937.886,1607.116l-39.711-22.927-7.942,4.585,39.711,22.927Z" fill="#fff" stroke="#000" stroke-linejoin="round" stroke-width="2" fill-rule="evenodd"/>
      </g>
      <g id="HATCH-27" data-name="HATCH">
        <path id="Path_12373" data-name="Path 12373" d="M929.944,1620.873l-39.711-22.927-7.942,4.585L922,1625.458Z" fill="#fff" stroke="#000" stroke-linejoin="round" stroke-width="2" fill-rule="evenodd"/>
      </g>
      <g id="HATCH-28" data-name="HATCH">
        <path id="Path_12374" data-name="Path 12374" d="M922,1634.629,882.291,1611.7l-7.942,4.585,39.711,22.927Z" fill="#fff" stroke="#000" stroke-linejoin="round" stroke-width="2" fill-rule="evenodd"/>
      </g>
      <g id="HATCH-29" data-name="HATCH">
        <path id="Path_12375" data-name="Path 12375" d="M866.406,1685.069l7.942-4.585-39.711-22.927-7.942,4.585Z" fill="#fff" stroke="#000" stroke-linejoin="round" stroke-width="2" fill-rule="evenodd"/>
      </g>
      <g id="HATCH-30" data-name="HATCH">
        <path id="Path_12376" data-name="Path 12376" d="M858.464,1698.825l7.942-4.585L826.7,1671.312l-7.942,4.585Z" fill="#fff" stroke="#000" stroke-linejoin="round" stroke-width="2" fill-rule="evenodd"/>
      </g>
      <g id="HATCH-31" data-name="HATCH">
        <path id="Path_12377" data-name="Path 12377" d="M810.811,1689.654l39.711,22.927,7.942-4.585-39.711-22.927Z" fill="#fff" stroke="#000" stroke-linejoin="round" stroke-width="2" fill-rule="evenodd"/>
      </g>
      <g id="HATCH-32" data-name="HATCH">
        <path id="Path_12378" data-name="Path 12378" d="M850.522,1721.752l-39.711-22.927-7.942,4.585,39.711,22.927Z" fill="#fff" stroke="#000" stroke-linejoin="round" stroke-width="2" fill-rule="evenodd"/>
      </g>
      <g id="HATCH-33" data-name="HATCH">
        <path id="Path_12379" data-name="Path 12379" d="M834.638,1740.094l7.942-4.585-39.711-22.927-7.942,4.585Z" fill="#fff" stroke="#000" stroke-linejoin="round" stroke-width="2" fill-rule="evenodd"/>
      </g>
      <g id="HATCH-34" data-name="HATCH">
        <path id="Path_12380" data-name="Path 12380" d="M826.7,1753.85l7.942-4.585-39.711-22.927-7.942,4.585Z" fill="#fff" stroke="#000" stroke-linejoin="round" stroke-width="2" fill-rule="evenodd"/>
      </g>
      <g id="HATCH-35" data-name="HATCH">
        <path id="Path_12381" data-name="Path 12381" d="M826.7,1763.021l-39.711-22.927-7.942,4.585,39.711,22.927Z" fill="#fff" stroke="#000" stroke-linejoin="round" stroke-width="2" fill-rule="evenodd"/>
      </g>
      <g id="HATCH-36" data-name="HATCH">
        <path id="Path_12382" data-name="Path 12382" d="M874.349,1671.312l39.711-22.927-39.711-22.927-29.927,17.278-9.784,5.649Z" fill="#fff" stroke="#000" stroke-linejoin="round" stroke-width="2" fill-rule="evenodd"/>
      </g>
      <g id="HATCH-37" data-name="HATCH">
        <path id="Path_12383" data-name="Path 12383" d="M961.713,1556.677,922,1533.75v9.171l39.711,22.927Z" stroke="#000" stroke-linejoin="round" stroke-width="2" fill-rule="evenodd"/>
      </g>
      <g id="HATCH-38" data-name="HATCH">
        <path id="Path_12384" data-name="Path 12384" d="M953.771,1570.433l-39.711-22.927v9.171l39.711,22.927Z" stroke="#000" stroke-linejoin="round" stroke-width="2" fill-rule="evenodd"/>
      </g>
      <g id="HATCH-39" data-name="HATCH">
        <path id="Path_12385" data-name="Path 12385" d="M945.828,1593.36v-9.171l-39.711-22.927v9.171Z" stroke="#000" stroke-linejoin="round" stroke-width="2" fill-rule="evenodd"/>
      </g>
      <g id="HATCH-40" data-name="HATCH">
        <path id="Path_12386" data-name="Path 12386" d="M922,1625.458l-39.711-22.927v9.171L922,1634.629Z" stroke="#000" stroke-linejoin="round" stroke-width="2" fill-rule="evenodd"/>
      </g>
      <g id="HATCH-41" data-name="HATCH">
        <path id="Path_12387" data-name="Path 12387" d="M914.06,1639.214l-39.711-22.927v9.171l39.711,22.927Z" stroke="#000" stroke-linejoin="round" stroke-width="2" fill-rule="evenodd"/>
      </g>
      <g id="HATCH-42" data-name="HATCH">
        <path id="Path_12388" data-name="Path 12388" d="M874.349,1680.483v-9.171l-39.711-22.927v9.171Z" stroke="#000" stroke-linejoin="round" stroke-width="2" fill-rule="evenodd"/>
      </g>
      <g id="HATCH-43" data-name="HATCH">
        <path id="Path_12389" data-name="Path 12389" d="M866.406,1685.069,826.7,1662.142v9.171l39.711,22.927Z" stroke="#000" stroke-linejoin="round" stroke-width="2" fill-rule="evenodd"/>
      </g>
      <g id="HATCH-44" data-name="HATCH">
        <path id="Path_12390" data-name="Path 12390" d="M818.753,1685.069,858.464,1708v-9.171L818.753,1675.9Z" stroke="#000" stroke-linejoin="round" stroke-width="2" fill-rule="evenodd"/>
      </g>
      <g id="HATCH-45" data-name="HATCH">
        <path id="Path_12391" data-name="Path 12391" d="M850.522,1721.752v-9.171l-39.711-22.927v9.171Z" stroke="#000" stroke-linejoin="round" stroke-width="2" fill-rule="evenodd"/>
      </g>
      <g id="HATCH-46" data-name="HATCH">
        <path id="Path_12392" data-name="Path 12392" d="M842.58,1735.508v-9.171l-39.711-22.927v9.171Z" stroke="#000" stroke-linejoin="round" stroke-width="2" fill-rule="evenodd"/>
      </g>
      <g id="HATCH-47" data-name="HATCH">
        <path id="Path_12393" data-name="Path 12393" d="M834.638,1740.094l-39.711-22.927v9.171l39.711,22.927Z" stroke="#000" stroke-linejoin="round" stroke-width="2" fill-rule="evenodd"/>
      </g>
      <g id="HATCH-48" data-name="HATCH">
        <path id="Path_12394" data-name="Path 12394" d="M826.7,1763.021v-9.171l-39.711-22.927v9.171Z" stroke="#000" stroke-linejoin="round" stroke-width="2" fill-rule="evenodd"/>
      </g>
      <g id="HATCH-49" data-name="HATCH">
        <path id="Path_12395" data-name="Path 12395" d="M818.753,1767.606l-39.711-22.927v9.171l39.711,22.927Z" stroke="#000" stroke-linejoin="round" stroke-width="2" fill-rule="evenodd"/>
      </g>
    </g>
    <g id="_02_Spiral_Staircase" data-name="02_Spiral Staircase" transform="translate(-28 -1089.409)">
      <g id="HATCH-50" data-name="HATCH">
        <path id="Path_12396" data-name="Path 12396" d="M1329.524,1407.087l-30.669,12.4,36.871-3.754Z" fill="#fff" stroke="#000" stroke-linejoin="round" stroke-width="2" fill-rule="evenodd"/>
      </g>
      <g id="HATCH-51" data-name="HATCH">
        <path id="Path_12397" data-name="Path 12397" d="M1335.02,1434.25l.707-9.348-36.871,3.754Z" fill="#fff" stroke="#000" stroke-linejoin="round" stroke-width="2" fill-rule="evenodd"/>
      </g>
      <g id="HATCH-52" data-name="HATCH">
        <path id="Path_12398" data-name="Path 12398" d="M1298.855,1437.827l28.681,13.894,7.484-8.3Z" fill="#fff" stroke="#000" stroke-linejoin="round" stroke-width="2" fill-rule="evenodd"/>
      </g>
      <g id="HATCH-53" data-name="HATCH">
        <path id="Path_12399" data-name="Path 12399" d="M1298.855,1456.168v21.616l7.911-1.013,7.911-1.013Z" fill="#fff" stroke="#000" stroke-linejoin="round" stroke-width="2" fill-rule="evenodd"/>
      </g>
      <g id="HATCH-54" data-name="HATCH">
        <path id="Path_12400" data-name="Path 12400" d="M1286.687,1480.405l-3.655,4.525,15.823,2.025v-21.616l-3.734,4.623Z" fill="#fff" stroke="#000" stroke-linejoin="round" stroke-width="2" fill-rule="evenodd"/>
      </g>
      <g id="HATCH-55" data-name="HATCH">
        <path id="Path_12401" data-name="Path 12401" d="M1270.175,1497.157v-9.04l-7.484,1.158,7.239,8.021Z" fill="#fff" stroke="#000" stroke-linejoin="round" stroke-width="2" fill-rule="evenodd"/>
      </g>
      <g id="HATCH-56" data-name="HATCH">
        <path id="Path_12402" data-name="Path 12402" d="M1271.057,1487.977l.548.526.565.507.583.487.6.467.615.446.63.424.643.4.658.38.67.357.681.334.693.311c.13.052,5.092-2.767,5.092-2.767v-4.922l3.654-4.525Z" fill="#fff" stroke="#000" stroke-linejoin="round" stroke-width="2" fill-rule="evenodd"/>
      </g>
      <g id="HATCH-57" data-name="HATCH">
        <path id="Path_12403" data-name="Path 12403" d="M1298.855,1507.919v21.616l12.805-20.312Z" fill="#fff" stroke="#000" stroke-linejoin="round" stroke-width="2" fill-rule="evenodd"/>
      </g>
      <g id="HATCH-58" data-name="HATCH">
        <path id="Path_12404" data-name="Path 12404" d="M1298.855,1538.706l26.474-15.285-13.669-5.027Z" fill="#fff" stroke="#000" stroke-linejoin="round" stroke-width="2" fill-rule="evenodd"/>
      </g>
      <g id="HATCH-59" data-name="HATCH">
        <path id="Path_12405" data-name="Path 12405" d="M1298.855,1428.656l36.871-3.754v-9.171l-36.871,3.754Z" stroke="#000" stroke-linejoin="round" stroke-width="2" fill-rule="evenodd"/>
      </g>
      <g id="HATCH-60" data-name="HATCH">
        <path id="Path_12406" data-name="Path 12406" d="M1335.02,1443.421v-9.171l-36.164-5.595v9.171Z" stroke="#000" stroke-linejoin="round" stroke-width="2" fill-rule="evenodd"/>
      </g>
      <g id="HATCH-61" data-name="HATCH">
        <path id="Path_12407" data-name="Path 12407" d="M1298.855,1447l28.681,13.894v-9.171l-28.681-13.894Z" stroke="#000" stroke-linejoin="round" stroke-width="2" fill-rule="evenodd"/>
      </g>
      <g id="HATCH-62" data-name="HATCH">
        <path id="Path_12408" data-name="Path 12408" d="M1314.678,1475.759v-9.171L1298.855,1447v9.171Z" stroke="#000" stroke-linejoin="round" stroke-width="2" fill-rule="evenodd"/>
      </g>
      <g id="HATCH-63" data-name="HATCH">
        <path id="Path_12409" data-name="Path 12409" d="M1262.691,1498.446l20.783,6.537,13.743,13.743,1.638,10.809v-42.58l-15.822-2.025v4.922l-4.962,2.819c-.13-.052-.823-.363-.823-.363l-.681-.334-.67-.357-.658-.38-.644-.4-.629-.424-.615-.446-.6-.467-.583-.487-.565-.507-.548-.526c-.013.006-.882.141-.882.141v9.04l-.245.139-6.9-7.641-.344,2.273v6.517Z" stroke="#000" stroke-linejoin="round" stroke-width="2" fill-rule="evenodd"/>
      </g>
      <g id="HATCH-64" data-name="HATCH">
        <path id="Path_12410" data-name="Path 12410" d="M1298.855,1529.535v9.171l12.805-20.312v-9.171Z" stroke="#000" stroke-linejoin="round" stroke-width="2" fill-rule="evenodd"/>
      </g>
      <g id="HATCH-65" data-name="HATCH">
        <path id="Path_12411" data-name="Path 12411" d="M1298.855,1547.877l26.474-15.285v-9.171l-26.474,15.285Z" stroke="#000" stroke-linejoin="round" stroke-width="2" fill-rule="evenodd"/>
      </g>
    </g>
    <g id="_02_Columns" data-name="02_Columns" transform="translate(-28 -1089.409)">
      <g id="Group_1397" data-name="Group 1397">
        <g id="HATCH-66" data-name="HATCH">
          <path id="Path_12443" data-name="Path 12443" d="M517.7,1696.514l-15.884-9.171v4.585L517.7,1701.1Z" fill="#fff" stroke="#000" stroke-linejoin="round" stroke-width="2" fill-rule="evenodd"/>
        </g>
        <g id="HATCH-67" data-name="HATCH">
          <path id="Path_12444" data-name="Path 12444" d="M539.94,1665.333l-38.122,22.01,15.884,9.171,38.122-22.01Z" fill="#fff" stroke="#000" stroke-linejoin="round" stroke-width="2" fill-rule="evenodd"/>
        </g>
        <g id="HATCH-68" data-name="HATCH">
          <path id="Path_12445" data-name="Path 12445" d="M517.7,1696.514v4.585l11.119-1.834,15.884-9.171,11.119-11.005V1674.5Z" fill="#fff" stroke="#000" stroke-linejoin="round" stroke-width="2" fill-rule="evenodd"/>
        </g>
        <g id="HATCH-69" data-name="HATCH">
          <path id="Path_12446" data-name="Path 12446" d="M519.461,1700.809v126.848l.191.318.2.311.212.3.223.3.233.289.243.281.252.272.261.263.27.254.279.245.287.235.295.225.3.215.31.2.316.194.323.183.329.172.335.16.34.149.345.137.349.125.353.113.357.1.36.088.363.076.366.063.368.051.369.038.37.026.371.013h.371l.371-.013.37-.026.369-.038.368-.051.366-.063.363-.076.36-.088.357-.1.353-.113.349-.125.345-.137.34-.149.335-.16.329-.172.323-.183.316-.194.31-.2.3-.215.295-.225.287-.235.279-.245.27-.254.261-.263.252-.272.243-.281.233-.289.223-.3.212-.3.2-.311.191-.318v-133.8l-9.36,5.4Z" fill="#fff" stroke="#000" stroke-linejoin="round" stroke-width="2" fill-rule="evenodd"/>
        </g>
      </g>
      <g id="Group_1398" data-name="Group 1398">
        <g id="HATCH-70" data-name="HATCH">
          <path id="Path_12447" data-name="Path 12447" d="M782.484,1543.642l-15.884-9.171v4.585l15.884,9.171Z" fill="#fff" stroke="#000" stroke-linejoin="round" stroke-width="2" fill-rule="evenodd"/>
        </g>
        <g id="HATCH-71" data-name="HATCH">
          <path id="Path_12448" data-name="Path 12448" d="M782.484,1543.642l38.122-22.01-15.884-9.171-38.122,22.01Z" fill="#fff" stroke="#000" stroke-linejoin="round" stroke-width="2" fill-rule="evenodd"/>
        </g>
        <g id="HATCH-72" data-name="HATCH">
          <path id="Path_12449" data-name="Path 12449" d="M782.484,1543.642v4.585l11.119-1.834,15.884-9.171,11.119-11.005v-4.585Z" fill="#fff" stroke="#000" stroke-linejoin="round" stroke-width="2" fill-rule="evenodd"/>
        </g>
        <g id="HATCH-73" data-name="HATCH">
          <path id="Path_12450" data-name="Path 12450" d="M802.963,1674.785v-133.8l-9.36,5.4-9.36,1.544v126.848l.191.318.2.311.212.3.223.3.233.289.243.281.252.272.261.263.27.254.279.245.287.235.295.225.3.215.31.2.317.194.323.183.329.172.335.16.34.149.345.137.349.125.353.113.357.1.36.088.363.076.366.063.368.051.369.038.37.025.371.013h.371l.371-.013.37-.025.369-.038.368-.051.366-.063.363-.076.36-.088.357-.1.354-.113.349-.125.345-.137.34-.149.335-.16.329-.172.323-.183.316-.194.31-.2.3-.215.295-.225.287-.235.279-.245.27-.254.261-.263.252-.272.243-.281.233-.289.223-.3.212-.3.2-.311Z" fill="#fff" stroke="#000" stroke-linejoin="round" stroke-width="2" fill-rule="evenodd"/>
        </g>
      </g>
    </g>
  </g>
</svg>
