<svg xmlns="http://www.w3.org/2000/svg" xmlns:xlink="http://www.w3.org/1999/xlink" width="1920" height="1080" viewBox="0 0 1920 1080">
  <defs>
    <clipPath id="clip-TU_IfA_-_E09_ISO_1">
      <rect width="1920" height="1080"/>
    </clipPath>
  </defs>
  <g id="TU_IfA_-_E09_ISO_1" data-name="TU IfA - E09 ISO – 1" clip-path="url(#clip-TU_IfA_-_E09_ISO_1)">
    <rect width="1920" height="1080" fill="transparent"/>
    <g id="Group_6701" data-name="Group 6701" transform="translate(20.036 -6.406)">
      <g id="_09_STAIR_DOWN" data-name="09_STAIR DOWN" transform="translate(1065.828 388.941)">
        <path id="Path_19293" data-name="Path 19293" d="M14583.547,1740.614l-43.969-25.3-8.625,5.043,43.8,25.34Z" transform="translate(-14530.953 -1487.387)" fill="#fff" stroke="#000" stroke-linejoin="round" stroke-width="2.288" fill-rule="evenodd"/>
        <path id="Path_19294" data-name="Path 19294" d="M14583.844,1729.977l8.8-5.064-43.969-25.34-8.641,5.084Z" transform="translate(-14531.277 -1486.837)" fill="#fff" stroke="#000" stroke-linejoin="round" stroke-width="2.288" fill-rule="evenodd"/>
        <path id="Path_19295" data-name="Path 19295" d="M14549.125,1688.9l43.813,25.318,8.8-5.062-43.969-25.32Z" transform="translate(-14531.617 -1486.305)" fill="#fff" stroke="#000" stroke-linejoin="round" stroke-width="2.288" fill-rule="evenodd"/>
        <path id="Path_19296" data-name="Path 19296" d="M14610.984,1693.431l-43.969-25.338-8.8,5.063,43.813,25.34Z" transform="translate(-14531.858 -1485.757)" fill="#fff" stroke="#000" stroke-linejoin="round" stroke-width="2.288" fill-rule="evenodd"/>
        <path id="Path_19297" data-name="Path 19297" d="M14619.906,1677.672l-43.812-25.32-8.781,5.064,43.8,25.32Z" transform="translate(-14532.198 -1485.21)" fill="#fff" stroke="#000" stroke-linejoin="round" stroke-width="2.288" fill-rule="evenodd"/>
        <path id="Path_19298" data-name="Path 19298" d="M14583.844,1730.141l-43.812-25.32v10.127l43.813,25.32Z" transform="translate(-14531.277 -1487.024)" stroke="#000" stroke-linejoin="round" stroke-width="2.288" fill-rule="evenodd"/>
        <path id="Path_19299" data-name="Path 19299" d="M14592.938,1714.418l-43.812-25.338v10.127l43.813,25.32Z" transform="translate(-14531.617 -1486.478)" stroke="#000" stroke-linejoin="round" stroke-width="2.288" fill-rule="evenodd"/>
        <path id="Path_19300" data-name="Path 19300" d="M14602.031,1698.66l-43.812-25.32v10.129l43.813,25.32Z" transform="translate(-14531.858 -1485.931)" stroke="#000" stroke-linejoin="round" stroke-width="2.288" fill-rule="evenodd"/>
        <path id="Path_19301" data-name="Path 19301" d="M14611.109,1682.938l-43.8-25.34v10.148l43.8,25.318Z" transform="translate(-14532.198 -1485.382)" stroke="#000" stroke-linejoin="round" stroke-width="2.288" fill-rule="evenodd"/>
        <path id="Path_19302" data-name="Path 19302" d="M14620.188,1667.178l-43.812-25.318v10.127l43.813,25.34Z" transform="translate(-14532.507 -1484.851)" stroke="#000" stroke-linejoin="round" stroke-width="2.288" fill-rule="evenodd"/>
        <path id="Path_19303" data-name="Path 19303" d="M14574.75,1745.9l-43.8-25.34v10.148l43.8,25.32Z" transform="translate(-14530.953 -1487.57)" stroke="#000" stroke-linejoin="round" stroke-width="2.288" fill-rule="evenodd"/>
        <path id="Path_19304" data-name="Path 19304" d="M14620.188,1667.016l8.8-5.064-43.812-25.34-8.8,5.064Z" transform="translate(-14532.507 -1484.663)" fill="#fff" stroke="#000" stroke-linejoin="round" stroke-width="2.288" fill-rule="evenodd"/>
        <path id="Path_19305" data-name="Path 19305" d="M14629.281,1651.255l8.8-5.063-43.812-25.32-8.8,5.064Z" transform="translate(-14532.847 -1484.116)" fill="#fff" stroke="#000" stroke-linejoin="round" stroke-width="2.288" fill-rule="evenodd"/>
        <path id="Path_19306" data-name="Path 19306" d="M14647.172,1630.461l-43.8-25.329-8.8,5.073,43.813,25.33Z" transform="translate(-14533.202 -1483.571)" fill="#fff" stroke="#000" stroke-linejoin="round" stroke-width="2.288" fill-rule="evenodd"/>
        <path id="Path_19307" data-name="Path 19307" d="M14656.406,1614.721l-43.812-25.33-8.937,5.074,43.8,25.329Z" transform="translate(-14533.428 -1483.023)" fill="#fff" stroke="#000" stroke-linejoin="round" stroke-width="2.288" fill-rule="evenodd"/>
        <path id="Path_19308" data-name="Path 19308" d="M14612.734,1578.725l43.813,25.311,8.8-5.055-43.812-25.329Z" transform="translate(-14533.762 -1482.49)" fill="#fff" stroke="#000" stroke-linejoin="round" stroke-width="2.288" fill-rule="evenodd"/>
        <path id="Path_19309" data-name="Path 19309" d="M14674.438,1583.239l-43.812-25.329-8.8,5.063,43.813,25.33Z" transform="translate(-14534.102 -1481.942)" fill="#fff" stroke="#000" stroke-linejoin="round" stroke-width="2.288" fill-rule="evenodd"/>
        <path id="Path_19310" data-name="Path 19310" d="M14674.734,1572.554l8.781-5.054-43.8-25.33-8.8,5.064Z" transform="translate(-14534.441 -1481.395)" fill="#fff" stroke="#000" stroke-linejoin="round" stroke-width="2.288" fill-rule="evenodd"/>
        <path id="Path_19311" data-name="Path 19311" d="M14640,1531.484l43.953,25.33,8.641-5.064-43.812-25.319Z" transform="translate(-14534.766 -1480.85)" fill="#fff" stroke="#000" stroke-linejoin="round" stroke-width="2.288" fill-rule="evenodd"/>
        <path id="Path_19312" data-name="Path 19312" d="M14701.844,1536.02l-43.812-25.33-8.953,5.064,43.969,25.319Z" transform="translate(-14534.991 -1480.302)" fill="#fff" stroke="#000" stroke-linejoin="round" stroke-width="2.288" fill-rule="evenodd"/>
        <path id="Path_19313" data-name="Path 19313" d="M14710.781,1520.27l-43.812-25.32-8.8,5.074,43.969,25.32Z" transform="translate(-14535.331 -1479.756)" fill="#fff" stroke="#000" stroke-linejoin="round" stroke-width="2.288" fill-rule="evenodd"/>
        <path id="Path_19314" data-name="Path 19314" d="M14667.266,1484.27l43.969,25.329,8.625-5.073-43.8-25.311Z" transform="translate(-14535.671 -1479.215)" fill="#fff" stroke="#000" stroke-linejoin="round" stroke-width="2.288" fill-rule="evenodd"/>
        <path id="Path_19315" data-name="Path 19315" d="M14629.281,1651.457l-43.812-25.339v10.147l43.813,25.319Z" transform="translate(-14532.847 -1484.302)" stroke="#000" stroke-linejoin="round" stroke-width="2.288" fill-rule="evenodd"/>
        <path id="Path_19316" data-name="Path 19316" d="M14638.391,1635.708l-43.812-25.33v10.138l43.813,25.33Z" transform="translate(-14533.202 -1483.757)" stroke="#000" stroke-linejoin="round" stroke-width="2.288" fill-rule="evenodd"/>
        <path id="Path_19317" data-name="Path 19317" d="M14647.453,1619.968l-43.8-25.329v10.118l43.8,25.329Z" transform="translate(-14533.428 -1483.211)" stroke="#000" stroke-linejoin="round" stroke-width="2.288" fill-rule="evenodd"/>
        <path id="Path_19318" data-name="Path 19318" d="M14656.547,1604.217l-43.812-25.32v10.128l43.813,25.32Z" transform="translate(-14533.762 -1482.663)" stroke="#000" stroke-linejoin="round" stroke-width="2.288" fill-rule="evenodd"/>
        <path id="Path_19319" data-name="Path 19319" d="M14665.641,1588.487l-43.812-25.33V1573.3l43.813,25.319Z" transform="translate(-14534.102 -1482.117)" stroke="#000" stroke-linejoin="round" stroke-width="2.288" fill-rule="evenodd"/>
        <path id="Path_19320" data-name="Path 19320" d="M14674.734,1572.737l-43.812-25.319v10.128l43.813,25.329Z" transform="translate(-14534.441 -1481.57)" stroke="#000" stroke-linejoin="round" stroke-width="2.288" fill-rule="evenodd"/>
        <path id="Path_19321" data-name="Path 19321" d="M14683.953,1557.007l-43.953-25.33V1541.8l43.953,25.33Z" transform="translate(-14534.766 -1481.036)" stroke="#000" stroke-linejoin="round" stroke-width="2.288" fill-rule="evenodd"/>
        <path id="Path_19322" data-name="Path 19322" d="M14693.047,1541.257l-43.969-25.319v10.128l43.969,25.329Z" transform="translate(-14534.991 -1480.49)" stroke="#000" stroke-linejoin="round" stroke-width="2.288" fill-rule="evenodd"/>
        <path id="Path_19323" data-name="Path 19323" d="M14702.141,1525.525l-43.969-25.33v10.138l43.969,25.32Z" transform="translate(-14535.331 -1479.942)" stroke="#000" stroke-linejoin="round" stroke-width="2.288" fill-rule="evenodd"/>
        <path id="Path_19324" data-name="Path 19324" d="M14711.234,1509.776l-43.969-25.32v10.118l43.969,25.33Z" transform="translate(-14535.671 -1479.396)" stroke="#000" stroke-linejoin="round" stroke-width="2.288" fill-rule="evenodd"/>
      </g>
      <path id="_09_BAU_UND_STADTBAU_FLOOR" data-name="09_BAU UND STADTBAU_FLOOR" d="M14068.617,1530.893l-263.484,151.958,207.734,119.926,262.859-151.742" transform="translate(-13439.997 -1092.064)" fill="#fff" fill-rule="evenodd"/>
      <g id="_09_BAU_UND_STADTBAU" data-name="09_BAU UND STADTBAU" transform="translate(365.136 438.829)">
        <path id="Path_19327" data-name="Path 19327" d="M14217.32,1700.332l-204.3,118.021-58.562-33.779-149.328-86.146V1688.3l149.328,86.146,58.563,33.76,204.3-118" transform="translate(-13805.133 -1536.34)" stroke="#000" stroke-linejoin="round" stroke-width="2.288" fill-rule="evenodd"/>
        <line id="Line_7299" data-name="Line 7299" y1="151.96" x2="263.303" transform="translate(0.001 0)" fill="none" stroke="#000" stroke-miterlimit="10" stroke-width="2.288"/>
      </g>
      <path id="_09_HISTORISCHE_BAU_FLOOR" data-name="09_HISTORISCHE BAU_FLOOR" d="M14284.992,1642.159l341.359-197.092,58.578-33.771,29.2-16.83-207.75-119.926-428.5,247.428m402.906,209.781" transform="translate(-13449.46 -1083.187)" fill="#fff" fill-rule="evenodd"/>
      <g id="_09_HISTORISCHE_BAU_HATCH_LINE" data-name="09_HISTORISCHE BAU_HATCH/LINE" transform="translate(628.86 191.352)">
        <path id="Path_19329" data-name="Path 19329" stroke="#000" d="M14078.3,1521.969l428.2-247.428,207.578,119.926-29.047,16.83" fill="none" transform="translate(-14078.305 -1274.541)" stroke-linecap="round" stroke-linejoin="round" stroke-width="2.288" fill-rule="evenodd"/>
        <path id="Path_19330" data-name="Path 19330" d="M14633.9,1451.179l-341.359,197.093,8.781,5.063,332.578-192.028Z" transform="translate(-14085.751 -1280.655)" stroke="#000" stroke-linecap="round" stroke-linejoin="round" stroke-width="2.288"/>
        <path id="Path_19326" data-name="Path 19326" d="M14706.734,1415.59l29.047-16.831v10.128l-20.422,11.777Z" transform="translate(-14100.089 -1278.839)" stroke="#000" stroke-linejoin="round" stroke-width="2.288" fill-rule="evenodd"/>
      </g>
      <g id="_00_ELEVATOR" data-name="00_ELEVATOR" transform="translate(909.964 102.406)">
        <path id="Path_20488" data-name="Path 20488" d="M960,152.989l58.455-33.749V897.6l-58.441,33.741Z" transform="translate(-930.772 -102.994)" fill="#fff" stroke="#000" stroke-linejoin="round" stroke-width="2" fill-rule="evenodd"/>
        <path id="Path_20489" data-name="Path 20489" d="M958.941,153.6l-29.227-16.874.012,778.355,29.227,16.874Z" transform="translate(-929.714 -103.605)" fill="#fff" stroke="#000" stroke-linejoin="round" stroke-width="2" fill-rule="evenodd"/>
        <path id="Path_20490" data-name="Path 20490" d="M929.714,135.547l29.227,16.874,58.49-33.76-28.377-16.256Z" transform="translate(-929.714 -102.406)" fill="#fff" stroke="#000" stroke-linejoin="round" stroke-width="2" fill-rule="evenodd"/>
        <line id="Line_7318" data-name="Line 7318" y2="32.609" transform="translate(59.341)" fill="none" stroke="#000" stroke-linecap="round" stroke-linejoin="round" stroke-width="2"/>
        <g id="_03_ELEVATOR_DOOR" data-name="03_ELEVATOR DOOR" transform="translate(2.668 440.801)">
          <path id="Path_19686" data-name="Path 19686" d="M4772.833,619.094V558.909l23.22,13.406V632.5Z" transform="translate(-4772.833 -558.909)" fill="#fff" stroke="#000" stroke-linejoin="round" stroke-width="1" fill-rule="evenodd"/>
          <path id="Path_19687" data-name="Path 19687" d="M4784.856,626.036V565.851l11.61,6.7v60.186Z" transform="translate(-4773.247 -559.148)" fill="#fff" stroke="#000" stroke-linejoin="round" stroke-width="1" fill-rule="evenodd"/>
          <path id="Path_19688" data-name="Path 19688" d="M4772.833,619.094V558.909l11.61,6.7V625.8Z" transform="translate(-4772.833 -558.909)" fill="#fff" stroke="#000" stroke-linejoin="round" stroke-width="1" fill-rule="evenodd"/>
        </g>
      </g>
      <path id="_09_Architekturtheorie" data-name="09_Architekturtheorie" d="M14202.023,1910.359l201.781,116.451,343.875-198.5L14545.9,1712.434Z" transform="translate(-13453.743 -1098.344)" fill="#fff" fill-rule="evenodd"/>
      <g id="_09_FLUR_02" data-name="09_FLUR 02" transform="translate(748.302 328.107)">
        <path id="Path_22950" data-name="Path 22950" d="M14232.07,1689.058l175.234,101.4,59.047-33.5-175.859-101.613" transform="translate(-13803.37 -1655.201)" fill="#fff" fill-rule="evenodd"/>
        <path id="Path_19336" data-name="Path 19336" stroke="#000" d="M14689.273,1416.2l175.391,101.338,29.359-17.625,201.625,117.207L14403.8,2016.555,14202.023,1900.1l204.3-117.934" fill="none" transform="translate(-14202.023 -1416.2)" stroke-linecap="round" stroke-linejoin="round" stroke-width="2.288" fill-rule="evenodd"/>
        <line id="Line_7302" data-name="Line 7302" x2="175.461" y2="101.303" transform="translate(428.732 33.768)" fill="#fff" stroke="#000" stroke-linecap="round" stroke-linejoin="round" stroke-width="2.288"/>
        <path id="Path_19337" data-name="Path 19337" stroke="#000" d="M14646.156,1451.179l175.391,101.309-8.8,5.055-18.047-10.462-148.547-85.773Z" transform="translate(-14217.456 -1417.409)" stroke-linecap="round" stroke-linejoin="round" stroke-width="2.288" fill-rule="evenodd"/>
      </g>
      <path id="_09_LIA_FLOOR" data-name="09_LIA_FLOOR" d="M14818.625,1554.3l-260.344,150.908,201.625,115.872,347.953-200.929-201.609-116.462-29.375,16.88" transform="translate(-13466.044 -1091.126)" fill="#fff" fill-rule="evenodd"/>
      <g id="_09_LIA_HATCH_LINE" data-name="09_LIA_HATCH/LINE" transform="translate(748.302 463.178)">
        <line id="Line_7303" data-name="Line 7303" y1="46.497" x2="80.705" transform="translate(263.192 150.907)" fill="none" stroke="#000" stroke-linecap="round" stroke-linejoin="round" stroke-width="2.288"/>
        <line id="Line_7304" data-name="Line 7304" y1="80.965" x2="140.235" transform="translate(463.959 0)" fill="none" stroke="#000" stroke-linecap="round" stroke-linejoin="round" stroke-width="2.288"/>
        <path id="Path_19339" data-name="Path 19339" d="M14411.336,2029.518l-7.531,4.4-40.828-23.592-102.375-59.08-58.578-33.779v-10.127l58.578,33.76,143.2,82.691,691.844-399.426v10.128Z" transform="translate(-14202.023 -1558.477)" stroke="#000" stroke-linejoin="round" stroke-width="2.288" fill-rule="evenodd"/>
      </g>
      <g id="_09_LIA_TEXT" data-name="09_LIA_TEXT" transform="translate(1530.026 391.347)">
        <path id="Path_19409" data-name="Path 19409" d="M15024.516,1549.345l22.3,12.847v12.13l-35.016-20.148v-72.466l12.719,7.321Z" transform="translate(-15011.797 -1481.707)"/>
        <path id="Path_19410" data-name="Path 19410" d="M15068.7,1587.071l-12.562-7.311V1507.3l12.563,7.312Z" transform="translate(-15013.372 -1482.599)"/>
        <path id="Path_19411" data-name="Path 19411" d="M15110.125,1596.486l-17.281-9.971-3.453,12.9-13.344-7.753,19.625-61.131,11.625,6.693,19.625,83.859-13.5-7.821Zm-14.453-20.579,11.625,6.781-5.969-29.226Z" transform="translate(-15013.983 -1483.392)"/>
      </g>
      <g id="_09_FLUR_01" data-name="09_FLUR 01" transform="translate(777.299 558.965)">
        <path id="Path_19334" data-name="Path 19334" d="M14232.07,1689.058l175.234,101.4,59.047-33.5-175.859-101.613" transform="translate(-14232.07 -1655.337)" fill="#fff" fill-rule="evenodd"/>
        <path id="Path_19335" data-name="Path 19335" stroke="#000" d="M14232.07,1690.272l175.234,101.4-8.469,4.967-18.375-10.58L14232.07,1700.4Z" transform="translate(-14232.07 -1656.541)" stroke-linecap="round" stroke-linejoin="round" stroke-width="2.288" fill-rule="evenodd"/>
        <line id="Line_7301" data-name="Line 7301" x2="175.829" y2="101.618" transform="translate(58.365 0)" fill="none" stroke="#000" stroke-linecap="round" stroke-miterlimit="10" stroke-width="2.288"/>
      </g>
      <g id="_09_WINDOW" data-name="09_WINDOW" transform="translate(1274.268 160.584)">
        <path id="Path_19343" data-name="Path 19343" d="M14770.719,1256.4l-23.859-13.729V1398.9l155.922,90.013V1332.7l-111.484-64.369Zm-20.25-7.527,20.25,11.669,20.578,11.934,5.8,3.308v147.954l-46.625-26.92Zm50.25,129.121v47.8l48.359,27.94V1305.793l-48.359-27.94v100.141Zm51.969-40.148V1455.8l46.641,26.91V1334.764l-11.937-6.841-8.641-5.073-26.062-15Z" transform="translate(-14746.859 -1242.67)" fill="#fff" stroke="#000" stroke-linejoin="round" stroke-width="1.144" fill-rule="evenodd"/>
      </g>
      <g id="_09_COLMUN_03" data-name="09_COLMUN 03" transform="translate(909.239 647.357)">
        <path id="Path_19344" data-name="Path 19344" d="M14386.172,1782.224l-17.422-10.146v5.064l17.422,10.146Z" transform="translate(-14368.75 -1747.769)" fill="#fff" stroke="#000" stroke-linejoin="round" stroke-width="2.288" fill-rule="evenodd"/>
        <path id="Path_19345" data-name="Path 19345" d="M14410.672,1746.9l-41.922,24.3,17.422,10.127,42.078-24.318Z" transform="translate(-14368.75 -1746.899)" fill="#fff" stroke="#000" stroke-linejoin="round" stroke-width="2.288" fill-rule="evenodd"/>
        <path id="Path_19346" data-name="Path 19346" d="M14386.914,1781.708v5.064l12.25-2.041,17.578-10.127,12.25-12.15v-5.064Z" transform="translate(-14369.406 -1747.257)" fill="#fff" stroke="#000" stroke-linejoin="round" stroke-width="2.288" fill-rule="evenodd"/>
        <path id="Path_19347" data-name="Path 19347" d="M14388.922,1787.208v140.084l.328.354.156.352.156.334.313.334.156.314.313.314.313.293.313.295.313.275.313.275.313.254.313.256.328.234.313.217.469.215.313.217.313.176.313.178.469.156.313.158.484.156.313.117.469.119.313.078.469.1.313.059.469.059.313.041.484.039h1.25l.469-.039.313-.041.469-.059.313-.059.484-.1.313-.078.469-.119.313-.117.469-.156.313-.158.313-.156.469-.178.313-.176.328-.217.469-.215.313-.217.313-.234.313-.256.313-.254.313-.275.313-.275.313-.295.328-.293.313-.314.156-.314.313-.334.156-.334.156-.352.313-.354V1779.534l-10.359,5.967Z" transform="translate(-14369.422 -1748.028)" fill="#fff" stroke="#000" stroke-linejoin="round" stroke-width="2.288" fill-rule="evenodd"/>
      </g>
      <g id="_09_COLMUN_02" data-name="09_COLMUN 02" transform="translate(1284.606 430.638)">
        <path id="Path_19348" data-name="Path 19348" d="M14775.156,1557.705l-17.594-10.118v5.064l17.594,10.118Z" transform="translate(-14757.563 -1523.279)" fill="#fff" stroke="#000" stroke-linejoin="round" stroke-width="2.288" fill-rule="evenodd"/>
        <path id="Path_19349" data-name="Path 19349" d="M14799.813,1522.407l-42.25,24.31,17.594,10.138,42.078-24.31Z" transform="translate(-14757.563 -1522.407)" fill="#fff" stroke="#000" stroke-linejoin="round" stroke-width="2.288" fill-rule="evenodd"/>
        <path id="Path_19350" data-name="Path 19350" d="M14775.75,1557.208v5.063l12.25-2.031,17.578-10.118,12.25-12.159V1532.9Z" transform="translate(-14758.242 -1522.766)" fill="#fff" stroke="#000" stroke-linejoin="round" stroke-width="2.288" fill-rule="evenodd"/>
        <path id="Path_19351" data-name="Path 19351" d="M14777.75,1562.729v140.093l.156.344.313.343.172.344.156.324.313.323.313.3.313.3.156.284.313.284.469.275.313.255.313.255.156.236.484.226.313.206.313.2.469.206.313.167.313.166.469.147.313.138.484.127.469.108.313.1.469.088.313.059.469.069.313.039.469.029.328.02h.469l.313-.02.469-.029.469-.039.469-.069.313-.059.469-.088.328-.1.469-.108.313-.127.469-.138.313-.147.313-.166.469-.167.313-.206.313-.2.484-.206.313-.226.156-.236.469-.255.313-.255.313-.275.313-.284.313-.284.313-.3.156-.3.328-.323.156-.324.313-.344.156-.343.156-.344V1555.044l-10.2,5.967Z" transform="translate(-14758.25 -1523.538)" fill="#fff" stroke="#000" stroke-linejoin="round" stroke-width="2.288" fill-rule="evenodd"/>
      </g>
      <g id="_09_COLMUN_01" data-name="09_COLMUN 01" transform="translate(534.615 411.466)">
        <path id="Path_19352" data-name="Path 19352" d="M13998.273,1537.854l-17.594-10.128v5.074l17.594,10.118Z" transform="translate(-13980.68 -1503.419)" fill="#fff" stroke="#000" stroke-linejoin="round" stroke-width="2.288" fill-rule="evenodd"/>
        <path id="Path_19353" data-name="Path 19353" d="M14022.914,1502.547l-42.234,24.309,17.594,10.138,42.078-24.309Z" transform="translate(-13980.68 -1502.547)" fill="#fff" stroke="#000" stroke-linejoin="round" stroke-width="2.288" fill-rule="evenodd"/>
        <path id="Path_19354" data-name="Path 19354" d="M13998.875,1537.338v5.064l12.078-2.021,17.594-10.128,12.406-12.16v-5.054Z" transform="translate(-13981.367 -1502.906)" fill="#fff" stroke="#000" stroke-linejoin="round" stroke-width="2.288" fill-rule="evenodd"/>
        <path id="Path_19355" data-name="Path 19355" d="M14000.859,1542.867v140.094l.313.344.313.353.156.334.156.324.313.323.313.3.156.3.328.285.313.284.313.275.313.265.313.245.313.235.469.227.313.206.313.206.328.187.469.187.313.156.469.147.313.138.469.127.313.108.469.1.328.089.469.068.469.06.313.039.469.039.313.01h.469l.313-.01.484-.039.469-.039.313-.06.469-.068.313-.089.469-.1.469-.108.313-.127.328-.138.469-.147.313-.156.469-.187.156-.187.469-.206.469-.206.156-.227.313-.235.484-.245.313-.265.313-.275.313-.284.156-.285.313-.3.313-.3.313-.323.156-.324.313-.334.156-.353.156-.344V1535.184l-10.359,5.977Z" transform="translate(-13981.359 -1503.677)" fill="#fff" stroke="#000" stroke-linejoin="round" stroke-width="2.288" fill-rule="evenodd"/>
      </g>
      <g id="_09_PARTICIAN_02" data-name="09_PARTICIAN 02" transform="translate(1092.2 474.825)">
        <path id="Path_19356" data-name="Path 19356" d="M14558.281,1707.439V1568.181l201.625,116.432v138.71Z" transform="translate(-14558.281 -1568.181)" fill="#fff" stroke="#000" stroke-linejoin="round" stroke-width="2.288" fill-rule="evenodd"/>
      </g>
      <g id="_09_PARTICIAN_01" data-name="09_PARTICIAN 01" transform="translate(627.468 299.567)">
        <path id="Path_19357" data-name="Path 19357" d="M14077.969,1525.9l-1.109-139.259,149.484,86.254v138.7Z" transform="translate(-14076.859 -1386.637)" fill="#fff" stroke="#000" stroke-linejoin="round" stroke-width="2.288" fill-rule="evenodd"/>
      </g>
      <g id="_09_ROOF" data-name="09_ROOF" transform="translate(380.158 109.858)">
        <path id="Path_19358" data-name="Path 19358" d="M14079.188,1192.382l233.953,135.059,62.344-2.247-233.969-135.069Z" transform="translate(-13829.62 -1190.124)" fill="#fff" stroke="#000" stroke-linejoin="round" stroke-width="2.288" fill-rule="evenodd"/>
        <path id="Path_19359" data-name="Path 19359" d="M14312.531,1327.525l-233.8-135.068-15.7,42.778,233.953,135.059Z" transform="translate(-13829.088 -1190.207)" fill="#fff" stroke="#000" stroke-linejoin="round" stroke-width="2.288" fill-rule="evenodd"/>
        <path id="Path_19360" data-name="Path 19360" d="M14294.7,1371.831l-233.953-135.068-62.344,2.247,233.969,135.068Z" transform="translate(-13826.83 -1191.741)" fill="#fff" stroke="#000" stroke-linejoin="round" stroke-width="2.288" fill-rule="evenodd"/>
        <path id="Path_19361" data-name="Path 19361" d="M13982.25,1281.863l233.969,135.068,15.547-42.769L13997.8,1239.095Z" transform="translate(-13826.288 -1191.822)" fill="#fff" stroke="#000" stroke-linejoin="round" stroke-width="2.288" fill-rule="evenodd"/>
        <path id="Path_19362" data-name="Path 19362" d="M14151.586,1420.717l62.344-2.258L13979.961,1283.4l-62.328,2.247Z" transform="translate(-13824.038 -1193.358)" fill="#fff" stroke="#000" stroke-linejoin="round" stroke-width="2.288" fill-rule="evenodd"/>
        <path id="Path_19363" data-name="Path 19363" d="M14135.422,1463.58l15.7-42.789-233.969-135.059-15.687,42.77Z" transform="translate(-13823.487 -1193.439)" fill="#fff" stroke="#000" stroke-linejoin="round" stroke-width="2.288" fill-rule="evenodd"/>
        <path id="Path_19364" data-name="Path 19364" d="M14070.82,1467.365l62.328-2.257L13899.2,1330.039l-62.344,2.248Z" transform="translate(-13821.237 -1194.963)" fill="#fff" stroke="#000" stroke-linejoin="round" stroke-width="2.288" fill-rule="evenodd"/>
        <path id="Path_19365" data-name="Path 19365" d="M13820.688,1375.149l233.969,135.068,15.547-42.769-233.969-135.079Z" transform="translate(-13820.688 -1195.043)" fill="#fff" stroke="#000" stroke-linejoin="round" stroke-width="2.288" fill-rule="evenodd"/>
      </g>
      <g id="_09_ARCHITEKTUR_THEORIE_TEXT" data-name="09_ARCHITEKTUR THEORIE_TEXT" transform="translate(950.008 705.063)">
        <path id="Path_19366" data-name="Path 19366" d="M14428.242,1975.967l-8.8,5.025-1.578,8.459-6.906,3.887,10.047-42.219,5.813-3.377,9.891,30.777-6.75,3.943Zm-7.391-1.924,5.969-3.414-2.984-11.326Z" transform="translate(-14410.961 -1811.56)"/>
        <path id="Path_19367" data-name="Path 19367" d="M14450.242,1957.381l-3.141,1.846v13.348l-6.437,3.689v-36.527l10.2-5.889c3.141-1.846,5.656-2.316,7.391-1.412,1.719.9,2.656,3.139,2.656,6.652a19.278,19.278,0,0,1-4.7,12.838l5.656,11.756v.354l-6.906,3.965Zm-3.141-4.318,3.453-2.08a6.419,6.419,0,0,0,2.984-3.121,10.573,10.573,0,0,0,.938-4.494c0-3.65-1.25-4.77-3.766-3.336l-3.609,2.158Z" transform="translate(-14412.018 -1811.012)"/>
        <path id="Path_19368" data-name="Path 19368" d="M14487.688,1936.949a23.674,23.674,0,0,1-3.141,11.227,20.806,20.806,0,0,1-7.859,7.773c-3.609,2.08-6.281,2.3-8.156.688-1.891-1.629-2.984-4.967-2.984-9.99V1940.5a29.825,29.825,0,0,1,2.984-13.307,21.52,21.52,0,0,1,8.156-8.834c3.453-1.982,6.125-2.375,7.859-1.178,1.875,1.178,2.984,3.789,3.141,7.813l-6.437,3.709c0-2.551-.312-4.121-1.109-4.75-.469-.607-1.719-.432-3.453.551a9.309,9.309,0,0,0-3.609,4.141,23.7,23.7,0,0,0-.937,7.479v6.908c0,3.633.156,5.908.938,6.852.625.941,1.891.941,3.609-.059a8.682,8.682,0,0,0,3.453-3.416,13.283,13.283,0,0,0,1.109-5.752Z" transform="translate(-14412.826 -1810.476)"/>
        <path id="Path_19369" data-name="Path 19369" d="M14514.594,1933.373l-6.281,3.67V1921.42l-9.578,5.457V1942.5l-6.281,3.67v-36.508l6.281-3.689v14.76l9.578-5.436v-14.781l6.281-3.67Z" transform="translate(-14413.775 -1809.787)"/>
        <path id="Path_19370" data-name="Path 19370" d="M14527.3,1926.32l-6.281,3.67v-36.527l6.281-3.67Z" transform="translate(-14414.78 -1809.548)"/>
        <path id="Path_19371" data-name="Path 19371" d="M14553.688,1880.492l-7.859,4.514v30.365l-6.281,3.709V1888.7l-7.844,4.436v-6.145l21.984-12.66Z" transform="translate(-14415.124 -1809.016)"/>
        <path id="Path_19372" data-name="Path 19372" d="M14574.406,1883.045l-9.891,5.752v9.7l11.781-6.811v6.125l-18.062,10.48V1871.76l18.063-10.461v6.143l-11.781,6.791v8.617l9.891-5.732Z" transform="translate(-14416.1 -1808.569)"/>
        <path id="Path_19373" data-name="Path 19373" d="M14589.781,1875.9l-2.516,5.123v10.424l-6.437,3.689v-36.527l6.438-3.689v15.938l2.047-5.1,5.969-15.389,7.688-4.514-9.094,21.275,9.25,15.152-7.531,4.377Z" transform="translate(-14416.809 -1808.029)"/>
        <path id="Path_19374" data-name="Path 19374" d="M14626.828,1838.246l-7.844,4.516v30.363l-6.594,3.709v-30.383l-7.547,4.455v-6.162l21.984-12.641Z" transform="translate(-14417.644 -1807.548)"/>
        <path id="Path_19375" data-name="Path 19375" d="M14651.813,1817.6v25.281a18.978,18.978,0,0,1-2.672,10.283,20.307,20.307,0,0,1-7.687,7.459c-3.3,1.943-5.969,2.434-7.7,1.414-1.719-1-2.672-3.436-2.672-7.3v-25.1l6.281-3.709v25.123c0,2.08.313,3.4.953,3.945.625.549,1.719.393,3.141-.49a6.706,6.706,0,0,0,3.141-3.121,10.55,10.55,0,0,0,.938-4.828v-25.262Z" transform="translate(-14418.617 -1807.047)"/>
        <path id="Path_19376" data-name="Path 19376" d="M14667.3,1832.065l-3.141,1.826v13.367l-6.437,3.67v-36.508l10.359-5.889c3.141-1.846,5.656-2.316,7.219-1.414q2.836,1.356,2.828,6.654a20.01,20.01,0,0,1-4.7,12.816l5.484,11.777v.334l-6.75,3.965Zm-3.141-4.318,3.609-2.08a7.315,7.315,0,0,0,2.984-3.141,13.41,13.41,0,0,0,.781-4.475c0-3.65-1.094-4.77-3.609-3.336l-3.766,2.139Z" transform="translate(-14419.496 -1806.673)"/>
        <path id="Path_19377" data-name="Path 19377" d="M14539.375,1931.014l-7.859,4.514v30.385l-6.594,3.689v-30.385l-7.531,4.457v-6.164l21.984-12.641Z" transform="translate(-14414.64 -1810.768)"/>
        <path id="Path_19378" data-name="Path 19378" d="M14566.172,1945.936l-6.437,3.67v-15.623l-9.266,5.438v15.643l-6.594,3.689v-36.527l6.594-3.689v14.779l9.266-5.457v-14.779l6.438-3.67Z" transform="translate(-14415.559 -1810.227)"/>
        <path id="Path_19379" data-name="Path 19379" d="M14588.5,1917.271l-9.891,5.73v9.7l11.781-6.811v6.123l-18.219,10.482v-36.508l18.063-10.482v6.164l-11.625,6.771v8.635l9.891-5.75Z" transform="translate(-14416.504 -1809.751)"/>
        <path id="Path_19380" data-name="Path 19380" d="M14617,1901.68a27.674,27.674,0,0,1-2.984,13.15,20.351,20.351,0,0,1-8.328,8.891c-3.609,2.043-6.437,2.3-8.312.785-2.047-1.51-3.141-4.67-3.141-9.5v-6.242a28.984,28.984,0,0,1,2.984-13.484,21.261,21.261,0,0,1,8.469-9.068c3.469-2.041,6.281-2.258,8.328-.648,2.047,1.59,2.984,4.889,2.984,9.873Zm-6.281-2.434c0-3.3-.469-5.516-1.25-6.635-.8-1.158-2.047-1.217-3.781-.234a8.516,8.516,0,0,0-3.766,4.494,21.713,21.713,0,0,0-1.25,7.791v6.5c0,3.2.313,5.3,1.25,6.34.781,1.039,2.047,1.059,3.766.059a8.188,8.188,0,0,0,3.625-4.357,17.622,17.622,0,0,0,1.406-7.6Z" transform="translate(-14417.28 -1809.365)"/>
        <path id="Path_19381" data-name="Path 19381" d="M14632.219,1894.6l-3.3,1.846v13.328l-6.281,3.709v-36.547l10.047-5.869c3.3-1.865,5.656-2.336,7.531-1.414,1.734.9,2.516,3.121,2.516,6.654a19.138,19.138,0,0,1-4.547,12.838l5.641,11.736v.354l-6.906,3.965Zm-3.3-4.318,3.609-2.08a6.246,6.246,0,0,0,2.828-3.121,8.733,8.733,0,0,0,1.094-4.475q0-5.5-3.766-3.355l-3.766,2.158Z" transform="translate(-14418.335 -1808.839)"/>
        <path id="Path_19382" data-name="Path 19382" d="M14654.688,1895.049l-6.281,3.689v-36.527l6.281-3.709Z" transform="translate(-14419.134 -1808.469)"/>
        <path id="Path_19383" data-name="Path 19383" d="M14676.938,1866.2l-10.047,5.752v9.676l11.938-6.791v6.123l-18.219,10.482v-36.527l18.047-10.463v6.145l-11.766,6.771v8.637l10.047-5.752Z" transform="translate(-14419.6 -1807.976)"/>
      </g>
      <g id="_09_BAU_UND_STADTBAU_TEXT" data-name="09_BAU UND STADTBAU_TEXT" transform="translate(570.765 521.052)">
        <path id="Path_19384" data-name="Path 19384" d="M14019.984,1736.029v-32.406l8.641-5c2.828-1.687,5.188-2.238,6.594-1.59,1.578.607,2.359,2.375,2.359,5.3a12.676,12.676,0,0,1-.937,4.789,13.1,13.1,0,0,1-2.516,4.1,2.524,2.524,0,0,1,2.828.824,5.911,5.911,0,0,1,1.094,4.043,16.522,16.522,0,0,1-2.2,8.42,18.622,18.622,0,0,1-6.594,6.164Zm5.656-22.121,2.828-1.707a6.21,6.21,0,0,0,3.453-5.908c0-1.473-.312-2.375-.781-2.709-.469-.354-1.25-.176-2.516.492l-2.984,1.746Zm0,4.77v8.656l3.609-2.08a5.562,5.562,0,0,0,2.2-2.434,6.671,6.671,0,0,0,.781-3.553c0-2.906-.781-3.887-2.672-2.906Z" transform="translate(-14019.189 -1617.887)"/>
        <path id="Path_19385" data-name="Path 19385" d="M14056.266,1708.415l-7.7,4.477-1.562,7.5-5.969,3.455,8.8-37.469,5.172-3,8.8,27.322-5.969,3.494Zm-6.437-1.707,5.328-3.023-2.656-10.029Z" transform="translate(-14019.843 -1617.423)"/>
        <path id="Path_19386" data-name="Path 19386" d="M14085.3,1665.8v22.434a19.644,19.644,0,0,1-2.344,9.127,18.638,18.638,0,0,1-6.922,6.615c-2.984,1.727-5.328,2.139-6.906,1.256-1.562-.9-2.359-3.043-2.359-6.477v-22.3l5.656-3.3v22.316c0,1.846.313,3,.781,3.494.484.49,1.578.334,2.828-.432a6.157,6.157,0,0,0,2.828-2.768,10.8,10.8,0,0,0,.8-4.3v-22.414Z" transform="translate(-14020.815 -1616.825)"/>
        <path id="Path_19387" data-name="Path 19387" d="M14099.922,1679.244l-9.406,5.438v-5.262l9.406-5.436Z" transform="translate(-14021.583 -1617.102)"/>
        <path id="Path_19388" data-name="Path 19388" d="M14132.961,1638.287v22.436a17.691,17.691,0,0,1-2.359,9.127,18.883,18.883,0,0,1-6.75,6.613c-3.141,1.729-5.344,2.16-7.062,1.258-1.578-.885-2.359-3.043-2.359-6.479v-22.277l5.813-3.3v22.316c0,1.826.156,2.984.781,3.494.469.471,1.422.334,2.828-.432a8.073,8.073,0,0,0,2.828-2.787,10.93,10.93,0,0,0,.625-4.279v-22.414Z" transform="translate(-14022.425 -1615.87)"/>
        <path id="Path_19389" data-name="Path 19389" d="M14157.672,1656.385l-5.656,3.277-8.312-16.487v21.276l-5.656,3.259V1635.3l5.656-3.278,8.313,16.487v-21.276l5.656-3.258Z" transform="translate(-14023.264 -1615.375)"/>
        <path id="Path_19390" data-name="Path 19390" d="M14163.078,1653.462v-32.415l7.375-4.289c3.3-1.895,5.969-2.2,7.859-.923,2.031,1.286,2.984,4,2.984,8.175v5.241a24.671,24.671,0,0,1-2.828,11.718,22.648,22.648,0,0,1-8.016,8.293Zm5.656-30.237v21.522l1.719-.972a9.542,9.542,0,0,0,3.938-4.033,15.3,15.3,0,0,0,1.25-6.664v-5.633c0-3.013-.312-4.917-1.094-5.692-.641-.766-2.047-.677-3.781.274Z" transform="translate(-14024.123 -1615.063)"/>
        <path id="Path_19391" data-name="Path 19391" d="M14032.008,1757.689c0-1.314-.312-2.158-.953-2.492a5.509,5.509,0,0,0-3.141-.256c-2.812.393-5.016.1-6.109-.824-1.266-.941-1.891-2.551-1.891-4.809a15.632,15.632,0,0,1,2.516-8.027,18.2,18.2,0,0,1,6.438-6.184,8.844,8.844,0,0,1,4.547-1.393,3.726,3.726,0,0,1,3.141,1.766,7.812,7.812,0,0,1,1.109,4.574l-5.656,3.258c0-1.512-.312-2.512-.953-2.984-.469-.471-1.25-.412-2.344.2a5.68,5.68,0,0,0-2.2,2.355,5.935,5.935,0,0,0-.937,3.219,2.019,2.019,0,0,0,.938,1.885,6.154,6.154,0,0,0,3.3.334c2.672-.434,4.719-.178,5.969.764s1.891,2.709,1.891,5.262a14.7,14.7,0,0,1-2.359,7.969,17.73,17.73,0,0,1-6.281,6.045,10.88,10.88,0,0,1-5.031,1.57,3.9,3.9,0,0,1-3.453-1.687,8.5,8.5,0,0,1-1.406-4.947l5.813-3.277c0,1.885.313,3.043.938,3.533s1.719.314,3.141-.51A5.943,5.943,0,0,0,14032.008,1757.689Z" transform="translate(-14019.133 -1619.163)"/>
        <path id="Path_19392" data-name="Path 19392" d="M14060.227,1722.7l-6.906,4v26.969l-5.656,3.277v-26.969l-6.906,3.945v-5.436l19.469-11.248Z" transform="translate(-14019.874 -1618.594)"/>
        <path id="Path_19393" data-name="Path 19393" d="M14075.234,1734.488l-7.859,4.455-1.406,7.5-5.969,3.453,8.641-37.469,5.172-3,8.953,27.322-6.125,3.494Zm-6.594-1.709,5.328-3.041-2.656-10.031Z" transform="translate(-14020.509 -1618.335)"/>
        <path id="Path_19394" data-name="Path 19394" d="M14086.32,1734.758v-32.406l7.391-4.277c3.3-1.885,5.953-2.2,7.844-.924s2.984,4,2.984,8.166v5.26a22.868,22.868,0,0,1-2.984,11.7,20.964,20.964,0,0,1-7.844,8.3Zm5.656-30.227v21.531l1.734-.961a10.01,10.01,0,0,0,4.078-4.043,18.34,18.34,0,0,0,1.094-6.654v-5.633c0-3.023-.312-4.928-1.094-5.693-.781-.785-1.891-.686-3.766.275Z" transform="translate(-14021.47 -1617.878)"/>
        <path id="Path_19395" data-name="Path 19395" d="M14127.578,1683.836l-7.062,4v26.949l-5.656,3.3v-26.967l-6.75,3.943v-5.455l19.469-11.248Z" transform="translate(-14022.169 -1617.25)"/>
        <path id="Path_19396" data-name="Path 19396" d="M14131.648,1708.581v-32.424l8.625-5.006c2.984-1.687,5.188-2.219,6.75-1.59,1.422.629,2.2,2.395,2.2,5.3a12.676,12.676,0,0,1-.937,4.789,16.452,16.452,0,0,1-2.516,4.1,2.48,2.48,0,0,1,2.828.824,6.9,6.9,0,0,1,1.094,4.063,15.427,15.427,0,0,1-2.344,8.42,17.427,17.427,0,0,1-6.437,6.164Zm5.641-22.141,2.984-1.707a6.338,6.338,0,0,0,3.3-5.889c0-1.471-.312-2.375-.781-2.729-.469-.332-1.406-.176-2.516.492l-2.984,1.746Zm0,4.77v8.656l3.625-2.08a6.092,6.092,0,0,0,2.344-2.434,8.489,8.489,0,0,0,.8-3.553c0-2.9-.953-3.867-2.828-2.885Z" transform="translate(-14023.028 -1616.936)"/>
        <path id="Path_19397" data-name="Path 19397" d="M14167.906,1680.976l-7.687,4.457-1.578,7.5-5.969,3.453,8.8-37.469,5.188-3,8.781,27.322-5.969,3.494Zm-6.437-1.707,5.188-3.043-2.516-10.029Z" transform="translate(-14023.767 -1616.473)"/>
        <path id="Path_19398" data-name="Path 19398" d="M14196.953,1638.34v22.434a18.117,18.117,0,0,1-9.25,15.742c-2.984,1.727-5.344,2.158-6.922,1.256-1.562-.883-2.344-3.062-2.344-6.477V1649l5.641-3.279v22.316c0,1.826.313,2.984.953,3.494.469.471,1.25.334,2.672-.451a6.1,6.1,0,0,0,2.813-2.768,10.618,10.618,0,0,0,.641-4.279V1641.6Z" transform="translate(-14024.664 -1615.872)"/>
        <path id="Path_19399" data-name="Path 19399" d="M14039.172,1795.313a25.1,25.1,0,0,1-4.078,5.4,23.766,23.766,0,0,1-5.187,4.043q-4.945,2.8-7.531.883-2.6-1.913-2.828-8.479v-5.83a25.65,25.65,0,0,1,2.672-11.8,17.293,17.293,0,0,1,7.375-7.869c2.984-1.768,5.344-2.219,6.906-1.395,1.422.863,2.359,3.063,2.672,6.635l-5.656,3.18c0-1.963-.469-3.16-.937-3.572-.625-.412-1.562-.256-2.828.49a7.152,7.152,0,0,0-3.3,3.848,16.546,16.546,0,0,0-1.094,6.791v5.869c0,2.963.313,4.887,1.094,5.789s2.047.844,3.766-.156a8.136,8.136,0,0,0,2.672-2.355l.469-.687v-5.947l-3.766,2.3V1787.5l9.578-5.574Z" transform="translate(-14019.145 -1620.42)"/>
        <path id="Path_19400" data-name="Path 19400" d="M14058.367,1773.727l-8.8,5.1v8.6l10.516-6.025v5.418l-16.172,9.322v-32.4l16.172-9.3v5.457l-10.516,6.006v7.676l8.8-5.1Z" transform="translate(-14019.938 -1619.891)"/>
        <path id="Path_19401" data-name="Path 19401" d="M14075.852,1769.266q0-1.975-.937-2.475a5.5,5.5,0,0,0-3.141-.273c-2.828.412-4.875.137-6.125-.824-1.266-.943-1.891-2.533-1.891-4.791a14.48,14.48,0,0,1,2.672-8.027,17.71,17.71,0,0,1,6.281-6.162,8.7,8.7,0,0,1,4.547-1.414,3.755,3.755,0,0,1,3.141,1.748,7.765,7.765,0,0,1,1.109,4.572l-5.656,3.277a4.362,4.362,0,0,0-.781-2.982c-.641-.471-1.422-.393-2.516.215a5.638,5.638,0,0,0-2.2,2.336,5.876,5.876,0,0,0-.937,3.2,2.14,2.14,0,0,0,1.094,1.9,5.307,5.307,0,0,0,3.141.334c2.828-.451,4.719-.178,5.969.766,1.266.941,1.891,2.689,1.891,5.26a14.749,14.749,0,0,1-2.359,7.969,17.9,17.9,0,0,1-6.281,6.045,10.376,10.376,0,0,1-5.031,1.57,4.313,4.313,0,0,1-3.453-1.687,8.553,8.553,0,0,1-1.25-4.945l5.656-3.279q0,2.8.938,3.533c.625.471,1.734.295,3.141-.51A5.94,5.94,0,0,0,14075.852,1769.266Z" transform="translate(-14020.658 -1619.568)"/>
        <path id="Path_19402" data-name="Path 19402" d="M14105.008,1750.072a18.873,18.873,0,0,1-2.672,9.951,18.039,18.039,0,0,1-6.906,6.91c-3.141,1.824-5.656,2.021-7.375.588-1.734-1.432-2.516-4.4-2.516-8.852v-5.457a25.792,25.792,0,0,1,2.672-11.816,17.4,17.4,0,0,1,7.375-7.811c2.984-1.768,5.344-2.141,6.906-1.08,1.578,1.061,2.516,3.377,2.672,6.949l-5.656,3.3c-.156-2.277-.469-3.67-.937-4.221-.469-.529-1.578-.373-2.984.492a7.053,7.053,0,0,0-3.3,3.689,18.174,18.174,0,0,0-1.094,6.613v6.125c0,3.219.313,5.24,1.094,6.084.625.844,1.719.844,3.141-.039a7.381,7.381,0,0,0,3.141-3.043,13.99,13.99,0,0,0,.781-5.1Z" transform="translate(-14021.483 -1619.107)"/>
        <path id="Path_19403" data-name="Path 19403" d="M14129.023,1746.875l-5.484,3.258v-13.857l-8.328,4.809v13.877l-5.812,3.277v-32.4l5.813-3.279v13.111l8.328-4.828v-13.111l5.484-3.258Z" transform="translate(-14022.261 -1618.507)"/>
        <path id="Path_19404" data-name="Path 19404" d="M14140.422,1740.631l-5.641,3.258v-32.4l5.641-3.277Z" transform="translate(-14023.178 -1618.288)"/>
        <path id="Path_19405" data-name="Path 19405" d="M14164.656,1715.725a24.527,24.527,0,0,1-2.672,9.951,19.643,19.643,0,0,1-7.062,6.91c-3.3,1.824-5.656,2.021-7.375.588-1.578-1.434-2.516-4.4-2.516-8.852v-5.457a25.792,25.792,0,0,1,2.672-11.816,18.9,18.9,0,0,1,7.219-7.811c3.141-1.768,5.344-2.141,7.063-1.08,1.578,1.061,2.359,3.395,2.672,6.947l-5.656,3.3c0-2.277-.312-3.672-.937-4.221-.625-.529-1.562-.373-3.141.49a7.554,7.554,0,0,0-3.141,3.691,18.617,18.617,0,0,0-.937,6.613v6.125c0,3.219.313,5.26.781,6.084.625.844,1.734.844,3.3-.039a6.951,6.951,0,0,0,2.984-3.043,13.145,13.145,0,0,0,1.094-5.1Z" transform="translate(-14023.486 -1617.919)"/>
        <path id="Path_19406" data-name="Path 19406" d="M14188.539,1712.526l-5.656,3.258v-13.857l-8.328,4.809v13.877l-5.656,3.277v-32.4l5.656-3.279v13.111l8.328-4.828v-13.111l5.656-3.258Z" transform="translate(-14024.271 -1617.319)"/>
        <path id="Path_19407" data-name="Path 19407" d="M14211.727,1672.317l-7.062,4v26.969l-5.656,3.277V1679.6l-6.906,3.945v-5.455l19.625-11.229Z" transform="translate(-14025.099 -1616.854)"/>
        <path id="Path_19408" data-name="Path 19408" d="M14230.078,1674.609l-8.641,5.084v8.6l10.359-6.025v5.436l-16.172,9.285V1664.58l16.016-9.283v5.457l-10.2,6.006v7.674l8.641-5.123Z" transform="translate(-14025.942 -1616.455)"/>
      </g>
      <g id="_09_HIST_TEXT" data-name="09_HIST_TEXT" transform="translate(998.203 290.7)">
        <path id="Path_19412" data-name="Path 19412" d="M14474.453,1502.4l-3.625,2.042v-8.666l-5.172,3.022v8.666l-3.609,2.051v-20.266l3.609-2.041v8.194l5.172-3.022v-8.194l3.625-2.042Z" transform="translate(-14461.949 -1380.113)"/>
        <path id="Path_19413" data-name="Path 19413" d="M14481.359,1498.484l-3.453,2.052V1480.28l3.453-2.052Z" transform="translate(-14462.488 -1379.98)"/>
        <path id="Path_19414" data-name="Path 19414" d="M14491.969,1486.959c0-.834-.156-1.345-.469-1.561a3.837,3.837,0,0,0-2.047-.167c-1.719.246-2.984.089-3.766-.51a3.5,3.5,0,0,1-1.094-3,8.852,8.852,0,0,1,1.563-5.016,9.852,9.852,0,0,1,3.922-3.856,5.6,5.6,0,0,1,2.984-.873,2.288,2.288,0,0,1,1.891,1.1,5.06,5.06,0,0,1,.625,2.855l-3.453,2.042c0-.942-.156-1.57-.625-1.865-.312-.284-.781-.245-1.422.138a3.379,3.379,0,0,0-1.406,1.462,3.185,3.185,0,0,0-.625,2,1.13,1.13,0,0,0,.625,1.168,3.586,3.586,0,0,0,2.047.226c1.719-.274,2.813-.127,3.609.472.938.6,1.25,1.7,1.25,3.3a9.482,9.482,0,0,1-1.406,4.977,12.347,12.347,0,0,1-4.094,3.778,5.83,5.83,0,0,1-2.984.98,2.521,2.521,0,0,1-2.187-1.06,4.479,4.479,0,0,1-.781-3.081l3.453-2.052a3.142,3.142,0,0,0,.625,2.2c.469.3,1.094.206,1.875-.323A3.549,3.549,0,0,0,14491.969,1486.959Z" transform="translate(-14462.643 -1379.764)"/>
        <path id="Path_19415" data-name="Path 19415" d="M14509.719,1465.089l-4.391,2.5v16.851l-3.609,2.051v-16.851l-4.094,2.463V1468.7l12.094-7.017Z" transform="translate(-14463.109 -1379.399)"/>
        <path id="Path_19416" data-name="Path 19416" d="M14524.391,1465.314a15.811,15.811,0,0,1-1.734,7.292,11.993,11.993,0,0,1-4.547,4.926c-2.047,1.148-3.609,1.3-4.719.452-1.094-.834-1.719-2.591-1.719-5.261v-3.474a14.827,14.827,0,0,1,1.719-7.479,11.123,11.123,0,0,1,4.563-5.024c2.031-1.129,3.453-1.257,4.7-.363,1.094.883,1.734,2.709,1.734,5.477Zm-3.609-1.345c0-1.815-.172-3.042-.8-3.68-.312-.639-1.094-.668-2.031-.128a4.849,4.849,0,0,0-2.047,2.493,15.176,15.176,0,0,0-.781,4.327v3.6a5.95,5.95,0,0,0,.781,3.523c.469.569,1.094.579,2.2.02a4.526,4.526,0,0,0,1.875-2.414,8.4,8.4,0,0,0,.8-4.21Z" transform="translate(-14463.633 -1379.193)"/>
        <path id="Path_19417" data-name="Path 19417" d="M14532.609,1461.394l-1.719,1.021v7.391l-3.453,2.051v-20.246l5.484-3.277c1.734-1.021,3.141-1.276,4.25-.775.938.51,1.25,1.736,1.25,3.689a11.39,11.39,0,0,1-2.359,7.125l2.984,6.517v.187l-3.766,2.2Zm-1.719-2.395,2.031-1.147a4.15,4.15,0,0,0,1.578-1.747,6.306,6.306,0,0,0,.469-2.474c0-2.041-.625-2.659-2.047-1.864l-2.031,1.2Z" transform="translate(-14464.177 -1378.899)"/>
        <path id="Path_19418" data-name="Path 19418" d="M14545.344,1461.634l-3.609,2.052v-20.246l3.609-2.062Z" transform="translate(-14464.646 -1378.702)"/>
        <path id="Path_19419" data-name="Path 19419" d="M14555.8,1450.1c0-.814-.156-1.325-.469-1.551a4.105,4.105,0,0,0-2.047-.157,5.154,5.154,0,0,1-3.766-.51,3.571,3.571,0,0,1-1.25-3,8.859,8.859,0,0,1,1.563-5.025,12.694,12.694,0,0,1,4.078-3.847,5.433,5.433,0,0,1,2.828-.883,2.417,2.417,0,0,1,2.047,1.1,6.847,6.847,0,0,1,.625,2.866l-3.609,2.041a2.629,2.629,0,0,0-.469-1.865c-.312-.3-.781-.255-1.422.118a3.075,3.075,0,0,0-1.562,1.472,4.421,4.421,0,0,0-.469,2.013,1.137,1.137,0,0,0,.625,1.167,3.374,3.374,0,0,0,2.047.217,5.088,5.088,0,0,1,3.766.48,4.457,4.457,0,0,1,1.094,3.3A11.258,11.258,0,0,1,14558,1453a12.092,12.092,0,0,1-4.094,3.759,6.131,6.131,0,0,1-2.984.991,2.34,2.34,0,0,1-2.187-1.051,4.4,4.4,0,0,1-.8-3.081l3.625-2.062a3.35,3.35,0,0,0,.469,2.208c.313.3,1.094.187,1.875-.323A3.559,3.559,0,0,0,14555.8,1450.1Z" transform="translate(-14464.883 -1378.487)"/>
        <path id="Path_19420" data-name="Path 19420" d="M14574.2,1438.1a15.552,15.552,0,0,1-1.734,6.231,12.249,12.249,0,0,1-4.391,4.3c-1.891,1.138-3.625,1.275-4.562.373-1.094-.894-1.562-2.738-1.562-5.535v-3.406a15.858,15.858,0,0,1,1.563-7.37,12.013,12.013,0,0,1,4.563-4.9c1.875-1.1,3.453-1.325,4.391-.668s1.578,2.11,1.734,4.348l-3.625,2.052c0-1.424-.156-2.3-.625-2.641q-.469-.5-1.875.295a3.986,3.986,0,0,0-1.891,2.315,13.015,13.015,0,0,0-.781,4.142v3.828c0,2.012.156,3.287.625,3.808.313.52,1.094.51,2.047-.039a4.149,4.149,0,0,0,1.875-1.895,12.211,12.211,0,0,0,.625-3.189Z" transform="translate(-14465.375 -1378.195)"/>
        <path id="Path_19421" data-name="Path 19421" d="M14589.266,1436.123l-3.609,2.031v-8.676l-5.187,3.022v8.666l-3.609,2.051v-20.256l3.609-2.051v8.194l5.188-3.022v-8.194l3.609-2.031Z" transform="translate(-14465.854 -1377.811)"/>
        <path id="Path_19422" data-name="Path 19422" d="M14601.641,1420.209l-5.484,3.18v5.378l6.438-3.769v3.4l-10.062,5.811v-20.266l10.063-5.79v3.405l-6.437,3.759v4.789l5.484-3.189Z" transform="translate(-14466.403 -1377.55)"/>
        <path id="Path_19423" data-name="Path 19423" d="M14462.047,1532.484v-20.256l5.484-3.14c1.891-1.051,3.141-1.384,4.25-.991.781.383,1.406,1.491,1.406,3.307a9.8,9.8,0,0,1-.625,2.993,11.511,11.511,0,0,1-1.562,2.562,1.43,1.43,0,0,1,1.719.53,3.747,3.747,0,0,1,.781,2.522,10.075,10.075,0,0,1-1.562,5.27,12.447,12.447,0,0,1-3.922,3.837Zm3.609-13.827,1.875-1.07a4.178,4.178,0,0,0,2.047-3.7c0-.913-.156-1.473-.469-1.688s-.781-.107-1.578.3l-1.875,1.079Zm0,2.974v5.407l2.359-1.306a4.689,4.689,0,0,0,1.406-1.521,8.976,8.976,0,0,0,.469-2.208c0-1.815-.625-2.435-1.719-1.815Z" transform="translate(-14461.949 -1381.005)"/>
        <path id="Path_19424" data-name="Path 19424" d="M14484.773,1515.222l-4.859,2.777-.953,4.691-3.766,2.159,5.5-23.406,3.3-1.875,5.5,17.066-3.766,2.188Zm-4.078-1.069,3.3-1.895-1.719-6.28Z" transform="translate(-14462.368 -1380.717)"/>
        <path id="Path_19425" data-name="Path 19425" d="M14502.906,1488.588v14.023a10.094,10.094,0,0,1-1.578,5.7,10.606,10.606,0,0,1-4.234,4.132c-1.891,1.089-3.3,1.354-4.234.795-1.109-.56-1.578-1.914-1.578-4.054v-13.926l3.609-2.061v13.936a3.227,3.227,0,0,0,.484,2.188c.313.314.938.206,1.719-.274a3.634,3.634,0,0,0,1.734-1.728,10.036,10.036,0,0,0,.625-2.67v-14.014Z" transform="translate(-14462.929 -1380.331)"/>
        <path id="Path_19426" data-name="Path 19426" d="M14515.156,1493.545l-5.5,3.18v8.254l-3.609,2.051v-20.256l9.734-5.6v3.405l-6.125,3.553v5.2l5.5-3.18Z" transform="translate(-14463.475 -1380.075)"/>
        <path id="Path_19427" data-name="Path 19427" d="M14530.594,1484.609a15.8,15.8,0,0,1-1.562,7.292,12.511,12.511,0,0,1-4.719,4.927c-2.031,1.148-3.453,1.295-4.7.451-1.094-.834-1.734-2.6-1.734-5.26v-3.475a16.665,16.665,0,0,1,1.734-7.479,11.368,11.368,0,0,1,4.7-5.024c1.891-1.129,3.453-1.256,4.563-.373,1.094.894,1.719,2.709,1.719,5.486Zm-3.453-1.344a6.534,6.534,0,0,0-.781-3.681c-.469-.638-1.094-.677-2.047-.128a4.213,4.213,0,0,0-2.031,2.493,11.176,11.176,0,0,0-.8,4.328v3.592a5.821,5.821,0,0,0,.8,3.513c.313.589,1.094.6,2.031.04a4.782,4.782,0,0,0,2.047-2.414,10.607,10.607,0,0,0,.781-4.211Z" transform="translate(-14463.869 -1379.862)"/>
        <path id="Path_19428" data-name="Path 19428" d="M14538.813,1480.688l-1.578,1.011v7.4l-3.609,2.051V1470.9l5.656-3.277c1.719-1.021,3.141-1.276,4.078-.785.953.51,1.422,1.747,1.422,3.7a10.691,10.691,0,0,1-2.516,7.1l3.141,6.536v.187l-3.766,2.2Zm-1.578-2.395,1.891-1.168a3.2,3.2,0,0,0,1.563-1.728,6.429,6.429,0,0,0,.641-2.482c0-2.032-.8-2.65-2.2-1.855l-1.891,1.2Z" transform="translate(-14464.397 -1379.578)"/>
        <path id="Path_19429" data-name="Path 19429" d="M14555.25,1473.383c0-.814-.156-1.334-.625-1.55a3.58,3.58,0,0,0-2.047-.157,5.143,5.143,0,0,1-3.766-.511,3.472,3.472,0,0,1-1.109-3,10.23,10.23,0,0,1,1.578-5.015,12.163,12.163,0,0,1,3.922-3.857,5.885,5.885,0,0,1,2.984-.883,2.4,2.4,0,0,1,1.891,1.089,5.1,5.1,0,0,1,.781,2.876l-3.609,2.041a2.608,2.608,0,0,0-.469-1.864,1.372,1.372,0,0,0-1.578.117,3.513,3.513,0,0,0-1.406,1.473,4.417,4.417,0,0,0-.484,2,1.363,1.363,0,0,0,.484,1.178,3.824,3.824,0,0,0,2.031.216c1.734-.274,2.984-.118,3.766.48a3.877,3.877,0,0,1,1.266,3.3,8.338,8.338,0,0,1-1.578,4.976,10.274,10.274,0,0,1-3.922,3.769,6.286,6.286,0,0,1-3.141.981,2.767,2.767,0,0,1-2.2-1.05,5.52,5.52,0,0,1-.781-3.092l3.609-2.051c0,1.168.156,1.9.641,2.208.313.3.938.187,1.875-.324A3.558,3.558,0,0,0,14555.25,1473.383Z" transform="translate(-14464.876 -1379.29)"/>
        <path id="Path_19430" data-name="Path 19430" d="M14573.484,1461.386a15.406,15.406,0,0,1-1.719,6.212,12.347,12.347,0,0,1-4.406,4.318c-2.031,1.139-3.609,1.266-4.547.373-1.094-.9-1.578-2.738-1.578-5.535v-3.405a16,16,0,0,1,1.578-7.39,11.954,11.954,0,0,1,4.547-4.888c1.891-1.1,3.453-1.315,4.406-.657.938.657,1.563,2.1,1.719,4.338l-3.609,2.051a4.532,4.532,0,0,0-.469-2.63c-.469-.334-1.094-.236-2.047.294a4.99,4.99,0,0,0-2.031,2.316,14.382,14.382,0,0,0-.469,4.142v3.817a9.4,9.4,0,0,0,.469,3.817c.313.521,1.094.5,2.031-.039a4.159,4.159,0,0,0,1.891-1.895,6.04,6.04,0,0,0,.625-3.189Z" transform="translate(-14465.353 -1378.999)"/>
        <path id="Path_19431" data-name="Path 19431" d="M14588.25,1459.4l-3.453,2.031v-8.665l-5.172,3.022v8.665l-3.453,2.052v-20.266l3.453-2.042v8.2l5.172-3.022v-8.2l3.453-2.031Z" transform="translate(-14465.863 -1378.626)"/>
        <path id="Path_19432" data-name="Path 19432" d="M14603.313,1430.616v14.023a11.7,11.7,0,0,1-1.562,5.712,10.685,10.685,0,0,1-4.234,4.122c-1.891,1.1-3.3,1.354-4.406.795-.937-.56-1.406-1.914-1.406-4.054V1437.3l3.609-2.07v13.936a3.3,3.3,0,0,0,.469,2.188c.313.314.938.216,1.734-.265a4.365,4.365,0,0,0,1.719-1.737,6.346,6.346,0,0,0,.469-2.67v-14.014Z" transform="translate(-14466.37 -1378.322)"/>
        <path id="Path_19433" data-name="Path 19433" d="M14618.547,1441.93l-3.453,2.051-5.172-10.294v13.277l-3.453,2.052V1428.76l3.453-2.052,5.172,10.3v-13.3l3.453-2.041Z" transform="translate(-14466.915 -1378.02)"/>
        <path id="Path_19434" data-name="Path 19434" d="M14633.922,1430.881a14.878,14.878,0,0,1-2.516,3.366,12.722,12.722,0,0,1-3.3,2.542c-1.875,1.148-3.609,1.335-4.7.54-1.109-.795-1.578-2.562-1.578-5.29v-3.66a15.6,15.6,0,0,1,1.578-7.36,10.62,10.62,0,0,1,4.547-4.927c1.891-1.1,3.453-1.384,4.391-.854.953.52,1.422,1.9,1.578,4.131l-3.453,1.982c0-1.227-.156-1.973-.625-2.218-.469-.265-.953-.167-1.734.295a5.365,5.365,0,0,0-2.2,2.414,15.426,15.426,0,0,0-.469,4.239v3.681c0,1.835.156,3.042.625,3.6.484.56,1.266.54,2.359-.1a5.264,5.264,0,0,0,1.734-1.462l.313-.441v-3.7l-2.516,1.423V1426l5.969-3.494Z" transform="translate(-14467.456 -1377.791)"/>
        <path id="Path_19435" data-name="Path 19435" d="M14473.523,1528.436v14.024a10.1,10.1,0,0,1-1.578,5.7,10.6,10.6,0,0,1-4.234,4.131c-1.891,1.09-3.3,1.354-4.234.795-.953-.559-1.578-1.913-1.578-4.053v-13.926l3.609-2.062v13.937c0,1.157.156,1.894.484,2.188.313.313.938.226,1.719-.275a4.384,4.384,0,0,0,1.734-1.727,6.349,6.349,0,0,0,.469-2.67v-14.014Z" transform="translate(-14461.898 -1381.709)"/>
        <path id="Path_19436" data-name="Path 19436" d="M14488.9,1539.749l-3.453,2.051-5.187-10.295v13.278l-3.609,2.051v-20.256l3.609-2.051,5.188,10.314v-13.308l3.453-2.041Z" transform="translate(-14462.428 -1381.408)"/>
        <path id="Path_19437" data-name="Path 19437" d="M14492.3,1537.909v-20.256l4.563-2.669c2.2-1.178,3.766-1.384,5.016-.589,1.266.814,1.734,2.513,1.734,5.113v3.277a14.434,14.434,0,0,1-1.734,7.331,12.97,12.97,0,0,1-5.016,5.172Zm3.469-18.882v13.445l1.094-.618a5.515,5.515,0,0,0,2.516-2.513,9.838,9.838,0,0,0,.781-4.161v-3.522a7.39,7.39,0,0,0-.625-3.553c-.469-.491-1.266-.422-2.359.177Z" transform="translate(-14462.953 -1381.206)"/>
        <path id="Path_19438" data-name="Path 19438" d="M14512.641,1526.159V1505.9l5.484-3.13c1.734-1.061,3.141-1.394,4.25-1,.781.392,1.25,1.491,1.25,3.307a9.7,9.7,0,0,1-.469,3,11.762,11.762,0,0,1-1.562,2.562,1.5,1.5,0,0,1,1.719.521,4.981,4.981,0,0,1,.625,2.522,9.96,9.96,0,0,1-1.406,5.27,12.581,12.581,0,0,1-3.922,3.847Zm3.609-13.827,1.719-1.07a4,4,0,0,0,2.2-3.689c0-.923-.156-1.482-.469-1.708a1.609,1.609,0,0,0-1.578.314l-1.875,1.079Zm0,2.974v5.407l2.359-1.306a3.14,3.14,0,0,0,1.25-1.521,5.059,5.059,0,0,0,.625-2.208c0-1.816-.625-2.425-1.719-1.816Z" transform="translate(-14463.699 -1380.786)"/>
        <path id="Path_19439" data-name="Path 19439" d="M14535.2,1508.9l-4.859,2.787-.953,4.691-3.609,2.158,5.344-23.426,3.3-1.864,5.5,17.076-3.766,2.188Zm-4.078-1.069,3.3-1.885-1.719-6.281Z" transform="translate(-14464.11 -1380.497)"/>
        <path id="Path_19440" data-name="Path 19440" d="M14553.344,1482.26v14.024a11.409,11.409,0,0,1-1.422,5.712,11.017,11.017,0,0,1-4.391,4.121c-1.891,1.09-3.141,1.364-4.234.8-.953-.559-1.422-1.923-1.422-4.053v-13.926l3.609-2.07v13.936c0,1.158,0,1.884.484,2.188.313.313.781.216,1.563-.266a3.991,3.991,0,0,0,1.891-1.736,6.645,6.645,0,0,0,.313-2.67v-14.014Z" transform="translate(-14464.688 -1380.119)"/>
        <path id="Path_19441" data-name="Path 19441" d="M14556.641,1500.778v-20.256l4.7-2.68c1.891-1.187,3.625-1.374,4.875-.579,1.094.795,1.719,2.5,1.891,5.1v3.278a14.6,14.6,0,0,1-1.891,7.321,14.044,14.044,0,0,1-5.031,5.191Zm3.609-18.9v13.454l.938-.608a6.372,6.372,0,0,0,2.516-2.521,9.789,9.789,0,0,0,.781-4.151v-3.523c0-1.884-.156-3.081-.781-3.562-.312-.49-1.094-.432-2.2.167Z" transform="translate(-14465.234 -1379.926)"/>
        <path id="Path_19442" data-name="Path 19442" d="M14580.172,1478.369l-5.484,3.18v5.368l6.594-3.778v3.405l-10.2,5.81V1472.1l10.047-5.79v3.405l-6.437,3.749v4.789l5.484-3.189Z" transform="translate(-14465.647 -1379.56)"/>
        <path id="Path_19443" data-name="Path 19443" d="M14595.859,1478l-3.453,2.042-5.187-10.295v13.288l-3.609,2.041v-20.256l3.609-2.051,5.188,10.3v-13.3l3.453-2.042Z" transform="translate(-14466.137 -1379.26)"/>
        <path id="Path_19444" data-name="Path 19444" d="M14604.141,1465.368l-1.406,2.846v5.78l-3.453,2.052V1455.78l3.453-2.042v8.833l1.094-2.826,3.3-8.538,4.406-2.5-5.031,11.807,5.031,8.4-4.094,2.424Z" transform="translate(-14466.695 -1378.953)"/>
        <path id="Path_19445" data-name="Path 19445" d="M14618.125,1444.872l3.141,12.729,3.3-16.557,4.719-2.659v20.256l-3.625,2.051v-5.485l.313-8.627-3.453,15.947-2.344,1.384-3.625-11.9.484,8.264v5.477l-3.609,2.051v-20.266Z" transform="translate(-14467.205 -1378.593)"/>
        <path id="Path_19446" data-name="Path 19446" d="M14641.031,1447.8l-4.7,2.8-.953,4.682-3.766,2.169,5.5-23.426,3.141-1.865,5.656,17.066-3.781,2.179Zm-3.922-1.06,3.3-1.895-1.734-6.271Z" transform="translate(-14467.786 -1378.378)"/>
        <path id="Path_19447" data-name="Path 19447" d="M14651.516,1442.612l6.281-3.592v3.4l-9.734,5.634v-20.256l3.453-2.042Z" transform="translate(-14468.321 -1378.157)"/>
        <path id="Path_19448" data-name="Path 19448" d="M14663.75,1431.737v7.125l-3.453,2.042v-20.256l5.969-3.455c1.719-.991,3.141-1.168,4.078-.52,1.094.647,1.563,1.962,1.563,3.944a10.187,10.187,0,0,1-1.562,5.574,10.38,10.38,0,0,1-4.234,4.182Zm0-3.405,2.516-1.4a5.187,5.187,0,0,0,1.563-1.678,6.316,6.316,0,0,0,.625-2.532,3.262,3.262,0,0,0-.625-2.091,1.211,1.211,0,0,0-1.562-.039l-2.516,1.433Z" transform="translate(-14468.818 -1377.834)"/>
        <path id="Path_19449" data-name="Path 19449" d="M14683.938,1418.993l-5.5,3.17v8.264l-3.609,2.041v-20.256l9.734-5.6v3.405l-6.125,3.572v5.182l5.5-3.18Z" transform="translate(-14469.228 -1377.502)"/>
        <path id="Path_19450" data-name="Path 19450" d="M14690.438,1420.139l6.281-3.592v3.386l-9.734,5.633v-20.246l3.453-2.041Z" transform="translate(-14469.646 -1377.38)"/>
        <path id="Path_19451" data-name="Path 19451" d="M14708.328,1404.387l-5.5,3.2v5.368l6.438-3.778v3.4l-10.047,5.819v-20.256l10.047-5.81v3.405l-6.437,3.769v4.789l5.5-3.2Z" transform="translate(-14470.143 -1376.996)"/>
        <path id="Path_19452" data-name="Path 19452" d="M14723.7,1401.993a14.947,14.947,0,0,1-2.5,3.386,15.922,15.922,0,0,1-3.141,2.521c-2.2,1.168-3.609,1.354-4.875.56-1.094-.814-1.719-2.571-1.719-5.31v-3.641a15.825,15.825,0,0,1,1.719-7.36,11.534,11.534,0,0,1,4.563-4.937c1.875-1.1,3.3-1.384,4.391-.863.781.54,1.406,1.913,1.563,4.142l-3.453,1.992a3.063,3.063,0,0,0-.625-2.238,1.954,1.954,0,0,0-1.875.295,4.735,4.735,0,0,0-1.891,2.424,10.477,10.477,0,0,0-.781,4.239v3.671a6.059,6.059,0,0,0,.781,3.621c.469.56,1.25.521,2.359-.1a14.308,14.308,0,0,0,1.719-1.473l.313-.432v-3.72l-2.5,1.443v-3.1l5.953-3.474Z" transform="translate(-14470.558 -1376.786)"/>
        <path id="Path_19453" data-name="Path 19453" d="M14735.813,1388.513l-5.656,3.189v5.368l6.594-3.769v3.4l-10.047,5.82v-20.266l10.047-5.8v3.406l-6.594,3.758v4.79l5.656-3.189Z" transform="translate(-14471.071 -1376.451)"/>
      </g>
    </g>
  </g>
</svg>
