<svg xmlns="http://www.w3.org/2000/svg" xmlns:xlink="http://www.w3.org/1999/xlink" width="1920" height="1080" viewBox="0 0 1920 1080">
  <defs>
    <clipPath id="clip-TU_IfA_-_E06_ISO_1">
      <rect width="1920" height="1080"/>
    </clipPath>
  </defs>
  <g id="TU_IfA_-_E06_ISO_1" data-name="TU IfA - E06 ISO – 1" clip-path="url(#clip-TU_IfA_-_E06_ISO_1)">
    <rect width="1920" height="1080" fill="transparent"/>
    <g id="Group_6693" data-name="Group 6693" transform="translate(18.457 -6)">
      <g id="_06_STAIR_DOWN" data-name="06_STAIR DOWN" transform="translate(462.505 796.111)">
        <path id="Path_18774" data-name="Path 18774" d="M10065.766,997.785v10.166l44.016,25.414V1023.2Z" transform="translate(-10065.766 -824.968)" stroke="#000" stroke-linejoin="round" stroke-width="2" fill-rule="evenodd"/>
        <path id="Path_18775" data-name="Path 18775" d="M10218.523,844.851l-44.016-25.415-8.8,5.083,44.023,25.415Z" transform="translate(-10068.866 -819.436)" fill="#fff" stroke="#000" stroke-linejoin="round" stroke-width="2" fill-rule="evenodd"/>
        <path id="Path_18776" data-name="Path 18776" d="M10200.641,865.67l8.8-5.083-44.016-25.415-8.812,5.083Z" transform="translate(-10068.581 -819.924)" fill="#fff" stroke="#000" stroke-linejoin="round" stroke-width="2" fill-rule="evenodd"/>
        <path id="Path_18777" data-name="Path 18777" d="M10147.531,855.992l44.016,25.416,8.813-5.084-44.023-25.415Z" transform="translate(-10068.297 -820.411)" fill="#fff" stroke="#000" stroke-linejoin="round" stroke-width="2" fill-rule="evenodd"/>
        <path id="Path_18778" data-name="Path 18778" d="M10191.266,892.061l-44.016-25.415-8.8,5.083,44.023,25.415,8.8-5.083Z" transform="translate(-10068.022 -820.9)" fill="#fff" stroke="#000" stroke-linejoin="round" stroke-width="2" fill-rule="evenodd"/>
        <path id="Path_18779" data-name="Path 18779" d="M10129.367,887.465l44.016,25.415,8.8-5.083-44.023-25.415Z" transform="translate(-10067.746 -821.388)" fill="#fff" stroke="#000" stroke-linejoin="round" stroke-width="2" fill-rule="evenodd"/>
        <path id="Path_18780" data-name="Path 18780" d="M10164.3,928.617l8.8-5.082-44.016-25.416-8.8,5.083Z" transform="translate(-10067.454 -821.876)" fill="#fff" stroke="#000" stroke-linejoin="round" stroke-width="2" fill-rule="evenodd"/>
        <path id="Path_18781" data-name="Path 18781" d="M10155.219,944.354l8.8-5.083L10120,913.855l-8.812,5.083Z" transform="translate(-10067.17 -822.365)" fill="#fff" stroke="#000" stroke-linejoin="round" stroke-width="2" fill-rule="evenodd"/>
        <path id="Path_18782" data-name="Path 18782" d="M10154.938,955.007l-44.016-25.415-8.812,5.083,44.023,25.415,8.8-5.083Z" transform="translate(-10066.894 -822.852)" fill="#fff" stroke="#000" stroke-linejoin="round" stroke-width="2" fill-rule="evenodd"/>
        <path id="Path_18783" data-name="Path 18783" d="M10145.852,970.745l-44.023-25.416-8.8,5.084,44.016,25.415,8.813-5.083Z" transform="translate(-10066.609 -823.341)" fill="#fff" stroke="#000" stroke-linejoin="round" stroke-width="2" fill-rule="evenodd"/>
        <path id="Path_18784" data-name="Path 18784" d="M10083.93,966.148l44.023,25.415,8.8-5.082-44.016-25.416Z" transform="translate(-10066.326 -823.828)" fill="#fff" stroke="#000" stroke-linejoin="round" stroke-width="2" fill-rule="evenodd"/>
        <path id="Path_18785" data-name="Path 18785" d="M10118.867,1007.3l8.8-5.083-44.023-25.416-8.8,5.083Z" transform="translate(-10066.05 -824.317)" fill="#fff" stroke="#000" stroke-linejoin="round" stroke-width="2" fill-rule="evenodd"/>
        <path id="Path_18786" data-name="Path 18786" d="M10074.57,992.539l-8.8,5.083,44.016,25.415,8.8-5.083Z" transform="translate(-10065.766 -824.805)" fill="#fff" stroke="#000" stroke-linejoin="round" stroke-width="2" fill-rule="evenodd"/>
        <path id="Path_18787" data-name="Path 18787" d="M10074.852,982.048v10.165l44.016,25.415v-10.165Z" transform="translate(-10066.05 -824.479)" stroke="#000" stroke-linejoin="round" stroke-width="2" fill-rule="evenodd"/>
        <path id="Path_18788" data-name="Path 18788" d="M10083.93,966.312v10.166l44.023,25.415V991.727Z" transform="translate(-10066.326 -823.992)" stroke="#000" stroke-linejoin="round" stroke-width="2" fill-rule="evenodd"/>
        <path id="Path_18789" data-name="Path 18789" d="M10093.023,950.574v10.165l44.016,25.415V975.989Z" transform="translate(-10066.609 -823.503)" stroke="#000" stroke-linejoin="round" stroke-width="2" fill-rule="evenodd"/>
        <path id="Path_18790" data-name="Path 18790" d="M10102.109,934.838V945l44.023,25.415V960.252Z" transform="translate(-10066.894 -823.016)" stroke="#000" stroke-linejoin="round" stroke-width="2" fill-rule="evenodd"/>
        <path id="Path_18791" data-name="Path 18791" d="M10111.188,919.1v10.166l44.031,25.414V944.517Z" transform="translate(-10067.17 -822.527)" stroke="#000" stroke-linejoin="round" stroke-width="2" fill-rule="evenodd"/>
        <path id="Path_18792" data-name="Path 18792" d="M10120.273,903.365V913.53l44.023,25.415V928.78Z" transform="translate(-10067.454 -822.039)" stroke="#000" stroke-linejoin="round" stroke-width="2" fill-rule="evenodd"/>
        <path id="Path_18793" data-name="Path 18793" d="M10129.367,887.628v10.165l44.016,25.415V913.043Z" transform="translate(-10067.746 -821.551)" stroke="#000" stroke-linejoin="round" stroke-width="2" fill-rule="evenodd"/>
        <path id="Path_18794" data-name="Path 18794" d="M10138.445,871.891v10.166l44.023,25.414V897.306Z" transform="translate(-10068.022 -821.062)" stroke="#000" stroke-linejoin="round" stroke-width="2" fill-rule="evenodd"/>
        <path id="Path_18795" data-name="Path 18795" d="M10147.531,856.154v10.165l44.016,25.415V881.569Z" transform="translate(-10068.297 -820.575)" stroke="#000" stroke-linejoin="round" stroke-width="2" fill-rule="evenodd"/>
        <path id="Path_18796" data-name="Path 18796" d="M10156.617,840.417v10.166L10200.641,876V865.833Z" transform="translate(-10068.581 -820.086)" stroke="#000" stroke-linejoin="round" stroke-width="2" fill-rule="evenodd"/>
        <path id="Path_18797" data-name="Path 18797" d="M10165.7,824.681v10.165l44.023,25.416V850.1Z" transform="translate(-10068.866 -819.597)" stroke="#000" stroke-linejoin="round" stroke-width="2" fill-rule="evenodd"/>
      </g>
      <g id="_06_FGVANR" data-name="06_FGVANR" transform="translate(913.584 110.679)">
        <path id="_06_FGVANR_FLOOR" data-name="06_FGVANR_FLOOR" stroke="#000" d="M11008.094,492.01l137.078-79.247,44.016,25.414,44.023-25.419-520.828-300.7-181.094,104.668" fill="#fff" transform="translate(-10531.289 -112.057)" stroke-linecap="round" stroke-linejoin="round" stroke-width="2" fill-rule="evenodd"/>
        <path id="_06_FGVANR_HATCH" data-name="06_FGVANR_HATCH" stroke="#000" d="M11164.82,432.556l44.016,25.415,44.031-25.42V422.385l-44.031,25.42-44.016-25.415Z" transform="translate(-10550.94 -121.685)" stroke-linecap="round" stroke-linejoin="round" stroke-width="2" fill-rule="evenodd"/>
      </g>
      <g id="_06_PARTICION_04" data-name="06_PARTICION 04" transform="translate(1331.427 112.548)">
        <path id="Path_18804" data-name="Path 18804" d="M10962.508,113.986V248.8l284.086,164.015V278Z" transform="translate(-10962.508 -113.986)" fill="#fff" stroke="#000" stroke-linejoin="round" stroke-width="2" fill-rule="evenodd"/>
      </g>
      <g id="_06_FGVANR_TEXT" data-name="06_FGVANR_TEXT" transform="translate(1094.617 67.629)">
        <path id="Path_18846" data-name="Path 18846" d="M10738.523,79.341l-.016,7.088-12.891-7.44-.031,10.784,11.5,6.64-.016,7.059-11.5-6.64-.047,17.182-7.406-4.272.125-42.113Z" transform="translate(-10718.117 -67.629)"/>
        <path id="Path_18847" data-name="Path 18847" d="M10755.922,88.964a24.034,24.034,0,0,1,8.992,8.577,28.127,28.127,0,0,1,3.484,12.649l-7.2-4.158a15.849,15.849,0,0,0-1.445-6.324,9.224,9.224,0,0,0-3.617-3.557c-2-1.154-3.445-1.151-4.367,0q-1.359,1.734-1.422,7.2l-.031,7.636a23.739,23.739,0,0,0,1.477,9.238,11.4,11.4,0,0,0,4.906,5.463,5.735,5.735,0,0,0,3.563,1.033l.656-.14.023-7.721-5.2-3,.023-6.427,12.617,7.283-.047,17.388a7.354,7.354,0,0,1-5.266.974,19.236,19.236,0,0,1-6.812-2.582,25.232,25.232,0,0,1-9.8-10.167,32.316,32.316,0,0,1-3.562-15.166l.023-7.578q.023-8.712,3.336-11.5Q10749.59,85.3,10755.922,88.964Z" transform="translate(-10718.885 -68.226)"/>
        <path id="Path_18848" data-name="Path 18848" d="M10819.234,126.147l11.406,48.772-7.906-4.565-1.93-9.749-10.1-5.829-1.984,7.484-7.836-4.522,11.578-35.5Zm-6.9,22.474,6.852,3.951-3.383-16.989-3.469,13.039" transform="translate(-10720.686 -69.323)"/>
        <path id="Path_18849" data-name="Path 18849" d="M10800.938,115.378l-10.687,36.009-7.7-4.447-10.375-48.174,8.2,4.736,6.063,34.094,6.25-26.986Z" transform="translate(-10719.796 -68.595)"/>
        <path id="Path_18850" data-name="Path 18850" d="M10860.867,149.976l-.117,42.113-7.406-4.272-10.742-33.872-.07,27.625-7.406-4.276.117-42.113,7.4,4.276,10.766,33.915.086-27.653Z" transform="translate(-10721.751 -69.724)"/>
        <path id="Path_18851" data-name="Path 18851" d="M10885.906,188.941l6.367,20.943v.405l-7.961-4.593-5.469-18.573-3.68-2.122-.031,15.391-7.406-4.272.125-42.113,11.789,6.815a23.171,23.171,0,0,1,8.594,8.278,21.126,21.126,0,0,1,3.008,11.163C10891.234,185.856,10889.445,188.745,10885.906,188.941Zm-3.18-8.366c.734-.705,1.109-2,1.117-3.889q.023-6.334-4.281-8.819l-4.336-2.5-.039,12.547,4.211,2.429c1.477.85,2.578.927,3.328.233" transform="translate(-10722.754 -70.308)"/>
      </g>
      <path id="_06_DAN_FLOOR" data-name="06_DAN_FLOOR" stroke="#000" d="M10865.906,574.893l93.781-54.093,43.992-25.438-476.773-275.268-137.8,79.514" fill="#fff" transform="translate(-9613.293 -4.73)" stroke-linecap="round" stroke-linejoin="round" stroke-width="2" fill-rule="evenodd"/>
      <g id="_06_PARTICION_03" data-name="06_PARTICION 03" transform="translate(913.584 80.531)">
        <path id="Path_18805" data-name="Path 18805" d="M10531.289,80.944V215.76L11008.008,491V356.179Z" transform="translate(-10531.289 -80.944)" fill="#fff" stroke="#000" stroke-linejoin="round" stroke-width="2" fill-rule="evenodd"/>
      </g>
      <g id="_06_DAN_TEXT" data-name="06_DAN_TEXT" transform="translate(1304.962 448.416)">
        <path id="Path_18830" data-name="Path 18830" d="M10912.125,528.506q3.844,2.48,3.93,10.6l.023,6.824a31.028,31.028,0,0,1-3.781,15.235,27.454,27.454,0,0,1-10.492,10.792l-9.492,5.479-.117-42.112,9.688-5.593Q10908.316,526.022,10912.125,528.506Zm-3.445,22.413-.016-7.315q-.012-5.9-1.469-7.4c-.961-1-2.586-.867-4.891.384l-2.687,1.554.07,27.967,2.219-1.28a12.453,12.453,0,0,0,5.211-5.247,20.848,20.848,0,0,0,1.563-8.66" transform="translate(-10892.195 -485.939)"/>
        <path id="Path_18831" data-name="Path 18831" d="M10938.008,508.786l11.656,35.455-7.906,4.565-1.992-7.483-10.094,5.828-1.937,9.752-7.828,4.518,11.336-48.724Zm-6.75,30.35,6.859-3.955-3.469-13.038-3.391,16.993" transform="translate(-10893.058 -485.358)"/>
        <path id="Path_18832" data-name="Path 18832" d="M10979.656,484.608l.117,42.113-7.4,4.272-10.906-21.375.086,27.625-7.406,4.272-.125-42.113,7.406-4.272,10.93,21.389-.078-27.654Z" transform="translate(-10894.111 -484.608)"/>
      </g>
      <g id="_06_PLANUNGS_FLOOR" data-name="06_PLANUNGS_FLOOR" transform="translate(638.026 294.895)">
        <path id="Path_18803" data-name="Path 18803" stroke="#000" d="M10723.719,656.971l93.773-54.094,44-25.437-476.773-275.268-137.812,79.514" fill="#fff" transform="translate(-10246.906 -302.172)" stroke-linecap="round" stroke-linejoin="round" stroke-width="2" fill-rule="evenodd"/>
      </g>
      <g id="_06_PARTICION_02" data-name="06_PARTICION 02" transform="translate(775.805 160.062)">
        <path id="Path_18806" data-name="Path 18806" d="M10389.1,163.021V297.838l476.8,275.285V438.307Z" transform="translate(-10389.102 -163.021)" fill="#fff" stroke="#000" stroke-linejoin="round" stroke-width="2" fill-rule="evenodd"/>
      </g>
      <g id="_06_PLANUNGS_TEXT" data-name="06_PLANUNGS_TEXT" transform="translate(1027.152 382.091)">
        <path id="Path_18852" data-name="Path 18852" d="M10661.492,446.772a10.32,10.32,0,0,1,.766,3.969c-.016,2.389-.578,3.859-1.734,4.414q-1.711.837-4.953-1.034l-7.078-4.086.07-24.576,6.6,3.814a14.422,14.422,0,0,1,5.086,4.646,10.988,10.988,0,0,1,1.734,6.03,4.728,4.728,0,0,1-.727,2.805,2.148,2.148,0,0,1-1.977.841A8.937,8.937,0,0,1,10661.492,446.772Zm-4.148,3.418a2.5,2.5,0,0,0,.6-2c.016-2.2-.68-3.734-2.062-4.595l-3.039-1.754-.023,6.561,2.758,1.593c.773.447,1.359.517,1.766.194m-4.477-18.108-.016,6.149,2.242,1.3q2.543,1.468,2.555-1.553a5.749,5.749,0,0,0-.586-2.742,4.887,4.887,0,0,0-1.906-1.829l-2.289-1.321" transform="translate(-10648.492 -393.192)"/>
        <path id="Path_18853" data-name="Path 18853" d="M10661,401.546a14,14,0,0,1,1.867,6.961q-.012,3.616-1.883,4.634t-5.172-.9l-2.883-1.661-.023,8.644-4.32-2.493.07-24.575,7.289,4.2A13.473,13.473,0,0,1,10661,401.546Zm-3.172,6.791a2.917,2.917,0,0,0,.68-2.312,7.907,7.907,0,0,0-.68-3.324,4.764,4.764,0,0,0-1.852-2.173l-3.016-1.736-.016,7.664,2.961,1.711c.82.475,1.461.53,1.922.172" transform="translate(-10648.491 -392.159)"/>
        <path id="Path_18854" data-name="Path 18854" d="M10675.18,440.946l6.656,28.461-4.609-2.665-1.133-5.694-5.891-3.4-1.164,4.373-4.57-2.64,6.758-20.714Zm-4.023,13.108,3.992,2.307-1.977-9.912-2.016,7.6" transform="translate(-10648.99 -393.602)"/>
        <path id="Path_18855" data-name="Path 18855" d="M10670.641,404.848l-.062,20.459,7.578,4.375-.008,4.116-11.906-6.869.07-24.575Z" transform="translate(-10649.035 -392.475)"/>
        <path id="Path_18856" data-name="Path 18856" d="M10690.648,416.529l6.664,28.462-4.617-2.665-1.133-5.694-5.883-3.4-1.164,4.372-4.57-2.64,6.75-20.714Zm-4.023,13.116,4,2.307-1.969-9.919-2.031,7.612" transform="translate(-10649.47 -392.844)"/>
        <path id="Path_18857" data-name="Path 18857" d="M10714.953,466.339a19.684,19.684,0,0,1,2.07,9.046l-.023,4.2q-.012,4.948-2.047,6.509c-1.359,1.038-3.25.862-5.656-.531a14.484,14.484,0,0,1-5.648-5.973,18.682,18.682,0,0,1-2.07-8.79l.008-4.2q.023-5.065,2.07-6.734t5.68.428A14.4,14.4,0,0,1,10714.953,466.339Zm-2.273,10.9.008-4.272a14.918,14.918,0,0,0-.812-5.422,5.922,5.922,0,0,0-2.555-3.1c-1.148-.661-1.992-.631-2.539.1s-.852,2.141-.867,4.256l-.008,4.372a13.914,13.914,0,0,0,.813,5.237,6.053,6.053,0,0,0,2.586,3.015c1.125.65,1.961.639,2.516-.043s.836-2.059.859-4.142" transform="translate(-10650.138 -394.236)"/>
        <path id="Path_18858" data-name="Path 18858" d="M10704.375,455.349a3.516,3.516,0,0,1-.594-1.864,1.194,1.194,0,0,1,.6-1.2,1.577,1.577,0,0,1,1.445.225,4.064,4.064,0,0,1,1.445,1.447,3.55,3.55,0,0,1,.594,1.885,1.156,1.156,0,0,1-.594,1.179,1.584,1.584,0,0,1-1.453-.224A4.2,4.2,0,0,1,10704.375,455.349Z" transform="translate(-10650.206 -394.021)"/>
        <path id="Path_18859" data-name="Path 18859" d="M10713.234,461.076a3.939,3.939,0,0,1-1.477-1.483,3.611,3.611,0,0,1-.562-1.829,1.149,1.149,0,0,1,.594-1.178,1.56,1.56,0,0,1,1.453.217,4.159,4.159,0,0,1,1.445,1.455,3.421,3.421,0,0,1,.586,1.864,1.209,1.209,0,0,1-.562,1.174A1.514,1.514,0,0,1,10713.234,461.076Z" transform="translate(-10650.434 -394.155)"/>
        <path id="Path_18860" data-name="Path 18860" d="M10714.961,430.437l-.07,24.575-4.312-2.494-6.273-19.762-.055,16.116-4.32-2.493.078-24.575,4.313,2.493,6.281,19.791.047-16.137Z" transform="translate(-10650.085 -393.078)"/>
        <path id="Path_18861" data-name="Path 18861" d="M10732.922,440.808l-.047,17.011q-.047,3.817-1.852,4.8c-1.211.661-2.937.347-5.2-.954a13.979,13.979,0,0,1-5.242-5.094,13.621,13.621,0,0,1-1.8-7l.055-16.9,4.344,2.512-.047,16.912a7.971,7.971,0,0,0,.578,3.322,5.087,5.087,0,0,0,2.133,2.128c1.023.593,1.734.708,2.117.332a3.926,3.926,0,0,0,.594-2.568l.047-17Z" transform="translate(-10650.672 -393.416)"/>
        <path id="Path_18862" data-name="Path 18862" d="M10750.391,486.8a19.677,19.677,0,0,1,2.063,9.045l-.008,4.2c-.016,3.3-.7,5.469-2.062,6.51s-3.242.862-5.648-.527a14.456,14.456,0,0,1-5.648-5.974,18.7,18.7,0,0,1-2.062-8.792l.008-4.2q.012-5.065,2.063-6.733t5.68.432A14.432,14.432,0,0,1,10750.391,486.8Zm-2.281,10.9.016-4.272a15.107,15.107,0,0,0-.812-5.422,5.936,5.936,0,0,0-2.547-3.1c-1.148-.661-1.992-.632-2.555.1-.547.72-.828,2.145-.867,4.256l-.008,4.372a13.618,13.618,0,0,0,.828,5.241,5.956,5.956,0,0,0,2.578,3.014c1.125.65,1.969.635,2.516-.042s.828-2.062.852-4.146" transform="translate(-10651.245 -394.871)"/>
        <path id="Path_18863" data-name="Path 18863" d="M10751.7,451.651l-.062,24.575-4.328-2.493-6.273-19.763-.031,16.116-4.328-2.493.078-24.575,4.313,2.493,6.289,19.794.047-16.137Z" transform="translate(-10651.224 -393.737)"/>
        <path id="Path_18864" data-name="Path 18864" d="M10771.133,496.227l-.062,24.575-4.328-2.5-6.273-19.77-.047,16.123-4.312-2.493.063-24.575,4.328,2.493,6.289,19.788.039-16.13Z" transform="translate(-10651.83 -395.119)"/>
        <path id="Path_18865" data-name="Path 18865" d="M10762.984,457.917a14.11,14.11,0,0,1,5.25,5.009,16.318,16.318,0,0,1,2.031,7.381l-4.2-2.426a9.453,9.453,0,0,0-.844-3.687,5.341,5.341,0,0,0-2.117-2.075c-1.164-.675-2.008-.673-2.539,0s-.812,2.074-.836,4.2l-.016,4.457a13.789,13.789,0,0,0,.859,5.388,6.568,6.568,0,0,0,2.867,3.186,3.357,3.357,0,0,0,2.078.606l.383-.084.008-4.507-3.031-1.747.023-3.746,7.359,4.247-.031,10.144a4.24,4.24,0,0,1-3.078.571,11.239,11.239,0,0,1-3.969-1.5,14.752,14.752,0,0,1-5.719-5.938,18.727,18.727,0,0,1-2.078-8.85l.008-4.421c.008-3.392.656-5.621,1.953-6.709S10760.516,456.492,10762.984,457.917Z" transform="translate(-10651.812 -394.161)"/>
        <path id="Path_18866" data-name="Path 18866" d="M10788.148,508.6a19.664,19.664,0,0,1,2.063,9.044l-.016,4.2q-.012,4.948-2.055,6.51t-5.648-.532a14.4,14.4,0,0,1-5.648-5.973,18.691,18.691,0,0,1-2.07-8.789l.008-4.2c.008-3.377.7-5.621,2.07-6.733s3.258-.968,5.68.428A14.44,14.44,0,0,1,10788.148,508.6Zm-2.289,10.9.008-4.272a14.8,14.8,0,0,0-.8-5.422,5.929,5.929,0,0,0-2.555-3.1c-1.141-.66-1.992-.631-2.547.1s-.844,2.146-.859,4.26l-.016,4.372a13.9,13.9,0,0,0,.828,5.238,5.98,5.98,0,0,0,2.578,3.015q1.688.975,2.508-.043c.555-.681.844-2.06.852-4.146" transform="translate(-10652.409 -395.547)"/>
        <path id="Path_18867" data-name="Path 18867" d="M10780.586,468.073a13.058,13.058,0,0,1,3.5,2.985,13.555,13.555,0,0,1,2.359,4.055,12.231,12.231,0,0,1,.828,4.434l-4.312-2.485a6.5,6.5,0,0,0-.617-2.991,4.6,4.6,0,0,0-1.844-1.967c-.758-.436-1.344-.519-1.766-.251s-.633.837-.641,1.7a4.611,4.611,0,0,0,.7,2.234,18.692,18.692,0,0,0,2.492,3.139,24.538,24.538,0,0,1,4.547,5.816,12.032,12.032,0,0,1,1.4,5.624c-.016,2.14-.6,3.471-1.789,3.995s-2.8.191-4.836-.985a14.834,14.834,0,0,1-3.773-3.16,15.284,15.284,0,0,1-2.656-4.34,12.732,12.732,0,0,1-.953-4.865l4.336,2.5a7.587,7.587,0,0,0,.7,3.507,5.834,5.834,0,0,0,2.352,2.317c1.508.872,2.258.386,2.266-1.448a5.188,5.188,0,0,0-.656-2.653,17.678,17.678,0,0,0-2.43-3,26.21,26.21,0,0,1-4.617-5.949,11.36,11.36,0,0,1-1.4-5.265c.008-2.068.656-3.364,1.93-3.886S10778.609,466.934,10780.586,468.073Z" transform="translate(-10652.365 -394.478)"/>
        <path id="Path_18868" data-name="Path 18868" d="M10797.93,490.8l-.008,3.988-7.187-4.146.008-3.988Z" transform="translate(-10652.91 -395.09)"/>
        <path id="Path_18869" data-name="Path 18869" d="M10813.258,520.555l-.062,24.575-4.336-2.5.023-6.654.422-10.015-4.328,14.43-2.922-1.693-4.234-19.366.367,10.473-.016,6.654-4.32-2.493.07-24.575,5.633,3.254,3.992,20.1,4.078-15.447Z" transform="translate(-10652.996 -395.796)"/>
        <path id="Path_18870" data-name="Path 18870" d="M10823.016,492.831l-.047,17.011c-.023,2.548-.648,4.149-1.852,4.8s-2.937.347-5.2-.954a14.047,14.047,0,0,1-5.242-5.094,13.606,13.606,0,0,1-1.8-7l.047-16.9,4.344,2.512-.047,16.911a7.979,7.979,0,0,0,.586,3.326,4.987,4.987,0,0,0,2.125,2.124c1.023.593,1.727.708,2.117.333a3.831,3.831,0,0,0,.594-2.569l.047-17Z" transform="translate(-10653.465 -395.03)"/>
        <path id="Path_18871" data-name="Path 18871" d="M10841.813,503.678l-.07,24.575-4.32-2.493L10831.148,506l-.039,16.116-4.32-2.493.07-24.575,4.32,2.493,6.281,19.791.047-16.137Z" transform="translate(-10654.023 -395.351)"/>
        <path id="Path_18872" data-name="Path 18872" d="M10857.477,515.466a17.954,17.954,0,0,1,2.25,8.8l-.008,3.98q-.012,4.841-2.25,6.321t-6.141-.782l-5.531-3.2.063-24.575,5.664,3.265A15.69,15.69,0,0,1,10857.477,515.466Zm-2.078,10.718.016-4.272a13.014,13.014,0,0,0-.828-5.288,6.946,6.946,0,0,0-2.852-3.069l-1.562-.907-.047,16.321,1.289.747c1.445.833,2.461.977,3.055.449s.891-1.866.93-3.981" transform="translate(-10654.615 -395.691)"/>
        <path id="Path_18873" data-name="Path 18873" d="M10698.164,454.1l-.047,17.011q-.035,3.812-1.859,4.8t-5.187-.96a14.059,14.059,0,0,1-5.25-5.094,13.516,13.516,0,0,1-1.789-7l.047-16.891,4.352,2.511-.055,16.913a7.741,7.741,0,0,0,.586,3.324,4.941,4.941,0,0,0,2.125,2.125c1.023.592,1.727.7,2.109.332a3.9,3.9,0,0,0,.6-2.568l.055-17Z" transform="translate(-10649.59 -393.828)"/>
        <path id="Path_18874" data-name="Path 18874" d="M10735.68,475.761l-6.148,7.262,6.18,17.374-5.125-2.961-3.875-11.744-1.719,1.481-.016,7.023-4.32-2.493.07-24.575,4.313,2.493-.023,10.713,1.375-1.862,4-5.765Z" transform="translate(-10650.725 -394.485)"/>
        <path id="Path_18875" data-name="Path 18875" d="M10821.984,525.584l-.078,24.575-4.312-2.493.063-24.575Z" transform="translate(-10653.733 -396.221)"/>
        <path id="Path_18876" data-name="Path 18876" d="M10838.117,534.9l-.016,4.13-7.93-4.579-.008,5.808,6.719,3.882-.016,4-6.727-3.882-.016,6.511,7.961,4.593-.008,4.124L10825.8,552.4l.07-24.575Z" transform="translate(-10653.994 -396.368)"/>
      </g>
      <g id="_06_PARTICION_01" data-name="06_PARTICION 01" transform="translate(636.031 240.721)">
        <path id="Path_18807" data-name="Path 18807" d="M10244.852,246.262V381.079l476.711,274.907V521.169Z" transform="translate(-10244.852 -246.262)" fill="#fff" stroke="#000" stroke-linejoin="round" stroke-width="2" fill-rule="evenodd"/>
      </g>
      <g id="_06_NBL_TEXT" data-name="06_NBL_TEXT" transform="translate(360.543 452.659)">
        <path id="Path_18827" data-name="Path 18827" d="M9986.172,490.167l.117,42.113-7.406,4.275-10.9-21.378.078,27.625-7.4,4.275-.125-42.113,7.406-4.275,10.922,21.392-.086-27.653Z" transform="translate(-9960.539 -465.768)"/>
        <path id="Path_18828" data-name="Path 18828" d="M10015.414,497.209c.9,1.12,1.344,2.872,1.344,5.267a20.485,20.485,0,0,1-2.9,10.948,23.28,23.28,0,0,1-8.492,8.025l-12.125,7-.125-42.113,11.328-6.541q5.73-3.311,8.734-2.1,2.988,1.212,3,6.88a16.224,16.224,0,0,1-1.2,6.234,17.479,17.479,0,0,1-3.375,5.334A3.443,3.443,0,0,1,10015.414,497.209Zm-7.055,14.024a9.8,9.8,0,0,0,1.023-4.62c-.008-3.775-1.2-5.03-3.586-3.75l-5.219,3.007.039,11.253,4.734-2.732a7.516,7.516,0,0,0,3.008-3.158m-7.812-22.076.023,10.529,3.852-2.226a8.262,8.262,0,0,0,4.336-7.7c0-1.9-.344-3.082-1.016-3.52s-1.766-.226-3.281.646l-3.914,2.268" transform="translate(-9961.546 -465.371)"/>
        <path id="Path_18829" data-name="Path 18829" d="M10030.375,464.987l.094,35.054,12.992-7.5.016,7.059-20.383,11.772-.125-42.113Z" transform="translate(-9962.48 -464.987)"/>
      </g>
      <path id="_06_NBL_FLOOR" data-name="06_NBL_FLOOR" d="M9961.172,544.327,10236.047,385.4l275.511,159.1v18.828l-257.5,150.1Z" transform="translate(-9600.015 -9.858)" fill="#fff" fill-rule="evenodd"/>
      <g id="_06_NBL_HATCH_LINE" data-name="06_NBL_HATCH LINE" transform="translate(361.201 375.203)">
        <line id="Line_7286" data-name="Line 7286" x2="112.648" y2="65.071" transform="translate(638.953 210.162)" fill="#fff" stroke="#000" stroke-linecap="round" stroke-linejoin="round" stroke-width="2"/>
        <line id="Line_7287" data-name="Line 7287" x2="275.976" y2="159.33" transform="translate(274.885 0)" fill="#fff" stroke="#000" stroke-linecap="round" stroke-linejoin="round" stroke-width="2"/>
        <line id="Line_7284" data-name="Line 7284" x1="274.886" y2="158.673" transform="translate(0 0.326)" fill="#fff" stroke="#000" stroke-linecap="round" stroke-linejoin="round" stroke-width="2"/>
        <path id="Path_18813" data-name="Path 18813" stroke="#000" d="M9961.219,559.305,10245.3,723.32l8.8-5.083-292.883-169.1Z" transform="translate(-9961.219 -390.141)" stroke-linecap="round" stroke-linejoin="round" stroke-width="2" fill-rule="evenodd"/>
      </g>
      <g id="_00_ELEVATOR" data-name="00_ELEVATOR" transform="translate(911.543 102)">
        <path id="Path_20488" data-name="Path 20488" d="M960,152.989l58.455-33.749V897.6l-58.441,33.741Z" transform="translate(-930.772 -102.994)" fill="#fff" stroke="#000" stroke-linejoin="round" stroke-width="2" fill-rule="evenodd"/>
        <path id="Path_20489" data-name="Path 20489" d="M958.941,153.6l-29.227-16.874.012,778.355,29.227,16.874Z" transform="translate(-929.714 -103.605)" fill="#fff" stroke="#000" stroke-linejoin="round" stroke-width="2" fill-rule="evenodd"/>
        <path id="Path_20490" data-name="Path 20490" d="M929.714,135.547l29.227,16.874,58.49-33.76-28.377-16.256Z" transform="translate(-929.714 -102.406)" fill="#fff" stroke="#000" stroke-linejoin="round" stroke-width="2" fill-rule="evenodd"/>
        <line id="Line_7318" data-name="Line 7318" y2="32.609" transform="translate(59.341)" fill="none" stroke="#000" stroke-linecap="round" stroke-linejoin="round" stroke-width="2"/>
        <g id="_03_ELEVATOR_DOOR" data-name="03_ELEVATOR DOOR" transform="translate(2.668 440.801)">
          <path id="Path_19686" data-name="Path 19686" d="M4772.833,619.094V558.909l23.22,13.406V632.5Z" transform="translate(-4772.833 -558.909)" fill="#fff" stroke="#000" stroke-linejoin="round" stroke-width="1" fill-rule="evenodd"/>
          <path id="Path_19687" data-name="Path 19687" d="M4784.856,626.036V565.851l11.61,6.7v60.186Z" transform="translate(-4773.247 -559.148)" fill="#fff" stroke="#000" stroke-linejoin="round" stroke-width="1" fill-rule="evenodd"/>
          <path id="Path_19688" data-name="Path 19688" d="M4772.833,619.094V558.909l11.61,6.7V625.8Z" transform="translate(-4772.833 -558.909)" fill="#fff" stroke="#000" stroke-linejoin="round" stroke-width="1" fill-rule="evenodd"/>
        </g>
      </g>
      <g id="_06_FLUR" data-name="06_FLUR" transform="translate(539.542 553.435)">
        <path id="Path_18811" data-name="Path 18811" stroke="#000" d="M10259.813,718.971,10145.266,785.1l183.3,106.5,389.961-225.494-112.719-65.072-58.68,33.884-29.854-17.014V568.949m-74.443,208.961-72.023,41.582-3.758-2.168-3.75-2.167-18.773-10.837-78.914-45.558-8.8-5.083,80.828-46.665,113.984,65.814Z" fill="#fff" transform="translate(-10145.266 -568.989)" stroke-linecap="round" stroke-linejoin="round" stroke-width="2" fill-rule="evenodd"/>
        <path id="Path_18812" data-name="Path 18812" stroke="#000" d="M10720.609,668.271l-391.422,225.983-139.9-80.773-44.023-25.415v10.165l44.023,25.415,139.9,80.773,391.422-225.983Z" transform="translate(-10145.266 -572.069)" stroke-linecap="round" stroke-linejoin="round" stroke-width="2" fill-rule="evenodd"/>
        <path id="Path_18814" data-name="Path 18814" stroke="#000" d="M10341.852,710.993l-80.82,46.665,8.8,5.083,72.016-41.583,105.2,60.731,8.8-5.083Z" transform="translate(-10148.857 -573.394)" stroke-linecap="round" stroke-linejoin="round" stroke-width="2" fill-rule="evenodd"/>
        <line id="Line_7285" data-name="Line 7285" x1="114.544" y2="66.132" transform="translate(0 149.865)" fill="none" stroke="#000" stroke-linecap="round" stroke-linejoin="round" stroke-width="2"/>
        <path id="Path_18815" data-name="Path 18815" d="M10455.836,778.311l-81.445,46.974L10260.4,759.471" transform="translate(-10148.848 -574.898)" fill="none" stroke="#000" stroke-linecap="round" stroke-linejoin="round" stroke-width="2"/>
      </g>
      <g id="_06_HABITAT_UNIT" data-name="06_HABITAT UNIT" transform="translate(959.003 411.385)">
        <path id="Path_18816" data-name="Path 18816" d="M10578.164,842.131V750.638l568.461-328.248v91.54Z" transform="translate(-10578.164 -422.391)" fill="#fff" stroke="#000" stroke-linejoin="round" stroke-width="2" fill-rule="evenodd"/>
        <path id="Path_18817" data-name="Path 18817" d="M10736.641,937.856l498.211-287.645-158.594-91.436-498.094,287.586,18.563,10.721Z" transform="translate(-10578.164 -426.622)" fill="#fff" stroke="#000" stroke-linejoin="round" stroke-width="2" fill-rule="evenodd"/>
        <path id="Path_18818" data-name="Path 18818" d="M10578.164,859.446l18.563,10.721,139.914,80.773,498.641-287.9V652.879l-498.641,287.9L10596.727,860l-18.562-10.72Z" transform="translate(-10578.164 -429.541)" stroke="#000" stroke-linejoin="round" stroke-width="2" fill-rule="evenodd"/>
      </g>
      <g id="_06_HABITAT_UNIT_TEXT" data-name="06_HABITAT UNIT_TEXT" transform="translate(1321.993 592.338)">
        <path id="Path_18835" data-name="Path 18835" d="M10978.469,769.058l.117,42.12-7.375,4.257-.055-18.021-10.914,6.308.047,18.021-7.4,4.271-.117-42.12,7.391-4.272.055,17.04,10.922-6.308-.047-17.041Z" transform="translate(-10952.773 -614.098)"/>
        <path id="Path_18836" data-name="Path 18836" d="M11001.656,755.814l11.648,35.461-7.914,4.565-1.977-7.49-10.1,5.829-1.937,9.755-7.828,4.522,11.336-48.735Zm-6.758,30.348,6.852-3.954-3.461-13.038-3.391,16.992" transform="translate(-10953.724 -613.687)"/>
        <path id="Path_18837" data-name="Path 18837" d="M11039.969,757.492c.891,1.113,1.344,2.868,1.344,5.256a20.491,20.491,0,0,1-2.9,10.949,23.4,23.4,0,0,1-8.484,8.035l-12.141,7.005-.117-42.121,11.328-6.539q5.742-3.316,8.727-2.1c2,.8,2.992,3.1,3,6.887a16.228,16.228,0,0,1-1.2,6.234,17.412,17.412,0,0,1-3.367,5.331A3.419,3.419,0,0,1,11039.969,757.492Zm-7.047,14.013a9.951,9.951,0,0,0,1.016-4.609q-.012-5.672-3.586-3.754l-5.211,3.011.023,11.253,4.734-2.732a7.569,7.569,0,0,0,3.023-3.169m-7.828-22.072.023,10.528,3.852-2.225a8.274,8.274,0,0,0,4.352-7.69c-.016-1.913-.352-3.084-1.023-3.526s-1.766-.226-3.273.645l-3.93,2.268" transform="translate(-10954.795 -613.124)"/>
        <path id="Path_18838" data-name="Path 18838" d="M11055.258,725.063l.117,42.12-7.406,4.275-.117-42.12Z" transform="translate(-10955.717 -612.733)"/>
        <path id="Path_18839" data-name="Path 18839" d="M11139.266,676.229l.016,7.087-9.055,5.232.094,35.033-7.422,4.287-.094-35.033-8.914,5.143-.023-7.087Z" transform="translate(-10957.77 -611.218)"/>
        <path id="Path_18840" data-name="Path 18840" d="M11102.688,697.484l11.656,35.461-7.906,4.565-1.992-7.491-10.094,5.829-1.937,9.756-7.828,4.518,11.328-48.731Zm-6.742,30.345,6.844-3.954-3.461-13.035-3.383,16.989" transform="translate(-10956.857 -611.878)"/>
        <path id="Path_18841" data-name="Path 18841" d="M11084.844,707.65l.016,7.087-9.055,5.233L11075.9,755l-7.422,4.286-.094-35.032-8.914,5.147-.031-7.087Z" transform="translate(-10956.074 -612.193)"/>
        <path id="Path_18842" data-name="Path 18842" d="M11179,653.308l.078,29.161a23.2,23.2,0,0,1-3.117,11.869,23.79,23.79,0,0,1-8.875,8.614q-5.895,3.4-9.008,1.67c-2.078-1.157-3.117-3.965-3.141-8.422l-.07-28.954,7.438-4.3.086,28.982q.012,3.593,1.023,4.536c.672.638,1.9.446,3.656-.572a8.516,8.516,0,0,0,3.625-3.614,13.307,13.307,0,0,0,.977-5.563l-.07-29.132Z" transform="translate(-10959.039 -610.507)"/>
        <path id="Path_18843" data-name="Path 18843" d="M11211.188,634.7l.125,42.12-7.406,4.272-10.9-21.378.086,27.625-7.414,4.275-.109-42.12,7.406-4.275,10.914,21.392-.078-27.653Z" transform="translate(-10959.994 -609.93)"/>
        <path id="Path_18844" data-name="Path 18844" d="M11225.9,626.55l.117,42.12-7.4,4.272-.125-42.12Z" transform="translate(-10961.015 -609.677)"/>
        <path id="Path_18845" data-name="Path 18845" d="M11255.477,609.136l.016,7.088-9.062,5.233.1,35.032-7.43,4.286-.094-35.033-8.914,5.147-.023-7.087Z" transform="translate(-10961.373 -609.136)"/>
      </g>
      <g id="_06_STAIR" data-name="06_STAIR" transform="translate(1457.102 411.385)">
        <path id="Path_18877" data-name="Path 18877" d="M11199.82,463.38l8.8-5.083-44.016-25.415-8.8,5.083Z" transform="translate(-11094.184 -422.716)" fill="#fff" stroke="#000" stroke-linejoin="round" stroke-width="2" fill-rule="evenodd"/>
        <path id="Path_18878" data-name="Path 18878" d="M11146.719,453.7l44.031,25.415,8.8-5.083-44.023-25.416Z" transform="translate(-11093.899 -423.204)" fill="#fff" stroke="#000" stroke-linejoin="round" stroke-width="2" fill-rule="evenodd"/>
        <path id="Path_18879" data-name="Path 18879" d="M11190.461,489.77l-44.016-25.415-8.812,5.083,44.016,25.415,8.813-5.083Z" transform="translate(-11093.615 -423.693)" fill="#fff" stroke="#000" stroke-linejoin="round" stroke-width="2" fill-rule="evenodd"/>
        <path id="Path_18880" data-name="Path 18880" d="M11128.547,485.175l44.016,25.415,8.8-5.083-44.016-25.416Z" transform="translate(-11093.331 -424.181)" fill="#fff" stroke="#000" stroke-linejoin="round" stroke-width="2" fill-rule="evenodd"/>
        <path id="Path_18881" data-name="Path 18881" d="M11163.484,526.327l8.8-5.083-44.016-25.416-8.8,5.083Z" transform="translate(-11093.047 -424.669)" fill="#fff" stroke="#000" stroke-linejoin="round" stroke-width="2" fill-rule="evenodd"/>
        <path id="Path_18882" data-name="Path 18882" d="M11154.4,542.063l8.8-5.083-44.023-25.416-8.8,5.083Z" transform="translate(-11092.779 -425.157)" fill="#fff" stroke="#000" stroke-linejoin="round" stroke-width="2" fill-rule="evenodd"/>
        <path id="Path_18883" data-name="Path 18883" d="M11154.109,552.717l-44.016-25.415-8.8,5.083L11145.3,557.8l8.8-5.083Z" transform="translate(-11092.487 -425.646)" fill="#fff" stroke="#000" stroke-linejoin="round" stroke-width="2" fill-rule="evenodd"/>
        <path id="Path_18884" data-name="Path 18884" d="M11145.031,568.454l-44.016-25.415-8.812,5.083,44.031,25.415,8.8-5.083Z" transform="translate(-11092.203 -426.134)" fill="#fff" stroke="#000" stroke-linejoin="round" stroke-width="2" fill-rule="evenodd"/>
        <path id="Path_18885" data-name="Path 18885" d="M11092.2,548.285V558.45l44.031,25.416V573.7Z" transform="translate(-11092.203 -426.296)" stroke="#000" stroke-linejoin="round" stroke-width="2" fill-rule="evenodd"/>
        <path id="Path_18886" data-name="Path 18886" d="M11101.289,532.548v10.166l44.016,25.415V557.963Z" transform="translate(-11092.487 -425.808)" stroke="#000" stroke-linejoin="round" stroke-width="2" fill-rule="evenodd"/>
        <path id="Path_18887" data-name="Path 18887" d="M11110.383,516.811v10.166l44.016,25.415V542.226Z" transform="translate(-11092.779 -425.32)" stroke="#000" stroke-linejoin="round" stroke-width="2" fill-rule="evenodd"/>
        <path id="Path_18888" data-name="Path 18888" d="M11119.461,501.075V511.24l44.023,25.415V526.489Z" transform="translate(-11093.047 -424.832)" stroke="#000" stroke-linejoin="round" stroke-width="2" fill-rule="evenodd"/>
        <path id="Path_18889" data-name="Path 18889" d="M11128.547,485.338V495.5l44.016,25.415V510.752Z" transform="translate(-11093.331 -424.344)" stroke="#000" stroke-linejoin="round" stroke-width="2" fill-rule="evenodd"/>
        <path id="Path_18890" data-name="Path 18890" d="M11137.633,469.6v10.166l44.016,25.415V495.016Z" transform="translate(-11093.615 -423.856)" stroke="#000" stroke-linejoin="round" stroke-width="2" fill-rule="evenodd"/>
        <path id="Path_18891" data-name="Path 18891" d="M11146.719,453.864v10.165l44.031,25.415V479.279Z" transform="translate(-11093.899 -423.367)" stroke="#000" stroke-linejoin="round" stroke-width="2" fill-rule="evenodd"/>
        <path id="Path_18892" data-name="Path 18892" d="M11155.8,438.127v10.165l44.016,25.415V463.542Z" transform="translate(-11094.184 -422.879)" stroke="#000" stroke-linejoin="round" stroke-width="2" fill-rule="evenodd"/>
        <path id="Path_18893" data-name="Path 18893" d="M11164.891,422.391v10.166l44.016,25.415V447.805Z" transform="translate(-11094.458 -422.391)" stroke="#000" stroke-linejoin="round" stroke-width="2" fill-rule="evenodd"/>
      </g>
      <g id="_06_COLOMUN_02" data-name="06_COLOMUN_02" transform="translate(1106.083 650.435)">
        <path id="Path_18819" data-name="Path 18819" d="M10750.141,812.562V900.92c0,.155.008.232.008.232a1.785,1.785,0,0,0,.023.233c.023.154.031.23.031.23.039.153.063.229.063.229.047.152.063.228.063.228.055.15.086.225.086.225.063.148.1.222.1.222a2.284,2.284,0,0,0,.117.218,1.334,1.334,0,0,0,.125.214l.141.21c.094.138.2.273.2.273.117.133.227.264.227.264.125.129.242.255.242.255.133.123.266.243.266.243.133.118.273.233.273.233.148.113.3.222.3.222.148.107.3.211.3.211.156.1.32.2.32.2.156.1.32.189.32.189.164.091.336.181.336.181l.367.177.391.167c.2.082.617.237.617.237l.422.146.453.136.461.124.484.112.492.1.508.085.508.07.531.056.531.04.539.023.531.009.539-.009.531-.023.531-.04.523-.056.523-.07.5-.085.492-.1.477-.112.469-.124.453-.136.43-.146.406-.156c.211-.082.4-.165.4-.165.188-.084.375-.171.375-.171.18-.089.352-.179.352-.179l.344-.184c.156-.1.32-.194.32-.194.148-.1.3-.2.3-.2.156-.107.3-.216.3-.216.141-.113.281-.228.281-.228.148-.118.273-.238.273-.238.125-.123.25-.249.25-.249.125-.129.234-.26.234-.26.117-.133.219-.268.219-.268.1-.138.2-.277.2-.277.086-.141.125-.213.125-.213.086-.145.125-.217.125-.217.063-.146.1-.221.1-.221.055-.148.086-.224.086-.224.055-.15.078-.227.078-.227.031-.152.055-.229.055-.229a1.766,1.766,0,0,0,.047-.23l.023-.231c.016-.155.016-.233.016-.233V701.737l-10.375,5.992-10.375,1.712v21.777C10750.148,731.213,10750.141,812.562,10750.141,812.562Z" transform="translate(-10730.582 -670.107)" fill="#fff" stroke="#000" stroke-linejoin="round" stroke-width="2" fill-rule="evenodd"/>
        <path id="Path_18820" data-name="Path 18820" d="M10747.563,704.448l-17.617-10.168v5.084l17.617,10.168Z" transform="translate(-10729.945 -669.876)" fill="#fff" stroke="#000" stroke-linejoin="round" stroke-width="2" fill-rule="evenodd"/>
        <path id="Path_18821" data-name="Path 18821" d="M10790.4,679.588l-42.266,24.4v5.083l12.328-2.033,17.617-10.168,12.32-12.2Z" transform="translate(-10730.52 -669.42)" fill="#fff" stroke="#000" stroke-linejoin="round" stroke-width="2" fill-rule="evenodd"/>
        <path id="Path_18822" data-name="Path 18822" d="M10747.563,703.666l42.266-24.4-17.609-10.167-42.273,24.4Z" transform="translate(-10729.945 -669.095)" fill="#fff" stroke="#000" stroke-linejoin="round" stroke-width="2" fill-rule="evenodd"/>
      </g>
      <g id="_06_COLOMUN_01" data-name="06_COLOMUN_01" transform="translate(584.085 300.268)">
        <path id="Path_18823" data-name="Path 18823" d="M10208.844,343.062l-17.6-10.166v5.083l17.6,10.166Z" transform="translate(-10191.242 -308.498)" fill="#fff" stroke="#000" stroke-linejoin="round" stroke-width="2" fill-rule="evenodd"/>
        <path id="Path_18824" data-name="Path 18824" d="M10233.492,307.717l-42.25,24.4,17.6,10.166,42.258-24.4Z" transform="translate(-10191.242 -307.717)" fill="#fff" stroke="#000" stroke-linejoin="round" stroke-width="2" fill-rule="evenodd"/>
        <path id="Path_18825" data-name="Path 18825" d="M10209.406,342.606v5.083l12.328-2.033,17.609-10.166,12.328-12.2v-5.083Z" transform="translate(-10191.793 -308.042)" fill="#fff" stroke="#000" stroke-linejoin="round" stroke-width="2" fill-rule="evenodd"/>
        <path id="Path_18826" data-name="Path 18826" d="M10211.43,348.055V488.665l.2.353.227.345.234.337.25.329.25.32.273.311.281.3.289.292.3.282.3.271.32.26.328.25.336.238.344.227.359.215.344.2.367.19.375.177.375.165.383.152.391.138.391.125.391.112.4.1.406.084.406.07.406.056.406.042.414.028.414.014h.406l.406-.014.422-.028.406-.042.406-.056.406-.07.4-.084.4-.1.4-.112.4-.125.383-.138.383-.152.375-.165.367-.177.367-.19.359-.2.352-.215.344-.227.336-.238.328-.25.313-.26.313-.271.3-.282.281-.292.281-.3.273-.311.258-.32.242-.329.242-.337.227-.345.2-.353V340.353l-10.375,5.99Z" transform="translate(-10191.871 -308.729)" fill="#fff" stroke="#000" stroke-linejoin="round" stroke-width="2" fill-rule="evenodd"/>
      </g>
    </g>
  </g>
</svg>
