<svg xmlns="http://www.w3.org/2000/svg" xmlns:xlink="http://www.w3.org/1999/xlink" width="1920" height="1080" viewBox="0 0 1920 1080">
  <defs>
    <clipPath id="clip-TU_IfA_-_E05_ISO_1">
      <rect width="1920" height="1080"/>
    </clipPath>
  </defs>
  <g id="TU_IfA_-_E05_ISO_1" data-name="TU IfA - E05 ISO – 1" clip-path="url(#clip-TU_IfA_-_E05_ISO_1)">
    <rect width="1920" height="1080" fill="#fff"/>
    <g id="Group_6698" data-name="Group 6698" transform="translate(18.383 -6.406)">
      <g id="_05_STAIR_DOWN" data-name="05_STAIR DOWN" transform="translate(764.007 660.94)">
        <path id="Path_19910" data-name="Path 19910" d="M8456.193,852.931v10.148l43.943,25.371V878.3Z" transform="translate(-8456.193 -685.489)" stroke="#000" stroke-linejoin="round" stroke-width="2.288" fill-rule="evenodd"/>
        <path id="Path_19911" data-name="Path 19911" d="M8590.988,720.763l8.789-5.074-43.942-25.371-8.789,5.074Z" transform="translate(-8459.165 -680.17)" fill="#fff" stroke="#000" stroke-linejoin="round" stroke-width="2.288" fill-rule="evenodd"/>
        <path id="Path_19912" data-name="Path 19912" d="M8537.96,711.129,8581.9,736.5l8.787-5.074-43.942-25.371Z" transform="translate(-8458.868 -680.685)" fill="#fff" stroke="#000" stroke-linejoin="round" stroke-width="2.288" fill-rule="evenodd"/>
        <path id="Path_19913" data-name="Path 19913" d="M8581.607,747.162l-43.943-25.371-8.788,5.074,43.943,25.371,8.788-5.074Z" transform="translate(-8458.571 -681.199)" fill="#fff" stroke="#000" stroke-linejoin="round" stroke-width="2.288" fill-rule="evenodd"/>
        <path id="Path_19914" data-name="Path 19914" d="M8519.79,742.6l43.943,25.371,8.788-5.074-43.942-25.371Z" transform="translate(-8458.273 -681.714)" fill="#fff" stroke="#000" stroke-linejoin="round" stroke-width="2.288" fill-rule="evenodd"/>
        <path id="Path_19915" data-name="Path 19915" d="M8554.648,783.71l8.788-5.074-43.943-25.371-8.788,5.074Z" transform="translate(-8457.977 -682.229)" fill="#fff" stroke="#000" stroke-linejoin="round" stroke-width="2.288" fill-rule="evenodd"/>
        <path id="Path_19916" data-name="Path 19916" d="M8545.563,799.447l8.788-5.074L8510.408,769l-8.789,5.074Z" transform="translate(-8457.68 -682.744)" fill="#fff" stroke="#000" stroke-linejoin="round" stroke-width="2.288" fill-rule="evenodd"/>
        <path id="Path_19917" data-name="Path 19917" d="M8545.266,810.109l-43.943-25.371-8.788,5.074,43.943,25.371,8.788-5.074Z" transform="translate(-8457.382 -683.258)" fill="#fff" stroke="#000" stroke-linejoin="round" stroke-width="2.288" fill-rule="evenodd"/>
        <path id="Path_19918" data-name="Path 19918" d="M8536.181,825.846l-43.942-25.371-8.789,5.074,43.942,25.371,8.789-5.074Z" transform="translate(-8457.085 -683.773)" fill="#fff" stroke="#000" stroke-linejoin="round" stroke-width="2.288" fill-rule="evenodd"/>
        <path id="Path_19919" data-name="Path 19919" d="M8474.363,821.286l43.944,25.371,8.787-5.074-43.942-25.371Z" transform="translate(-8456.788 -684.288)" fill="#fff" stroke="#000" stroke-linejoin="round" stroke-width="2.288" fill-rule="evenodd"/>
        <path id="Path_19920" data-name="Path 19920" d="M8509.223,862.393l8.787-5.074-43.943-25.371-8.788,5.074Z" transform="translate(-8456.49 -684.803)" fill="#fff" stroke="#000" stroke-linejoin="round" stroke-width="2.288" fill-rule="evenodd"/>
        <path id="Path_19921" data-name="Path 19921" d="M8464.982,847.685l-8.789,5.074,43.943,25.371,8.788-5.074Z" transform="translate(-8456.193 -685.317)" fill="#fff" stroke="#000" stroke-linejoin="round" stroke-width="2.288" fill-rule="evenodd"/>
        <path id="Path_19922" data-name="Path 19922" d="M8465.278,837.194v10.148l43.944,25.371V862.565Z" transform="translate(-8456.49 -684.974)" stroke="#000" stroke-linejoin="round" stroke-width="2.288" fill-rule="evenodd"/>
        <path id="Path_19923" data-name="Path 19923" d="M8474.363,821.457v10.148l43.944,25.371V846.828Z" transform="translate(-8456.788 -684.459)" stroke="#000" stroke-linejoin="round" stroke-width="2.288" fill-rule="evenodd"/>
        <path id="Path_19924" data-name="Path 19924" d="M8483.449,805.721v10.148l43.942,25.371V831.092Z" transform="translate(-8457.085 -683.945)" stroke="#000" stroke-linejoin="round" stroke-width="2.288" fill-rule="evenodd"/>
        <path id="Path_19925" data-name="Path 19925" d="M8492.534,789.984v10.148l43.943,25.371V815.355Z" transform="translate(-8457.382 -683.43)" stroke="#000" stroke-linejoin="round" stroke-width="2.288" fill-rule="evenodd"/>
        <path id="Path_19926" data-name="Path 19926" d="M8501.619,774.247v10.148l43.944,25.371V799.618Z" transform="translate(-8457.68 -682.915)" stroke="#000" stroke-linejoin="round" stroke-width="2.288" fill-rule="evenodd"/>
        <path id="Path_19927" data-name="Path 19927" d="M8510.705,758.51v10.148l43.943,25.371V783.881Z" transform="translate(-8457.977 -682.4)" stroke="#000" stroke-linejoin="round" stroke-width="2.288" fill-rule="evenodd"/>
        <path id="Path_19928" data-name="Path 19928" d="M8519.79,742.774v10.148l43.943,25.371V768.145Z" transform="translate(-8458.273 -681.886)" stroke="#000" stroke-linejoin="round" stroke-width="2.288" fill-rule="evenodd"/>
        <path id="Path_19929" data-name="Path 19929" d="M8528.876,727.037v10.148l43.943,25.371V752.408Z" transform="translate(-8458.571 -681.371)" stroke="#000" stroke-linejoin="round" stroke-width="2.288" fill-rule="evenodd"/>
        <path id="Path_19930" data-name="Path 19930" d="M8537.96,711.3v10.148l43.944,25.371V736.671Z" transform="translate(-8458.868 -680.856)" stroke="#000" stroke-linejoin="round" stroke-width="2.288" fill-rule="evenodd"/>
        <path id="Path_19931" data-name="Path 19931" d="M8547.046,695.563v10.148l43.942,25.371V720.934Z" transform="translate(-8459.165 -680.341)" stroke="#000" stroke-linejoin="round" stroke-width="2.288" fill-rule="evenodd"/>
        <path id="Path_19932" data-name="Path 19932" d="M8556.132,679.827v10.148l43.943,25.371V705.2Z" transform="translate(-8459.463 -679.827)" stroke="#000" stroke-linejoin="round" stroke-width="2.288" fill-rule="evenodd"/>
      </g>
      <g id="_05_FLUR_STAIR" data-name="05_FLUR_STAIR" transform="translate(782.52 572.211)">
        <path id="Path_19933" data-name="Path 19933" d="M8509.2,637.587l-9.2-5.314,76.512-44.174,9.2,5.314Z" transform="translate(-8476.14 -588.098)" fill="#fff" stroke="#000" stroke-linejoin="round" stroke-width="2.288" fill-rule="evenodd"/>
        <path id="Path_19934" data-name="Path 19934" d="M8518.715,649.9l-9.2-5.314,76.513-44.174,9.2,5.314Z" transform="translate(-8476.451 -588.501)" fill="#fff" stroke="#000" stroke-linejoin="round" stroke-width="2.288" fill-rule="evenodd"/>
        <path id="Path_19935" data-name="Path 19935" d="M8517.6,666.839l-42.264-47.758,23.856,13.774,9.2,5.314v6.594l9.2,5.314,76.513-44.174v16.762Z" transform="translate(-8475.333 -588.681)" stroke="#000" stroke-linejoin="round" stroke-width="2.288" fill-rule="evenodd"/>
        <path id="Path_19936" data-name="Path 19936" d="M8586.023,600.186v-6.594l-76.512,44.174v6.594Z" transform="translate(-8476.451 -588.278)" stroke="#000" stroke-linejoin="round" stroke-width="2.288" fill-rule="evenodd"/>
      </g>
      <g id="_05_FLUR_02" data-name="05_FLUR 02" transform="translate(930.45 471.373)">
        <path id="Path_19937" data-name="Path 19937" d="M8669.42,483.85,8860.307,594.1l-41.116,23.738L8628.266,507.611l41.154-23.761" transform="translate(-8628.266 -483.85)" fill="#fff" fill-rule="evenodd"/>
        <line id="Line_7310" data-name="Line 7310" x1="190.886" y1="110.253" transform="translate(41.155)" stroke="#000" stroke-linecap="round" stroke-linejoin="round" stroke-width="2.288"/>
      </g>
      <path id="_05_ARCH_FOR_HEALTH_FLOOR" data-name="05_ARCH FOR HEALTH_FLOOR" d="M8901.915,328.9,8685.79,204.115l-63.72-36.788-12.474-7.2-21.567,12.452L8091.615,459.182,8266.63,560.228,8493.409,429.3l117.3,67.725Z" transform="translate(-7680.262 -1.888)" fill="#fff" fill-rule="evenodd"/>
      <g id="_05_ARCH_FOR_HEALTH_" data-name="05_ARCH FOR HEALTH_" transform="translate(411.353 327.007)">
        <path id="Path_19939" data-name="Path 19939" d="M8091.615,468.285v10.168L8266.63,579.5l226.779-130.931,299.422,172.871,8.806-5.084L8493.409,438.4,8266.63,569.33Z" transform="translate(-8091.615 -337.997)" stroke="#000" stroke-linejoin="round" stroke-width="2.288" fill-rule="evenodd"/>
        <path id="Path_19938" data-name="Path 19938" d="M8920.86,334.6,8670.812,478.968l8.8,5.085L8920.86,344.77Z" transform="translate(-8110.56 -334.602)" stroke="#000" stroke-linejoin="round" stroke-width="2.288" fill-rule="evenodd"/>
        <path id="Path_22951" data-name="Path 22951" stroke="#000" d="M8535.453,787.172c46.041-26.582,516.864-299.263,516.864-299.263L9335.273,651.8" fill="none" transform="translate(-8535.017 -657.617)" stroke-linecap="round" stroke-linejoin="round" stroke-width="2.288" fill-rule="evenodd"/>
      </g>
      <g id="_05_ARCH_FOR_HEALTH_TEXT" data-name="05_ARCH FOR HEALTH_TEXT" transform="translate(407.92 161.222)">
        <path id="Path_19989" data-name="Path 19989" d="M8109.342,394.506l-10.8,6.235-2.1,10.48-8.375,4.835,12.254-52.35,7.244-4.184,12.334,38.156-8.456,4.882Zm-9.075-2.379,7.324-4.229-3.663-14.024Z" transform="translate(-8088.066 -169.632)"/>
        <path id="Path_19990" data-name="Path 19990" d="M8136.639,371.526l-3.932,2.27V390.34l-7.917,4.571V349.634l12.63-7.292q5.952-3.436,9.2-1.749t3.245,8.247a24.27,24.27,0,0,1-5.683,15.907l6.868,14.568v.435l-8.51,4.913Zm-3.932-5.348,4.5-2.6a8.626,8.626,0,0,0,3.555-3.871,12.808,12.808,0,0,0,1.185-5.551q0-6.811-4.606-4.151l-4.631,2.675Z" transform="translate(-8089.267 -168.995)"/>
        <path id="Path_19991" data-name="Path 19991" d="M8182.89,346.241a29.477,29.477,0,0,1-3.771,13.9,26.245,26.245,0,0,1-9.8,9.64q-6.653,3.841-10.193.832t-3.541-12.369v-7.618a35.756,35.756,0,0,1,3.663-16.5,25.829,25.829,0,0,1,10.179-10.929q6.409-3.7,9.736-1.485t3.783,9.694L8175,335.993q-.107-4.724-1.278-5.869t-4.3.661a10.138,10.138,0,0,0-4.5,5.162,26.9,26.9,0,0,0-1.4,9.25v8.552q0,6.75,1.306,8.513t4.483-.07a10.245,10.245,0,0,0,4.308-4.245,18.352,18.352,0,0,0,1.348-7.136Z" transform="translate(-8090.275 -168.368)"/>
        <path id="Path_19992" data-name="Path 19992" d="M8216.348,341.838l-7.891,4.555V327.019l-11.687,6.748v19.374l-7.918,4.57V312.435l7.918-4.571v18.316l11.688-6.748V301.116l7.891-4.555Z" transform="translate(-8091.363 -167.573)"/>
        <path id="Path_19993" data-name="Path 19993" d="M8232.127,333.109l-7.918,4.57V292.4l7.918-4.571Z" transform="translate(-8092.519 -167.287)"/>
        <path id="Path_19994" data-name="Path 19994" d="M8264.606,276.322l-9.694,5.6v37.658l-7.944,4.588V286.508l-9.534,5.5v-7.618l27.173-15.689Z" transform="translate(-8092.952 -166.662)"/>
        <path id="Path_19995" data-name="Path 19995" d="M8290.482,279.543l-12.334,7.121v12l14.6-8.427v7.587l-22.513,13V265.55l22.46-12.967V260.2l-14.543,8.4v10.7l12.334-7.121Z" transform="translate(-8094.024 -166.134)"/>
        <path id="Path_19996" data-name="Path 19996" d="M8324.768,264.328a29.454,29.454,0,0,1-3.771,13.9,26.257,26.257,0,0,1-9.8,9.64q-6.653,3.839-10.193.831t-3.542-12.368v-7.618a35.75,35.75,0,0,1,3.663-16.5,25.826,25.826,0,0,1,10.179-10.929q6.409-3.7,9.735-1.485t3.783,9.694l-7.943,4.586q-.108-4.724-1.28-5.869t-4.295.661a10.131,10.131,0,0,0-4.5,5.162,26.859,26.859,0,0,0-1.4,9.25v8.552q0,6.75,1.307,8.513t4.484-.07a10.26,10.26,0,0,0,4.309-4.245,18.415,18.415,0,0,0,1.346-7.136Z" transform="translate(-8094.915 -165.689)"/>
        <path id="Path_19997" data-name="Path 19997" d="M8355.257,223.985l-9.693,5.6v37.658l-7.944,4.588V234.171l-9.535,5.5v-7.618l27.173-15.689Z" transform="translate(-8095.917 -164.95)"/>
        <path id="Path_19998" data-name="Path 19998" d="M8386.374,198.428v31.346a25.162,25.162,0,0,1-3.366,12.749,25.489,25.489,0,0,1-9.506,9.236q-6.3,3.639-9.628,1.765t-3.327-9.056V213.34l7.973-4.6V239.9q0,3.855,1.077,4.882t3.905-.607a9.072,9.072,0,0,0,3.878-3.87,14.529,14.529,0,0,0,1.076-5.988V203Z" transform="translate(-8096.979 -164.363)"/>
        <path id="Path_19999" data-name="Path 19999" d="M8405.334,216.4l-3.933,2.27v16.544l-7.917,4.57V194.5l12.63-7.291q5.95-3.437,9.2-1.75t3.246,8.249a24.264,24.264,0,0,1-5.683,15.905l6.867,14.569v.435l-8.51,4.914Zm-3.933-5.348,4.5-2.6a8.627,8.627,0,0,0,3.555-3.872,12.818,12.818,0,0,0,1.184-5.55q0-6.809-4.6-4.152l-4.633,2.674Z" transform="translate(-8098.056 -163.921)"/>
        <path id="Path_20000" data-name="Path 20000" d="M8445.28,190.172l-12.335,7.12v12l14.6-8.428v7.588l-22.514,13V176.178l22.459-12.967v7.618l-14.542,8.4v10.7l12.335-7.121Z" transform="translate(-8099.088 -163.211)"/>
        <path id="Path_20001" data-name="Path 20001" d="M8110.937,436.622l-12.308,7.107V462.2l-7.917,4.57V421.494l21.706-12.532v7.618l-13.789,7.961v11.6l12.308-7.107Z" transform="translate(-8088.152 -171.249)"/>
        <path id="Path_20002" data-name="Path 20002" d="M8145.41,416.68a34.884,34.884,0,0,1-3.73,16.3A26.436,26.436,0,0,1,8131.325,444q-6.6,3.809-10.369,1t-3.824-11.771v-7.743a36.537,36.537,0,0,1,3.744-16.73,26.29,26.29,0,0,1,10.395-11.24q6.543-3.778,10.314-.809t3.825,12.235Zm-7.945-3q0-6.127-1.507-8.24t-4.687-.281a10.856,10.856,0,0,0-4.659,5.567,26.817,26.817,0,0,0-1.562,9.655v8.054q0,5.94,1.535,7.868t4.74.078a10.828,10.828,0,0,0,4.6-5.411,25.151,25.151,0,0,0,1.536-9.422Z" transform="translate(-8089.017 -170.806)"/>
        <path id="Path_20003" data-name="Path 20003" d="M8164.118,407.944l-3.932,2.27v16.544l-7.917,4.571V386.053l12.63-7.291q5.951-3.436,9.2-1.749t3.244,8.248a24.269,24.269,0,0,1-5.682,15.905l6.867,14.57v.435l-8.509,4.913Zm-3.932-5.348,4.5-2.6a8.634,8.634,0,0,0,3.556-3.873,12.79,12.79,0,0,0,1.185-5.549q0-6.811-4.605-4.153l-4.632,2.675Z" transform="translate(-8090.167 -170.186)"/>
        <path id="Path_20004" data-name="Path 20004" d="M8224.449,389.443,8216.559,394V374.627l-11.688,6.748v19.373l-7.917,4.571V360.042l7.917-4.57v18.316l11.688-6.748V348.724l7.891-4.557Z" transform="translate(-8091.627 -169.13)"/>
        <path id="Path_20005" data-name="Path 20005" d="M8252.2,353.928l-12.333,7.121v12l14.6-8.427v7.587l-22.515,13V339.935l22.46-12.967v7.618l-14.542,8.4v10.7l12.333-7.121Z" transform="translate(-8092.772 -168.567)"/>
        <path id="Path_20006" data-name="Path 20006" d="M8278.56,349.092l-10.8,6.236-2.1,10.48-8.375,4.835,12.253-52.351,7.245-4.184,12.334,38.156-8.456,4.882Zm-9.075-2.378,7.324-4.23-3.662-14.024Z" transform="translate(-8093.601 -168.147)"/>
        <path id="Path_20007" data-name="Path 20007" d="M8301.9,337.524l13.9-8.023v7.587l-21.815,12.594V304.405l7.919-4.57Z" transform="translate(-8094.801 -167.68)"/>
        <path id="Path_20008" data-name="Path 20008" d="M8340.892,284.564l-9.694,5.6V327.82l-7.945,4.587V294.749l-9.533,5.5v-7.618l27.173-15.689Z" transform="translate(-8095.447 -166.931)"/>
        <path id="Path_20009" data-name="Path 20009" d="M8374.012,303.094l-7.891,4.556V288.277l-11.687,6.748V314.4l-7.918,4.57V273.693l7.918-4.571v18.316l11.688-6.748V262.374l7.891-4.557Z" transform="translate(-8096.52 -166.306)"/>
      </g>
      <g id="_05_STAIR_UP" data-name="05_STAIR_UP" transform="translate(1163.114 301.96)">
        <path id="Path_19953" data-name="Path 19953" d="M8983.211,350.526l58.539-33.8-13.891-8.02-58.539,33.8Z" transform="translate(-8872.085 -308.708)" fill="#fff" stroke="#000" stroke-linejoin="round" stroke-width="2.288" fill-rule="evenodd"/>
        <path id="Path_19954" data-name="Path 19954" d="M8968.851,352.726V342.578l49.75-28.723-5.1-2.946-58.54,33.8Z" transform="translate(-8871.615 -308.78)" fill="#fff" stroke="#000" stroke-linejoin="round" stroke-width="2.288" fill-rule="evenodd"/>
        <path id="Path_19955" data-name="Path 19955" d="M8954.489,354.926V344.778l49.751-28.723-5.1-2.946-58.539,33.8Z" transform="translate(-8871.146 -308.852)" fill="#fff" stroke="#000" stroke-linejoin="round" stroke-width="2.288" fill-rule="evenodd"/>
        <path id="Path_19956" data-name="Path 19956" d="M8940.129,357.127V346.979l49.751-28.723-5.1-2.946-8.788,5.074-49.751,28.724Z" transform="translate(-8870.676 -308.924)" fill="#fff" stroke="#000" stroke-linejoin="round" stroke-width="2.288" fill-rule="evenodd"/>
        <path id="Path_19957" data-name="Path 19957" d="M8925.769,359.327V349.179l49.751-28.724-5.1-2.946-8.788,5.074-49.751,28.723Z" transform="translate(-8870.206 -308.996)" fill="#fff" stroke="#000" stroke-linejoin="round" stroke-width="2.288" fill-rule="evenodd"/>
        <path id="Path_19958" data-name="Path 19958" d="M8911.408,361.528V351.379l49.751-28.723-5.1-2.946-58.539,33.8Z" transform="translate(-8869.736 -309.068)" fill="#fff" stroke="#000" stroke-linejoin="round" stroke-width="2.288" fill-rule="evenodd"/>
        <path id="Path_19959" data-name="Path 19959" d="M8946.8,324.856l-5.1-2.946-58.539,33.8,13.891,8.02V353.58Z" transform="translate(-8869.267 -309.14)" fill="#fff" stroke="#000" stroke-linejoin="round" stroke-width="2.288" fill-rule="evenodd"/>
        <path id="Path_19960" data-name="Path 19960" d="M8927.336,324.111l-58.539,33.8,13.891,8.02V355.78l49.75-28.723Z" transform="translate(-8868.797 -309.212)" fill="#fff" stroke="#000" stroke-linejoin="round" stroke-width="2.288" fill-rule="evenodd"/>
        <path id="Path_19961" data-name="Path 19961" d="M8868.8,377.992l111.126-17.027,58.539-33.8V317l-58.539,33.8-13.891-8.02v10.148l-13.892-8.02v10.148l-13.891-8.02v10.148l-13.891-8.02v10.148l-13.891-8.02v10.148l-13.891-8.02v10.148l-13.891-8.02V365.7l-13.891-8.02v10.148" transform="translate(-8868.797 -308.98)" stroke="#000" stroke-linejoin="round" stroke-width="2.288" fill-rule="evenodd"/>
      </g>
      <g id="_05_FLUR" data-name="05_FLUR" transform="translate(403.617 511.269)">
        <path id="Path_19964" data-name="Path 19964" d="M8329.849,720.476l5.711,3.3,151.148-87.266,7.723-4.458,76.511-44.174v-6.594l-76.511,44.174Z" transform="translate(-8091.671 -526.933)" stroke="#000" stroke-linejoin="round" stroke-width="2.288" fill-rule="evenodd"/>
        <path id="Path_19962" data-name="Path 19962" d="M8468.755,525.1,8083.617,747.454l127.9,73.842,144.044-83.164-33.764-19.494,241.093-139.2Z" transform="translate(-8083.617 -525.095)" fill="#fff" stroke="#000" stroke-linejoin="round" stroke-width="2.288" fill-rule="evenodd"/>
        <path id="Path_19963" data-name="Path 19963" d="M8211.515,838.668l-127.9-73.842V754.658l127.9,73.842,144.044-83.164V755.5Z" transform="translate(-8083.617 -532.299)" stroke="#000" stroke-linejoin="round" stroke-width="2.288" fill-rule="evenodd"/>
      </g>
      <g id="_05_STAIR" data-name="05_STAIR" transform="translate(531.515 712.771)">
        <path id="Path_19965" data-name="Path 19965" d="M8303.323,819.383,8324,831.323l144.044-83.164L8446.985,736l-9.99,5.768-134.055,77.4Z" transform="translate(-8218.688 -733.496)" fill="#fff" stroke="#000" stroke-linejoin="round" stroke-width="2.288" fill-rule="evenodd"/>
        <path id="Path_19966" data-name="Path 19966" d="M8236.9,817.2l134.055-77.4-11.074-6.393L8215.84,816.575l21.063,12.161Z" transform="translate(-8215.84 -733.411)" fill="#fff" stroke="#000" stroke-linejoin="round" stroke-width="2.288" fill-rule="evenodd"/>
        <path id="Path_19967" data-name="Path 19967" d="M8392.732,740.451l-11.072-6.393-144.045,83.164,21.063,12.161V817.847Z" transform="translate(-8216.552 -733.432)" fill="#fff" stroke="#000" stroke-linejoin="round" stroke-width="2.288" fill-rule="evenodd"/>
        <path id="Path_19968" data-name="Path 19968" d="M8280.453,818.494l134.055-77.4-11.073-6.393L8259.39,817.869l21.063,12.161Z" transform="translate(-8217.265 -733.453)" fill="#fff" stroke="#000" stroke-linejoin="round" stroke-width="2.288" fill-rule="evenodd"/>
        <path id="Path_19969" data-name="Path 19969" d="M8425.21,735.351l-144.045,83.164,21.063,12.161V819.141l134.055-77.4Z" transform="translate(-8217.977 -733.474)" fill="#fff" stroke="#000" stroke-linejoin="round" stroke-width="2.288" fill-rule="evenodd"/>
        <path id="Path_19970" data-name="Path 19970" d="M8215.84,838.774l105.314,3.128L8465.2,758.738V748.57l-144.045,83.164-21.062-12.161v11.535l-21.063-12.161v11.535l-21.062-12.161v11.535L8236.9,817.7v11.535l-21.063-12.161v11.535" transform="translate(-8215.84 -733.907)" stroke="#000" stroke-linejoin="round" stroke-width="2.288" fill-rule="evenodd"/>
      </g>
      <g id="_00_ELEVATOR" data-name="00_ELEVATOR" transform="translate(911.617 102.406)">
        <path id="Path_20488" data-name="Path 20488" d="M960,152.989l58.455-33.749V897.6l-58.441,33.741Z" transform="translate(-930.772 -102.994)" fill="#fff" stroke="#000" stroke-linejoin="round" stroke-width="2" fill-rule="evenodd"/>
        <path id="Path_20489" data-name="Path 20489" d="M958.941,153.6l-29.227-16.874.012,778.355,29.227,16.874Z" transform="translate(-929.714 -103.605)" fill="#fff" stroke="#000" stroke-linejoin="round" stroke-width="2" fill-rule="evenodd"/>
        <path id="Path_20490" data-name="Path 20490" d="M929.714,135.547l29.227,16.874,58.49-33.76-28.377-16.256Z" transform="translate(-929.714 -102.406)" fill="#fff" stroke="#000" stroke-linejoin="round" stroke-width="2" fill-rule="evenodd"/>
        <line id="Line_7318" data-name="Line 7318" y2="32.609" transform="translate(59.341)" fill="none" stroke="#000" stroke-linecap="round" stroke-linejoin="round" stroke-width="2"/>
        <g id="_03_ELEVATOR_DOOR" data-name="03_ELEVATOR DOOR" transform="translate(2.668 440.801)">
          <path id="Path_19686" data-name="Path 19686" d="M4772.833,619.094V558.909l23.22,13.406V632.5Z" transform="translate(-4772.833 -558.909)" fill="#fff" stroke="#000" stroke-linejoin="round" stroke-width="1" fill-rule="evenodd"/>
          <path id="Path_19687" data-name="Path 19687" d="M4784.856,626.036V565.851l11.61,6.7v60.186Z" transform="translate(-4773.247 -559.148)" fill="#fff" stroke="#000" stroke-linejoin="round" stroke-width="1" fill-rule="evenodd"/>
          <path id="Path_19688" data-name="Path 19688" d="M4772.833,619.094V558.909l11.61,6.7V625.8Z" transform="translate(-4772.833 -558.909)" fill="#fff" stroke="#000" stroke-linejoin="round" stroke-width="1" fill-rule="evenodd"/>
        </g>
      </g>
      <g id="_05_ADREIZEHN" data-name="05_ADREIZEHN" transform="translate(694.829 475.299)">
        <path id="_05_ADREIZEHN_FLOOR" data-name="05_ADREIZEHN_FLOOR" d="M8811.252,617.974l-101.98,58.878-78.885,42.8-244.82,149.321,213.186,123.139,76.718-46.209,87.887,16.914,58.59-101.482,87.886,16.914,58.591-101.482,87.886,16.914L9114.9,692.2l87.886,16.914,57.523-99.634L9036.532,487.909,8852.368,594.236Z" transform="translate(-8384.706 -487.909)" fill="#fff" fill-rule="evenodd"/>
        <g id="_05_ADREIZEHN_HATCH" data-name="05_ADREIZEHN_HATCH">
          <line id="Line_7312" data-name="Line 7312" x1="245.68" y2="148.88" transform="translate(0 231.749)" fill="none" stroke="#000" stroke-linecap="round" stroke-miterlimit="10" stroke-width="2.288"/>
          <path id="Path_19951" data-name="Path 19951" stroke="#000" d="M8868.153,594.236l184.164-106.327,167.257,90.869" fill="none" transform="translate(-8400.492 -487.909)" stroke-linecap="round" stroke-linejoin="round" stroke-width="2.288" fill-rule="evenodd"/>
          <path id="_05_ADREIZEHN_HATCH-2" data-name="05_ADREIZEHN_HATCH" d="M8675.47,950.019l-76.718,46.209L8385.566,873.09v10.168L8598.752,1006.4l76.718-46.208,87.887,16.914,58.59-101.482,87.886,16.914,58.591-101.482,87.886,16.914L9114.9,706.483l87.886,16.914,57.523-99.634V613.6l-33.78,58.511-23.743,41.123L9114.9,696.315,9056.309,797.8l-87.886-16.914-58.591,101.482-87.886-16.914-58.59,101.482L8675.47,950.02Z" transform="translate(-8384.706 -492.02)" stroke="#000" stroke-linejoin="round" stroke-width="2.288" fill-rule="evenodd"/>
        </g>
      </g>
      <g id="_05_ADREIZEHN_TEXT" data-name="05_ADREIZEHN_TEXT" transform="translate(694.829 824.079)">
        <path id="Path_20010" data-name="Path 20010" d="M8402.413,882.845l-9-5.2-1.753,6.714-6.981-4.031,10.216-31.848,6.039,3.487,10.283,43.682-7.051-4.069Zm-7.565-10.719,6.106,3.525-3.055-15.217Z" transform="translate(-8384.677 -848.483)"/>
        <path id="Path_20011" data-name="Path 20011" d="M8415.267,897.793V860.048l8.646,4.99a24.1,24.1,0,0,1,9.126,9.469,28.048,28.048,0,0,1,3.468,13.512v6.118q0,7.44-3.4,9.716t-9.373-1.172Zm6.6-27.583v25.068l1.977,1.141q3.3,1.906,4.648.675t1.414-6.119v-6.558a20.306,20.306,0,0,0-1.28-8.115,10.711,10.711,0,0,0-4.355-4.7Z" transform="translate(-8385.678 -848.861)"/>
        <path id="Path_20012" data-name="Path 20012" d="M8452.023,905.222l-3.278-1.892v13.792l-6.6-3.812V875.565l10.53,6.079a20.857,20.857,0,0,1,7.666,7.394,19.132,19.132,0,0,1,2.706,10q0,7.519-4.736,7.791l5.724,18.756v.363l-7.094-4.1Zm-3.278-8.244,3.749,2.165q1.975,1.14,2.964.194t.987-3.487q0-5.676-3.838-7.894l-3.862-2.229Z" transform="translate(-8386.557 -849.369)"/>
        <path id="Path_20013" data-name="Path 20013" d="M8485.323,921.908l-10.282-5.937v10.007L8487.21,933v6.325l-18.769-10.837V890.748l18.724,10.81v6.352l-12.124-7v8.918l10.282,5.936Z" transform="translate(-8387.417 -849.865)"/>
        <path id="Path_20014" data-name="Path 20014" d="M8498.67,945.945l-6.6-3.811V904.389l6.6,3.811Z" transform="translate(-8388.189 -850.312)"/>
        <path id="Path_20015" data-name="Path 20015" d="M8511.439,946.992l13.47,7.777V961.1l-21.193-12.236v-4.59l13.335-19.1-13.47-7.777v-6.352l21.082,12.171v4.485Z" transform="translate(-8388.566 -850.529)"/>
        <path id="Path_20016" data-name="Path 20016" d="M8546.716,957.351l-10.282-5.936v10.007l12.168,7.025v6.325l-18.77-10.837V926.191L8548.557,937v6.351l-12.123-7v8.918l10.282,5.937Z" transform="translate(-8389.425 -851.025)"/>
        <path id="Path_20017" data-name="Path 20017" d="M8576.081,990.638l-6.579-3.8V970.689l-9.742-5.625v16.15l-6.6-3.81V939.658l6.6,3.81v15.27l9.742,5.626V949.095l6.579,3.8Z" transform="translate(-8390.188 -851.465)"/>
        <path id="Path_20018" data-name="Path 20018" d="M8605.188,1007.442l-6.6-3.811-9.652-30.331v24.758l-6.6-3.811V956.5l6.6,3.811,9.677,30.369V965.9l6.577,3.8Z" transform="translate(-8391.142 -852.016)"/>
      </g>
      <g id="_05_FLUR_01" data-name="05_FLUR 01" transform="translate(824.785 596.027)">
        <path id="Path_19947" data-name="Path 19947" d="M8635.05,723.74l-106.921-61.76,67.708-39.092V612.72l118.1,68.215Z" transform="translate(-8519.326 -612.72)" fill="#fff" fill-rule="evenodd"/>
        <path id="Path_19952" data-name="Path 19952" stroke="#000" d="M8598.126,612.72l118.1,68.215,101.98-58.878" fill="none" transform="translate(-8521.613 -612.721)" stroke-linecap="round" stroke-linejoin="round" stroke-width="2.288" fill-rule="evenodd"/>
        <path id="Path_19950" data-name="Path 19950" d="M8519.027,668.556l26.26,15.161c.024,0,43.969,25.37,43.969,25.37l36.97,21.346,8.526-5.2c0-.007-45.5-26.275-45.5-26.275l-5.712-3.3-38.232-22.089-5.711-3.3-20.573-11.884Z" transform="translate(-8519.027 -614.215)" stroke="#000" stroke-linejoin="round" stroke-width="2.288" fill-rule="evenodd"/>
      </g>
      <g id="_05_COLOMUN_01" data-name="05_COLOMUN_01" transform="translate(865.043 613.897)">
        <path id="Path_19971" data-name="Path 19971" d="M8578.225,666.521l-17.578-10.148v5.074l17.578,10.148Z" transform="translate(-8560.646 -632.017)" fill="#fff" stroke="#000" stroke-linejoin="round" stroke-width="2.288" fill-rule="evenodd"/>
        <path id="Path_19972" data-name="Path 19972" d="M8602.833,631.194l-42.187,24.356,17.578,10.148,42.185-24.356Z" transform="translate(-8560.646 -631.194)" fill="#fff" stroke="#000" stroke-linejoin="round" stroke-width="2.288" fill-rule="evenodd"/>
        <path id="Path_19973" data-name="Path 19973" d="M8578.818,666.041v5.074l12.3-2.03,17.577-10.148,12.3-12.178v-5.074Z" transform="translate(-8561.241 -631.537)" fill="#fff" stroke="#000" stroke-linejoin="round" stroke-width="2.288" fill-rule="evenodd"/>
        <path id="Path_19974" data-name="Path 19974" d="M8580.831,671.518V811.884l.211.352.224.345.235.337.246.328.258.32.268.311.28.3.289.292.3.281.31.271.317.26.325.249.335.238.343.226.351.214.356.2.365.19.37.177.376.164.382.151.386.138.392.125.4.111.4.1.4.084.4.07.406.056.409.042.409.028.411.014h.411l.409-.014.41-.028.408-.042.407-.056.4-.07.4-.084.4-.1.4-.111.391-.125.387-.138.381-.151.377-.164.371-.177.363-.19.358-.2.349-.214.344-.226.334-.238.327-.249.317-.26.308-.271.3-.281.289-.292.278-.3.269-.311.258-.32.246-.328.235-.337.223-.345.212-.352V663.83l-10.357,5.98Z" transform="translate(-8561.307 -632.261)" fill="#fff" stroke="#000" stroke-linejoin="round" stroke-width="2.288" fill-rule="evenodd"/>
      </g>
      <g id="_05_COLOMUN_02" data-name="05_COLOMUN_02" transform="translate(1056.999 503.071)">
        <path id="Path_19975" data-name="Path 19975" d="M8776.671,551.948,8759.094,541.8v5.074l17.577,10.148Z" transform="translate(-8759.094 -517.444)" fill="#fff" stroke="#000" stroke-linejoin="round" stroke-width="2.288" fill-rule="evenodd"/>
        <path id="Path_19976" data-name="Path 19976" d="M8801.279,516.62l-42.186,24.356,17.577,10.148,42.186-24.356Z" transform="translate(-8759.094 -516.62)" fill="#fff" stroke="#000" stroke-linejoin="round" stroke-width="2.288" fill-rule="evenodd"/>
        <path id="Path_19977" data-name="Path 19977" d="M8777.265,551.467v5.074l12.3-2.03,17.577-10.148,12.3-12.178v-5.074Z" transform="translate(-8759.688 -516.963)" fill="#fff" stroke="#000" stroke-linejoin="round" stroke-width="2.288" fill-rule="evenodd"/>
        <path id="Path_19978" data-name="Path 19978" d="M8779.277,556.945V697.311l.212.352.223.345.235.337.247.328.258.32.268.311.279.3.289.292.3.281.309.271.317.26.326.249.335.238.343.226.351.214.357.2.363.19.37.177.377.164.382.151.386.138.392.125.395.111.4.1.4.084.4.07.406.056.408.042.41.028.411.014h.41l.41-.014.409-.028.409-.042.406-.056.405-.07.4-.084.4-.1.4-.111.391-.125.387-.138.381-.151.376-.164.371-.177.364-.19.357-.2.351-.214.343-.226.334-.238.326-.249.317-.26.309-.271.3-.281.29-.292.278-.3.269-.311.258-.32.246-.328.234-.337.224-.345.212-.352V549.256l-10.357,5.98Z" transform="translate(-8759.754 -517.688)" fill="#fff" stroke="#000" stroke-linejoin="round" stroke-width="2.288" fill-rule="evenodd"/>
      </g>
      <g id="_05_COLOMUN_03" data-name="05_COLOMUN_03" transform="translate(715.065 394.578)">
        <path id="Path_19979" data-name="Path 19979" d="M8423.174,439.786,8405.6,429.638v5.074l17.577,10.148Z" transform="translate(-8405.597 -405.282)" fill="#fff" stroke="#000" stroke-linejoin="round" stroke-width="2.288" fill-rule="evenodd"/>
        <path id="Path_19980" data-name="Path 19980" d="M8447.781,404.458,8405.6,428.814l17.577,10.148,42.186-24.356Z" transform="translate(-8405.597 -404.458)" fill="#fff" stroke="#000" stroke-linejoin="round" stroke-width="2.288" fill-rule="evenodd"/>
        <path id="Path_19981" data-name="Path 19981" d="M8423.768,439.305v5.074l12.3-2.03,17.577-10.148,12.3-12.178V414.95Z" transform="translate(-8406.191 -404.802)" fill="#fff" stroke="#000" stroke-linejoin="round" stroke-width="2.288" fill-rule="evenodd"/>
        <path id="Path_19982" data-name="Path 19982" d="M8425.78,444.783V585.149l.212.352.223.345.235.337.247.328.258.32.268.311.279.3.289.292.3.281.309.271.317.26.326.249.335.238.343.226.35.214.357.2.364.19.37.177.377.164.382.151.386.138.392.125.395.111.4.1.4.084.4.07.407.056.408.042.41.028.41.014h.411l.41-.014.409-.028.409-.042.406-.056.4-.07.4-.084.4-.1.4-.111.391-.125.387-.138.381-.151.376-.164.371-.177.364-.19.357-.2.35-.214.344-.226.334-.238.326-.249.317-.26.309-.271.3-.281.289-.292.279-.3.269-.311.258-.32.245-.328.235-.337.224-.345.211-.352V437.094l-10.356,5.98Z" transform="translate(-8406.257 -405.526)" fill="#fff" stroke="#000" stroke-linejoin="round" stroke-width="2.288" fill-rule="evenodd"/>
      </g>
      <g id="_05_FACADE_RIGHT" data-name="05_FACADE_RIGHT" transform="translate(1132.069 466.425)">
        <path id="Path_19983" data-name="Path 19983" d="M9230.42,580.216v138.77L9289.011,617.5V478.734Z" transform="translate(-8849.581 -478.734)" fill="#fff" stroke="#000" stroke-linejoin="round" stroke-width="2.288" fill-rule="evenodd"/>
        <path id="Path_19984" data-name="Path 19984" d="M9227.447,583.076l-26.411-5.083-61.475-11.831V704.819l.292.169,87.594,16.857Z" transform="translate(-8846.608 -481.594)" fill="#fff" stroke="#000" stroke-linejoin="round" stroke-width="2.288" fill-rule="evenodd"/>
        <path id="Path_19985" data-name="Path 19985" d="M9078.989,667.644v138.77l58.591-101.482V566.162L9096.6,637.147Z" transform="translate(-8844.627 -481.594)" fill="#fff" stroke="#000" stroke-linejoin="round" stroke-width="2.288" fill-rule="evenodd"/>
        <path id="Path_19986" data-name="Path 19986" d="M8988.132,653.59V792.36l87.886,16.914V670.5l-8.7-1.674Z" transform="translate(-8841.655 -484.454)" fill="#fff" stroke="#000" stroke-linejoin="round" stroke-width="2.288" fill-rule="evenodd"/>
        <path id="Path_19987" data-name="Path 19987" d="M8986.15,792.36V653.59L8927.56,755.072v138.77Z" transform="translate(-8839.674 -484.454)" fill="#fff" stroke="#000" stroke-linejoin="round" stroke-width="2.288" fill-rule="evenodd"/>
        <path id="Path_19988" data-name="Path 19988" d="M8924.588,757.932,8836.7,741.018v138.77l87.886,16.914Z" transform="translate(-8836.702 -487.313)" fill="#fff" stroke="#000" stroke-linejoin="round" stroke-width="2.288" fill-rule="evenodd"/>
      </g>
    </g>
  </g>
</svg>
