<svg xmlns="http://www.w3.org/2000/svg" width="113.418" height="181.75" viewBox="0 0 113.418 181.75"><defs><style>.a,.b{stroke:#000;stroke-linecap:round;stroke-linejoin:round;stroke-width:1.75px;}.a{fill-rule:evenodd;}.b{fill:#fff;}</style></defs><g transform="translate(0.875 0.875)"><path class="a" d="M478.293,648.828l-37.114,21.427L404.059,648.84v-8.589l37.12,21.431,37.114-21.427v8.572" transform="translate(-404.058 -554.537)"/><path class="a" d="M501.313,657.617v8.57L464.2,687.615v-8.572l37.114-21.427" transform="translate(-419.656 -559.041)"/><path class="a" d="M511.336,683.546l-37.114,21.427V696.4l37.114-21.427v8.57" transform="translate(-422.256 -563.544)"/><path class="a" d="M521.357,692.332V700.9l-37.112,21.427v-8.57l37.112-21.429" transform="translate(-424.855 -568.045)"/><path class="a" d="M531.38,718.264l-37.114,21.427v-8.572l37.114-21.427v8.572" transform="translate(-427.454 -572.548)"/><path class="a" d="M541.4,727.051v8.57L504.289,757.05v-8.572L541.4,727.051" transform="translate(-430.054 -577.05)"/><path class="a" d="M454.167,608.319v-8.572l37.122,21.433v8.57l-37.122-21.431" transform="translate(-417.054 -544.032)"/><path class="a" d="M464.193,590.96v-8.572l37.12,21.433v8.57l-37.12-21.431" transform="translate(-419.654 -539.529)"/><path class="a" d="M474.216,565.028l37.12,21.431v8.572L474.216,573.6v-8.572" transform="translate(-422.254 -535.027)"/><path class="a" d="M484.24,556.239v-8.57L521.36,569.1v8.572l-37.12-21.433" transform="translate(-424.854 -530.525)"/><path class="a" d="M494.263,530.309l37.122,21.431v8.572l-37.122-21.433v-8.57" transform="translate(-427.453 -526.022)"/><path class="b" d="M461.6,677.543l-7.422-4.285,37.114-21.427,7.422,4.285Z" transform="translate(-417.058 -557.541)"/><path class="b" d="M471.621,694.9l-7.422-4.285,37.114-21.427,7.422,4.285Z" transform="translate(-419.656 -562.042)"/><path class="b" d="M481.644,712.259l-7.422-4.285,37.114-21.427,7.421,4.285Z" transform="translate(-422.256 -566.545)"/><path class="b" d="M491.665,729.618l-7.422-4.285,37.114-21.427,7.422,4.285Z" transform="translate(-424.854 -571.047)"/><path class="b" d="M501.688,746.978l-7.422-4.285,37.114-21.427,7.422,4.285Z" transform="translate(-427.455 -575.55)"/><path class="b" d="M494.263,528.809l7.426-4.287,37.121,21.433-7.424,4.285Z" transform="translate(-427.454 -524.521)"/><path class="b" d="M484.237,546.168l7.426-4.287,37.121,21.433L521.36,567.6Z" transform="translate(-424.854 -529.023)"/><path class="b" d="M474.214,563.527l7.426-4.287,37.121,21.433-7.424,4.285Z" transform="translate(-422.254 -533.526)"/><path class="b" d="M464.19,580.89l7.426-4.287,37.121,21.433-7.424,4.285Z" transform="translate(-419.654 -538.029)"/><path class="b" d="M454.167,598.249l7.426-4.287,37.121,21.433-7.424,4.285Z" transform="translate(-417.054 -542.531)"/><path class="b" d="M404.059,632.748l37.112-21.427,37.121,21.433-37.112,21.424Z" transform="translate(-404.059 -547.034)"/></g></svg>